<svg xmlns="http://www.w3.org/2000/svg" xmlns:xlink="http://www.w3.org/1999/xlink" width="1366" zoomAndPan="magnify" viewBox="0 0 1024.5 576" height="768" preserveAspectRatio="xMidYMid meet" version="1.0"><defs><clipPath id="040513a097"><path d="M 376 10.046875 L 648 10.046875 L 648 566 L 376 566 Z M 376 10.046875 " clip-rule="nonzero"/></clipPath></defs><g clip-path="url(#040513a097)"><path fill="#FFFFFF" d="M 559.335938 553.996094 C 551.53125 550.007812 543.796875 545.835938 536.140625 541.511719 C 537.039062 540.972656 537.789062 540.121094 538.183594 538.890625 C 547.097656 511.113281 561.175781 485.964844 573.089844 459.484375 C 583.820312 435.644531 593.585938 410.359375 610.542969 390.113281 C 611.730469 388.699219 611.882812 387.125 611.40625 385.769531 C 618.121094 380.757812 624.496094 375.292969 630.488281 369.449219 C 609.285156 431.914062 586.351562 493.792969 559.335938 553.996094 Z M 529.40625 537.644531 C 525.136719 535.152344 520.882812 532.632812 516.675781 530.035156 C 522.308594 509.382812 529.8125 490.132812 540.261719 471.1875 C 551.789062 450.265625 565.8125 430.480469 582.316406 413.195312 C 586.457031 408.859375 579.492188 402.695312 575.351562 407.027344 C 558.753906 424.398438 544.820312 444.273438 532.914062 465.109375 C 522.683594 483.019531 512.296875 503.734375 507.984375 524.546875 C 500.738281 519.871094 493.605469 515.039062 486.640625 509.992188 C 495.523438 473.703125 521.089844 446.636719 543.558594 417.355469 C 543.921875 416.875 544.164062 416.382812 544.324219 415.890625 C 561.765625 412.6875 578.375 406.234375 593.691406 397.414062 C 581.832031 415.402344 573.476562 435.722656 564.691406 455.277344 C 552.597656 482.230469 536.457031 508.070312 529.492188 537.058594 C 529.441406 537.265625 529.429688 537.453125 529.40625 537.644531 Z M 478.25 503.765625 C 465.933594 494.382812 454.15625 484.359375 443.125 473.597656 C 443.753906 473.210938 444.285156 472.632812 444.621094 471.8125 C 451.144531 455.761719 459.570312 440.847656 470.207031 427.421875 C 478.492188 426.421875 486.714844 424.636719 494.738281 422.023438 C 494.746094 422.023438 494.75 422.019531 494.75 422.019531 C 480.523438 440.261719 468.539062 460.351562 462.488281 482.550781 C 461.160156 487.417969 469.101562 490.277344 470.867188 485.480469 C 476.613281 469.859375 483.378906 455.195312 492.5 441.234375 C 502.082031 426.574219 513.785156 413.292969 525.835938 400.644531 C 530.003906 396.265625 522.984375 390.058594 518.820312 394.429688 C 511.761719 401.839844 504.765625 409.601562 498.164062 417.738281 C 498.21875 417.128906 498.144531 416.503906 497.890625 415.914062 C 493.726562 406.195312 489.628906 396.441406 485.605469 386.65625 C 487.136719 388.390625 489.949219 389.019531 492.132812 386.824219 C 501.550781 377.367188 510.5 367.511719 520.414062 358.550781 C 521.394531 357.660156 521.773438 356.667969 521.753906 355.710938 C 526.882812 374.070312 532.242188 392.285156 537.636719 410.328125 C 537.300781 410.574219 536.972656 410.863281 536.671875 411.253906 C 514.96875 439.402344 486.597656 468.144531 478.25 503.765625 Z M 420.636719 449.34375 C 424.484375 441.464844 429.492188 434.324219 433.761719 426.660156 C 441.628906 427.957031 449.621094 428.507812 457.617188 428.324219 C 448.816406 440.308594 441.539062 453.492188 436.949219 467.378906 C 431.296875 461.570312 425.835938 455.578125 420.636719 449.34375 Z M 395.042969 413.503906 C 404.300781 418.5 414.136719 422.238281 424.269531 424.714844 C 420.90625 430.222656 417.085938 435.5625 414.109375 441.261719 C 407.253906 432.4375 400.871094 423.195312 395.042969 413.503906 Z M 498.953125 303.265625 C 486.164062 315.539062 476.574219 331.792969 470.511719 348.75 C 461.949219 326.394531 453.929688 303.832031 446.71875 281.023438 C 447.222656 280.78125 447.722656 280.425781 448.179688 279.921875 C 464.332031 262.167969 472.644531 239.222656 485.640625 219.335938 C 488.894531 214.359375 480.621094 210.277344 477.390625 215.203125 C 465.386719 233.523438 457.082031 253.96875 443.722656 271.390625 C 441.835938 265.207031 439.996094 259 438.234375 252.773438 C 439.164062 252.4375 439.976562 251.773438 440.460938 250.6875 C 445.769531 238.773438 451.101562 227.074219 457.980469 215.960938 C 464.433594 205.535156 473.164062 192.8125 484.988281 188.066406 C 485.679688 187.792969 486.230469 187.40625 486.667969 186.957031 C 488.820312 206.699219 491.84375 226.40625 495.511719 246.03125 C 480.1875 262.769531 464.367188 283.222656 458.398438 305.453125 C 457.117188 310.222656 464.765625 312.96875 466.597656 308.316406 C 473.960938 289.554688 484.695312 272.6875 497.726562 257.457031 C 504.21875 289.9375 512.398438 322.171875 521.265625 353.992188 C 519.964844 351.707031 516.398438 350.347656 513.78125 352.675781 C 503.867188 361.480469 493.855469 370.625 485.550781 380.996094 C 484.761719 381.980469 484.472656 383.007812 484.511719 383.972656 C 481.523438 376.675781 478.570312 369.371094 475.679688 362.035156 C 483.167969 342.722656 490.621094 324.148438 505.933594 309.445312 C 510.273438 305.285156 503.269531 299.125 498.953125 303.265625 Z M 428.257812 214.113281 C 417.460938 167.644531 410.929688 118.894531 414.640625 71.058594 C 415.304688 70.691406 415.914062 70.15625 416.390625 69.375 C 426.652344 52.605469 437.25 35.605469 452.542969 22.902344 C 453.019531 22.5 453.378906 22.046875 453.648438 21.574219 C 458.832031 21.140625 464.019531 20.902344 469.203125 20.882812 C 451.464844 40.542969 432.695312 59.527344 417.503906 81.230469 C 414.304688 85.796875 420.527344 91.679688 424.140625 87.109375 C 442.164062 64.308594 461.972656 43.160156 481.019531 21.25 C 485.199219 21.53125 489.367188 21.957031 493.511719 22.589844 C 493.027344 24.765625 492.566406 26.941406 492.121094 29.117188 C 492.339844 25.132812 487.230469 21.648438 484.375 25.597656 C 465.261719 52.015625 443.234375 76.304688 424.808594 103.222656 C 421.648438 107.839844 427.933594 113.792969 431.484375 109.132812 C 451.242188 83.207031 472.136719 58.089844 491.210938 31.648438 C 491.535156 31.199219 491.738281 30.742188 491.890625 30.28125 C 487.652344 51.242188 485.070312 72.269531 483.847656 93.320312 C 463.953125 119.957031 444.261719 147.71875 431.554688 178.625 C 429.433594 183.792969 437.011719 187.746094 439.390625 182.550781 C 451.222656 156.695312 466.558594 132.742188 483.167969 109.738281 C 482.941406 118.773438 482.972656 127.816406 483.210938 136.847656 C 467.84375 157.382812 453.257812 178.445312 437.367188 198.59375 C 433.832031 203.074219 440.171875 208.816406 444.042969 204.503906 C 458.785156 188.09375 470.988281 169.554688 483.789062 151.5625 C 484.28125 160.941406 485.007812 170.316406 485.921875 179.683594 C 484.957031 179.03125 483.695312 178.8125 482.226562 179.398438 C 469.441406 184.496094 460.238281 195.964844 452.769531 207.089844 C 445.859375 217.390625 439.355469 228.597656 434.808594 240.324219 C 432.488281 231.625 430.300781 222.890625 428.257812 214.113281 Z M 421.347656 26.371094 C 427.125 25.183594 432.960938 24.136719 438.828125 23.28125 C 430.445312 31.457031 423.128906 40.980469 416.828125 50.957031 C 417.992188 42.714844 419.484375 34.515625 421.347656 26.371094 Z M 638.894531 345.574219 C 615.679688 374.273438 583.101562 397.9375 546.503906 405.511719 C 520.765625 319.324219 495.816406 229.175781 493.117188 138.800781 C 493.179688 138.71875 493.242188 138.632812 493.304688 138.550781 C 494.910156 136.425781 494.363281 134.011719 492.960938 132.449219 C 492.277344 94.769531 495.539062 57.0625 504.316406 19.601562 C 504.925781 17.011719 503.101562 14.234375 500.5 13.738281 C 494.726562 12.640625 488.902344 11.910156 483.050781 11.480469 C 481.636719 10.382812 479.6875 10.035156 478.019531 11.175781 C 459.480469 10.347656 440.730469 12.460938 422.484375 16.128906 C 420.597656 13.429688 415.308594 13.417969 414.199219 17.65625 C 414.175781 17.746094 414.15625 17.835938 414.132812 17.929688 C 410.964844 18.648438 407.808594 19.398438 404.683594 20.191406 C 398.59375 21.734375 401.613281 30.890625 407.628906 29.4375 C 408.945312 29.117188 410.273438 28.8125 411.601562 28.5 C 398.28125 89.078125 404.988281 152.472656 418.28125 212.511719 C 433.65625 281.933594 458.980469 348.929688 486.6875 414.269531 C 484.578125 414.847656 482.457031 415.367188 480.324219 415.832031 C 480.835938 415.300781 481.335938 414.761719 481.855469 414.238281 C 486.054688 409.972656 479.089844 403.824219 474.898438 408.082031 C 471.753906 411.277344 468.6875 414.621094 465.726562 418.089844 C 436.980469 420.769531 407.613281 413.1875 384.507812 395.027344 C 379.976562 391.464844 374.71875 396.507812 377.171875 401.371094 C 386.378906 419.652344 397.484375 436.480469 410.054688 452.03125 C 409.976562 454.160156 411.640625 455.746094 413.546875 456.269531 C 431.929688 478.203125 453.261719 497.523438 476.367188 514.6875 C 476.238281 515.878906 476.121094 517.070312 476.039062 518.277344 C 475.730469 522.773438 482.25 523.707031 484.269531 520.417969 C 491.53125 525.578125 498.964844 530.507812 506.503906 535.277344 C 506.9375 538.25 509.96875 539.753906 512.378906 538.964844 C 527.726562 548.394531 543.53125 557.078125 559.511719 565.109375 C 561.828125 566.273438 564.984375 565.347656 566.085938 562.914062 C 597.488281 493.59375 623.363281 422.023438 647.410156 349.863281 C 648.996094 345.097656 641.863281 341.90625 638.894531 345.574219 " fill-opacity="1" fill-rule="nonzero"/></g></svg>