<svg xmlns="http://www.w3.org/2000/svg" xmlns:xlink="http://www.w3.org/1999/xlink" width="200" zoomAndPan="magnify" viewBox="0 0 150 149.999998" height="200" preserveAspectRatio="xMidYMid meet" version="1.0"><defs><clipPath id="55e26120c7"><path d="M 8.171875 0 L 141.671875 0 L 141.671875 150 L 8.171875 150 Z M 8.171875 0 " clip-rule="nonzero"/></clipPath></defs><g clip-path="url(#55e26120c7)"><path fill="#c86b46" d="M 47.953125 0.488281 C 46.574219 0.878906 45.195312 1.613281 44.402344 2.382812 L 43.6875 3.078125 L 42.996094 2.574219 C 42.601562 2.289062 41.714844 1.933594 40.933594 1.75 C 39.78125 1.480469 39.359375 1.460938 38.257812 1.632812 C 36.742188 1.867188 34.265625 2.980469 32.796875 4.089844 C 31.304688 5.214844 29.605469 7.691406 29.054688 9.550781 C 28.828125 10.320312 28.8125 10.332031 27.992188 10.332031 C 25.8125 10.332031 23.53125 11.050781 21.996094 12.222656 C 18.949219 14.550781 18.300781 15.738281 18.125 19.34375 C 18.074219 20.398438 18.015625 20.550781 17.628906 20.703125 C 15.78125 21.429688 14.941406 22.101562 13.699219 23.851562 C 12.585938 25.425781 12.019531 26.628906 11.558594 28.398438 C 11.085938 30.21875 11.167969 32.242188 11.753906 33.371094 C 12.089844 34.011719 12.089844 34.066406 11.800781 34.164062 C 11.628906 34.222656 11.226562 34.664062 10.914062 35.140625 C 8.9375 38.152344 8.167969 40.929688 8.175781 45.03125 C 8.175781 46.691406 8.242188 47.164062 8.527344 47.640625 C 9.167969 48.707031 10.355469 48.980469 11.585938 48.34375 C 12.171875 48.039062 12.152344 48.078125 11.234375 49.105469 C 9.761719 50.753906 8.640625 53.367188 8.632812 55.15625 C 8.632812 56.042969 9.019531 57.898438 9.511719 59.339844 C 10.074219 61.003906 11.800781 62.878906 13.695312 63.890625 C 14.371094 64.25 14.601562 64.476562 14.570312 64.742188 C 14.542969 64.9375 14.429688 65.785156 14.3125 66.625 C 13.890625 69.714844 14.871094 72.59375 17.085938 74.765625 L 18.308594 75.960938 L 18.074219 76.65625 C 17.949219 77.039062 17.828125 77.757812 17.8125 78.253906 C 17.785156 79.023438 17.71875 79.171875 17.367188 79.261719 C 17.140625 79.316406 16.691406 79.78125 16.359375 80.292969 C 15.085938 82.28125 15.011719 84.914062 16.164062 87.28125 L 16.65625 88.296875 L 15.957031 89.214844 C 14.234375 91.488281 13.644531 94.605469 14.359375 97.667969 C 14.550781 98.488281 14.847656 99.488281 15.019531 99.894531 C 15.386719 100.773438 16.128906 101.824219 16.378906 101.824219 C 16.804688 101.824219 16.71875 101.21875 16.121094 99.953125 C 15.566406 98.777344 15.386719 98.078125 14.976562 95.5 C 14.878906 94.878906 15.175781 92.769531 15.476562 91.976562 C 15.933594 90.769531 16.945312 89.308594 17.398438 89.191406 C 18.5 88.917969 19.367188 90.71875 20.230469 95.074219 C 20.546875 96.679688 20.96875 98.363281 21.164062 98.820312 C 21.359375 99.273438 21.519531 99.703125 21.519531 99.769531 C 21.519531 99.835938 21.164062 99.910156 20.734375 99.929688 C 20.304688 99.953125 19.746094 99.992188 19.496094 100.023438 C 19.101562 100.070312 18.949219 99.917969 18.445312 98.972656 C 18.117188 98.363281 17.679688 97.121094 17.472656 96.210938 C 16.703125 92.875 16.679688 92.804688 16.339844 92.804688 C 16.164062 92.804688 15.984375 92.867188 15.941406 92.945312 C 15.8125 93.175781 16.859375 98.140625 17.210938 98.953125 C 17.390625 99.367188 17.742188 99.9375 17.996094 100.214844 L 18.457031 100.71875 L 17.332031 101.734375 C 16 102.941406 15.203125 104.429688 14.878906 106.320312 C 14.492188 108.5625 14.785156 110.414062 15.875 112.683594 C 16.28125 113.527344 17.464844 114.875 18.097656 115.21875 C 18.433594 115.398438 18.417969 115.449219 17.820312 116.148438 C 16.835938 117.296875 16.5 118.441406 16.625 120.226562 C 16.882812 123.925781 18.121094 126.957031 20.238281 129.078125 C 21.695312 130.539062 24.734375 132.703125 26.003906 133.179688 C 26.277344 133.285156 26.324219 133.429688 26.230469 133.90625 C 25.945312 135.347656 25.910156 136.472656 26.121094 137.347656 C 26.605469 139.378906 29.339844 142.617188 31.339844 143.535156 C 32.886719 144.242188 35.453125 144.386719 37.902344 143.902344 L 38.546875 143.773438 L 38.484375 145.023438 C 38.402344 146.652344 38.664062 147.464844 39.613281 148.511719 C 41.316406 150.386719 42.675781 150.914062 45.335938 150.726562 C 47.46875 150.578125 48.84375 150.226562 50.605469 149.382812 C 51.363281 149.019531 52.402344 148.535156 52.90625 148.300781 C 53.839844 147.875 58.191406 146.375 58.5 146.375 C 58.589844 146.375 58.722656 146.683594 58.792969 147.0625 C 59.085938 148.628906 59.730469 149.136719 62.386719 149.902344 C 66.183594 150.992188 69.222656 150.210938 73.105469 147.152344 C 74.578125 145.988281 78.042969 143.632812 78.773438 143.300781 C 79.628906 142.910156 79.785156 142.929688 80.480469 143.554688 C 81.214844 144.210938 83.054688 145.132812 84.066406 145.355469 C 85.898438 145.753906 87.503906 145.5625 89.375 144.722656 C 91.011719 143.984375 92.210938 143.121094 94.316406 141.160156 L 96.195312 139.414062 L 96.976562 139.941406 C 98.46875 140.941406 100.414062 141.019531 103.625 140.203125 C 106.316406 139.519531 108.929688 137.351562 110.273438 134.691406 C 110.882812 133.484375 111.402344 132.644531 112.035156 131.847656 C 112.070312 131.804688 112.324219 131.980469 112.601562 132.238281 C 114.222656 133.757812 116.109375 133.664062 119.296875 131.902344 C 121.347656 130.769531 122.050781 130.1875 122.925781 128.90625 C 124.179688 127.070312 125.523438 124.023438 125.597656 122.847656 C 125.617188 122.515625 125.703125 122.449219 125.992188 122.539062 C 127.019531 122.851562 128.644531 122.847656 129.601562 122.535156 C 132.65625 121.535156 135.207031 119.367188 136.109375 117.007812 C 136.414062 116.210938 136.429688 115.941406 136.242188 114.449219 C 136.125 113.53125 135.980469 112.015625 135.917969 111.082031 C 135.808594 109.457031 135.585938 108.878906 135.179688 109.152344 C 135.058594 109.234375 134.996094 110.765625 135.003906 113.34375 L 135.011719 117.402344 L 134.300781 118.335938 C 133.476562 119.421875 132.195312 120.445312 131.039062 120.953125 C 130.089844 121.371094 128.175781 121.769531 127.574219 121.679688 C 127.132812 121.613281 127.269531 121.492188 129.582031 119.898438 C 131.976562 118.246094 133.023438 116.074219 133.183594 112.433594 C 133.234375 111.222656 133.316406 110.171875 133.363281 110.097656 C 133.523438 109.839844 133.226562 109.375 132.898438 109.375 C 132.542969 109.375 132.351562 109.863281 132.347656 110.777344 C 132.339844 111.941406 131.761719 114.628906 131.261719 115.824219 C 130.539062 117.542969 129.9375 118.253906 127.980469 119.722656 C 127.042969 120.421875 126.226562 121.074219 126.167969 121.167969 C 125.996094 121.449219 125.296875 121.363281 124.667969 120.980469 C 123.960938 120.546875 123.691406 119.734375 123.691406 117.996094 L 123.691406 116.769531 L 125.542969 115.0625 C 128.429688 112.398438 129.824219 110.273438 130.339844 107.765625 C 130.546875 106.753906 130.609375 106.648438 130.859375 106.867188 C 131.511719 107.433594 132.953125 108.085938 133.550781 108.085938 C 133.90625 108.085938 134.480469 107.964844 134.828125 107.820312 C 135.699219 107.457031 137.011719 106.09375 137.589844 104.953125 C 138.109375 103.929688 138.601562 101.738281 138.601562 100.457031 C 138.601562 99.347656 137.957031 97.613281 137.289062 96.921875 L 136.722656 96.335938 L 137.179688 96.039062 C 138.285156 95.3125 139.492188 91.8125 139.25 90.042969 C 139.046875 88.558594 138.390625 87.246094 137.066406 85.660156 C 135.792969 84.140625 135.308594 83.765625 134.300781 83.523438 C 133.804688 83.40625 133.777344 83.351562 133.886719 82.71875 C 134.25 80.605469 134.390625 79.046875 134.550781 75.316406 C 134.648438 73.039062 134.820312 70.015625 134.933594 68.597656 C 135.046875 67.179688 135.09375 64.652344 135.039062 62.980469 C 134.984375 61.3125 135.003906 59.558594 135.082031 59.089844 C 135.332031 57.574219 134.78125 56.230469 132.816406 53.601562 C 132.40625 53.046875 131.921875 52.445312 131.746094 52.265625 C 131.566406 52.085938 131.421875 51.730469 131.421875 51.476562 L 131.421875 51.011719 L 131.996094 51.519531 C 132.75 52.1875 134.035156 53.863281 134.511719 54.800781 C 135.015625 55.792969 136.261719 56.90625 136.863281 56.90625 C 137.914062 56.90625 138.691406 56.203125 139.867188 54.191406 C 141.042969 52.1875 141.261719 49.792969 140.53125 46.925781 C 140.175781 45.527344 139.121094 43.378906 138.554688 42.894531 L 138.140625 42.542969 L 138.695312 42.671875 C 139.527344 42.871094 140.589844 42.808594 140.914062 42.539062 C 141.464844 42.082031 141.785156 41.011719 141.796875 39.601562 C 141.816406 37.746094 141.269531 36.65625 139.183594 34.40625 C 138.308594 33.457031 137.105469 32.128906 136.515625 31.449219 C 135.746094 30.570312 135.121094 30.0625 134.304688 29.660156 C 133.355469 29.195312 133.09375 28.957031 132.722656 28.230469 C 130.578125 24.050781 128.5625 22.449219 125.164062 22.226562 C 123.703125 22.132812 122.011719 21.957031 121.378906 21.832031 C 121.109375 21.777344 120.910156 21.480469 120.6875 20.785156 C 120.289062 19.53125 118.808594 17.839844 117.566406 17.207031 C 116.800781 16.820312 116.472656 16.757812 115.699219 16.84375 C 115.019531 16.921875 114.445312 16.84375 113.59375 16.5625 C 112.851562 16.320312 112.164062 16.214844 111.722656 16.273438 C 111.335938 16.324219 109.738281 16.996094 108.167969 17.765625 C 106.601562 18.539062 105.191406 19.167969 105.039062 19.167969 C 104.882812 19.167969 104.222656 18.441406 103.570312 17.558594 C 102.273438 15.800781 101.355469 14.785156 100.21875 13.851562 L 99.484375 13.242188 L 100.125 13.375 C 101.421875 13.632812 103.03125 14.585938 104.527344 15.972656 C 105.476562 16.855469 106.125 17.324219 106.296875 17.257812 C 106.777344 17.074219 106.59375 16.671875 105.605469 15.707031 C 103.71875 13.875 102.1875 12.949219 99.9375 12.28125 C 97.835938 11.65625 94.53125 12.070312 92.777344 13.175781 L 92.117188 13.589844 L 90.6875 12.515625 C 88.722656 11.03125 87.429688 10.515625 85.726562 10.519531 C 84.40625 10.523438 83.039062 10.933594 82.742188 11.417969 C 82.671875 11.527344 82.53125 11.621094 82.429688 11.621094 C 82.328125 11.621094 82.496094 11.175781 82.808594 10.632812 C 84.242188 8.125 82.996094 5.207031 79.804688 3.605469 C 78.597656 2.996094 78.46875 2.972656 77.003906 3.050781 C 75.644531 3.125 73.640625 3.652344 72.097656 4.335938 C 71.867188 4.441406 71.777344 4.398438 71.777344 4.183594 C 71.777344 3.835938 70.527344 2.582031 69.476562 1.875 C 67.519531 0.558594 64.800781 0.015625 61.988281 0.375 C 58.636719 0.800781 56.976562 1.605469 56.101562 3.222656 C 55.671875 4.019531 55.601562 4.078125 55.492188 3.726562 C 55.128906 2.585938 51.921875 2.128906 48.210938 2.683594 C 47.25 2.828125 46.257812 3 46.003906 3.070312 C 45.554688 3.1875 45.558594 3.175781 46.09375 2.722656 C 47.605469 1.441406 49.503906 0.914062 51.8125 1.136719 C 53.492188 1.296875 54.453125 1.578125 55.289062 2.140625 C 56.007812 2.632812 56.3125 2.609375 56.3125 2.066406 C 56.3125 1.582031 55.769531 1.167969 54.542969 0.71875 C 53.175781 0.214844 49.386719 0.0859375 47.953125 0.488281 M 62.019531 1.304688 C 61.417969 1.421875 61.40625 1.4375 61.835938 1.542969 C 62.089844 1.605469 62.625 1.710938 63.03125 1.773438 C 63.945312 1.921875 66.847656 2.886719 67.746094 3.347656 C 68.882812 3.925781 69.847656 5.335938 69.410156 5.777344 C 69.273438 5.914062 68.980469 5.734375 68.425781 5.175781 C 67.453125 4.199219 65.503906 3.277344 63.769531 2.972656 C 62.464844 2.746094 61.808594 2.582031 60.429688 2.140625 C 59.742188 1.917969 59.609375 1.929688 59.050781 2.265625 C 57.507812 3.1875 56.496094 4.617188 56.496094 5.875 C 56.496094 7.746094 59.296875 9.386719 62.527344 9.402344 C 63.160156 9.40625 63.675781 9.34375 63.675781 9.261719 C 63.675781 9.175781 63.382812 8.765625 63.027344 8.351562 C 62.179688 7.359375 60.757812 6.671875 59.347656 6.570312 C 58.453125 6.507812 58.246094 6.433594 58.246094 6.171875 C 58.246094 5.257812 60.75 5.546875 62.59375 6.679688 C 63.664062 7.335938 64.597656 8.242188 64.597656 8.628906 C 64.597656 8.980469 65.015625 9.085938 65.578125 8.871094 C 67.3125 8.210938 64.453125 5.394531 60.875 4.242188 C 59.929688 3.941406 59.625 3.761719 59.667969 3.539062 C 59.714844 3.316406 59.941406 3.246094 60.589844 3.253906 C 62.644531 3.28125 66.605469 6.027344 66.90625 7.636719 C 66.972656 8.003906 67.058594 8.304688 67.09375 8.304688 C 67.132812 8.304688 67.597656 8.140625 68.132812 7.933594 C 69.003906 7.601562 70.121094 6.832031 70.121094 6.566406 C 70.121094 6.511719 70.292969 6.289062 70.507812 6.078125 C 71.132812 5.453125 70.867188 4.703125 69.617188 3.5625 C 69.03125 3.03125 68.265625 2.441406 67.910156 2.253906 C 66.367188 1.445312 63.613281 1 62.019531 1.304688 M 38.382812 2.617188 C 36.144531 2.945312 33.589844 4.28125 32.210938 5.851562 C 31.417969 6.75 30.339844 8.859375 29.984375 10.203125 C 29.707031 11.246094 29.890625 11.730469 30.824219 12.441406 L 31.410156 12.890625 L 31.925781 11.949219 C 33.019531 9.9375 34.859375 8.40625 37.992188 6.898438 C 39.507812 6.171875 40.53125 5.808594 41.613281 5.621094 C 42.441406 5.476562 43.136719 5.335938 43.15625 5.3125 C 43.175781 5.289062 43.238281 5.011719 43.296875 4.695312 C 43.464844 3.816406 42.789062 3.238281 40.867188 2.617188 C 40.167969 2.390625 39.9375 2.390625 38.382812 2.617188 M 46.386719 3.886719 C 44.800781 4.316406 44.347656 4.65625 44.347656 5.410156 C 44.347656 5.890625 44.398438 5.941406 44.761719 5.835938 C 47.789062 4.960938 48.152344 4.902344 50.699219 4.902344 C 53.195312 4.902344 54.101562 5.070312 54.101562 5.542969 C 54.101562 5.929688 53.308594 6.058594 50.328125 6.15625 C 47.378906 6.25 46.09375 6.460938 44.507812 7.101562 C 44.222656 7.21875 43.898438 8.398438 44.074219 8.679688 C 44.195312 8.878906 45.929688 8.515625 47.28125 8.003906 C 50.441406 6.8125 52.367188 6.375 54.878906 6.285156 C 54.949219 6.285156 55.101562 5.945312 55.210938 5.53125 C 55.320312 5.121094 55.457031 4.671875 55.507812 4.535156 C 55.574219 4.359375 55.496094 4.3125 55.246094 4.378906 C 55.046875 4.429688 54.316406 4.292969 53.621094 4.074219 C 51.734375 3.480469 48.226562 3.386719 46.386719 3.886719 M 38.640625 3.988281 C 36.664062 4.414062 34.546875 5.582031 33.023438 7.085938 C 31.652344 8.441406 30.992188 9.4375 31.164062 9.886719 C 31.316406 10.289062 31.746094 10.195312 31.964844 9.714844 C 32.285156 9.011719 34.175781 7.078125 35.039062 6.570312 C 36.226562 5.875 38.917969 5.039062 40.386719 4.90625 C 42.183594 4.742188 42.503906 4.65625 42.503906 4.339844 C 42.503906 3.695312 40.753906 3.535156 38.640625 3.988281 M 78.070312 4.371094 C 78.734375 4.890625 79.28125 5.890625 80.226562 8.3125 C 80.445312 8.871094 80.792969 9.609375 81.003906 9.957031 L 81.382812 10.582031 L 81.828125 9.707031 C 82.355469 8.664062 82.378906 7.921875 81.921875 6.914062 C 81.371094 5.703125 79.515625 4.328125 77.945312 3.964844 L 77.390625 3.839844 L 78.070312 4.371094 M 75.019531 4.601562 L 74.300781 4.917969 L 74.769531 5.222656 C 76.09375 6.089844 76.640625 7 77.863281 10.378906 C 78.074219 10.964844 78.457031 11.6875 78.710938 11.988281 C 79.140625 12.503906 79.246094 12.535156 80.328125 12.492188 C 81.484375 12.449219 81.488281 12.445312 81.316406 11.988281 C 81.21875 11.734375 80.992188 11.363281 80.8125 11.160156 C 80.113281 10.378906 79.371094 9.085938 78.957031 7.9375 C 78.300781 6.113281 77.71875 5.222656 76.847656 4.710938 C 75.945312 4.183594 75.957031 4.183594 75.019531 4.601562 M 72.578125 5.378906 C 71.660156 5.644531 71.644531 6.445312 72.535156 7.925781 C 72.929688 8.578125 73.25 9.195312 73.25 9.300781 C 73.25 9.402344 73.550781 10.128906 73.917969 10.914062 C 74.554688 12.273438 74.632812 12.359375 75.4375 12.613281 C 76.4375 12.933594 77.621094 13.097656 77.96875 12.964844 C 78.144531 12.898438 78.015625 12.59375 77.507812 11.886719 C 77.121094 11.34375 76.664062 10.421875 76.492188 9.835938 C 75.984375 8.085938 75.285156 6.871094 74.28125 5.996094 C 73.769531 5.542969 73.304688 5.183594 73.253906 5.191406 C 73.199219 5.203125 72.898438 5.285156 72.578125 5.378906 M 42.414062 6.40625 C 41.171875 6.683594 38.261719 7.664062 37.71875 7.988281 C 36.703125 8.59375 34.191406 10.765625 33.492188 11.648438 C 33.140625 12.085938 32.789062 12.476562 32.710938 12.507812 C 32.628906 12.542969 32.5625 12.660156 32.5625 12.769531 C 32.5625 12.882812 32.4375 13.109375 32.285156 13.28125 C 32.128906 13.453125 32.054688 13.726562 32.117188 13.890625 C 32.214844 14.144531 32.351562 14.097656 32.996094 13.578125 C 35.449219 11.609375 38.585938 9.996094 41.609375 9.15625 C 42.378906 8.941406 43.023438 8.703125 43.035156 8.628906 C 43.121094 8.105469 43.03125 6.285156 42.917969 6.300781 C 42.84375 6.3125 42.617188 6.359375 42.414062 6.40625 M 52.539062 7.601562 C 51.25 7.957031 49.824219 8.449219 47.753906 9.246094 C 46.890625 9.582031 46.246094 9.679688 44.804688 9.699219 C 42.988281 9.722656 41.574219 9.980469 40.667969 10.453125 C 40.414062 10.585938 40.144531 10.699219 40.070312 10.699219 C 39.996094 10.699219 39.210938 11.054688 38.320312 11.484375 C 36.585938 12.332031 35.273438 13.234375 33.667969 14.691406 C 33.109375 15.195312 31.75 16.222656 30.640625 16.972656 C 28.4375 18.464844 26.644531 20.105469 25.867188 21.335938 C 24.722656 23.15625 24.617188 23.484375 24.550781 25.488281 C 24.40625 29.765625 22.945312 32.46875 19.039062 35.714844 C 18.539062 36.132812 18.527344 36.167969 18.851562 36.402344 C 19.175781 36.644531 19.175781 36.714844 18.800781 38.726562 C 18.585938 39.867188 18.371094 41.667969 18.316406 42.730469 L 18.21875 44.664062 L 18.554688 43.921875 C 18.851562 43.273438 19.5 40.6875 20.269531 37.117188 C 20.460938 36.222656 20.582031 36 20.898438 35.957031 C 21.542969 35.863281 21.558594 36.597656 20.96875 39.527344 C 20.121094 43.734375 19.328125 45.734375 18.164062 46.605469 C 18.085938 46.664062 18.460938 46.996094 18.992188 47.351562 C 20.242188 48.1875 21.007812 49.351562 21.488281 51.136719 C 22.0625 53.269531 22.144531 53.894531 22.085938 55.617188 C 22.058594 56.480469 22.019531 57.878906 22.007812 58.730469 L 21.980469 60.28125 L 22.808594 60.558594 C 25.148438 61.335938 27.65625 65.75 28.324219 70.253906 C 28.441406 71.0625 28.632812 72.0625 28.742188 72.476562 C 28.9375 73.210938 28.972656 73.234375 30.488281 73.75 C 32.3125 74.371094 32.789062 74.765625 33.902344 76.605469 C 34.859375 78.183594 36.597656 82.933594 36.675781 84.179688 C 36.691406 84.433594 36.769531 84.449219 37.160156 84.28125 C 37.433594 84.167969 38.859375 84.085938 40.574219 84.089844 C 43.269531 84.09375 43.71875 84.144531 45.910156 84.695312 C 48.664062 85.382812 51.707031 86.378906 52.363281 86.8125 C 52.804688 87.101562 52.957031 87.542969 52.671875 87.71875 C 52.59375 87.765625 51.328125 87.449219 49.859375 87.011719 C 46.8125 86.101562 43.554688 85.527344 42.4375 85.707031 C 40.492188 86.019531 37.398438 87.898438 34.796875 90.351562 C 32.816406 92.214844 32.605469 92.367188 32.335938 92.097656 C 32.019531 91.78125 32.488281 90.933594 33.539062 89.910156 C 34.394531 89.082031 37.851562 86.617188 39.152344 85.910156 C 39.632812 85.652344 39.601562 85.640625 38.363281 85.640625 C 35.660156 85.636719 33.976562 86.300781 32.699219 87.867188 C 31.382812 89.480469 30.871094 91.140625 31.257812 92.542969 C 31.617188 93.832031 31.703125 93.863281 32.59375 93.03125 C 34.863281 90.902344 37.351562 89.605469 41.308594 88.488281 C 44.351562 87.628906 45.382812 87.464844 47.738281 87.46875 C 50.257812 87.46875 51.203125 87.691406 51.125 88.257812 C 51.070312 88.617188 50.980469 88.648438 50.238281 88.566406 C 47.742188 88.300781 42.894531 88.867188 40.757812 89.675781 C 39.429688 90.175781 37.167969 91.261719 36.09375 91.910156 C 34.667969 92.773438 32.222656 94.671875 32.214844 94.921875 C 32.199219 95.203125 33.464844 96.859375 33.78125 96.980469 C 33.953125 97.046875 34.328125 96.839844 34.742188 96.449219 C 36.023438 95.234375 38.039062 93.726562 39.304688 93.03125 C 42.839844 91.089844 50.789062 88.945312 50.789062 89.929688 C 50.789062 90.359375 50.382812 90.539062 48.925781 90.75 C 47.285156 90.988281 44.683594 91.800781 43.242188 92.523438 C 42.683594 92.800781 41.195312 93.714844 39.929688 94.554688 C 38.664062 95.390625 37.011719 96.457031 36.261719 96.917969 C 34.980469 97.710938 34.925781 97.773438 35.339844 97.929688 C 36.074219 98.203125 38.414062 98.316406 39.550781 98.132812 C 42.535156 97.652344 44.664062 96.457031 48.996094 92.828125 C 49.578125 92.339844 50.394531 91.839844 50.804688 91.71875 C 51.457031 91.523438 51.613281 91.367188 51.980469 90.539062 C 52.550781 89.253906 54.460938 86.410156 55.230469 85.6875 C 56.378906 84.617188 58.847656 83.835938 62.753906 83.3125 C 66.09375 82.867188 69.773438 83.09375 72.121094 83.890625 C 73.65625 84.410156 73.875 84.65625 73.386719 85.3125 C 73.175781 85.597656 73.113281 85.601562 72.605469 85.332031 C 71.691406 84.851562 68.859375 84.308594 66.898438 84.234375 C 64.820312 84.160156 61.328125 84.535156 59.8125 84.992188 C 58.175781 85.488281 56.429688 86.460938 55.367188 87.46875 L 54.378906 88.410156 L 57.691406 88.320312 C 60.296875 88.253906 61.5 88.132812 63.308594 87.757812 C 66.015625 87.191406 67.859375 86.710938 69.035156 86.257812 C 70.425781 85.726562 71.054688 86.25 69.796875 86.890625 C 68.921875 87.335938 65.21875 88.464844 63.769531 88.722656 C 62.160156 89.011719 57.429688 89.476562 55.320312 89.550781 C 53.523438 89.617188 53.496094 89.625 53.21875 90.152344 C 52.738281 91.0625 51.710938 94.511719 51.710938 95.203125 C 51.710938 95.8125 52.457031 97.277344 53.054688 97.847656 C 53.914062 98.664062 56.699219 98.761719 59.097656 98.0625 C 60.445312 97.671875 62.753906 96.765625 62.753906 96.628906 C 62.753906 96.601562 62.074219 96.578125 61.238281 96.578125 C 58.238281 96.578125 54.855469 96.167969 53.46875 95.636719 C 53.207031 95.535156 53.074219 95 53.265625 94.808594 C 53.308594 94.765625 54.078125 94.785156 54.96875 94.855469 C 55.859375 94.925781 57.292969 95.039062 58.152344 95.101562 C 59.769531 95.222656 64.066406 94.949219 65.464844 94.636719 C 65.898438 94.539062 66.980469 94.058594 67.867188 93.566406 C 68.75 93.074219 70.097656 92.410156 70.855469 92.085938 C 72.160156 91.527344 73.078125 91.117188 73.222656 91.027344 C 73.257812 91.007812 73.144531 90.558594 72.96875 90.035156 C 72.566406 88.824219 72.671875 87.6875 73.3125 86.34375 C 73.972656 84.957031 75 83.988281 76.804688 83.050781 C 79.855469 81.46875 82.832031 80.8125 87.148438 80.773438 C 88.667969 80.757812 90.328125 80.808594 90.835938 80.886719 L 91.765625 81.027344 L 92.441406 79.78125 C 93.539062 77.769531 94.390625 76.820312 96.21875 75.566406 C 97.160156 74.921875 97.960938 74.394531 97.996094 74.394531 C 98.035156 74.394531 98.757812 74.074219 99.601562 73.679688 C 102.429688 72.363281 106.742188 70.898438 107.789062 70.898438 C 108.1875 70.898438 108.226562 70.820312 108.230469 70.023438 C 108.238281 68.839844 108.710938 67.878906 109.957031 66.53125 C 110.78125 65.644531 111.363281 65.226562 112.699219 64.582031 C 114.175781 63.863281 115.183594 63.542969 119.039062 62.578125 C 120.761719 62.148438 121.394531 62.441406 121.238281 63.59375 C 121.050781 65.015625 119.414062 66.164062 115.300781 67.78125 C 112.699219 68.800781 110.628906 69.425781 109.835938 69.425781 C 109.136719 69.425781 109.03125 69.820312 109.410156 71.023438 C 109.640625 71.75 109.800781 72.003906 109.992188 71.929688 C 110.136719 71.875 110.980469 71.351562 111.863281 70.769531 C 113.75 69.527344 115.003906 68.828125 117.523438 67.613281 C 119.261719 66.773438 119.835938 66.5625 120.929688 66.359375 C 121.183594 66.3125 121.421875 66.183594 121.460938 66.070312 C 121.5 65.957031 121.789062 65.585938 122.105469 65.242188 C 122.507812 64.800781 122.773438 64.652344 123 64.738281 C 123.429688 64.902344 123.40625 65.089844 122.886719 65.609375 C 122.382812 66.117188 122.15625 66.757812 121.773438 68.78125 C 120.929688 73.25 119.582031 75.871094 117.5 77.089844 C 116.554688 77.644531 114.453125 77.867188 113.257812 77.542969 C 112.160156 77.246094 110.804688 76.257812 110.125 75.253906 C 109.785156 74.75 109.488281 74.476562 109.417969 74.59375 C 109.1875 74.960938 108.753906 77.050781 108.601562 78.511719 C 108.40625 80.421875 107.46875 82.300781 105.925781 83.882812 C 104.515625 85.328125 102.515625 86.320312 100.019531 86.816406 C 98.617188 87.097656 95.125 86.074219 93.945312 85.039062 L 93.347656 84.511719 L 93.007812 85.851562 C 92.824219 86.585938 92.296875 87.933594 91.84375 88.84375 C 91.125 90.277344 90.84375 90.632812 89.726562 91.535156 C 88.367188 92.628906 85.46875 94.207031 83.707031 94.8125 C 83.128906 95.007812 82 95.230469 81.191406 95.300781 L 79.726562 95.425781 L 78.097656 94.605469 C 76.191406 93.640625 74.582031 92.632812 74.105469 92.105469 L 73.769531 91.726562 L 72.082031 92.515625 C 70.515625 93.25 69.078125 94.113281 65.679688 96.378906 C 63.667969 97.714844 60.5 99.230469 58.824219 99.65625 C 57.09375 100.09375 54.917969 100.046875 53.976562 99.554688 C 52.972656 99.03125 51.152344 97.40625 50.839844 96.757812 C 50.589844 96.226562 50.574219 95.929688 50.75 94.699219 C 50.859375 93.90625 51.007812 93.113281 51.074219 92.941406 C 51.296875 92.363281 50.902344 92.609375 48.972656 94.261719 C 47.921875 95.164062 46.847656 96.011719 46.582031 96.148438 C 46.320312 96.285156 45.6875 96.675781 45.179688 97.019531 C 43.90625 97.875 41.746094 98.847656 40.402344 99.164062 C 38.871094 99.523438 36.386719 99.515625 35.667969 99.144531 C 35.140625 98.871094 35.113281 98.875 35.207031 99.1875 C 35.472656 100.101562 35.507812 100.917969 35.792969 113.882812 C 35.988281 122.902344 36.445312 126.078125 38.269531 131.1875 C 39.003906 133.242188 39.503906 135.070312 39.640625 136.210938 C 39.730469 136.953125 40.453125 139.070312 40.773438 139.53125 C 40.792969 139.566406 41.148438 139.417969 41.558594 139.210938 C 44.613281 137.652344 48.570312 137.488281 54.5625 138.671875 C 56.660156 139.085938 57.230469 139.246094 58.855469 139.867188 L 60.019531 140.308594 L 60.816406 139.609375 C 61.398438 139.097656 62.042969 138.777344 63.242188 138.410156 C 65.523438 137.707031 66.5 137.570312 70.828125 137.359375 C 75.234375 137.144531 77.789062 136.875 78.789062 136.523438 C 79.222656 136.367188 79.539062 136.339844 79.605469 136.445312 C 79.667969 136.542969 80.03125 136.222656 80.417969 135.734375 C 81.425781 134.460938 82.425781 133.730469 84.160156 133.003906 C 87.441406 131.621094 94.203125 130.265625 95.0625 130.816406 C 95.390625 131.023438 95.503906 130.972656 96.089844 130.367188 C 97.214844 129.207031 101.035156 127.582031 105.832031 126.222656 C 106.8125 125.945312 108.457031 125.269531 109.570312 124.683594 C 111.550781 123.644531 111.558594 123.636719 112.269531 122.339844 C 113.316406 120.4375 114.820312 118.617188 116.234375 117.542969 C 116.640625 117.238281 117.964844 116.378906 119.179688 115.636719 C 122 113.914062 122.035156 113.882812 122.035156 113.042969 C 122.035156 111.886719 123.628906 110.109375 125.707031 108.949219 C 126.269531 108.636719 127.371094 107.746094 128.15625 106.96875 C 129.652344 105.488281 130.121094 104.582031 130.136719 103.113281 C 130.15625 101.628906 130.683594 99.566406 131.496094 97.796875 C 132.207031 96.246094 132.3125 95.878906 132.15625 95.472656 C 131.890625 94.765625 131.933594 93.054688 132.269531 91.308594 C 132.449219 90.378906 132.582031 88.558594 132.609375 86.730469 C 132.636719 85.058594 132.746094 82.824219 132.855469 81.757812 C 133.40625 76.398438 133.84375 69.992188 133.925781 66.113281 L 134.015625 61.785156 L 133.519531 62.707031 C 131.949219 65.636719 130.453125 67.03125 128.878906 67.03125 C 127.828125 67.03125 127.527344 66.847656 126.84375 65.777344 C 126.527344 65.285156 125.957031 64.589844 125.578125 64.234375 C 125.199219 63.878906 124.597656 63.261719 124.242188 62.863281 C 123.890625 62.46875 122.875 61.664062 121.988281 61.082031 C 120.171875 59.886719 119.871094 59.527344 119.726562 58.367188 C 119.582031 57.222656 120.351562 55.949219 121.988281 54.636719 C 123.421875 53.484375 124.730469 52.785156 127.1875 51.847656 C 128.152344 51.480469 129.363281 51 129.882812 50.777344 L 130.824219 50.371094 L 130.257812 49.546875 C 129.523438 48.480469 129.496094 47.175781 130.179688 45.675781 C 130.679688 44.582031 132.480469 42.640625 134.136719 41.410156 C 134.671875 41.019531 135.105469 40.667969 135.105469 40.632812 C 135.105469 40.597656 134.585938 40.378906 133.953125 40.148438 C 129.652344 38.582031 127.800781 37.253906 127.117188 35.25 C 126.722656 34.09375 126.742188 33.714844 127.253906 32.554688 L 127.6875 31.574219 L 126.746094 31.1875 C 126.226562 30.976562 125.140625 30.707031 124.332031 30.589844 C 120.992188 30.105469 120.230469 29.722656 118.113281 27.445312 L 116.777344 26.007812 L 115.671875 26.105469 C 114.753906 26.191406 114.28125 26.113281 112.914062 25.652344 C 112.007812 25.34375 110.765625 25.039062 110.160156 24.972656 C 108.355469 24.777344 106.398438 24.335938 105.679688 23.964844 C 105.070312 23.648438 103.90625 22.621094 103.296875 21.859375 C 103.105469 21.617188 102.679688 21.5625 101.101562 21.5625 C 98.988281 21.5625 97.007812 21.292969 96.238281 20.902344 C 95.972656 20.765625 95.367188 20.355469 94.886719 19.992188 C 94.023438 19.332031 94.007812 19.328125 93.328125 19.601562 C 92.191406 20.054688 90.382812 20.316406 88.550781 20.289062 C 85.425781 20.246094 83.398438 19.4375 82.222656 17.777344 C 81.414062 16.632812 81.195312 15.96875 81.179688 14.589844 C 81.167969 13.589844 81.121094 13.4375 80.863281 13.535156 C 80.699219 13.601562 79.792969 13.75 78.847656 13.867188 C 76.992188 14.101562 76.003906 13.964844 74.410156 13.253906 C 73.984375 13.0625 73.585938 12.910156 73.519531 12.910156 C 73.453125 12.910156 72.902344 12.558594 72.292969 12.132812 C 71.359375 11.476562 69.542969 9.425781 69.328125 8.789062 C 69.269531 8.609375 69.070312 8.664062 66.34375 9.65625 C 64.054688 10.492188 61.691406 10.71875 60.164062 10.253906 C 58.539062 9.761719 55.480469 8.011719 55.265625 7.453125 C 55.132812 7.109375 54.113281 7.160156 52.539062 7.601562 M 70.578125 7.941406 C 70.324219 8.351562 70.941406 9.550781 71.929688 10.5625 C 72.496094 11.144531 73.019531 11.621094 73.089844 11.621094 C 73.160156 11.621094 72.976562 11.121094 72.679688 10.511719 C 72.386719 9.902344 72.144531 9.34375 72.144531 9.265625 C 72.144531 9.054688 71.035156 7.753906 70.851562 7.753906 C 70.765625 7.753906 70.640625 7.839844 70.578125 7.941406 M 25.007812 11.863281 C 22.609375 12.777344 21.820312 13.3125 20.703125 14.804688 C 19.367188 16.589844 18.773438 18.6875 19.128906 20.363281 C 19.246094 20.914062 19.246094 20.910156 19.476562 20.089844 C 19.957031 18.359375 21.929688 15.355469 23.390625 14.128906 C 24.5625 13.140625 26.21875 12.050781 27.132812 11.65625 L 28.054688 11.265625 L 27.316406 11.265625 C 26.914062 11.265625 25.875 11.535156 25.007812 11.863281 M 27.40625 12.691406 C 24.5625 14.148438 23.332031 15.144531 21.945312 17.125 C 20.851562 18.6875 20.453125 19.59375 20.300781 20.882812 L 20.179688 21.925781 L 20.804688 22.179688 C 21.144531 22.316406 21.695312 22.480469 22.023438 22.542969 C 22.554688 22.644531 22.625 22.609375 22.625 22.246094 C 22.632812 21.332031 23.886719 18.535156 25.144531 16.636719 C 26.070312 15.234375 28.199219 13.007812 28.878906 12.726562 C 29.34375 12.535156 29.382812 12.464844 29.164062 12.246094 C 29.023438 12.101562 28.878906 11.988281 28.84375 11.988281 C 28.808594 11.988281 28.160156 12.304688 27.40625 12.691406 M 84.292969 12.046875 C 84.292969 12.109375 84.546875 12.292969 84.855469 12.453125 C 85.402344 12.734375 86.964844 14.195312 87.332031 14.769531 C 89.027344 17.40625 90.390625 18.800781 91.277344 18.800781 C 91.589844 18.800781 91.84375 18.761719 91.84375 18.71875 C 91.84375 18.675781 91.402344 18.199219 90.867188 17.660156 C 90.125 16.917969 89.832031 16.460938 89.652344 15.761719 C 89.265625 14.265625 89.101562 13.933594 88.289062 13.019531 L 87.515625 12.152344 L 85.90625 12.042969 C 85.019531 11.984375 84.292969 11.984375 84.292969 12.046875 M 82.476562 13.234375 C 82.378906 13.414062 82.246094 13.867188 82.175781 14.242188 C 81.925781 15.5625 83.445312 17.363281 85.71875 18.453125 C 86.695312 18.917969 87.046875 18.992188 88.074219 18.945312 L 89.28125 18.890625 L 88.527344 18.0625 C 88.113281 17.609375 87.433594 16.777344 87.011719 16.222656 C 85.742188 14.535156 84.984375 13.824219 83.96875 13.355469 C 82.804688 12.820312 82.703125 12.8125 82.476562 13.234375 M 89.816406 13.171875 C 89.816406 13.25 89.953125 13.617188 90.121094 13.984375 C 91.238281 16.476562 91.703125 17.316406 92.113281 17.582031 C 92.671875 17.949219 92.671875 17.957031 92.214844 17.011719 C 92.015625 16.601562 91.800781 15.921875 91.734375 15.507812 C 91.667969 15.09375 91.4375 14.566406 91.222656 14.335938 C 90.578125 13.648438 89.816406 13.019531 89.816406 13.171875 M 95.617188 13.242188 C 94.90625 13.378906 94.980469 13.578125 95.9375 14.089844 C 96.46875 14.375 97.0625 14.742188 97.25 14.90625 C 97.792969 15.378906 100.621094 19.21875 100.980469 19.96875 C 101.273438 20.585938 101.363281 20.640625 102.078125 20.640625 C 102.507812 20.640625 102.980469 20.6875 103.128906 20.742188 C 103.308594 20.8125 103.460938 20.660156 103.601562 20.261719 C 103.792969 19.714844 103.742188 19.582031 102.804688 18.179688 C 101.472656 16.179688 100.503906 15.175781 98.789062 14.03125 C 97.347656 13.070312 96.976562 12.976562 95.617188 13.242188 M 29.535156 13.652344 C 28.605469 14.246094 26.347656 16.546875 25.609375 17.652344 C 25.222656 18.234375 24.636719 19.304688 24.308594 20.03125 C 23.140625 22.609375 23.410156 23.65625 24.6875 21.507812 C 25.789062 19.65625 28.988281 16.722656 31.433594 15.316406 C 31.757812 15.128906 31.578125 14.550781 30.96875 13.828125 C 30.4375 13.195312 30.28125 13.175781 29.535156 13.652344 M 93.398438 14.097656 C 93.160156 14.457031 93.113281 14.785156 93.199219 15.429688 C 93.433594 17.136719 94.882812 18.933594 96.792969 19.890625 C 97.871094 20.425781 99.65625 20.773438 99.835938 20.480469 C 99.894531 20.386719 99.445312 19.558594 98.84375 18.636719 C 98.074219 17.464844 97.429688 16.730469 96.695312 16.179688 C 96.117188 15.746094 95.210938 14.992188 94.675781 14.503906 L 93.710938 13.617188 L 93.398438 14.097656 M 111.933594 17.546875 L 111.128906 17.726562 L 112.300781 18.515625 C 113.46875 19.304688 115.601562 21.382812 116.222656 22.339844 L 116.550781 22.847656 L 117.066406 22.480469 C 117.347656 22.277344 117.652344 22.113281 117.734375 22.109375 C 117.820312 22.109375 118.011719 22.03125 118.160156 21.9375 C 118.375 21.800781 118.234375 21.542969 117.425781 20.605469 C 116.871094 19.96875 116.21875 19.277344 115.96875 19.074219 C 115.449219 18.652344 113.050781 17.316406 112.863281 17.347656 C 112.792969 17.355469 112.375 17.445312 111.933594 17.546875 M 108.828125 18.675781 C 108.195312 18.894531 107.679688 19.117188 107.683594 19.167969 C 107.6875 19.21875 108.078125 19.507812 108.550781 19.808594 C 109.644531 20.5 113.078125 23.429688 114.007812 24.460938 C 114.566406 25.082031 114.839844 25.242188 115.320312 25.242188 C 116.117188 25.242188 116.511719 25.082031 116.511719 24.757812 C 116.511719 24.25 114.824219 21.945312 113.648438 20.839844 C 112.574219 19.839844 110.335938 18.222656 110.078125 18.261719 C 110.023438 18.273438 109.460938 18.457031 108.828125 18.675781 M 117.089844 18.84375 C 117.40625 19.175781 118.078125 19.960938 118.578125 20.59375 C 119.839844 22.1875 120.390625 22.105469 119.542969 20.457031 C 119.125 19.644531 117.421875 18.246094 116.851562 18.246094 C 116.5625 18.246094 116.601562 18.34375 117.089844 18.84375 M 105.832031 20.007812 C 105.480469 20.140625 105.050781 20.257812 104.878906 20.261719 C 104.160156 20.285156 104.277344 21.601562 105.066406 22.359375 C 105.703125 22.96875 106.542969 23.304688 108.136719 23.578125 C 111.125 24.089844 111.664062 24.203125 112.277344 24.449219 L 112.921875 24.710938 L 112.277344 24.042969 C 111.25 22.976562 106.800781 19.640625 106.535156 19.742188 C 106.503906 19.753906 106.1875 19.875 105.832031 20.007812 M 17.375 21.871094 C 16.226562 22.464844 14.226562 24.488281 13.5625 25.71875 C 12.574219 27.558594 12.242188 30.101562 12.683594 32.429688 C 12.898438 33.570312 12.917969 33.59375 13.359375 33.453125 C 13.648438 33.363281 13.695312 33.128906 13.707031 31.734375 C 13.726562 28.65625 14.957031 25.832031 17.40625 23.226562 C 18.578125 21.984375 18.871094 21.574219 18.648438 21.488281 C 18.300781 21.355469 18.476562 21.300781 17.375 21.871094 M 18.898438 23.191406 C 17.015625 25.273438 15.125 29.289062 14.800781 31.902344 L 14.671875 32.921875 L 15.539062 33.019531 C 16.539062 33.132812 17.195312 33.558594 17.804688 34.484375 L 18.234375 35.136719 L 19.027344 34.285156 C 19.667969 33.597656 19.84375 33.257812 19.941406 32.515625 C 20.113281 31.195312 20.367188 30.328125 21.066406 28.652344 C 21.671875 27.210938 22.738281 25.152344 23.265625 24.414062 C 23.652344 23.871094 23.367188 23.59375 22.246094 23.417969 C 21.042969 23.226562 20.980469 23.25 20.46875 24.03125 C 19.574219 25.414062 19.109375 27.617188 19.058594 30.738281 C 19.035156 32.199219 19.003906 32.335938 18.652344 32.386719 C 18.144531 32.457031 17.835938 31.445312 17.84375 29.730469 C 17.851562 27.890625 18.246094 26.324219 19.152344 24.527344 C 19.59375 23.65625 19.976562 22.890625 20.007812 22.828125 C 20.039062 22.761719 19.9375 22.664062 19.789062 22.605469 C 19.621094 22.542969 19.277344 22.769531 18.898438 23.191406 M 118.214844 22.914062 C 117.65625 23.074219 117.617188 23.140625 117.617188 23.894531 C 117.617188 26.238281 120.898438 29.476562 123.269531 29.476562 L 124.039062 29.476562 L 123.4375 28.417969 C 121.8125 25.566406 120.351562 23.636719 119.382812 23.074219 C 118.933594 22.808594 118.6875 22.777344 118.214844 22.914062 M 121.453125 23.679688 C 122.375 24.6875 123.402344 26.253906 124.671875 28.578125 C 125.292969 29.710938 125.398438 29.8125 126.21875 30.03125 C 126.699219 30.160156 127.367188 30.425781 127.695312 30.625 C 128.28125 30.972656 128.292969 30.972656 128.292969 30.628906 C 128.292969 29.246094 126.730469 25.921875 125.664062 25.03125 C 124.472656 24.042969 122.800781 23.027344 122.203125 22.933594 C 121.90625 22.886719 121.410156 22.808594 121.097656 22.757812 L 120.527344 22.667969 L 121.453125 23.679688 M 126.027344 23.816406 C 126.121094 23.941406 126.464844 24.390625 126.785156 24.808594 C 127.734375 26.042969 129.019531 28.851562 129.027344 29.707031 C 129.03125 30.136719 129.105469 30.121094 130.046875 29.472656 C 130.488281 29.167969 131.097656 28.871094 131.398438 28.808594 L 131.941406 28.703125 L 131.40625 27.792969 C 131.113281 27.292969 130.871094 26.820312 130.871094 26.746094 C 130.871094 26.523438 129.03125 24.519531 128.632812 24.304688 C 128.253906 24.105469 126.398438 23.585938 126.050781 23.585938 C 125.925781 23.585938 125.917969 23.667969 126.027344 23.816406 M 39.097656 25.683594 C 37.988281 26.191406 37.238281 27.214844 36.976562 28.585938 C 36.742188 29.832031 36.78125 32.652344 37.046875 33.804688 L 37.261719 34.722656 L 35.878906 35.519531 C 35.121094 35.957031 33.691406 36.726562 32.703125 37.238281 C 28.980469 39.15625 27.089844 41.691406 28.398438 43.003906 C 29.472656 44.074219 31.554688 44.039062 34.230469 42.898438 C 36.089844 42.109375 37.050781 41.28125 37.707031 39.902344 C 38.375 38.496094 38.863281 36.625 38.792969 35.769531 C 38.738281 35.152344 38.78125 35.09375 39.742188 34.601562 C 40.296875 34.3125 40.808594 34.078125 40.882812 34.078125 C 40.953125 34.078125 40.855469 34.539062 40.660156 35.097656 C 40.382812 35.910156 40.351562 36.210938 40.515625 36.570312 C 40.699219 36.972656 40.839844 37.023438 41.710938 37.023438 C 42.46875 37.023438 42.96875 36.886719 43.84375 36.429688 C 44.476562 36.101562 45.03125 35.808594 45.082031 35.785156 C 45.132812 35.757812 45.179688 36.023438 45.1875 36.375 C 45.21875 37.792969 46.539062 38.195312 48.039062 37.238281 C 48.488281 36.953125 49.496094 36.066406 50.277344 35.269531 C 51.058594 34.472656 51.746094 33.867188 51.804688 33.925781 C 51.863281 33.984375 51.957031 34.328125 52.015625 34.683594 C 52.109375 35.269531 52.066406 35.367188 51.574219 35.617188 C 51.273438 35.773438 50.761719 36.203125 50.4375 36.574219 C 49.929688 37.152344 49.859375 37.359375 49.90625 38.09375 C 49.953125 38.824219 50.023438 38.957031 50.421875 39.054688 C 51.164062 39.234375 52.136719 38.925781 52.582031 38.371094 C 52.808594 38.085938 53.101562 37.363281 53.238281 36.761719 C 53.449219 35.808594 53.550781 35.644531 54.015625 35.488281 C 54.3125 35.390625 54.949219 35.074219 55.4375 34.789062 L 56.320312 34.269531 L 56.066406 34.773438 C 55.535156 35.816406 54.976562 37.84375 54.953125 38.792969 C 54.933594 39.625 55.003906 39.851562 55.417969 40.261719 C 56.339844 41.1875 58.496094 41.042969 60.222656 39.9375 C 61.078125 39.390625 61.300781 39.011719 60.902344 38.765625 C 60.792969 38.699219 60.222656 38.859375 59.632812 39.125 C 58.074219 39.824219 56.886719 40.019531 56.335938 39.664062 C 55.941406 39.410156 55.914062 39.296875 56.023438 38.464844 C 56.089844 37.957031 56.214844 37.40625 56.300781 37.238281 C 56.386719 37.070312 56.773438 36.199219 57.15625 35.300781 C 57.539062 34.402344 58.109375 33.394531 58.417969 33.066406 L 58.984375 32.464844 L 61.679688 32.332031 C 64.183594 32.207031 67.324219 32.292969 69.148438 32.542969 C 70.015625 32.660156 70.386719 32.976562 70.230469 33.472656 C 70.070312 33.984375 70.410156 34.398438 70.792969 34.160156 C 71.574219 33.671875 71.574219 32.660156 70.789062 32.144531 C 69.964844 31.605469 67.582031 31.285156 64.199219 31.253906 L 60.949219 31.226562 L 62.035156 30.089844 C 63.117188 28.964844 63.257812 28.683594 62.96875 28.226562 C 62.816406 27.992188 62.203125 28.105469 62.203125 28.367188 C 62.203125 28.445312 61.476562 29.132812 60.585938 29.894531 L 58.96875 31.277344 L 57.261719 31.398438 C 55.363281 31.535156 53.59375 31.273438 53.421875 30.832031 C 53.242188 30.359375 53.695312 29.683594 54.390625 29.394531 C 55.21875 29.046875 55.136719 28.667969 54.214844 28.589844 C 52.742188 28.46875 51.613281 30.699219 52.65625 31.671875 C 53.128906 32.113281 54.566406 32.433594 55.90625 32.398438 C 56.441406 32.386719 56.917969 32.414062 56.964844 32.460938 C 57.015625 32.511719 56.613281 32.84375 56.070312 33.203125 C 55.023438 33.898438 53.179688 34.878906 53.097656 34.78125 C 53.074219 34.75 52.902344 34.328125 52.722656 33.839844 C 52.441406 33.089844 51.832031 32.429688 51.613281 32.636719 C 51.578125 32.671875 50.816406 33.40625 49.917969 34.269531 C 48.207031 35.917969 47.160156 36.574219 46.550781 36.378906 C 45.835938 36.152344 46.183594 35.148438 47.625 33.269531 C 48.414062 32.246094 48.441406 32.171875 48.117188 31.9375 C 47.929688 31.796875 47.71875 31.6875 47.652344 31.6875 C 47.585938 31.6875 47.125 32.171875 46.628906 32.761719 C 45.445312 34.171875 44.246094 35.109375 42.714844 35.816406 C 41.921875 36.183594 41.585938 36.179688 41.585938 35.808594 C 41.585938 35.261719 42.722656 33.371094 43.558594 32.523438 C 44.246094 31.824219 44.347656 31.632812 44.160156 31.40625 C 43.832031 31.011719 43.726562 31.046875 42.554688 31.9375 C 41.121094 33.027344 38.476562 34.351562 38.359375 34.039062 C 37.460938 31.59375 37.515625 29.023438 38.503906 27.585938 C 39.222656 26.542969 40.769531 26.183594 41.296875 26.941406 C 41.855469 27.738281 41.535156 28.59375 40.0625 30.207031 C 38.753906 31.644531 38.167969 32.613281 38.484375 32.8125 C 38.910156 33.082031 39.027344 33.007812 40.464844 31.546875 C 41.574219 30.421875 41.9375 29.914062 42.1875 29.132812 C 42.714844 27.5 42.625 26.792969 41.789062 25.957031 C 40.949219 25.113281 40.457031 25.066406 39.097656 25.683594 M 22.851562 27.222656 C 22.085938 28.859375 21.152344 31.34375 21.152344 31.742188 C 21.152344 32.070312 22.390625 30.261719 22.890625 29.199219 C 23.25 28.445312 23.800781 25.839844 23.644531 25.65625 C 23.621094 25.632812 23.265625 26.335938 22.851562 27.222656 M 130.820312 30.09375 C 129.578125 30.820312 128.351562 32.175781 128.125 33.078125 C 127.871094 34.082031 128.003906 34.671875 128.710938 35.710938 C 129.230469 36.46875 130.503906 37.519531 131.234375 37.792969 C 132.007812 38.082031 131.921875 34.15625 131.113281 32.460938 C 130.859375 31.925781 130.699219 31.367188 130.753906 31.21875 C 130.882812 30.882812 131.492188 30.867188 131.761719 31.191406 C 132.238281 31.765625 132.570312 33.671875 132.597656 36.007812 L 132.621094 38.394531 L 133.449219 38.695312 C 133.902344 38.863281 134.503906 39.050781 134.78125 39.121094 C 135.289062 39.242188 135.289062 39.238281 135.289062 38.238281 C 135.289062 36.46875 134.304688 33.410156 133.324219 32.121094 C 132.832031 31.476562 132.8125 30.894531 133.28125 30.804688 C 133.789062 30.707031 135.363281 33.519531 136.03125 35.710938 C 136.347656 36.753906 136.421875 37.359375 136.355469 38.382812 L 136.269531 39.703125 L 137.113281 40.296875 L 137.957031 40.886719 L 138.066406 40.261719 C 138.246094 39.195312 137.882812 37.039062 137.277344 35.589844 C 136.773438 34.371094 136.738281 34.183594 136.988281 34 C 137.242188 33.816406 137.230469 33.742188 136.90625 33.335938 C 135.402344 31.480469 135.152344 31.265625 133.566406 30.476562 C 132.664062 30.027344 131.832031 29.667969 131.71875 29.671875 C 131.605469 29.679688 131.203125 29.871094 130.820312 30.09375 M 13.863281 34.269531 C 13.332031 34.429688 13.269531 34.546875 12.898438 36.054688 C 12.199219 38.925781 12.085938 40.316406 12.300781 43.433594 C 12.410156 45.003906 12.539062 46.332031 12.589844 46.382812 C 12.707031 46.5 14.917969 46.417969 15.125 46.289062 C 15.210938 46.238281 15.203125 46.101562 15.113281 45.984375 C 14.144531 44.722656 14.25 36.882812 15.265625 34.988281 C 15.371094 34.792969 15.589844 34.632812 15.75 34.632812 C 16.0625 34.632812 16.042969 35.292969 15.679688 37.667969 C 15.429688 39.289062 15.53125 42.546875 15.890625 44.355469 C 16.207031 45.945312 16.261719 46.066406 16.621094 45.972656 C 16.832031 45.914062 17.058594 45.867188 17.117188 45.863281 C 17.179688 45.863281 17.28125 44.597656 17.351562 43.054688 C 17.421875 41.511719 17.625 39.382812 17.808594 38.324219 C 18.179688 36.171875 18.238281 36.382812 16.871094 34.9375 C 16.289062 34.320312 16.054688 34.203125 15.308594 34.152344 C 14.824219 34.121094 14.175781 34.171875 13.863281 34.269531 M 138.308594 35.105469 C 138.777344 36.085938 139.105469 38.15625 139.085938 40.003906 C 139.0625 41.746094 139.074219 41.789062 139.503906 41.871094 C 139.808594 41.929688 140.089844 41.8125 140.398438 41.503906 C 140.8125 41.089844 140.84375 40.941406 140.78125 39.636719 C 140.699219 37.941406 140.277344 37 138.949219 35.542969 C 138.226562 34.75 138.09375 34.65625 138.308594 35.105469 M 11.777344 35.78125 C 11.691406 36.011719 11.402344 36.714844 11.136719 37.34375 C 10.121094 39.757812 9.21875 42.882812 9.078125 44.480469 C 8.988281 45.496094 9.035156 45.964844 9.308594 46.691406 C 9.71875 47.777344 10.148438 47.933594 11.113281 47.335938 C 11.671875 46.992188 11.726562 46.894531 11.570312 46.492188 C 11.246094 45.636719 11 43.5625 11.007812 41.71875 C 11.015625 39.328125 11.144531 38.351562 11.664062 36.714844 C 11.898438 35.972656 12.054688 35.367188 12.015625 35.367188 C 11.972656 35.367188 11.867188 35.554688 11.777344 35.78125 M 35.96875 36.523438 C 31.800781 38.722656 29.066406 40.695312 29.066406 41.503906 C 29.066406 41.972656 29.722656 42.351562 30.753906 42.472656 C 31.664062 42.578125 31.988281 42.515625 33.554688 41.90625 C 35.746094 41.058594 36.425781 40.476562 37.246094 38.75 C 37.566406 38.082031 37.847656 35.734375 37.605469 35.742188 C 37.515625 35.746094 36.78125 36.097656 35.96875 36.523438 M 51.464844 37.230469 C 50.710938 37.875 50.621094 38.128906 51.144531 38.128906 C 51.476562 38.128906 52.410156 36.925781 52.222656 36.738281 C 52.175781 36.691406 51.835938 36.914062 51.464844 37.230469 M 69.636719 37.011719 C 68.757812 37.410156 68.558594 37.644531 68.878906 37.910156 C 69.039062 38.039062 69.417969 38.019531 70.113281 37.839844 C 71.371094 37.511719 72.160156 37.507812 72.589844 37.820312 C 73.085938 38.183594 72.71875 38.640625 71.15625 39.59375 C 69.566406 40.5625 68.832031 41.214844 68.832031 41.660156 C 68.832031 42.335938 69.847656 41.945312 71.683594 40.5625 C 73.449219 39.238281 74.816406 38.734375 76.339844 38.847656 C 76.613281 38.867188 76.429688 39.285156 75.886719 39.878906 C 75.539062 40.261719 74.160156 42.097656 73.914062 42.503906 C 73.722656 42.828125 73.957031 43.46875 74.273438 43.46875 C 74.417969 43.46875 74.820312 43.15625 75.167969 42.777344 C 75.980469 41.886719 78.386719 40.4375 79.996094 39.871094 C 81.269531 39.421875 82.453125 39.28125 82.453125 39.582031 C 82.453125 39.667969 81.59375 40.492188 80.546875 41.414062 C 78.214844 43.457031 77.558594 44.625 78.324219 45.386719 C 78.722656 45.785156 79.398438 45.929688 80.253906 45.792969 C 82.628906 45.417969 82.453125 45.414062 82.453125 45.839844 C 82.453125 46.101562 82.621094 46.300781 82.945312 46.425781 C 83.351562 46.582031 83.644531 46.507812 84.738281 45.96875 C 85.457031 45.613281 86.300781 45.113281 86.617188 44.851562 L 87.1875 44.382812 L 87.308594 45.527344 C 87.523438 47.585938 88.785156 48.285156 90.296875 47.175781 C 91.0625 46.613281 93.136719 44.496094 93.421875 43.988281 C 93.574219 43.71875 93.703125 43.707031 94.597656 43.910156 L 95.601562 44.136719 L 94.40625 45.414062 C 92.074219 47.90625 91.785156 48.582031 92.664062 49.460938 C 93.195312 49.992188 94.085938 50.054688 95.097656 49.632812 C 95.835938 49.324219 98.164062 47.054688 98.929688 45.890625 C 99.347656 45.261719 99.484375 45.171875 99.820312 45.304688 C 100.039062 45.390625 100.371094 45.511719 100.558594 45.570312 C 100.84375 45.660156 100.753906 45.824219 99.941406 46.644531 C 97.992188 48.621094 97.523438 49.75 98.269531 50.671875 C 98.777344 51.300781 100.292969 51.269531 101.570312 50.605469 L 102.5 50.125 L 102.554688 50.523438 C 102.621094 50.996094 103.984375 51.753906 104.773438 51.753906 C 105.203125 51.753906 105.308594 51.847656 105.402344 52.308594 C 105.652344 53.558594 107.054688 54.082031 108.640625 53.515625 C 109.300781 53.28125 109.332031 53.285156 109.335938 53.660156 C 109.339844 54.40625 109.542969 54.820312 110.0625 55.125 C 110.738281 55.523438 111.265625 55.511719 112.242188 55.066406 C 113.03125 54.707031 113.035156 54.707031 112.917969 55.074219 C 112.734375 55.652344 113.152344 56.617188 113.734375 56.960938 C 114.027344 57.132812 114.585938 57.273438 114.976562 57.269531 C 115.953125 57.265625 119.164062 56.121094 119.238281 55.753906 C 119.339844 55.222656 118.269531 55.265625 116.144531 55.878906 C 114.367188 56.386719 113.632812 55.6875 114.421875 54.238281 C 114.585938 53.933594 114.832031 53.476562 114.964844 53.226562 C 115.097656 52.972656 116.566406 51.390625 118.230469 49.707031 C 121.675781 46.222656 122.003906 45.808594 121.660156 45.390625 C 121.53125 45.238281 121.332031 45.132812 121.214844 45.164062 C 121.101562 45.191406 120.429688 45.839844 119.726562 46.605469 C 119.019531 47.367188 117.855469 48.546875 117.132812 49.226562 C 115.96875 50.328125 115.761719 50.453125 115.269531 50.355469 C 114.21875 50.144531 112.253906 50.726562 110.199219 51.863281 C 109.917969 52.019531 109.0625 52.273438 108.300781 52.429688 C 107.007812 52.691406 106.894531 52.691406 106.558594 52.386719 C 106.085938 51.957031 106.105469 51.632812 106.617188 51.515625 C 107.535156 51.304688 109.648438 50.421875 110.273438 49.988281 C 110.640625 49.734375 111.082031 49.207031 111.257812 48.816406 C 111.539062 48.199219 111.546875 48.042969 111.328125 47.582031 C 111.109375 47.128906 110.957031 47.050781 110.191406 47 C 109.582031 46.960938 109.066406 47.0625 108.523438 47.324219 C 107.558594 47.789062 106.0625 49.246094 105.714844 50.050781 C 105.503906 50.550781 105.363281 50.648438 104.859375 50.648438 C 104.269531 50.648438 103.441406 50.222656 103.441406 49.921875 C 103.441406 49.835938 104.0625 49.035156 104.820312 48.136719 C 106.210938 46.492188 106.554688 45.675781 105.863281 45.675781 C 105.519531 45.675781 103.257812 47.886719 103.257812 48.222656 C 103.257812 48.714844 100.460938 50.285156 99.597656 50.277344 C 98.851562 50.269531 98.761719 49.980469 99.253906 49.148438 C 99.761719 48.277344 101.1875 46.734375 102.042969 46.117188 C 102.78125 45.585938 102.574219 45.21875 101.382812 44.9375 C 100.199219 44.660156 99.746094 44.441406 99.425781 43.992188 C 99.292969 43.804688 99.015625 43.652344 98.808594 43.652344 C 98.484375 43.652344 98.441406 43.742188 98.519531 44.25 C 98.617188 44.921875 98.394531 45.316406 96.917969 47.027344 C 95.53125 48.640625 94.136719 49.332031 93.316406 48.8125 C 93.078125 48.660156 93.089844 48.5625 93.394531 48.039062 C 93.589844 47.710938 93.964844 47.21875 94.222656 46.949219 C 96.304688 44.789062 97.09375 44.019531 97.21875 44.019531 C 97.300781 44.019531 97.367188 43.871094 97.367188 43.6875 C 97.367188 43.421875 97.058594 43.28125 95.859375 42.996094 C 94.4375 42.65625 94.339844 42.601562 94.199219 42.058594 C 94.015625 41.351562 93.585938 41.160156 93.011719 41.535156 C 92.546875 41.839844 92.472656 42.1875 92.757812 42.71875 C 92.992188 43.160156 92.222656 44.367188 90.957031 45.539062 C 89.339844 47.042969 88.675781 47.101562 88.421875 45.761719 C 88.28125 45.011719 88.871094 43.128906 89.5625 42.109375 C 89.851562 41.683594 89.972656 41.339844 89.871094 41.238281 C 89.777344 41.144531 89.113281 41.058594 88.398438 41.042969 C 86.644531 41.011719 85.136719 41.703125 83.582031 43.257812 C 82.644531 44.199219 82.296875 44.417969 81.375 44.65625 C 79.941406 45.03125 79.210938 45.023438 79.0625 44.636719 C 78.976562 44.414062 79.570312 43.714844 81.253906 42.054688 C 83.132812 40.195312 83.558594 39.679688 83.558594 39.25 C 83.558594 38.441406 83.171875 38.246094 81.835938 38.371094 C 81.074219 38.441406 80.089844 38.734375 78.957031 39.222656 C 78.011719 39.632812 77.207031 39.96875 77.167969 39.96875 C 77.132812 39.96875 77.1875 39.808594 77.292969 39.613281 C 77.601562 39.039062 77.515625 38.511719 77.03125 38.027344 C 76.507812 37.507812 75.855469 37.453125 74.746094 37.84375 C 74.019531 38.101562 73.984375 38.097656 73.984375 37.75 C 73.984375 36.746094 71.246094 36.277344 69.636719 37.011719 M 135.226562 41.644531 C 134.734375 42.136719 134.722656 42.1875 134.996094 42.582031 C 135.859375 43.8125 134.882812 48.351562 133.308594 50.417969 L 132.851562 51.015625 L 133.289062 51.378906 C 133.855469 51.851562 133.910156 51.84375 134.332031 51.246094 C 135.007812 50.285156 135.507812 49.121094 136.488281 46.207031 C 137.199219 44.089844 137.402344 43.285156 137.21875 43.285156 C 136.878906 43.285156 136.734375 43.015625 136.878906 42.636719 C 136.96875 42.40625 137.136719 42.355469 137.546875 42.4375 C 138.019531 42.53125 138.0625 42.507812 137.867188 42.269531 C 137.738281 42.121094 137.523438 41.996094 137.382812 41.996094 C 137.242188 41.996094 137.128906 41.929688 137.128906 41.851562 C 137.128906 41.679688 136.128906 41.066406 135.90625 41.097656 C 135.820312 41.113281 135.515625 41.355469 135.226562 41.644531 M 87.238281 42.074219 C 86.269531 42.339844 85.71875 42.617188 84.882812 43.25 C 84.234375 43.742188 83.25 45.246094 83.449219 45.445312 C 83.75 45.746094 86.011719 44.320312 87.5625 42.847656 C 88.6875 41.777344 88.648438 41.683594 87.238281 42.074219 M 132.550781 44.101562 C 131.160156 45.550781 130.613281 46.683594 130.726562 47.867188 C 130.816406 48.785156 131.632812 50.28125 132.046875 50.28125 C 132.359375 50.28125 133.464844 48.199219 133.996094 46.613281 C 134.296875 45.714844 134.367188 45.203125 134.277344 44.496094 C 134.128906 43.320312 134.015625 42.914062 133.832031 42.914062 C 133.753906 42.914062 133.175781 43.449219 132.550781 44.101562 M 106.707031 43.851562 C 106.214844 44.140625 106.292969 44.910156 106.832031 45.046875 C 107.457031 45.203125 107.878906 45.089844 108.117188 44.699219 C 108.28125 44.425781 108.238281 44.300781 107.882812 44.007812 C 107.398438 43.609375 107.175781 43.578125 106.707031 43.851562 M 138.007812 45.539062 C 137.578125 47.355469 135.261719 51.960938 134.5625 52.390625 C 134.464844 52.449219 134.640625 52.875 134.953125 53.335938 L 135.515625 54.171875 L 136.097656 53.191406 C 137.261719 51.238281 138.648438 47.746094 138.882812 46.164062 C 138.972656 45.585938 138.921875 45.195312 138.707031 44.78125 C 138.542969 44.464844 138.390625 44.207031 138.367188 44.207031 C 138.34375 44.207031 138.183594 44.808594 138.007812 45.539062 M 61.101562 45.582031 C 60.691406 46.019531 60.683594 46.089844 60.894531 47.039062 C 61.132812 48.101562 62.625 51.203125 63 51.414062 C 63.121094 51.480469 63.882812 51.371094 64.691406 51.167969 C 65.5 50.964844 66.367188 50.753906 66.621094 50.695312 C 67.5 50.492188 68.558594 49.773438 68.910156 49.132812 C 69.214844 48.578125 69.234375 48.414062 69.035156 47.9375 C 68.65625 47.023438 67.515625 46.753906 65.585938 47.128906 C 64.875 47.265625 64.804688 47.242188 64.511719 46.742188 C 64.335938 46.449219 63.859375 45.964844 63.449219 45.667969 C 62.503906 44.984375 61.691406 44.953125 61.101562 45.582031 M 61.777344 46.167969 C 61.707031 46.234375 61.652344 46.410156 61.652344 46.558594 C 61.652344 46.914062 63.328125 50.464844 63.496094 50.464844 C 63.570312 50.464844 63.980469 50.339844 64.414062 50.1875 C 64.84375 50.035156 65.347656 49.910156 65.535156 49.910156 C 66.152344 49.910156 67.910156 49.152344 68.09375 48.804688 C 68.550781 47.953125 67.167969 47.636719 65.347656 48.175781 C 64.8125 48.332031 64.363281 48.4375 64.347656 48.40625 C 63.9375 47.542969 63.4375 46.808594 63.097656 46.566406 C 62.5625 46.1875 61.941406 46 61.777344 46.167969 M 15.1875 47.558594 L 14.652344 47.75 L 14.765625 50.074219 C 14.964844 54.226562 15.859375 57.6875 17.257812 59.71875 C 17.585938 60.199219 17.886719 60.589844 17.925781 60.589844 C 17.964844 60.589844 18.203125 60.511719 18.457031 60.414062 L 18.914062 60.242188 L 18.578125 59.355469 C 18.394531 58.871094 18.066406 57.601562 17.851562 56.539062 C 17.636719 55.476562 17.386719 54.226562 17.289062 53.757812 C 17.195312 53.292969 17.019531 51.65625 16.894531 50.125 L 16.667969 47.335938 L 16.195312 47.347656 C 15.933594 47.355469 15.480469 47.449219 15.1875 47.558594 M 139.257812 48.554688 C 138.753906 50.089844 137.785156 52.191406 136.910156 53.644531 C 136.183594 54.851562 136.171875 54.902344 136.488281 55.253906 C 136.976562 55.792969 137.46875 55.699219 138.199219 54.929688 C 139.25 53.8125 139.769531 52.464844 139.84375 50.648438 C 139.878906 49.789062 139.84375 48.722656 139.761719 48.28125 L 139.613281 47.476562 L 139.257812 48.554688 M 17.910156 50.050781 C 18.066406 52.71875 18.519531 55.246094 19.335938 58.011719 C 19.917969 59.980469 19.996094 60.132812 20.453125 60.1875 L 20.945312 60.242188 L 20.996094 58.34375 C 21.132812 53.3125 20.960938 51.855469 19.988281 49.753906 C 19.648438 49.015625 18.421875 47.886719 17.964844 47.886719 C 17.847656 47.886719 17.828125 48.644531 17.910156 50.050781 M 108.867188 48.371094 C 108.019531 48.933594 106.753906 50.101562 106.753906 50.320312 C 106.753906 50.777344 109.667969 49.414062 110.238281 48.691406 C 110.449219 48.425781 110.621094 48.132812 110.621094 48.046875 C 110.621094 47.710938 109.570312 47.90625 108.867188 48.371094 M 12.796875 48.84375 L 11.894531 49.613281 L 12.011719 51.28125 C 12.214844 54.28125 13.195312 58.257812 14.324219 60.679688 C 15.269531 62.707031 15.390625 62.78125 16.273438 61.855469 C 16.882812 61.210938 16.949219 61.054688 16.765625 60.757812 C 14.878906 57.738281 14.136719 55.023438 13.816406 49.996094 L 13.695312 48.074219 L 12.796875 48.84375 M 10.707031 51.617188 C 10.59375 51.945312 10.457031 52.460938 10.398438 52.765625 C 10.339844 53.070312 10.226562 53.648438 10.152344 54.054688 C 9.863281 55.589844 9.988281 56.941406 10.527344 58.105469 C 11.363281 59.898438 12.652344 61.664062 13.585938 62.289062 C 14.355469 62.808594 14.386719 62.671875 13.734375 61.648438 C 12.972656 60.449219 12.65625 59.65625 12.054688 57.445312 C 11.472656 55.296875 11.269531 54.234375 11.105469 52.480469 C 11.039062 51.726562 10.964844 51.089844 10.945312 51.066406 C 10.925781 51.042969 10.820312 51.292969 10.707031 51.617188 M 129.929688 51.796875 C 129.617188 52.070312 129.347656 52.609375 129.148438 53.355469 C 128.984375 53.984375 128.660156 54.824219 128.433594 55.222656 C 127.574219 56.714844 125.699219 58.546875 123.242188 60.289062 C 122.90625 60.527344 122.925781 60.566406 123.660156 61.03125 L 124.4375 61.519531 L 125.304688 61.015625 C 125.785156 60.742188 126.21875 60.46875 126.269531 60.414062 C 126.320312 60.359375 126.957031 59.910156 127.691406 59.421875 C 129.074219 58.496094 130.855469 56.722656 131.335938 55.789062 C 131.65625 55.171875 132.34375 55.039062 132.34375 55.597656 C 132.34375 56.113281 130.917969 57.957031 129.578125 59.167969 C 128.933594 59.753906 127.734375 60.613281 126.921875 61.078125 C 126.105469 61.546875 125.402344 61.960938 125.359375 62 C 125.316406 62.039062 125.464844 62.203125 125.695312 62.363281 C 125.921875 62.523438 126.335938 62.960938 126.609375 63.339844 L 127.105469 64.027344 L 129.769531 61.671875 C 132.886719 58.917969 133.199219 58.710938 133.535156 59.171875 C 133.753906 59.46875 133.777344 59.460938 133.882812 59.074219 C 134.109375 58.234375 133.992188 57.113281 133.609375 56.390625 C 133.390625 55.984375 132.648438 55.023438 131.953125 54.253906 C 131.257812 53.480469 130.652344 52.664062 130.605469 52.4375 C 130.554688 52.214844 130.492188 51.882812 130.464844 51.707031 C 130.414062 51.417969 130.363281 51.425781 129.929688 51.796875 M 112.921875 52.007812 C 110.953125 52.628906 109.933594 53.683594 110.695312 54.316406 C 111.140625 54.6875 111.839844 54.335938 113.28125 53.023438 C 114.5625 51.859375 114.636719 51.753906 114.167969 51.765625 C 113.886719 51.773438 113.328125 51.882812 112.921875 52.007812 M 127.925781 52.804688 C 127.027344 53.148438 122.871094 55.292969 122.152344 55.785156 C 121.261719 56.398438 120.5625 57.488281 120.5625 58.261719 C 120.5625 58.691406 121.636719 59.851562 122.03125 59.851562 C 122.496094 59.851562 125.980469 57.050781 126.777344 56.035156 C 127.386719 55.261719 128.082031 53.964844 128.304688 53.183594 C 128.453125 52.664062 128.414062 52.621094 127.925781 52.804688 M 132.160156 60.835938 C 131.402344 61.457031 130.078125 62.660156 129.214844 63.503906 L 127.648438 65.035156 L 128.25 65.574219 C 128.84375 66.105469 128.863281 66.109375 129.539062 65.828125 C 129.914062 65.671875 130.40625 65.367188 130.632812 65.15625 C 130.996094 64.8125 132.652344 62.0625 132.9375 61.324219 C 133 61.171875 133.179688 60.738281 133.339844 60.359375 C 133.503906 59.980469 133.613281 59.675781 133.589844 59.683594 C 133.5625 59.691406 132.917969 60.210938 132.160156 60.835938 M 19.546875 61.289062 C 19.382812 61.390625 19.515625 61.710938 20.019531 62.4375 C 21.828125 65.046875 23.597656 68.5625 24.09375 70.53125 C 24.207031 70.984375 24.464844 71.867188 24.667969 72.488281 L 25.035156 73.621094 L 25.585938 73.414062 C 26.105469 73.214844 26.132812 73.160156 26.019531 72.464844 C 25.828125 71.273438 25.027344 68.234375 24.421875 66.386719 C 23.996094 65.089844 22.796875 62.8125 22.03125 61.832031 C 21.539062 61.207031 21.402344 61.140625 20.628906 61.144531 C 20.15625 61.144531 19.667969 61.210938 19.546875 61.289062 M 17.421875 61.890625 C 16.984375 62.148438 17.011719 62.457031 17.644531 64.273438 C 19.265625 68.945312 20.070312 70.734375 21.75 73.414062 L 22.691406 74.921875 L 23.394531 74.5625 C 23.78125 74.367188 24.097656 74.085938 24.097656 73.945312 C 24.097656 73.15625 21.144531 66.386719 19.921875 64.363281 C 19.179688 63.136719 18.066406 61.691406 17.871094 61.699219 C 17.800781 61.703125 17.601562 61.789062 17.421875 61.890625 M 23.859375 62.707031 C 25.011719 64.683594 26.054688 67.671875 26.703125 70.839844 C 27.082031 72.695312 27.164062 72.902344 27.554688 72.976562 C 27.890625 73.042969 27.957031 72.996094 27.867188 72.761719 C 27.800781 72.597656 27.632812 71.800781 27.488281 70.992188 C 26.863281 67.457031 25.378906 63.757812 24.09375 62.523438 L 23.324219 61.785156 L 23.859375 62.707031 M 119.273438 63.46875 C 117.925781 63.671875 113.652344 64.964844 112.84375 65.414062 C 111.5625 66.125 110.609375 66.953125 109.839844 68.019531 C 109.480469 68.519531 109.476562 68.542969 109.808594 68.449219 C 110.003906 68.394531 111.277344 68.039062 112.644531 67.664062 C 116.0625 66.722656 120.378906 64.453125 120.378906 63.597656 C 120.378906 63.355469 120.183594 63.332031 119.273438 63.46875 M 15.867188 64.132812 C 14.6875 65.699219 15.46875 70.175781 17.46875 73.289062 C 18.074219 74.234375 19.757812 75.363281 20.554688 75.359375 C 20.832031 75.359375 21.199219 75.433594 21.371094 75.523438 C 21.90625 75.804688 21.9375 75.351562 21.417969 74.8125 C 20.472656 73.832031 18.742188 71.042969 17.960938 69.242188 C 17.457031 68.078125 16.363281 64.621094 16.363281 64.191406 C 16.363281 63.84375 16.105469 63.816406 15.867188 64.132812 M 119.910156 67.558594 C 119.398438 67.734375 118.691406 68.050781 118.34375 68.261719 C 117.992188 68.472656 117.003906 69.019531 116.144531 69.476562 C 113.390625 70.9375 111.414062 72.082031 110.816406 72.554688 L 110.238281 73.015625 L 110.867188 73.710938 L 111.492188 74.40625 L 113.246094 73.953125 C 115.335938 73.410156 117.125 72.628906 118.371094 71.714844 C 119.621094 70.796875 120.421875 71.105469 119.320312 72.078125 C 118.632812 72.683594 116.929688 73.84375 116.722656 73.84375 C 116.632812 73.84375 116.457031 73.964844 116.335938 74.109375 C 116.140625 74.34375 115.195312 74.597656 112.851562 75.050781 L 112.230469 75.171875 L 112.898438 75.765625 C 114.503906 77.195312 115.957031 77.0625 117.617188 75.332031 C 118.636719 74.265625 119.648438 72.472656 120.464844 70.265625 C 120.90625 69.082031 121.222656 67.207031 120.980469 67.230469 C 120.902344 67.238281 120.417969 67.386719 119.910156 67.558594 M 106.386719 72.285156 C 105.625 72.519531 105.152344 72.71875 105.328125 72.726562 C 105.914062 72.75 105.667969 73.429688 104.570312 74.796875 C 102.929688 76.84375 102.140625 77.488281 99.976562 78.53125 C 99.234375 78.890625 98.601562 79.183594 98.566406 79.183594 C 98.535156 79.183594 97.773438 79.523438 96.878906 79.941406 C 95.980469 80.359375 94.9375 80.742188 94.558594 80.792969 C 93.957031 80.875 93.867188 80.839844 93.867188 80.515625 C 93.867188 80.214844 94.238281 79.996094 95.789062 79.371094 C 96.847656 78.945312 98.285156 78.253906 98.992188 77.832031 C 101.078125 76.582031 105.140625 73.089844 104.847656 72.796875 C 104.628906 72.574219 101.585938 73.878906 99.832031 74.945312 C 99.164062 75.351562 98.578125 75.683594 98.53125 75.683594 C 98.484375 75.683594 97.789062 76.1875 96.980469 76.800781 C 95.164062 78.183594 93.910156 79.480469 93.335938 80.5625 C 92.894531 81.390625 92.894531 81.402344 93.230469 82.140625 C 93.414062 82.550781 94.035156 83.320312 94.609375 83.851562 C 97.234375 86.285156 101.601562 86.253906 104.46875 83.785156 C 105.980469 82.484375 107.378906 79.769531 107.765625 77.398438 C 107.902344 76.566406 108.191406 75.382812 108.410156 74.765625 C 108.769531 73.753906 108.785156 73.554688 108.574219 72.730469 C 108.304688 71.679688 108.328125 71.683594 106.386719 72.285156 M 26.765625 74.171875 C 26.03125 74.328125 23.175781 75.683594 23.175781 75.878906 C 23.175781 75.933594 23.570312 76.167969 24.050781 76.398438 C 26.269531 77.464844 28.929688 79.675781 30.183594 81.503906 C 30.867188 82.492188 32.5625 85.789062 32.5625 86.121094 C 32.5625 86.464844 32.675781 86.429688 33.582031 85.808594 C 34.023438 85.5 34.769531 85.089844 35.238281 84.886719 C 35.820312 84.636719 36.042969 84.453125 35.945312 84.292969 C 34.851562 82.5 31.03125 77.691406 29.375 76.023438 C 27.886719 74.523438 27.246094 74.070312 26.765625 74.171875 M 29.90625 75.078125 C 30.359375 75.527344 31.523438 76.882812 32.488281 78.089844 C 33.457031 79.296875 34.28125 80.285156 34.320312 80.285156 C 34.445312 80.285156 33.464844 77.816406 32.964844 76.882812 C 32.417969 75.855469 31.011719 74.78125 29.792969 74.457031 L 29.082031 74.265625 L 29.90625 75.078125 M 105.699219 75.707031 C 105.113281 76.226562 103.878906 77.347656 102.957031 78.195312 C 100.558594 80.402344 99.328125 81.277344 96.628906 82.707031 C 96.074219 83.003906 95.800781 83.269531 95.800781 83.511719 C 95.800781 83.816406 95.914062 83.871094 96.484375 83.835938 C 97.800781 83.761719 101.003906 81.296875 106.640625 76.035156 C 107.503906 75.230469 107.644531 74.765625 107.023438 74.765625 C 106.875 74.765625 106.28125 75.1875 105.699219 75.707031 M 18.9375 76.800781 C 18.578125 77.46875 18.53125 78.761719 18.816406 80.042969 C 18.972656 80.734375 19.148438 82.335938 19.210938 83.601562 C 19.367188 86.707031 19.816406 89.761719 20.320312 91.148438 C 20.449219 91.503906 20.738281 92.703125 20.960938 93.816406 C 21.71875 97.609375 22.082031 98.910156 22.699219 100.046875 C 23.789062 102.046875 24.226562 103.613281 24.820312 107.621094 C 25.273438 110.710938 25.503906 111.742188 26.027344 113.050781 C 26.382812 113.9375 26.671875 114.726562 26.671875 114.800781 C 26.671875 114.871094 26.828125 115.152344 27.011719 115.421875 C 27.570312 116.21875 28.265625 118.308594 28.96875 121.273438 C 29.839844 124.972656 31.59375 129.003906 32.828125 130.167969 C 33.089844 130.410156 33.300781 130.703125 33.300781 130.820312 C 33.300781 130.933594 33.902344 131.453125 34.636719 131.96875 C 35.371094 132.484375 36.421875 133.324219 36.96875 133.839844 C 37.519531 134.351562 37.992188 134.75 38.019531 134.722656 C 38.046875 134.695312 37.785156 133.777344 37.4375 132.683594 C 36.761719 130.554688 35.488281 124.582031 35.242188 122.398438 C 35.160156 121.679688 35 117.601562 34.859375 112.6875 C 34.726562 108.125 34.488281 105.222656 34.03125 102.617188 C 33.832031 101.484375 33.667969 100.03125 33.667969 99.394531 C 33.667969 98.273438 33.640625 98.203125 32.824219 97.3125 C 32.296875 96.742188 31.609375 95.613281 30.984375 94.3125 C 30.15625 92.589844 29.988281 92.0625 29.988281 91.238281 C 29.988281 90.332031 29.9375 90.210938 29.390625 89.8125 C 28.578125 89.21875 27.609375 88.835938 25.753906 88.378906 C 22.792969 87.644531 20.859375 86.167969 20.03125 84.007812 C 19.332031 82.183594 19.519531 78.328125 20.371094 77.019531 C 20.617188 76.640625 20.609375 76.605469 20.296875 76.589844 C 20.109375 76.582031 19.769531 76.542969 19.546875 76.5 C 19.269531 76.449219 19.070312 76.546875 18.9375 76.800781 M 21.347656 77.273438 C 20.8125 77.957031 20.871094 78.214844 21.628906 78.535156 C 23.613281 79.363281 27.828125 82.96875 29.164062 84.980469 C 29.984375 86.214844 30.859375 88.316406 30.753906 88.800781 C 30.6875 89.109375 30.875 88.894531 31.441406 88.019531 L 32.039062 87.101562 L 31.207031 85.25 C 29.929688 82.402344 28.039062 79.972656 26.488281 79.183594 C 26.035156 78.949219 25.414062 78.574219 25.109375 78.347656 C 24.402344 77.816406 22.859375 77.042969 22.222656 76.902344 C 21.832031 76.8125 21.648438 76.890625 21.347656 77.273438 M 20.5625 80.335938 C 20.417969 82.398438 20.976562 84.355469 22.046875 85.503906 C 22.714844 86.222656 23.46875 86.578125 25.960938 87.335938 C 27.140625 87.695312 28.460938 88.160156 28.894531 88.371094 C 29.328125 88.582031 29.703125 88.730469 29.726562 88.707031 C 29.753906 88.683594 29.628906 88.246094 29.449219 87.738281 C 28.597656 85.320312 26.789062 83.359375 23.222656 80.984375 C 20.472656 79.15625 20.644531 79.199219 20.5625 80.335938 M 17.257812 80.660156 C 16.566406 81.589844 16.363281 82.363281 16.363281 84.070312 C 16.363281 85.449219 16.421875 85.703125 17.027344 86.875 C 17.433594 87.664062 17.859375 88.238281 18.140625 88.367188 C 18.75 88.644531 18.777344 88.632812 18.679688 88.15625 C 18.632812 87.929688 18.550781 87.203125 18.496094 86.546875 C 18.289062 83.953125 18 81.269531 17.871094 80.660156 L 17.730469 80.023438 L 17.257812 80.660156 M 84.109375 82.082031 C 82.964844 82.1875 80.539062 82.695312 79.785156 82.984375 C 78.617188 83.429688 77.132812 84.160156 77.019531 84.34375 C 76.839844 84.632812 84.007812 84.542969 85.953125 84.230469 C 89.632812 83.640625 90.359375 83.671875 90.078125 84.402344 C 89.894531 84.882812 88.859375 85.117188 82.914062 86.023438 C 81.546875 86.230469 77.5 86.117188 76.351562 85.835938 C 75.5 85.628906 75.382812 85.710938 74.910156 86.8125 C 74.382812 88.042969 74.363281 89.441406 74.863281 90.246094 C 75.691406 91.578125 78.164062 93.539062 79.476562 93.902344 C 81.09375 94.355469 82.480469 94.078125 85.125 92.785156 C 87.632812 91.554688 88.980469 90.5625 90.28125 88.984375 C 91.238281 87.828125 92.09375 85.949219 92.324219 84.511719 C 92.445312 83.757812 92.144531 82.863281 91.769531 82.863281 C 91.625 82.863281 91.476562 82.78125 91.441406 82.675781 C 91.328125 82.332031 86.035156 81.898438 84.109375 82.082031 M 16.917969 82.402344 C 16.210938 83.253906 16.707031 86.375 17.613281 86.785156 C 18.324219 87.109375 18.511719 86.695312 18.015625 85.890625 C 17.671875 85.335938 17.589844 84.929688 17.574219 83.730469 C 17.558594 82.222656 17.375 81.851562 16.917969 82.402344 M 133.371094 84.460938 C 133.304688 84.628906 133.308594 85.683594 133.375 86.804688 C 133.46875 88.371094 133.414062 89.363281 133.152344 91.054688 C 132.820312 93.214844 132.75 94.742188 132.964844 95.292969 C 133.039062 95.492188 133.363281 95.566406 134.167969 95.566406 L 135.269531 95.566406 L 135.265625 94.691406 C 135.265625 94.210938 135.433594 93.15625 135.640625 92.34375 C 136.078125 90.644531 136.101562 90.21875 135.820312 89 C 135.648438 88.238281 135.671875 87.960938 135.984375 87.070312 L 136.351562 86.027344 L 135.820312 85.386719 C 135.496094 84.988281 134.960938 84.628906 134.429688 84.445312 C 133.390625 84.09375 133.511719 84.089844 133.371094 84.460938 M 134.121094 85.378906 C 134.054688 85.449219 134 86.410156 134 87.519531 C 134 88.921875 133.886719 90.007812 133.621094 91.097656 C 133.226562 92.738281 133.273438 93.667969 133.761719 93.855469 C 134.140625 94.003906 134.320312 93.648438 134.339844 92.691406 C 134.347656 92.246094 134.480469 91.453125 134.636719 90.929688 C 134.828125 90.289062 134.921875 89.203125 134.921875 87.617188 C 134.921875 85.453125 134.894531 85.257812 134.582031 85.257812 C 134.398438 85.257812 134.191406 85.3125 134.121094 85.378906 M 87.515625 87.234375 C 84.085938 88.652344 81.265625 89.296875 78.648438 89.265625 C 77.4375 89.25 76.867188 89.324219 76.414062 89.5625 C 75.714844 89.925781 75.472656 90.375 75.84375 90.613281 C 76.472656 91.007812 79.769531 90.738281 83.007812 90.027344 C 86.804688 89.191406 90.738281 87.507812 90.738281 86.722656 C 90.738281 86.144531 89.792969 86.296875 87.515625 87.234375 M 136.898438 87.382812 C 136.84375 87.675781 136.871094 88.695312 136.960938 89.648438 C 137.109375 91.222656 137.089844 91.460938 136.738281 92.230469 C 136.328125 93.136719 136.035156 95.566406 136.335938 95.566406 C 136.5625 95.566406 137.140625 94.898438 137.527344 94.1875 C 138.019531 93.285156 138.417969 91.703125 138.417969 90.660156 C 138.417969 89.628906 137.878906 87.933594 137.332031 87.257812 L 137 86.851562 L 136.898438 87.382812 M 68.738281 89.113281 C 68.03125 89.296875 66.496094 89.707031 65.332031 90.023438 C 64.167969 90.339844 62.054688 90.757812 60.640625 90.957031 C 55.429688 91.691406 55.015625 91.765625 54.816406 92.003906 C 54.707031 92.140625 54.660156 92.367188 54.714844 92.515625 C 54.832031 92.808594 54.992188 92.804688 59.71875 92.320312 C 65.222656 91.757812 70.949219 90.171875 70.949219 89.214844 C 70.949219 88.71875 70.351562 88.6875 68.738281 89.113281 M 17.59375 92.699219 C 17.460938 93.042969 19.066406 97.910156 19.527344 98.558594 C 19.894531 99.078125 20.304688 99.210938 20.507812 98.878906 C 20.570312 98.777344 20.425781 98.257812 20.1875 97.726562 C 19.945312 97.199219 19.433594 95.789062 19.046875 94.601562 C 18.5 92.914062 18.273438 92.4375 18.019531 92.4375 C 17.839844 92.4375 17.648438 92.554688 17.59375 92.699219 M 132.171875 98.621094 C 131.542969 100.191406 131.34375 100.996094 131.136719 102.773438 C 130.996094 103.984375 130.828125 105.0625 130.761719 105.164062 C 130.699219 105.265625 130.832031 105.546875 131.058594 105.785156 L 131.464844 106.222656 L 132.195312 104.160156 C 133.234375 101.230469 133.308594 100.832031 133.148438 99.15625 C 133.070312 98.347656 133.023438 97.457031 133.042969 97.175781 C 133.0625 96.898438 133.050781 96.671875 133.011719 96.671875 C 132.976562 96.671875 132.597656 97.546875 132.171875 98.621094 M 133.910156 97.039062 C 133.847656 97.140625 133.894531 97.886719 134.011719 98.703125 C 134.273438 100.492188 134.089844 101.675781 133.171875 104.128906 C 132.304688 106.449219 132.261719 106.632812 132.554688 106.816406 C 132.859375 107.011719 134.382812 107.027344 134.667969 106.839844 C 134.796875 106.757812 134.925781 105.710938 135.003906 104.128906 C 135.097656 102.121094 135.0625 101.183594 134.828125 99.894531 C 134.664062 98.980469 134.527344 97.925781 134.519531 97.546875 C 134.507812 96.878906 134.175781 96.605469 133.910156 97.039062 M 135.453125 97.453125 C 135.4375 97.679688 135.449219 97.949219 135.46875 98.050781 C 135.863281 99.867188 136.039062 102.007812 135.9375 103.714844 C 135.875 104.800781 135.863281 105.691406 135.914062 105.691406 C 136.148438 105.691406 136.945312 104.019531 137.214844 102.96875 C 137.613281 101.417969 137.628906 99.300781 137.25 98.570312 C 136.953125 97.992188 135.949219 97.039062 135.644531 97.039062 C 135.550781 97.039062 135.464844 97.226562 135.453125 97.453125 M 19.296875 101.324219 C 17.914062 102.253906 16.40625 104.871094 16 107.042969 C 15.691406 108.695312 15.867188 110.109375 16.558594 111.53125 C 17.089844 112.621094 18.789062 114.710938 19.144531 114.710938 C 19.234375 114.710938 19.457031 114.5625 19.640625 114.382812 C 19.820312 114.199219 20.234375 113.941406 20.558594 113.808594 C 20.886719 113.671875 21.152344 113.53125 21.152344 113.492188 C 21.152344 113.457031 20.871094 113.03125 20.527344 112.550781 C 19.347656 110.894531 18.300781 108.316406 17.828125 105.902344 C 17.550781 104.488281 17.695312 103.804688 18.257812 103.886719 C 18.515625 103.921875 18.671875 104.078125 18.683594 104.3125 C 18.773438 106.164062 20.160156 109.816406 21.75 112.378906 C 22.1875 113.082031 22.191406 113.082031 23.511719 113.117188 C 24.238281 113.132812 24.832031 113.089844 24.832031 113.019531 C 24.832031 112.953125 24.703125 112.332031 24.542969 111.640625 C 24.382812 110.953125 24.011719 108.953125 23.722656 107.199219 C 23.148438 103.726562 22.824219 102.832031 21.714844 101.652344 C 20.882812 100.773438 20.242188 100.683594 19.296875 101.324219 M 20.488281 103.007812 C 20.425781 103.167969 20.472656 103.855469 20.589844 104.539062 C 21.210938 108.164062 23.390625 112.730469 24.140625 111.980469 C 24.316406 111.804688 24.15625 111.351562 23.40625 109.875 C 22.398438 107.890625 21.765625 106.019531 21.441406 104.035156 C 21.292969 103.140625 21.160156 102.828125 20.917969 102.78125 C 20.742188 102.746094 20.546875 102.847656 20.488281 103.007812 M 16.726562 107.273438 C 16.453125 107.988281 16.703125 109.125 17.5 110.804688 C 18.199219 112.273438 19.390625 113.792969 19.839844 113.792969 C 20.324219 113.792969 20.246094 113.214844 19.671875 112.5625 C 18.90625 111.6875 18.316406 110.40625 17.816406 108.515625 C 17.394531 106.90625 17.023438 106.488281 16.726562 107.273438 M 127.910156 108.4375 C 127.140625 109.105469 126.148438 109.941406 125.707031 110.292969 C 123.246094 112.269531 123.046875 112.59375 123.226562 114.277344 C 123.296875 114.917969 123.425781 115.492188 123.519531 115.546875 C 123.828125 115.738281 127.457031 111.921875 128.25 110.570312 C 128.957031 109.367188 129.519531 107.769531 129.371094 107.390625 C 129.335938 107.300781 128.675781 107.773438 127.910156 108.4375 M 130.523438 110.03125 C 130.207031 110.703125 129.949219 111.285156 129.949219 111.324219 C 129.949219 111.417969 128.746094 113.203125 128.148438 113.992188 C 127.875 114.355469 127.117188 115.207031 126.464844 115.886719 C 124.304688 118.132812 123.777344 119.398438 125.226562 118.839844 C 125.941406 118.566406 130.339844 112.804688 131.195312 111.023438 C 131.714844 109.9375 131.808594 108.949219 131.398438 108.867188 C 131.183594 108.820312 130.933594 109.152344 130.523438 110.03125 M 21.757812 114.695312 C 20.269531 115.203125 18.878906 116.382812 18.179688 117.726562 C 17.445312 119.132812 17.871094 122.929688 19.019531 125.210938 C 20.464844 128.089844 23.09375 130.652344 26.242188 132.257812 C 26.871094 132.578125 26.902344 132.578125 27.144531 132.257812 C 27.492188 131.800781 27.488281 131.796875 26.765625 131.304688 C 25.859375 130.6875 22.355469 127.148438 21.457031 125.941406 C 20.609375 124.804688 19.375 122.09375 19.195312 120.976562 C 19.121094 120.492188 19.160156 120.140625 19.3125 119.957031 C 19.671875 119.523438 19.992188 119.925781 20.414062 121.339844 C 21.042969 123.449219 21.988281 124.933594 24.097656 127.113281 C 26.878906 129.992188 28.046875 130.96875 28.519531 130.820312 C 28.730469 130.753906 28.878906 130.636719 28.847656 130.558594 C 28.816406 130.484375 28.140625 129.855469 27.34375 129.164062 C 23.6875 125.988281 21.152344 121.246094 21.152344 117.589844 C 21.152344 116.542969 21.292969 116.183594 21.703125 116.183594 C 22.109375 116.183594 22.265625 116.601562 23.089844 119.867188 C 23.90625 123.097656 24.875 125.054688 26.453125 126.671875 C 27.570312 127.820312 27.597656 127.835938 27.074219 127.039062 C 25.75 125.027344 23.566406 118.597656 23.617188 116.875 C 23.632812 116.367188 23.703125 116.277344 24.089844 116.277344 C 24.589844 116.277344 24.550781 116.175781 25.207031 119.132812 C 26.019531 122.78125 26.941406 124.949219 28.640625 127.210938 C 29.308594 128.101562 29.429688 128.703125 28.9375 128.703125 C 28.710938 128.703125 28.820312 128.90625 29.34375 129.441406 C 29.933594 130.042969 30.1875 130.175781 30.761719 130.175781 C 31.144531 130.175781 31.460938 130.128906 31.460938 130.074219 C 31.460938 130.015625 31.164062 129.582031 30.800781 129.105469 C 29.445312 127.335938 28.316406 124.523438 27.503906 120.878906 C 26.742188 117.457031 25.605469 115.058594 24.5 114.542969 C 23.898438 114.261719 22.867188 114.320312 21.757812 114.695312 M 120.007812 116.199219 C 118.84375 116.890625 117.464844 117.75 116.941406 118.105469 C 115.746094 118.921875 113.871094 121.257812 112.960938 123.0625 C 112.277344 124.414062 111.722656 126.367188 111.953125 126.597656 C 112.246094 126.894531 116.390625 123.503906 118.167969 121.503906 C 119.296875 120.234375 120.25 118.898438 120.910156 117.65625 C 121.519531 116.507812 121.792969 116.238281 122.0625 116.507812 C 123.144531 117.59375 117.433594 124.3125 112.875 127.316406 C 112.042969 127.863281 111.898438 128.347656 112.269531 129.324219 L 112.445312 129.785156 L 113.878906 128.851562 C 117.164062 126.710938 119.527344 124.242188 121.285156 121.121094 C 121.683594 120.410156 121.957031 120.105469 122.136719 120.171875 C 122.535156 120.328125 122.460938 120.777344 121.832031 121.988281 C 121.027344 123.542969 120.257812 124.523438 118.503906 126.25 C 117.097656 127.628906 114.3125 129.863281 113.367188 130.367188 C 112.976562 130.578125 112.976562 130.578125 113.492188 131.113281 C 115.605469 133.320312 121.371094 130.753906 123.105469 126.832031 C 124.5625 123.542969 125.035156 122.25 124.207031 123.824219 C 123.179688 125.78125 121.417969 127.585938 119.113281 129.042969 C 118.367188 129.515625 117.15625 130.292969 116.417969 130.773438 C 115.03125 131.679688 114.484375 131.847656 114.484375 131.375 C 114.484375 130.957031 115.023438 130.496094 117.019531 129.203125 C 118.015625 128.554688 118.996094 127.890625 119.191406 127.730469 C 119.386719 127.570312 120.003906 127.070312 120.5625 126.621094 C 121.539062 125.835938 122.363281 124.804688 123.519531 122.9375 C 124.089844 122.015625 124.441406 121.90625 124.605469 122.601562 C 124.703125 123.003906 124.703125 123.003906 124.9375 122.628906 C 125.144531 122.296875 125.117188 122.234375 124.695312 122.074219 C 124.433594 121.972656 124.144531 121.890625 124.054688 121.890625 C 123.96875 121.890625 123.664062 121.589844 123.382812 121.222656 C 122.925781 120.625 122.859375 120.34375 122.742188 118.597656 C 122.625 116.824219 122.371094 115.164062 122.195312 115.003906 C 122.15625 114.96875 121.171875 115.507812 120.007812 116.199219 M 109.792969 125.761719 C 109.285156 126.046875 107.195312 126.789062 105.144531 127.414062 C 99.796875 129.039062 97.839844 129.921875 96.867188 131.164062 C 96.277344 131.914062 95.820312 134.171875 95.949219 135.699219 C 96.074219 137.191406 96.796875 138.746094 97.566406 139.175781 C 98.007812 139.421875 98.09375 139.40625 98.671875 138.96875 C 99.824219 138.101562 101.128906 137.433594 102.519531 137 C 103.964844 136.550781 106.644531 135.292969 106.84375 134.96875 C 106.996094 134.722656 107.621094 134.722656 107.773438 134.972656 C 107.835938 135.078125 107.789062 135.285156 107.664062 135.433594 C 107.28125 135.898438 104.53125 137.359375 102.855469 137.992188 C 101.171875 138.625 99.476562 139.527344 99.644531 139.699219 C 99.8125 139.867188 101.746094 139.765625 102.664062 139.539062 C 104.476562 139.097656 106.753906 137.671875 108.039062 136.171875 C 108.496094 135.644531 110.253906 132.828125 110.253906 132.632812 C 110.253906 132.574219 110.503906 132.210938 110.8125 131.824219 L 111.371094 131.117188 L 110.976562 129.8125 C 110.578125 128.503906 110.535156 126.335938 110.886719 125.527344 C 111.070312 125.105469 110.898438 125.144531 109.792969 125.761719 M 107.558594 127.925781 C 106.761719 128.609375 105.941406 129.269531 105.742188 129.398438 C 104.601562 130.121094 102.175781 131.183594 100.398438 131.738281 C 98.316406 132.386719 95.980469 133.667969 96.121094 134.082031 C 96.335938 134.726562 96.777344 134.636719 99.316406 133.449219 C 100.722656 132.792969 102.484375 132.023438 103.230469 131.742188 C 104.699219 131.191406 106.722656 129.90625 108.042969 128.691406 C 108.5 128.269531 109.058594 127.800781 109.285156 127.648438 C 109.789062 127.3125 109.808594 127.117188 109.355469 126.875 C 109.070312 126.722656 108.761719 126.902344 107.558594 127.925781 M 108.121094 129.65625 C 106.515625 130.945312 104.695312 132.203125 104.429688 132.203125 C 104.359375 132.203125 104.167969 132.320312 104.007812 132.460938 C 103.847656 132.605469 102.695312 133.242188 101.449219 133.875 C 99.261719 134.984375 98.101562 135.800781 98.101562 136.238281 C 98.101562 136.71875 98.71875 136.609375 99.980469 135.914062 C 100.71875 135.507812 102.359375 134.648438 103.625 134.007812 C 106.378906 132.617188 107.628906 131.800781 108.90625 130.566406 C 110.203125 129.3125 110.585938 128.726562 110.238281 128.507812 C 110.09375 128.414062 109.929688 128.339844 109.871094 128.339844 C 109.8125 128.335938 109.027344 128.929688 108.121094 129.65625 M 29.574219 132.03125 C 29.191406 132.230469 28.882812 132.527344 28.882812 132.691406 C 28.882812 133.859375 31.300781 136.484375 34.707031 139.019531 C 36.457031 140.316406 37.628906 141.40625 38.21875 142.28125 C 38.621094 142.875 38.871094 142.792969 39.226562 141.953125 L 39.535156 141.214844 L 38.671875 140.363281 C 38.199219 139.894531 37.058594 138.949219 36.136719 138.261719 C 35.214844 137.578125 34.117188 136.625 33.699219 136.148438 C 32.789062 135.117188 31.824219 133.160156 31.792969 132.28125 C 31.769531 131.667969 31.746094 131.648438 31.015625 131.65625 C 30.601562 131.660156 29.953125 131.828125 29.574219 132.03125 M 93.484375 131.902344 C 93.441406 131.941406 92.867188 132.023438 92.210938 132.082031 C 88.820312 132.390625 85.96875 133.074219 84.398438 133.957031 C 82.769531 134.867188 80.835938 136.828125 81.433594 136.953125 C 81.785156 137.03125 86.914062 135.785156 87.882812 135.390625 C 88.910156 134.972656 92.347656 133.375 93.167969 132.933594 C 94.027344 132.472656 94.421875 132.46875 94.421875 132.925781 C 94.421875 133.320312 91.746094 134.890625 89.621094 135.738281 C 88.292969 136.269531 84.425781 137.355469 82.152344 137.832031 L 80.652344 138.148438 L 80.449219 139.164062 C 80.082031 140.988281 80.277344 141.96875 81.222656 143.015625 C 81.691406 143.535156 81.816406 143.53125 83.640625 142.988281 C 84.457031 142.746094 85.828125 142.378906 86.6875 142.175781 C 89.980469 141.402344 91.15625 140.691406 92.75 138.5 C 93.242188 137.824219 93.65625 137.425781 93.804688 137.484375 C 94.75 137.847656 92.878906 140.40625 90.695312 141.738281 C 90.113281 142.09375 87.324219 143.035156 84.847656 143.71875 C 83.355469 144.128906 83.171875 144.277344 83.953125 144.453125 C 86.394531 145.003906 89.640625 143.867188 92.578125 141.429688 C 94.152344 140.125 95.5625 138.675781 95.445312 138.484375 C 95.21875 138.113281 94.753906 133.714844 94.847656 132.800781 L 94.945312 131.832031 L 94.253906 131.832031 C 93.871094 131.832031 93.527344 131.863281 93.484375 131.902344 M 32.933594 132.558594 C 32.933594 133.144531 33.84375 135 34.464844 135.675781 C 34.683594 135.917969 35.695312 136.757812 36.707031 137.546875 C 37.71875 138.332031 38.898438 139.304688 39.328125 139.703125 C 39.761719 140.101562 40.113281 140.402344 40.113281 140.367188 C 40.113281 140.335938 39.847656 139.871094 39.523438 139.339844 C 38.027344 136.871094 34.820312 133.144531 33.550781 132.394531 L 32.933594 132.03125 L 32.933594 132.558594 M 27.550781 133.828125 C 27 134.78125 26.984375 135.414062 27.492188 136.417969 C 28 137.417969 28.894531 138.203125 31.03125 139.519531 C 31.730469 139.949219 32.988281 140.910156 33.824219 141.65625 C 35.332031 143 35.351562 143.007812 36.117188 142.867188 C 36.542969 142.792969 36.910156 142.71875 36.9375 142.710938 C 36.960938 142.703125 37.011719 142.695312 37.050781 142.695312 C 37.261719 142.695312 33.726562 139.472656 32.53125 138.570312 C 30.867188 137.320312 29.46875 135.863281 28.519531 134.394531 L 27.835938 133.339844 L 27.550781 133.828125 M 91.511719 136.058594 C 90.773438 136.449219 90.070312 136.851562 89.949219 136.945312 C 89.460938 137.328125 86.882812 138.636719 85.582031 139.160156 C 84.824219 139.464844 83.640625 139.824219 82.957031 139.953125 C 81.617188 140.203125 80.921875 140.683594 81.320312 141.082031 C 81.828125 141.59375 86.949219 140.027344 89.859375 138.472656 C 92.179688 137.234375 93.765625 136.042969 93.632812 135.636719 C 93.496094 135.21875 92.839844 135.351562 91.511719 136.058594 M 78.738281 137.449219 C 78.6875 137.5 77.90625 137.703125 77.003906 137.898438 C 75.378906 138.253906 72.800781 138.527344 68.921875 138.753906 C 67.808594 138.816406 66.832031 138.933594 66.75 139.007812 C 66.597656 139.144531 67.730469 139.5 68.738281 139.628906 C 69.042969 139.667969 70.121094 139.589844 71.132812 139.453125 C 72.878906 139.222656 75.539062 138.945312 77.925781 138.742188 C 78.523438 138.691406 79.023438 138.625 79.035156 138.601562 C 79.046875 138.574219 79.148438 138.285156 79.265625 137.953125 C 79.453125 137.425781 79.4375 137.355469 79.15625 137.355469 C 78.976562 137.355469 78.792969 137.398438 78.738281 137.449219 M 28.066406 139.078125 C 29.171875 141.050781 31.765625 143.0625 33.203125 143.0625 L 33.855469 143.0625 L 32.703125 142.046875 C 32.070312 141.488281 30.847656 140.5625 29.988281 139.992188 C 29.125 139.421875 28.230469 138.785156 27.996094 138.574219 C 27.589844 138.210938 27.59375 138.230469 28.066406 139.078125 M 44.347656 139.136719 C 41.449219 140.121094 41.015625 140.453125 40.082031 142.417969 C 39.617188 143.398438 39.558594 143.726562 39.558594 145.328125 L 39.558594 147.132812 L 40.351562 147.972656 L 41.140625 148.808594 L 41.847656 148.328125 C 43.125 147.464844 45.851562 146.816406 49.359375 146.550781 C 51.890625 146.359375 52.941406 146.058594 55.898438 144.695312 C 56.785156 144.289062 57.777344 143.941406 58.105469 143.921875 C 58.550781 143.898438 58.703125 143.804688 58.703125 143.558594 C 58.707031 143.375 58.796875 143.050781 58.910156 142.839844 C 59.117188 142.457031 59.113281 142.457031 58.558594 142.851562 C 58.253906 143.070312 57.273438 143.59375 56.378906 144.015625 C 54.792969 144.765625 54.707031 144.785156 52.40625 144.867188 C 50.445312 144.9375 49.730469 144.882812 48.089844 144.539062 C 46.207031 144.140625 44.648438 144.105469 41.957031 144.394531 C 41.351562 144.460938 41.234375 143.902344 41.792969 143.601562 C 42.53125 143.207031 45.257812 143.171875 47.691406 143.527344 C 50.636719 143.953125 53.339844 143.972656 54.597656 143.578125 C 55.714844 143.222656 59.335938 141.359375 59.378906 141.113281 C 59.398438 141.023438 58.984375 140.847656 58.460938 140.722656 C 57.9375 140.601562 57.496094 140.496094 57.480469 140.492188 C 57.464844 140.488281 57.492188 140.644531 57.542969 140.839844 C 57.605469 141.070312 57.503906 141.261719 57.25 141.398438 C 56.753906 141.664062 53.714844 141.667969 52.222656 141.410156 C 51.585938 141.296875 50.617188 141.125 50.070312 141.03125 C 48.65625 140.78125 47.039062 140.824219 45.542969 141.144531 C 43.707031 141.542969 43.539062 141.542969 43.464844 141.171875 C 43.414062 140.933594 43.636719 140.734375 44.285156 140.4375 C 45.074219 140.070312 45.453125 140.027344 47.660156 140.046875 C 49.027344 140.058594 50.519531 140.164062 50.972656 140.28125 C 51.96875 140.542969 57.203125 140.785156 56.992188 140.5625 C 56.789062 140.34375 55.492188 140.003906 52.824219 139.472656 C 50.917969 139.089844 50.027344 139.015625 47.574219 139.027344 C 45.953125 139.035156 44.5 139.085938 44.347656 139.136719 M 62.472656 139.632812 C 61.035156 140.300781 60.09375 141.613281 59.628906 143.589844 C 59.347656 144.78125 59.476562 146.324219 59.9375 147.242188 C 60.460938 148.300781 60.722656 148.359375 61.675781 147.636719 C 63.085938 146.558594 64.273438 146.15625 66.53125 145.996094 C 69.214844 145.800781 71.082031 145.355469 72.382812 144.601562 C 73.511719 143.949219 73.886719 143.855469 74.085938 144.179688 C 74.269531 144.480469 73.527344 145.171875 72.359375 145.789062 C 71.503906 146.242188 70.804688 146.410156 68.460938 146.734375 C 65.265625 147.179688 64.019531 147.484375 62.6875 148.160156 C 61.59375 148.714844 61.746094 148.882812 63.484375 149.046875 C 64.148438 149.109375 64.910156 149.1875 65.179688 149.222656 C 65.449219 149.257812 66.355469 149.167969 67.195312 149.019531 C 69.039062 148.699219 70.53125 147.941406 72.609375 146.261719 C 74.09375 145.058594 76.824219 143.0625 76.980469 143.0625 C 77.027344 143.0625 77.605469 142.816406 78.269531 142.515625 L 79.476562 141.96875 L 79.316406 141.367188 C 79.226562 141.035156 79.113281 140.542969 79.058594 140.277344 C 78.964844 139.820312 78.910156 139.800781 78.082031 139.878906 C 77.601562 139.925781 75.96875 140.164062 74.453125 140.410156 C 72.9375 140.652344 71.261719 140.855469 70.722656 140.855469 C 69.691406 140.855469 67.140625 140.34375 65.148438 139.734375 C 64.492188 139.535156 63.828125 139.332031 63.675781 139.285156 C 63.523438 139.242188 62.984375 139.398438 62.472656 139.632812 M 73.894531 141.695312 C 71.226562 142.710938 69.890625 142.929688 65.648438 143.046875 C 62.527344 143.136719 61.789062 143.207031 61.652344 143.429688 C 61.351562 143.917969 61.867188 144.179688 63.136719 144.183594 C 64.964844 144.183594 69.484375 143.824219 71.222656 143.539062 C 74.230469 143.042969 76.425781 142.179688 76.53125 141.453125 C 76.578125 141.105469 76.503906 141.039062 76.070312 141.050781 C 75.785156 141.058594 74.804688 141.347656 73.894531 141.695312 M 56.917969 145.316406 C 56.1875 145.636719 55.613281 145.925781 55.648438 145.957031 C 55.699219 146.007812 56.578125 145.859375 58.109375 145.535156 C 58.367188 145.480469 58.523438 145.3125 58.523438 145.085938 C 58.523438 144.621094 58.5 144.621094 56.917969 145.316406 M 51.066406 147.398438 C 50.457031 147.535156 48.96875 147.734375 47.753906 147.839844 C 45.347656 148.050781 43.550781 148.417969 42.648438 148.882812 C 42.109375 149.160156 42.097656 149.195312 42.429688 149.390625 C 42.621094 149.503906 43.664062 149.617188 44.742188 149.636719 C 47.484375 149.691406 49.296875 149.167969 51.800781 147.589844 C 52.632812 147.0625 52.597656 147.054688 51.066406 147.398438 " fill-opacity="1" fill-rule="evenodd"/></g></svg>