<svg xmlns="http://www.w3.org/2000/svg" xmlns:xlink="http://www.w3.org/1999/xlink" width="300" zoomAndPan="magnify" viewBox="0 0 224.87999 112.499997" height="150" preserveAspectRatio="xMidYMid meet" version="1.0"><defs><clipPath id="708531baa9"><path d="M 1 27 L 224 27 L 224 96.789062 L 1 96.789062 Z M 1 27 " clip-rule="nonzero"/></clipPath><clipPath id="e583fb7358"><path d="M 138 15.398438 L 147 15.398438 L 147 21 L 138 21 Z M 138 15.398438 " clip-rule="nonzero"/></clipPath></defs><g clip-path="url(#708531baa9)"><path fill="#f5e8d8" d="M 111.675781 45.40625 C 111.703125 45.535156 111.808594 45.726562 111.757812 45.78125 C 111.136719 46.484375 109.460938 46.125 109.175781 45.199219 C 109.074219 44.714844 109.027344 44.226562 109.03125 43.734375 C 103.535156 43.734375 104.636719 43.546875 101.042969 43.488281 C 97.816406 43.433594 95.304688 43.664062 89.84375 43.347656 C 88.796875 43.289062 88.46875 42.902344 88.5 41.824219 C 88.75 33.089844 88.789062 37.613281 88.789062 28.847656 C 81.128906 28.847656 79.125 28.128906 74.609375 29.378906 C 74.128906 29.570312 73.757812 29.890625 73.5 30.34375 C 66.425781 41.511719 69.242188 38.054688 65.511719 43.773438 C 64.738281 42.898438 63.902344 43.300781 63.128906 43.359375 C 52.910156 44.121094 49.183594 44.003906 29.285156 48.140625 C 27.304688 48.554688 25.355469 49.109375 23.40625 49.648438 C 22.191406 49.980469 21.09375 50.542969 20.121094 51.339844 C 19.144531 52.136719 18.375 53.101562 17.808594 54.226562 C 19.472656 53.675781 30.15625 50.265625 32.75 49.785156 C 36.542969 49.085938 49.988281 46.945312 51.128906 46.8125 C 61.941406 45.539062 62.359375 46.265625 66.800781 46.445312 C 78.128906 46.90625 81.84375 45.867188 92.804688 46.910156 C 95.203125 47.140625 97.625 47.03125 100.039062 47.078125 C 117.449219 47.390625 111.488281 47.492188 115.996094 47.609375 C 116.023438 47.734375 116.042969 47.859375 116.066406 47.984375 L 114.765625 48.554688 C 114.765625 48.6875 114.726562 48.972656 114.691406 49.386719 C 139.132812 50.636719 133.824219 49.902344 147.96875 50.28125 C 149.03125 50.308594 149.710938 49.933594 150.464844 49.175781 C 152.183594 47.46875 154.054688 46.121094 156.75 46.058594 C 159.851562 45.984375 162.925781 46.117188 166.007812 46.296875 C 167.878906 46.410156 169.707031 46.75 171.496094 47.316406 C 173.28125 47.882812 174.972656 48.65625 176.570312 49.644531 C 178.164062 50.628906 179.617188 51.792969 180.921875 53.136719 C 182.226562 54.484375 183.351562 55.96875 184.289062 57.589844 C 185.59375 59.8125 187.265625 61.8125 188.804688 63.890625 C 195.007812 72.28125 193.796875 74.757812 195.265625 75.511719 C 196.929688 76.296875 198.683594 76.636719 200.523438 76.535156 C 204.390625 76.464844 208.613281 75.972656 212.378906 75.535156 C 212.761719 75.460938 213.132812 75.351562 213.496094 75.207031 L 214.890625 75.207031 L 214.425781 75.949219 C 214.839844 76.308594 215.257812 76.441406 215.671875 76.15625 C 215.976562 75.953125 216.1875 75.679688 216.3125 75.339844 C 216.4375 74.996094 216.445312 74.648438 216.34375 74.300781 C 216.1875 73.847656 215.898438 73.519531 215.46875 73.304688 C 215.011719 73.273438 214.625 73.425781 214.316406 73.765625 C 213.976562 74.214844 213.699219 74.703125 213.484375 75.222656 C 213.453125 74.980469 213.464844 74.742188 213.515625 74.503906 C 213.566406 74.261719 213.65625 74.039062 213.78125 73.828125 C 213.90625 73.621094 214.0625 73.4375 214.25 73.28125 C 214.4375 73.125 214.644531 73.003906 214.875 72.914062 C 216.539062 72.429688 218.238281 71.996094 219.914062 71.511719 C 220.980469 71.210938 221.425781 72.050781 221.996094 72.621094 C 222.25 72.867188 222.394531 73.167969 222.433594 73.519531 C 222.46875 73.875 222.386719 74.199219 222.1875 74.492188 C 221.871094 75.058594 221.679688 74.957031 215.671875 76.765625 C 215.371094 76.878906 215.066406 76.886719 214.761719 76.796875 C 214.453125 76.707031 214.203125 76.535156 214.007812 76.28125 C 213.898438 76.136719 213.753906 76.035156 213.582031 75.976562 C 213.410156 75.921875 213.234375 75.917969 213.058594 75.96875 C 201.488281 77.265625 203.871094 76.917969 198.1875 76.917969 L 198.164062 77.125 C 198.382812 77.175781 198.601562 77.210938 198.824219 77.238281 C 204.582031 77.597656 205.035156 77.417969 206.246094 78.253906 C 207.746094 79.292969 208.117188 78.957031 212.320312 79.007812 C 213.804688 79.007812 215.285156 79.078125 216.867188 79.113281 C 217.457031 77.523438 216.96875 77.535156 218.53125 77.546875 C 222.421875 77.574219 222.464844 77.605469 222.644531 77.71875 C 223.820312 78.476562 224.066406 82.011719 221.738281 81.53125 C 220.589844 81.261719 219.453125 81.3125 218.335938 81.6875 C 217.601562 81.941406 217.1875 81.339844 217.085938 80.855469 C 216.824219 79.511719 215.839844 79.480469 214.855469 79.464844 C 212.800781 79.433594 210.746094 79.433594 208.683594 79.464844 C 206.445312 79.496094 206.242188 78.214844 204.3125 78.003906 C 196.035156 77.171875 198.960938 77.933594 195.070312 76.625 L 194.597656 79.09375 C 195.585938 79.925781 197.066406 79.507812 198.625 79.425781 C 201.394531 79.253906 200.351562 81.164062 204.117188 80.792969 C 206.425781 80.570312 209.109375 81.011719 210.28125 83.015625 C 210.589844 83.453125 210.988281 83.773438 211.488281 83.96875 C 211.621094 84.035156 211.761719 84.074219 211.910156 84.082031 C 212.0625 84.089844 212.207031 84.070312 212.347656 84.019531 C 212.488281 83.96875 212.613281 83.894531 212.722656 83.792969 C 212.832031 83.691406 212.917969 83.570312 212.976562 83.4375 C 214.128906 81.542969 214.640625 82.488281 218.355469 83.71875 C 218.554688 83.753906 218.71875 83.851562 218.84375 84.011719 C 218.96875 84.167969 219.027344 84.347656 219.015625 84.550781 C 219.023438 85.066406 218.917969 85.558594 218.703125 86.027344 C 218.488281 86.496094 218.183594 86.898438 217.789062 87.230469 C 217.4375 87.417969 217.066406 87.453125 216.683594 87.335938 C 216.417969 87.273438 214.84375 86.40625 213.890625 86.175781 C 212.644531 85.882812 212.644531 85.90625 212.390625 84.582031 C 212.125 84.570312 211.863281 84.523438 211.613281 84.433594 C 211.078125 84.152344 210.363281 83.925781 210.105469 83.46875 C 209.097656 81.59375 207.375 81.265625 205.53125 81.113281 C 204.238281 81.011719 202.574219 81.65625 200.539062 80.332031 C 199.992188 80.039062 199.410156 79.878906 198.792969 79.859375 C 197.671875 79.742188 196.058594 80.554688 194.277344 79.546875 L 192.292969 80.824219 C 193.578125 81.65625 194.789062 82.652344 196.746094 83.109375 C 197.761719 83.347656 198.804688 83.429688 199.828125 83.621094 C 200.851562 83.8125 201.804688 84.039062 202.804688 84.277344 C 202.914062 84.175781 203.007812 84.0625 203.085938 83.9375 C 203.601562 82.636719 204.914062 82.800781 206.332031 82.992188 C 208.0625 83.21875 208.242188 83.382812 208.679688 85.070312 C 208.890625 85.902344 208.566406 86.410156 207.714844 86.480469 C 207.21875 86.523438 205.367188 86.414062 204.175781 86.480469 C 203.34375 86.527344 202.867188 86.195312 202.808594 85.382812 C 202.816406 85.191406 202.757812 85.027344 202.632812 84.882812 C 202.507812 84.742188 202.351562 84.664062 202.160156 84.644531 C 200.914062 84.375 199.695312 84.054688 198.445312 83.855469 C 196.617188 83.5625 194.855469 83.183594 193.425781 81.859375 C 192.710938 81.199219 191.808594 81.210938 190.875 81.480469 C 190.101562 81.710938 189.292969 81.820312 188.507812 82.011719 C 188.285156 82.089844 188.074219 82.195312 187.875 82.324219 C 186.246094 83.21875 189.269531 82.675781 176.578125 83.335938 C 175.980469 85.917969 174.683594 88.085938 173.230469 90.152344 C 172.324219 91.527344 171.132812 92.578125 169.660156 93.308594 C 167.894531 94.117188 166.1875 95.0625 164.378906 95.753906 C 162.691406 96.355469 160.953125 96.613281 159.160156 96.535156 C 153.566406 96.421875 150.285156 96.453125 145.882812 92.617188 C 143.15625 90.246094 142.03125 88.039062 139.410156 83.792969 C 138.160156 83.867188 136.871094 83.996094 135.597656 84.015625 C 132.953125 84.042969 126.65625 83.726562 126.144531 83.675781 C 106.652344 81.839844 106.765625 82.921875 60.3125 82.589844 C 58.347656 82.589844 56.390625 82.359375 54.425781 82.339844 C 52.722656 82.339844 51.019531 82.464844 49.277344 82.539062 C 49.132812 83.414062 48.917969 84.273438 48.625 85.117188 C 47.117188 88.542969 46.035156 89.691406 44.703125 90.898438 C 40.320312 94.8125 34.007812 95.890625 28.066406 94.789062 C 22.960938 93.847656 18.082031 89.90625 15.453125 85.363281 C 13.582031 82.113281 13.59375 78.785156 13.453125 76.335938 C 8.308594 75.878906 8.199219 75.917969 7.980469 75.742188 C 6.851562 74.78125 5.519531 74.984375 4.238281 75.089844 C 1.785156 75.300781 0.835938 73.050781 1.714844 71.113281 C 2.621094 69.113281 3.40625 68.652344 5.289062 68.964844 C 5.988281 69.074219 7.125 69.128906 7.367188 68.472656 C 8.707031 65.007812 10.929688 62.097656 13.164062 59.203125 C 14.070312 58.027344 15.105469 56.945312 16.074219 55.796875 C 16.234375 55.605469 16.175781 55.234375 16.320312 55.023438 C 20.308594 49.199219 18.359375 49.265625 41.988281 45.039062 C 50.914062 43.464844 50.082031 43.765625 53.996094 43.4375 C 57.046875 43.183594 64.660156 42.570312 65.644531 42.496094 C 68.730469 36.746094 66.996094 39.707031 71.980469 31.464844 C 72.933594 29.890625 73.375 28.824219 74.222656 28.679688 C 80.964844 27.519531 80.046875 28.015625 84.011719 28.09375 C 85.597656 28.121094 87.179688 28.09375 88.972656 28.09375 C 89.511719 28.507812 89.574219 29.257812 89.53125 30.171875 C 89.441406 32.074219 89.53125 33.988281 89.503906 35.890625 C 89.363281 43.632812 87.96875 42.660156 95.179688 42.792969 C 107.355469 43.023438 105.582031 43.039062 109.324219 42.792969 C 109.558594 42.792969 110.328125 42.25 110.789062 42.246094 C 111.519531 42.246094 112.253906 42.300781 113.039062 42.34375 L 110.886719 43.59375 C 110.546875 43.6875 110.035156 43.691406 109.960938 43.875 C 109.777344 44.3125 109.742188 44.765625 109.859375 45.226562 C 109.925781 45.433594 110.503906 45.527344 110.863281 45.570312 C 111.148438 45.570312 111.425781 45.527344 111.695312 45.433594 Z M 29.65625 51.351562 C 29.816406 51.410156 29.976562 51.449219 30.144531 51.472656 C 31.289062 51.472656 32.433594 51.421875 33.570312 51.472656 C 37.273438 51.683594 40.980469 51.769531 44.570312 52.917969 C 49.609375 54.53125 51.988281 56.382812 54.269531 61.199219 C 55.101562 62.972656 55.449219 64.992188 55.933594 66.921875 C 56.761719 70.355469 57.8125 73.765625 57.761719 77.359375 C 57.746094 77.457031 57.753906 77.554688 57.789062 77.652344 C 57.820312 77.746094 57.871094 77.832031 57.941406 77.902344 C 58.011719 77.972656 58.09375 78.023438 58.1875 78.058594 C 58.285156 78.089844 58.382812 78.097656 58.480469 78.085938 C 59.945312 78.117188 64.851562 78.3125 65.8125 78.359375 C 66.363281 71.289062 66.765625 70.90625 66.265625 58.941406 C 66.039062 53.5625 66.074219 59.90625 65.804688 48.101562 C 65.78125 47.132812 65.550781 46.851562 64.554688 46.851562 C 60.511719 46.851562 56.40625 46.730469 49.773438 47.683594 C 27.621094 50.949219 35.164062 50.191406 27.421875 51.84375 L 27.492188 52.089844 Z M 112.675781 78.839844 C 113.042969 73.996094 111.011719 71.867188 113.824219 50.550781 C 113.921875 49.835938 114 49.121094 114.089844 48.347656 C 113.738281 48.253906 113.378906 48.1875 113.019531 48.148438 C 109.003906 48.011719 96.46875 47.777344 94.222656 47.679688 C 92.558594 47.609375 90.929688 47.289062 89.277344 47.207031 C 82.828125 46.867188 71.519531 47.15625 66.378906 47.15625 C 66.378906 59.796875 66.90625 47.433594 67.175781 68.199219 C 67.226562 71.878906 66.761719 77.207031 66.65625 78.554688 C 82 78.859375 97.28125 79.3125 112.675781 78.839844 Z M 75.417969 79.53125 C 74.132812 79.457031 72.839844 79.363281 71.550781 79.292969 C 60.675781 78.722656 63.582031 79.058594 58.085938 78.875 C 57.003906 78.84375 56.539062 78.359375 56.898438 77.496094 C 56.976562 77.222656 57.011719 76.945312 57 76.664062 C 57.199219 74.023438 56.214844 71.355469 55.101562 66.09375 C 54.65625 63.96875 54.195312 61.855469 52.96875 60.011719 C 51.929688 58.445312 50.921875 56.867188 49.316406 55.769531 C 44.097656 52.191406 37.910156 52.308594 30.910156 52.054688 C 29.613281 52.003906 27.03125 52.886719 25.960938 52.714844 C 25.359375 52.601562 24.773438 52.65625 24.203125 52.886719 C 23.019531 53.328125 18.707031 53.71875 15.589844 57.414062 C 11.757812 61.992188 6.746094 68.230469 7.269531 73.675781 C 7.277344 73.875 7.324219 74.0625 7.402344 74.246094 C 7.480469 74.425781 7.585938 74.589844 7.726562 74.730469 C 7.863281 74.875 8.019531 74.988281 8.199219 75.074219 C 8.378906 75.160156 8.566406 75.210938 8.761719 75.226562 C 10.3125 75.351562 11.871094 75.414062 13.445312 75.503906 C 14.078125 72.917969 14.109375 72.589844 14.394531 71.917969 C 19.550781 59.816406 24.675781 57.773438 34.585938 58.539062 C 36.472656 58.679688 38.179688 59.398438 39.9375 60.007812 C 44.511719 61.59375 47.894531 67.15625 49.058594 71.65625 C 50.308594 76.539062 50.152344 78.496094 50.152344 81.859375 C 51.867188 81.859375 53.554688 81.683594 55.640625 81.710938 C 55.691406 81.710938 69.910156 82.011719 77.21875 81.933594 C 79.214844 81.933594 81.207031 81.796875 83.203125 81.8125 C 86.40625 81.839844 89.613281 81.996094 92.820312 81.992188 C 92.863281 81.992188 112.4375 81.496094 120.890625 82.503906 C 130.203125 83.609375 133.394531 83.199219 137.964844 83.15625 C 138.714844 83.15625 139.011719 82.765625 139.066406 82.078125 C 139.421875 77.84375 141.335938 70.886719 144.121094 67.519531 C 145.585938 65.722656 147.320312 64.238281 149.320312 63.0625 C 151.320312 61.890625 153.460938 61.101562 155.746094 60.703125 C 158.195312 60.21875 160.660156 60.152344 163.132812 60.496094 C 166.351562 60.972656 169.492188 61.703125 171.671875 64.523438 C 176.160156 70.347656 176.386719 73.792969 177.167969 80.558594 C 177.207031 81.210938 177.207031 81.863281 177.167969 82.515625 C 180.203125 82.570312 183.230469 82.464844 186.253906 82.203125 C 187.472656 82.089844 187.75 81.59375 187.351562 80.40625 C 186.519531 77.929688 185.65625 75.460938 184.765625 73.003906 C 181.953125 65.332031 175.929688 60.972656 172.007812 57.878906 C 168.082031 54.78125 163.269531 52.886719 157.308594 52.46875 C 153.421875 52.214844 152.28125 52.304688 148.261719 54.613281 C 145.21875 56.363281 144.636719 56.640625 143.394531 58.09375 C 140.390625 61.585938 138.402344 66.195312 136.871094 70.5 C 135.847656 73.359375 134.824219 76.191406 135.160156 79.308594 C 135.207031 79.746094 134.910156 79.914062 134.519531 79.902344 C 113.1875 79.488281 132.855469 79.324219 98.789062 79.792969 C 98.554688 79.800781 77.539062 79.644531 75.417969 79.53125 Z M 114.519531 50.019531 C 113.433594 59.757812 112.179688 69.257812 113.8125 78.722656 L 133.84375 79.117188 C 134.214844 77.199219 134.390625 75.375 134.941406 73.644531 C 136.785156 67.890625 140.070312 59.566406 144.699219 55.703125 C 145.601562 54.949219 146.398438 54.007812 147.410156 53.449219 C 148.417969 52.894531 148.585938 51.9375 149.171875 50.957031 C 143.257812 50.886719 137.523438 50.898438 131.820312 50.742188 C 126.117188 50.589844 120.386719 50.273438 114.523438 50.019531 Z M 157.988281 95.75 C 159.675781 95.867188 161.347656 95.738281 162.996094 95.367188 C 164.648438 94.996094 166.210938 94.394531 167.6875 93.566406 C 169.4375 92.617188 172.636719 91.410156 175.351562 84.679688 C 175.6875 83.847656 175.566406 82.808594 175.964844 82.019531 C 176.992188 79.992188 175.738281 74.574219 175.132812 72.378906 C 174.398438 69.898438 173.25 67.625 171.6875 65.5625 C 170.597656 63.976562 169.136719 62.882812 167.3125 62.28125 C 162.917969 60.894531 163.492188 61.363281 159.050781 61.128906 C 156.066406 60.976562 153.328125 61.960938 150.671875 63.113281 C 149.34375 63.6875 148.210938 64.777344 147.035156 65.660156 C 144.890625 67.28125 143.335938 69.34375 142.371094 71.851562 C 141.53125 74.054688 140.828125 76.304688 140.261719 78.597656 C 140.019531 79.566406 140.230469 83.757812 140.648438 84.464844 C 143.445312 89.183594 144.605469 90.726562 147.460938 92.910156 C 148.667969 93.921875 150.027344 94.628906 151.542969 95.035156 C 153.664062 95.496094 155.808594 96.039062 157.988281 95.75 Z M 49.550781 80.417969 C 49.335938 77.394531 49.4375 75.195312 47.527344 69.15625 C 46.695312 66.601562 43.675781 62.726562 41.640625 61.667969 C 37.605469 59.527344 33.375 58.484375 27.691406 59.382812 C 26.148438 59.59375 24.703125 60.085938 23.355469 60.859375 C 22.003906 61.632812 20.851562 62.632812 19.890625 63.855469 C 17.601562 66.765625 14.710938 71.5625 14.546875 75.273438 C 14.445312 77.644531 14.347656 80.0625 15 82.347656 C 16.097656 86.203125 19.15625 89.535156 22.484375 91.640625 C 25.898438 93.792969 27.894531 94.167969 31.136719 94.410156 C 35.117188 94.703125 38.785156 93.742188 42.257812 91.914062 C 43.394531 91.292969 44.394531 90.496094 45.25 89.519531 C 46.109375 88.546875 46.773438 87.457031 47.25 86.253906 C 47.664062 85.148438 47.863281 83.984375 48.195312 82.863281 C 48.417969 82.125 48.746094 80.667969 49.550781 80.417969 Z M 167.597656 54.242188 C 169.03125 55.199219 174.355469 58.3125 179.066406 63.148438 C 184.335938 68.554688 185.429688 72.972656 187.976562 80.441406 C 188.1875 81.058594 188.425781 81.414062 189.089844 81.152344 C 192.492188 79.816406 194.914062 79.277344 194.046875 75.785156 C 191.9375 67.46875 187.777344 64.777344 183.722656 57.859375 C 181.644531 54.308594 178.867188 51.488281 175.121094 49.675781 C 174.378906 49.316406 173.722656 49.148438 172.910156 49.566406 C 171.066406 50.515625 169.46875 51.777344 168.125 53.355469 C 167.921875 53.636719 167.746094 53.929688 167.597656 54.242188 Z M 149.503906 52.382812 C 155.574219 50.832031 161.234375 51.839844 166.675781 53.984375 C 168.160156 51.449219 170.5625 50.109375 172.886719 48.617188 C 172.792969 48.527344 172.6875 48.453125 172.570312 48.398438 C 171.785156 48.09375 170.980469 47.84375 170.160156 47.644531 C 165.320312 46.71875 160.449219 46.5 155.550781 46.992188 C 154.949219 47.042969 154.394531 47.226562 153.886719 47.546875 C 152.898438 48.246094 151.953125 48.996094 151.050781 49.804688 C 150.859375 49.96875 150.871094 50.355469 150.761719 50.636719 C 150.683594 50.832031 150.578125 51.167969 150.464844 51.175781 C 149.675781 51.214844 149.867188 51.929688 149.503906 52.382812 Z M 6.820312 69.71875 C 4.773438 69.539062 3.632812 69.125 2.683594 70.96875 C 2.15625 71.976562 1.90625 73.046875 2.714844 74.042969 C 3.066406 74.484375 3.070312 74.390625 6.371094 74.324219 Z M 216.671875 75.960938 C 217.917969 75.695312 216.304688 76.117188 221.089844 74.640625 C 221.253906 74.605469 221.402344 74.535156 221.535156 74.425781 C 221.664062 74.316406 221.765625 74.1875 221.832031 74.03125 C 221.898438 73.875 221.925781 73.710938 221.914062 73.542969 C 221.902344 73.371094 221.855469 73.214844 221.765625 73.070312 C 220.8125 71.230469 219.371094 71.992188 215.972656 72.835938 C 216.195312 73.019531 216.386719 73.234375 216.535156 73.480469 C 216.6875 73.730469 216.792969 73.996094 216.855469 74.277344 C 216.917969 74.5625 216.929688 74.847656 216.894531 75.132812 C 216.859375 75.421875 216.777344 75.695312 216.648438 75.957031 Z M 213.871094 85.578125 C 214.703125 85.949219 215.410156 86.246094 216.105469 86.585938 C 217.148438 87.089844 217.898438 87.136719 218.46875 84.992188 C 218.601562 84.492188 218.394531 84.238281 217.894531 84.066406 C 217.105469 83.800781 216.347656 83.425781 215.570312 83.128906 C 215.121094 82.957031 214.652344 82.835938 214.015625 82.640625 C 214.5 83.78125 214.507812 84.703125 213.871094 85.578125 Z M 222.542969 81.167969 C 222.699219 80.835938 222.839844 80.5 222.960938 80.152344 C 223.039062 79.914062 223.058594 79.671875 223.019531 79.425781 C 222.984375 79.175781 222.890625 78.949219 222.746094 78.746094 C 222.601562 78.539062 222.421875 78.378906 222.199219 78.261719 C 221.980469 78.144531 221.742188 78.082031 221.492188 78.074219 C 219.679688 78.019531 220.859375 77.925781 218.242188 78.046875 C 219.074219 79.796875 218.875 79.007812 219.035156 80.960938 C 219.628906 80.960938 220.1875 80.929688 220.738281 80.960938 C 221.292969 80.988281 221.886719 81.078125 222.542969 81.15625 Z M 204.136719 83.445312 C 204.324219 84.308594 204.476562 85.042969 204.648438 85.84375 C 205.59375 85.898438 206.542969 85.976562 207.488281 85.976562 C 207.769531 85.933594 208.011719 85.808594 208.210938 85.605469 C 208.011719 84.957031 207.90625 83.988281 207.453125 83.769531 C 206.386719 83.277344 205.28125 83.164062 204.136719 83.429688 Z M 217.910156 81.320312 C 218.015625 81.226562 218.109375 81.121094 218.1875 81.007812 C 218.269531 80.890625 218.335938 80.769531 218.386719 80.636719 C 218.4375 80.507812 218.472656 80.371094 218.492188 80.234375 C 218.511719 80.09375 218.515625 79.957031 218.503906 79.816406 C 218.492188 79.675781 218.464844 79.539062 218.417969 79.40625 C 218.375 79.273438 218.316406 79.148438 218.242188 79.027344 C 218.167969 78.910156 218.082031 78.800781 217.980469 78.703125 C 217.882812 78.601562 217.773438 78.515625 217.652344 78.445312 L 217.40625 79.222656 L 218.28125 79.636719 L 217.3125 80.09375 Z M 213.152344 85.410156 C 213.984375 84.824219 214.183594 84.003906 213.648438 82.996094 L 213.164062 83.796875 C 213.34375 83.980469 213.484375 84.128906 213.6875 84.351562 C 213.058594 84.527344 212.734375 84.808594 213.152344 85.410156 Z M 203.480469 85.089844 L 203.183594 85.429688 L 203.738281 85.910156 C 203.828125 85.796875 204.015625 85.605469 204 85.585938 C 203.84375 85.410156 203.675781 85.246094 203.496094 85.089844 Z M 203.628906 84.753906 L 203.976562 84.679688 L 203.765625 84.023438 L 203.484375 84.09375 C 203.550781 84.332031 203.582031 84.535156 203.644531 84.746094 Z M 91.066406 79.691406 C 90.894531 79.613281 90.949219 79.617188 90.847656 79.726562 C 90.886719 79.75 90.933594 79.800781 90.96875 79.796875 C 91.007812 79.792969 91.039062 79.730469 91.066406 79.691406 Z M 96.058594 79.691406 C 96.027344 79.722656 95.960938 79.757812 95.972656 79.777344 C 95.988281 79.828125 96.019531 79.863281 96.066406 79.882812 C 96.066406 79.882812 96.128906 79.835938 96.164062 79.808594 C 96.128906 79.761719 96.089844 79.71875 96.050781 79.675781 Z M 96.058594 79.691406 " fill-opacity="1" fill-rule="nonzero"/></g><path fill="#f5e8d8" d="M 145.71875 29.003906 C 144.628906 28.53125 146.332031 28.09375 147.703125 27.023438 C 146.925781 27.175781 146.152344 27.339844 145.375 27.484375 C 144.597656 27.628906 144.195312 28.429688 143.320312 28.488281 C 143.734375 26.78125 147.0625 25.949219 149.117188 26.800781 C 149.46875 26.949219 150.25 26.726562 150.058594 27.585938 L 152.914062 28.65625 C 152.960938 28.242188 153.007812 27.847656 153.050781 27.457031 L 153.246094 27.398438 C 153.40625 27.625 153.542969 27.863281 153.660156 28.113281 C 153.714844 28.285156 153.808594 28.433594 153.9375 28.554688 C 154.070312 28.679688 154.21875 28.765625 154.394531 28.8125 C 154.566406 28.863281 154.742188 28.867188 154.917969 28.824219 C 155.09375 28.785156 155.246094 28.707031 155.382812 28.585938 C 155.511719 28.480469 155.613281 28.335938 155.738281 28.222656 C 156.628906 27.390625 157.667969 27.332031 158.570312 28.121094 C 159.289062 28.75 157.855469 30.015625 156.648438 29.425781 C 156.289062 29.265625 155.921875 29.25 155.554688 29.386719 C 154.898438 29.472656 154.242188 29.484375 153.585938 29.421875 C 152.957031 32.222656 153.214844 32.933594 150.757812 34.035156 L 154.480469 35.699219 C 154.480469 33.792969 154.207031 34.210938 156.515625 32.734375 C 155.265625 32.734375 154.152344 32.957031 153.847656 31.613281 C 154.285156 31.886719 154.765625 32.054688 155.277344 32.109375 C 155.792969 32.167969 156.296875 32.109375 156.785156 31.9375 C 157.960938 32.660156 159.457031 32.015625 160.589844 32.769531 C 161.210938 33.238281 161.773438 33.761719 162.285156 34.347656 C 162.402344 34.464844 162.367188 34.726562 162.308594 34.996094 C 161.914062 34.308594 161.367188 33.777344 160.667969 33.402344 C 159.964844 33.027344 159.21875 32.867188 158.429688 32.917969 L 159.761719 33.835938 L 159.652344 34.054688 C 156.210938 32.4375 153.503906 36.242188 156.191406 36.816406 C 157.09375 37.074219 157.972656 37.015625 158.832031 36.636719 C 159.015625 36.539062 159.121094 36.292969 159.246094 36.113281 C 158.414062 35.753906 158.886719 35.53125 157.433594 36.714844 C 156.601562 36.394531 157.28125 34.6875 159.40625 35.179688 L 159.90625 34.71875 C 160.234375 34.878906 160.492188 35.121094 160.679688 35.4375 C 160.863281 35.757812 160.945312 36.097656 160.925781 36.464844 C 160.945312 37.347656 160.09375 37.417969 159.570312 37.769531 C 159.304688 37.902344 159.027344 38.007812 158.738281 38.085938 L 158.789062 38.277344 L 160.597656 37.902344 C 160.117188 39.035156 157.570312 39.414062 156.410156 38.628906 L 158.335938 37.96875 L 158.289062 37.675781 C 156.273438 37.675781 157.125 37.738281 155.019531 37.425781 C 154.078125 35.632812 150.554688 34.316406 148.871094 35.207031 L 151.785156 35.339844 L 151.785156 35.648438 C 150.410156 35.765625 149.050781 35.960938 147.699219 36.238281 C 146.714844 36.507812 146.144531 37.175781 146.167969 37.902344 C 146.199219 38.699219 146.585938 39.078125 147.722656 39.375 C 147.769531 39.375 147.804688 39.445312 147.96875 39.597656 C 147.753906 39.695312 147.53125 39.75 147.296875 39.765625 C 145.480469 39.496094 144.761719 36.890625 146.59375 35.898438 C 147.015625 35.71875 147.421875 35.507812 147.816406 35.269531 L 148.648438 34.195312 L 148.078125 34.066406 L 148.054688 33.886719 C 149.636719 33.609375 150.964844 33.667969 152.15625 32.148438 C 152.726562 31.414062 152.785156 30.613281 152.804688 29.769531 C 152.78125 29.601562 152.707031 29.464844 152.578125 29.351562 C 151.03125 27.898438 147.558594 27.652344 145.808594 28.867188 C 145.765625 28.894531 145.746094 28.957031 145.710938 29.003906 Z M 159.863281 36.855469 L 160.085938 36.929688 L 160.226562 36.066406 L 160.035156 36.035156 C 159.96875 36.296875 159.90625 36.570312 159.855469 36.84375 Z M 159.863281 36.855469 " fill-opacity="1" fill-rule="nonzero"/><path fill="#f5e8d8" d="M 86.273438 42.316406 C 86.253906 42.480469 86.253906 42.644531 86.273438 42.808594 C 86.355469 43.300781 86.164062 43.570312 85.664062 43.582031 C 78.589844 43.777344 81.148438 43.582031 74.976562 43.503906 C 74.003906 43.503906 73.023438 43.613281 72.0625 43.625 C 71.742188 43.585938 71.433594 43.503906 71.136719 43.382812 C 71.203125 43.097656 71.292969 42.820312 71.40625 42.550781 C 73.398438 38.675781 72.472656 40.328125 77.589844 31.839844 C 77.867188 31.375 78.234375 31.339844 78.773438 31.347656 C 85.011719 31.441406 86.171875 30.34375 86.335938 33.011719 C 86.65625 38.460938 86.691406 35.335938 86.273438 42.316406 Z M 72.128906 42.804688 C 72.488281 42.804688 76.242188 42.757812 77.980469 42.773438 C 80.058594 42.792969 82.140625 42.878906 84.21875 42.898438 C 85.785156 42.898438 85.238281 42.511719 85.574219 39.878906 C 85.820312 37.550781 85.804688 35.226562 85.535156 32.902344 C 85.539062 32.773438 85.511719 32.648438 85.460938 32.527344 C 85.410156 32.410156 85.339844 32.308594 85.242188 32.222656 C 85.144531 32.132812 85.035156 32.074219 84.914062 32.035156 C 84.789062 31.996094 84.664062 31.984375 84.535156 32.003906 C 82.710938 32.003906 80.878906 32.003906 79.050781 32.003906 C 78.808594 31.992188 78.585938 32.046875 78.378906 32.171875 C 78.171875 32.296875 78.015625 32.46875 77.914062 32.6875 C 77.316406 33.703125 76.625 34.664062 76.042969 35.691406 C 74.75 38 73.496094 40.339844 72.128906 42.804688 Z M 72.128906 42.804688 " fill-opacity="1" fill-rule="nonzero"/><path fill="#f5e8d8" d="M 127.769531 48.554688 C 126.855469 48.554688 126.796875 47.957031 126.65625 47.433594 C 126.160156 45.597656 127.003906 44.359375 128.433594 43.355469 C 128.761719 43.125 129.308594 43.046875 129.242188 42.4375 C 129.242188 42.375 129.449219 42.238281 129.574219 42.21875 C 130.996094 41.996094 131.898438 41.054688 132.722656 39.984375 C 132.925781 39.757812 133.175781 39.609375 133.472656 39.542969 C 133.28125 40.953125 132.253906 41.625 131.195312 42.34375 C 131.269531 42.574219 131.335938 42.796875 131.398438 43.003906 C 133.574219 43.003906 133.703125 43.03125 134.183594 44.105469 C 132.550781 43.175781 131.089844 43.496094 129.847656 44.671875 C 129.351562 45.210938 128.988281 45.828125 128.757812 46.523438 C 128.699219 46.671875 128.675781 46.828125 128.6875 46.988281 C 128.703125 47.148438 128.753906 47.296875 128.839844 47.429688 C 128.929688 47.566406 129.042969 47.671875 129.183594 47.75 C 129.320312 47.832031 129.472656 47.871094 129.632812 47.875 C 130.183594 47.917969 130.726562 47.871094 131.257812 47.730469 C 130.53125 47.589844 129.695312 47.660156 129.515625 46.707031 C 129.335938 45.753906 129.972656 45.195312 130.644531 44.695312 C 130.996094 44.429688 131.378906 44.242188 131.78125 44.8125 C 131.425781 45.003906 131.101562 45.238281 130.804688 45.511719 C 130.578125 45.84375 130.398438 46.199219 130.257812 46.574219 C 130.574219 46.769531 130.914062 46.910156 131.28125 46.992188 C 131.929688 46.992188 132.625 46.992188 133.019531 46.253906 C 132.710938 46.09375 133.019531 46.1875 131.984375 45.902344 C 132.1875 45.675781 132.417969 45.488281 132.683594 45.339844 C 132.785156 45.285156 132.894531 45.253906 133.011719 45.246094 C 133.128906 45.238281 133.238281 45.253906 133.351562 45.292969 C 133.460938 45.332031 133.554688 45.394531 133.640625 45.472656 C 133.726562 45.554688 133.789062 45.648438 133.835938 45.753906 C 133.914062 46.136719 133.824219 46.476562 133.574219 46.773438 C 133.074219 47.308594 132.488281 47.734375 131.824219 48.039062 C 131.160156 48.347656 130.460938 48.519531 129.730469 48.554688 C 129.457031 48.5625 129.199219 48.507812 128.953125 48.390625 C 128.707031 48.273438 128.496094 48.109375 128.328125 47.898438 C 128.160156 47.683594 128.046875 47.445312 127.992188 47.175781 C 127.9375 46.910156 127.941406 46.648438 128.011719 46.382812 C 128.164062 45.660156 128.484375 45.019531 128.972656 44.460938 C 129.464844 43.90625 130.058594 43.503906 130.757812 43.257812 C 129.660156 43.257812 128.515625 43.957031 127.671875 45.054688 C 126.832031 46.15625 127.167969 47.332031 127.769531 48.554688 Z M 127.769531 48.554688 " fill-opacity="1" fill-rule="nonzero"/><path fill="#f5e8d8" d="M 138.335938 37.957031 C 138.855469 37.578125 139.351562 37.167969 139.820312 36.730469 C 140.019531 36.523438 140.214844 36.074219 140.121094 35.875 C 139.917969 35.574219 139.640625 35.378906 139.289062 35.289062 C 138.914062 35.238281 138.535156 35.238281 138.160156 35.289062 L 138.578125 34.320312 C 137.078125 34.058594 135.625 34.121094 134.332031 35.050781 C 133.957031 35.328125 133.53125 35.746094 133.796875 36.257812 C 133.980469 36.613281 134.433594 37.089844 134.75 37.0625 C 135.710938 36.96875 136.664062 36.8125 137.609375 36.59375 C 137.734375 36.554688 137.855469 36.5 137.972656 36.4375 C 137.246094 35.832031 136.859375 36.207031 136.417969 36.714844 C 136.242188 36.515625 135.964844 36.332031 135.976562 36.179688 C 136.082031 35.03125 137.882812 35.054688 138.453125 35.84375 C 139.761719 37.648438 134.839844 37.921875 133.710938 37.128906 C 133.605469 37.0625 133.511719 36.984375 133.429688 36.898438 C 133.34375 36.808594 133.273438 36.710938 133.210938 36.605469 C 133.152344 36.5 133.105469 36.390625 133.074219 36.273438 C 133.039062 36.152344 133.023438 36.035156 133.019531 35.914062 C 133.015625 35.792969 133.027344 35.671875 133.054688 35.550781 C 133.082031 35.433594 133.121094 35.320312 133.175781 35.210938 C 133.230469 35.101562 133.300781 35 133.378906 34.910156 C 133.457031 34.816406 133.546875 34.734375 133.648438 34.664062 C 134.65625 33.847656 135.808594 33.472656 137.105469 33.535156 C 137.363281 32.65625 138.015625 32.347656 138.832031 32.285156 C 140.195312 32.175781 141.441406 32.503906 142.574219 33.269531 C 142.039062 32.003906 140.960938 31.816406 139.730469 31.890625 C 139.707031 31.277344 140.144531 31.199219 140.5 31.1875 C 142.605469 31.105469 144.195312 33.761719 143.410156 35.054688 C 143.144531 35.46875 142.816406 35.820312 142.421875 36.113281 C 142.5625 34.9375 142.519531 33.90625 141.308594 33.417969 C 140.214844 32.96875 139.089844 32.585938 137.859375 33.472656 C 138.605469 33.910156 139.25 34.304688 139.921875 34.6875 C 141.167969 35.371094 141.296875 36.582031 140.136719 37.441406 C 139.648438 37.777344 139.15625 38.273438 138.335938 37.957031 Z M 138.335938 37.957031 " fill-opacity="1" fill-rule="nonzero"/><path fill="#f5e8d8" d="M 131.144531 37.324219 C 131.257812 37.386719 131.363281 37.460938 131.460938 37.550781 C 131.558594 37.640625 131.644531 37.738281 131.714844 37.847656 C 131.785156 37.960938 131.84375 38.078125 131.886719 38.199219 C 131.929688 38.324219 131.957031 38.453125 131.96875 38.582031 C 131.980469 38.714844 131.976562 38.84375 131.957031 38.976562 C 131.933594 39.105469 131.898438 39.230469 131.847656 39.351562 C 131.796875 39.472656 131.730469 39.585938 131.648438 39.6875 C 131.570312 39.792969 131.480469 39.886719 131.375 39.96875 C 130.605469 40.707031 129.734375 41.324219 128.878906 42.019531 C 127.972656 41.222656 127.09375 41.808594 126.277344 42.019531 C 125.183594 42.324219 124.289062 41.875 124.265625 40.738281 C 124.242188 39.441406 124.511719 38.203125 125.542969 37.289062 C 126.375 36.566406 127.183594 35.84375 128.066406 35.210938 C 128.519531 34.878906 129.109375 34.625 129.539062 35.210938 L 127.042969 36.71875 L 127.160156 36.9375 C 127.785156 36.652344 128.410156 36.359375 129.03125 36.105469 C 131.066406 35.234375 133.457031 36.210938 132.773438 38.308594 C 132.609375 38.128906 132.46875 37.929688 132.359375 37.714844 C 132.296875 37.484375 132.191406 37.277344 132.046875 37.085938 C 131.898438 36.898438 131.722656 36.746094 131.515625 36.628906 C 131.308594 36.511719 131.085938 36.441406 130.851562 36.410156 C 130.613281 36.382812 130.382812 36.402344 130.152344 36.464844 C 127.960938 37.144531 125.390625 38.371094 126.03125 40.570312 C 126.160156 41.015625 126.414062 41.265625 126.863281 41.222656 C 128.183594 41.097656 129.460938 40.84375 130.507812 39.917969 C 131.125 39.367188 131.464844 38.75 131.113281 37.902344 C 131.089844 37.707031 131.101562 37.515625 131.144531 37.324219 Z M 125.585938 41.554688 C 125.414062 40.96875 125.28125 40.5 125.148438 40.035156 C 124.992188 40.609375 124.90625 41.15625 125.585938 41.554688 Z M 125.585938 41.554688 " fill-opacity="1" fill-rule="nonzero"/><path fill="#f5e8d8" d="M 129.121094 32.964844 C 129.332031 32.929688 129.578125 32.800781 129.75 32.867188 C 131.828125 33.726562 133.597656 33.105469 135.15625 31.707031 C 136.328125 30.667969 136.28125 29.210938 135.105469 28.144531 C 134.671875 27.757812 134.175781 27.492188 133.515625 27.878906 L 134.113281 28.371094 L 132.449219 28.585938 C 133.199219 29.003906 134.214844 28.65625 134.738281 29.730469 C 131.910156 28.996094 129.609375 29.488281 128.082031 32.125 C 127.566406 31.839844 127.371094 31.070312 127.863281 30.714844 C 128.160156 30.507812 128.378906 30.242188 128.527344 29.914062 C 128.679688 29.589844 128.734375 29.246094 128.695312 28.890625 L 129.679688 29.484375 C 130.433594 28.992188 131.34375 28.460938 132.175781 27.820312 C 134.386719 26.109375 135.675781 27.339844 136.527344 29.15625 C 137.035156 30.238281 136.636719 31.183594 135.871094 31.921875 C 134.410156 33.34375 132.503906 33.789062 130.554688 33.957031 C 130.078125 34.003906 129.5625 33.5625 129.0625 33.347656 C 129.089844 33.207031 129.121094 33.085938 129.121094 32.964844 Z M 129.121094 32.964844 " fill-opacity="1" fill-rule="nonzero"/><path fill="#f5e8d8" d="M 139 41.007812 C 137.753906 40.949219 137.066406 41.703125 136.554688 42.671875 C 136.042969 43.640625 136.527344 44.574219 137.628906 44.5625 C 138.609375 44.484375 139.578125 44.34375 140.539062 44.144531 C 140.070312 43.488281 139.214844 44.058594 139.0625 43.269531 C 139.753906 42.851562 140.789062 43.269531 141.292969 42.34375 C 140.367188 41.71875 139.605469 42.582031 138.703125 42.550781 C 138.738281 42.335938 138.726562 42.078125 138.800781 42.046875 C 139.476562 41.796875 140.15625 41.414062 140.84375 41.398438 C 141.875 41.398438 142.210938 42.171875 141.675781 43.261719 L 143.960938 42.585938 C 143.859375 43.441406 143.128906 43.359375 142.710938 43.621094 C 142.273438 43.804688 141.820312 43.941406 141.355469 44.039062 C 141.148438 44.113281 138.761719 45.523438 136.925781 44.96875 C 136.757812 44.949219 136.589844 44.949219 136.421875 44.96875 C 136.265625 47.464844 135.011719 48.953125 132.390625 49.082031 C 132.539062 48.964844 132.695312 48.863281 132.863281 48.78125 C 134.296875 48.234375 135.359375 47.394531 135.539062 45.734375 C 135.566406 45.488281 135.734375 45.265625 135.773438 45.019531 C 135.839844 44.714844 135.839844 44.410156 135.773438 44.105469 C 135.332031 42.816406 136.679688 40.546875 138.035156 40.417969 C 138.386719 40.445312 138.726562 40.535156 139.046875 40.679688 C 139.039062 40.800781 139.019531 40.90625 139 41.007812 Z M 139 41.007812 " fill-opacity="1" fill-rule="nonzero"/><path fill="#f5e8d8" d="M 149.242188 18.679688 C 148.78125 18.238281 148.34375 17.777344 147.933594 17.292969 C 149.363281 17.03125 150.347656 18.59375 149.980469 20.382812 C 150.886719 20.25 151.644531 19.847656 155.109375 20.433594 C 155.546875 20.566406 155.917969 20.804688 156.21875 21.148438 C 156.394531 21.324219 156.386719 21.691406 156.378906 21.980469 C 154.105469 20.117188 149.722656 20.316406 148.425781 22.246094 C 149.675781 21.949219 150.976562 21.589844 152.3125 21.316406 C 152.496094 21.265625 152.679688 21.25 152.867188 21.277344 C 153.054688 21.300781 153.230469 21.363281 153.394531 21.460938 C 153.558594 21.558594 153.695312 21.683594 153.804688 21.839844 C 153.914062 21.992188 153.992188 22.160156 154.03125 22.347656 C 152.585938 21.632812 151.238281 22.152344 149.925781 22.554688 C 148.109375 23.117188 147.878906 23.707031 148.628906 25.386719 C 148.167969 25.582031 147.96875 25.246094 147.878906 24.972656 C 147.511719 23.84375 147.070312 22.695312 147.972656 21.59375 L 147.714844 21.214844 C 149.207031 20.5 149.984375 19.660156 149.222656 18.683594 Z M 149.242188 18.679688 " fill-opacity="1" fill-rule="nonzero"/><path fill="#f5e8d8" d="M 115.28125 33.898438 C 116.351562 33.898438 117.777344 34.039062 118.496094 33.269531 C 119.871094 31.828125 121.824219 32.023438 123.90625 32.4375 C 124.96875 32.664062 125.488281 33.773438 124.980469 34.957031 C 124.859375 34.6875 124.757812 34.410156 124.679688 34.125 C 124.632812 33.835938 124.507812 33.59375 124.300781 33.390625 C 124.089844 33.1875 123.84375 33.066406 123.554688 33.03125 C 120.34375 32.226562 118.117188 33.652344 117.179688 36.546875 C 117.121094 36.671875 117.050781 36.792969 116.972656 36.90625 C 116.457031 36.265625 116.496094 36.042969 117.371094 34.332031 C 114.875 34.628906 114.578125 34.75 114.230469 34.226562 C 114.164062 34.128906 114.144531 34.148438 111.699219 34.148438 L 111.671875 33.871094 C 112.1875 33.738281 112.710938 33.640625 113.238281 33.570312 C 115.734375 33.367188 117.472656 32.082031 118.648438 29.925781 C 118.722656 29.796875 118.808594 29.675781 118.90625 29.5625 C 119.445312 30.117188 119.207031 30.570312 118.863281 31.007812 C 118.058594 32.027344 117.164062 32.933594 115.902344 33.386719 C 115.710938 33.457031 115.566406 33.65625 115.28125 33.898438 Z M 115.28125 33.898438 " fill-opacity="1" fill-rule="nonzero"/><path fill="#f5e8d8" d="M 115.886719 37.324219 C 115.753906 37.324219 115.679688 37.371094 115.652344 37.351562 C 115.328125 37.042969 114.945312 36.847656 114.507812 36.765625 C 114.066406 36.683594 113.640625 36.726562 113.226562 36.898438 C 112.179688 37.289062 111.410156 37.984375 110.914062 38.988281 C 110.59375 39.636719 110.796875 40.234375 111.488281 40.839844 C 110.722656 41.296875 110.457031 41.007812 109.988281 39.238281 C 107.34375 40.070312 106.285156 40.535156 105.339844 40.410156 C 104.90625 40.359375 104.554688 40.164062 104.285156 39.820312 C 102.621094 36.992188 105.117188 36.113281 107.871094 35.136719 C 108.003906 35.070312 108.140625 35.035156 108.289062 35.035156 C 108.433594 35.03125 108.574219 35.058594 108.707031 35.117188 C 108.839844 35.175781 108.957031 35.261719 109.050781 35.375 C 109.148438 35.484375 109.214844 35.609375 109.253906 35.75 C 107.589844 35.402344 106.304688 36.203125 105.121094 37.179688 C 104.972656 37.3125 104.847656 37.464844 104.753906 37.640625 C 104.660156 37.816406 104.597656 38.003906 104.570312 38.199219 C 104.546875 38.398438 104.554688 38.59375 104.601562 38.789062 C 104.648438 38.984375 104.726562 39.164062 104.839844 39.328125 C 105.160156 39.652344 105.542969 39.789062 105.996094 39.746094 C 107.195312 39.472656 108.351562 39.023438 109.539062 38.703125 C 110.546875 38.433594 110.835938 37.332031 111.714844 36.9375 C 113.632812 36.109375 114.976562 35.152344 115.886719 37.324219 Z M 115.886719 37.324219 " fill-opacity="1" fill-rule="nonzero"/><path fill="#f5e8d8" d="M 148.339844 43.765625 L 149.566406 44.503906 L 149.453125 44.789062 C 148.992188 44.617188 148.519531 44.507812 148.027344 44.457031 C 147.507812 44.539062 147.003906 44.6875 146.523438 44.898438 C 146.175781 44.480469 145.734375 44.875 145.332031 45.207031 C 144.699219 45.738281 144.660156 46.203125 145.0625 47.199219 C 144.898438 47.207031 144.742188 47.179688 144.59375 47.113281 C 144.445312 47.046875 144.320312 46.949219 144.21875 46.820312 C 144.117188 46.691406 144.054688 46.546875 144.023438 46.386719 C 143.992188 46.226562 144.003906 46.070312 144.050781 45.914062 C 144.117188 45.558594 144.261719 45.242188 144.480469 44.957031 C 144.699219 44.671875 144.972656 44.453125 145.300781 44.300781 C 146.296875 43.832031 147.3125 43.382812 148.320312 42.929688 L 148.230469 42.703125 L 145.195312 43.492188 C 144.519531 42.386719 146.210938 42.46875 148.761719 42.1875 C 148.808594 42.1875 148.980469 42.1875 149 42.21875 C 149.503906 43.148438 150.871094 42.730469 151.3125 43.722656 C 151.539062 44.171875 151.71875 44.640625 151.855469 45.128906 C 151.945312 45.421875 151.972656 45.722656 151.941406 46.027344 C 151.90625 46.332031 151.816406 46.621094 151.667969 46.886719 C 151.519531 47.15625 151.324219 47.386719 151.085938 47.578125 C 150.84375 47.765625 150.574219 47.902344 150.277344 47.984375 C 150.179688 48.023438 150.039062 47.9375 149.710938 47.867188 L 150.699219 46.941406 C 151.371094 46.300781 151.386719 45.042969 150.777344 44.144531 C 150.371094 43.5625 149.023438 43.175781 148.339844 43.765625 Z M 148.339844 43.765625 " fill-opacity="1" fill-rule="nonzero"/><path fill="#f5e8d8" d="M 143.140625 26.359375 L 143.972656 26.699219 C 143.1875 27.480469 140.894531 27.660156 140.164062 26.949219 C 140.660156 26.863281 141.046875 26.785156 141.441406 26.730469 C 142.121094 26.632812 142.972656 25.613281 142.941406 24.917969 C 142.875 23.550781 142.007812 24.085938 139.507812 24.292969 C 139.175781 24.292969 138.847656 24.265625 138.523438 24.210938 C 138.496094 24.140625 138.476562 24.074219 138.453125 24.007812 C 138.078125 24.375 137.722656 24.761719 137.390625 25.167969 C 136.71875 26.105469 137.128906 26.960938 138.277344 27.0625 C 138.40625 27.0625 138.535156 27.0625 138.785156 27.0625 C 138.679688 27.265625 138.515625 27.402344 138.296875 27.472656 C 138.078125 27.542969 137.867188 27.523438 137.660156 27.417969 C 137.179688 27.210938 136.816406 26.871094 136.570312 26.40625 C 136.222656 25.433594 137.015625 23.945312 138.207031 23.378906 C 139.011719 23.050781 139.84375 22.828125 140.703125 22.710938 C 141.046875 22.644531 141.800781 23.199219 142.023438 23.25 C 143.585938 23.605469 144.105469 24.824219 143.222656 26.207031 C 143.199219 26.253906 143.171875 26.304688 143.140625 26.359375 Z M 143.140625 26.359375 " fill-opacity="1" fill-rule="nonzero"/><path fill="#f5e8d8" d="M 109.761719 32.109375 C 109.550781 31.988281 109.265625 31.917969 109.136719 31.734375 C 108.949219 31.441406 108.871094 31.121094 108.898438 30.773438 C 108.921875 30.425781 109.050781 30.121094 109.277344 29.855469 C 110.164062 28.859375 109.902344 29.113281 114.203125 26.664062 C 113.304688 26.339844 111.359375 26.777344 109.769531 27.683594 C 109.839844 27.433594 109.835938 27.101562 110 26.957031 C 110.296875 26.65625 110.652344 26.449219 111.0625 26.335938 C 112.105469 26.125 113.160156 25.988281 114.222656 25.921875 C 114.691406 25.890625 115.605469 26.660156 115.851562 26.722656 C 116.765625 26.996094 117.433594 27.5625 117.855469 28.421875 C 117.933594 28.515625 117.988281 28.621094 118.011719 28.742188 C 118.039062 28.863281 118.035156 28.984375 118 29.101562 C 117.96875 29.21875 117.910156 29.324219 117.828125 29.414062 C 117.742188 29.503906 117.644531 29.570312 117.527344 29.609375 C 117.464844 29.1875 117.335938 28.78125 117.140625 28.398438 C 116.507812 27.566406 115.652344 27.074219 114.570312 27.449219 C 112.140625 28.28125 112.074219 28.96875 111.183594 29.148438 C 110.027344 29.417969 109.453125 30.800781 109.761719 32.109375 Z M 109.761719 32.109375 " fill-opacity="1" fill-rule="nonzero"/><path fill="#f5e8d8" d="M 149.222656 18.660156 C 149.261719 19.222656 148.867188 19.429688 148.449219 19.640625 C 148.179688 19.773438 147.921875 19.933594 147.648438 20.089844 L 147.992188 20.628906 L 144.980469 21.140625 C 145.027344 21.324219 145.082031 21.558594 145.144531 21.765625 C 144.207031 21.707031 144.171875 21.609375 144.265625 19.617188 C 142.769531 19.433594 142.769531 19.433594 142.664062 19.019531 L 145.113281 18.675781 C 145.113281 18.589844 145.113281 18.503906 145.089844 18.417969 C 144.585938 18.257812 144.101562 18.613281 143.570312 18.644531 L 143.210938 18.230469 C 142.269531 18.367188 141.652344 18.804688 141.671875 19.894531 C 140.910156 19.21875 140.980469 18.230469 141.875 17.9375 C 142.980469 17.613281 144.105469 17.421875 145.253906 17.355469 C 145.894531 17.304688 145.886719 18.058594 146.054688 18.46875 C 146.289062 19.039062 145.410156 19.203125 144.808594 19.417969 C 144.90625 19.8125 145 20.179688 145.097656 20.59375 L 149.257812 18.675781 Z M 149.222656 18.660156 " fill-opacity="1" fill-rule="nonzero"/><path fill="#f5e8d8" d="M 118.570312 44.0625 C 118.199219 44.550781 117.886719 44.808594 117.792969 45.121094 C 117.746094 45.4375 117.824219 45.714844 118.03125 45.953125 C 118.265625 46.195312 119.65625 45.839844 120.082031 45.460938 L 118.417969 45.738281 C 118.722656 44.90625 119.980469 44.339844 120.546875 44.601562 C 120.648438 44.644531 120.734375 44.707031 120.808594 44.789062 C 120.878906 44.871094 120.929688 44.964844 120.953125 45.070312 C 120.980469 45.179688 120.980469 45.285156 120.957031 45.390625 C 120.933594 45.496094 120.882812 45.59375 120.8125 45.675781 C 120.1875 46.605469 119.265625 46.609375 117.59375 46.925781 C 116.570312 47.121094 116.042969 46.800781 115.738281 45.824219 C 115.128906 43.847656 116.570312 42.996094 118.257812 41.882812 C 118.722656 41.582031 119.21875 41.425781 119.683594 41.777344 C 117.347656 43.480469 115.320312 44.335938 117.050781 46.410156 C 116.667969 45.335938 116.847656 44.566406 117.65625 44.058594 C 117.835938 43.980469 118.152344 44.0625 118.570312 44.0625 Z M 118.570312 44.0625 " fill-opacity="1" fill-rule="nonzero"/><path fill="#f5e8d8" d="M 116.816406 40.003906 C 116.421875 41.210938 115.367188 41.378906 114.382812 41.695312 C 113.398438 42.011719 112.476562 41.925781 111.75 40.925781 C 113.917969 40.765625 115.453125 39.730469 116.015625 37.597656 C 116.640625 37.761719 116.601562 38.09375 116.480469 38.429688 C 115.875 40.09375 115.230469 40.316406 113.984375 41.09375 C 115.707031 40.933594 116.292969 40.421875 116.289062 39.316406 C 117.382812 39.476562 118.507812 39.847656 119.589844 39.730469 C 120.671875 39.613281 121.671875 39.03125 122.78125 38.636719 L 122.78125 39.269531 C 119.648438 40.570312 119.042969 40.722656 116.816406 40.003906 Z M 116.816406 40.003906 " fill-opacity="1" fill-rule="nonzero"/><path fill="#f5e8d8" d="M 153.820312 44.878906 C 154.015625 44.839844 154.105469 44.789062 154.164062 44.816406 C 155.941406 45.546875 157.519531 44.738281 159.121094 44.175781 C 159.558594 44.015625 159.589844 43.558594 159.222656 43.222656 C 159.007812 43.023438 158.753906 42.855469 158.472656 42.640625 C 158.890625 42.222656 159.203125 42.441406 159.503906 42.640625 C 161.542969 43.988281 163.054688 40.976562 161.167969 40.25 C 160.402344 39.960938 159.0625 40.015625 158.640625 39.867188 C 159.660156 39.558594 160.683594 39.195312 161.722656 39.824219 C 161.933594 39.941406 162.113281 40.09375 162.269531 40.273438 C 162.425781 40.457031 162.542969 40.664062 162.625 40.886719 C 162.710938 41.113281 162.75 41.347656 162.75 41.585938 C 162.75 41.828125 162.707031 42.058594 162.625 42.285156 C 162.542969 42.511719 162.421875 42.714844 162.265625 42.898438 C 162.109375 43.078125 161.925781 43.230469 161.71875 43.347656 C 161.507812 43.464844 161.285156 43.542969 161.046875 43.582031 C 160.808594 43.617188 160.574219 43.613281 160.335938 43.566406 C 159.996094 43.984375 159.765625 44.464844 159.394531 44.625 C 158.0625 45.183594 156.722656 45.804688 155.234375 45.789062 C 154.925781 45.792969 154.644531 45.710938 154.386719 45.546875 C 154.132812 45.382812 153.941406 45.15625 153.820312 44.878906 Z M 153.820312 44.878906 " fill-opacity="1" fill-rule="nonzero"/><path fill="#f5e8d8" d="M 131.425781 22.804688 C 132.085938 22.101562 133.382812 22.015625 133.597656 20.765625 L 132.035156 20.765625 C 132.382812 21.402344 132.035156 21.6875 131.589844 21.8125 C 130.949219 22.019531 130.296875 22.140625 129.628906 22.175781 C 129.464844 22.191406 129.304688 22.171875 129.148438 22.117188 C 128.992188 22.0625 128.851562 21.980469 128.730469 21.871094 C 128.609375 21.757812 128.515625 21.628906 128.445312 21.476562 C 128.378906 21.328125 128.34375 21.167969 128.34375 21.003906 C 128.367188 20.480469 129.144531 19.753906 129.757812 19.753906 C 130.113281 19.796875 130.457031 19.871094 130.796875 19.980469 C 130.328125 20.1875 129.871094 20.421875 129.429688 20.683594 C 129.246094 20.8125 129.152344 20.992188 129.148438 21.214844 C 129.246094 21.425781 129.40625 21.546875 129.636719 21.578125 C 130.320312 21.539062 130.996094 21.429688 131.769531 21.332031 L 131.253906 20.441406 L 131.730469 20.121094 C 131.667969 19.945312 131.605469 19.769531 131.539062 19.597656 C 131.609375 19.527344 131.6875 19.472656 131.773438 19.425781 C 133.742188 18.96875 135.160156 20.886719 133.734375 21.992188 C 133.246094 22.363281 132.734375 22.699219 132.199219 23 C 131.980469 23.070312 131.757812 23.097656 131.53125 23.085938 C 131.496094 22.980469 131.460938 22.890625 131.425781 22.804688 Z M 131.425781 22.804688 " fill-opacity="1" fill-rule="nonzero"/><path fill="#f5e8d8" d="M 134.769531 18.976562 C 132.691406 18.394531 130.699219 18.867188 128.734375 19.394531 C 127.488281 19.746094 127.117188 22.148438 128.148438 22.976562 C 128.480469 23.242188 129.453125 23.253906 130.351562 23.324219 C 128.777344 24.199219 127.105469 23.386719 126.980469 21.804688 C 126.839844 20.035156 127.027344 18.894531 129.058594 18.523438 C 130.441406 18.292969 131.84375 18.148438 133.238281 18.050781 C 133.898438 18.019531 134.554688 18.1875 134.769531 18.976562 Z M 134.769531 18.976562 " fill-opacity="1" fill-rule="nonzero"/><path fill="#f5e8d8" d="M 117.640625 47.871094 C 119.007812 47.902344 120.253906 47.871094 121.382812 47.132812 C 121.652344 46.957031 122.050781 46.976562 122.339844 46.820312 C 122.925781 46.554688 123.464844 46.210938 123.949219 45.789062 C 125.007812 44.714844 124.648438 43.230469 123.265625 42.632812 L 122.734375 42.402344 C 122.800781 41.925781 123.011719 41.828125 123.4375 41.941406 C 124.953125 42.332031 125.757812 44.46875 124.84375 45.789062 C 124.621094 46.15625 124.332031 46.457031 123.976562 46.695312 C 122.285156 47.65625 120.523438 48.421875 118.566406 48.566406 C 118.097656 48.601562 117.625 48.609375 117.640625 47.871094 Z M 117.640625 47.871094 " fill-opacity="1" fill-rule="nonzero"/><path fill="#f5e8d8" d="M 141.011719 46.53125 L 141.011719 47 C 139.394531 47.0625 137.894531 47.25 137.644531 49.265625 C 136.585938 48.5625 137.105469 47.515625 138.996094 46.5625 C 138.863281 46.375 138.730469 46.195312 138.476562 45.851562 C 138.9375 45.851562 139.246094 45.824219 139.546875 45.851562 C 140.046875 45.945312 140.511719 45.851562 140.941406 45.578125 C 141.625 45.117188 142.515625 44.972656 143.4375 44.648438 C 143.4375 44.601562 143.488281 44.378906 143.542969 44.140625 C 144.261719 44.457031 144.375 44.773438 143.875 45.242188 C 143.0625 45.984375 142.105469 46.414062 141.011719 46.53125 Z M 141.011719 46.53125 " fill-opacity="1" fill-rule="nonzero"/><path fill="#f5e8d8" d="M 151.191406 36.855469 C 151.992188 37.734375 151.953125 38.074219 150.921875 38.578125 C 150.390625 38.816406 149.835938 38.988281 149.257812 39.089844 C 149.046875 39.09375 148.851562 39.042969 148.664062 38.941406 C 148.785156 38.390625 148.765625 37.90625 148.988281 37.585938 C 150.015625 36.109375 150.878906 36.113281 151.8125 35.945312 C 152.523438 35.820312 152.996094 36.082031 153.136719 36.777344 C 153.230469 37.269531 153.421875 37.816406 153.136719 38.3125 L 152.925781 38.339844 C 152.847656 38.09375 152.765625 37.84375 152.707031 37.59375 C 152.460938 36.550781 152.335938 36.492188 151.191406 36.855469 Z M 150.636719 37.820312 L 150.519531 37.527344 L 149.429688 38.054688 L 149.554688 38.316406 Z M 150.636719 37.820312 " fill-opacity="1" fill-rule="nonzero"/><path fill="#f5e8d8" d="M 136.609375 24.644531 C 136.191406 24.046875 136.25 23.679688 136.8125 23.195312 C 137.929688 22.238281 139.289062 21.949219 140.691406 21.722656 C 142.507812 21.441406 144.050781 22.105469 145.519531 23.050781 C 145.9375 23.320312 145.9375 23.429688 145.855469 24.101562 C 144.390625 23.050781 142.945312 22.152344 141.015625 22.367188 C 139.234375 22.570312 137.582031 22.914062 136.609375 24.644531 Z M 136.609375 24.644531 " fill-opacity="1" fill-rule="nonzero"/><path fill="#f5e8d8" d="M 119.160156 22.90625 C 119.214844 22.769531 119.257812 22.628906 119.296875 22.488281 C 119.359375 22.160156 119.296875 21.65625 119.480469 21.539062 C 120.179688 21.152344 121.710938 21.144531 121.796875 21.125 C 122.039062 21.082031 122.277344 21.105469 122.507812 21.195312 C 122.738281 21.289062 122.929688 21.433594 123.074219 21.632812 C 123.222656 21.832031 123.308594 22.054688 123.328125 22.300781 C 123.347656 22.550781 123.300781 22.785156 123.1875 23.003906 C 122.738281 23.988281 120.589844 25.039062 119.53125 24.898438 C 119.464844 24.898438 119.410156 24.804688 119.375 24.777344 C 121.828125 23.527344 122.003906 23.527344 122.429688 22.980469 C 122.675781 22.65625 122.878906 22.300781 122.394531 21.972656 C 122.003906 21.707031 121.683594 21.621094 121.296875 22.039062 C 120.765625 22.628906 120.175781 23.179688 119.160156 22.90625 Z M 120.304688 22.050781 L 120.171875 21.898438 L 119.78125 22.230469 L 119.871094 22.335938 Z M 120.304688 22.050781 " fill-opacity="1" fill-rule="nonzero"/><path fill="#f5e8d8" d="M 102.414062 38.039062 C 102.339844 37.613281 102.304688 37.1875 102.300781 36.757812 C 102.589844 33.046875 105.484375 31.921875 108.402344 32.757812 C 108.964844 32.9375 109.507812 33.15625 110.035156 33.421875 C 110.316406 33.554688 110.53125 33.757812 110.679688 34.027344 C 109.558594 33.734375 108.449219 33.371094 107.3125 33.15625 C 107.0625 33.109375 106.8125 33.09375 106.558594 33.097656 C 106.308594 33.105469 106.058594 33.136719 105.8125 33.195312 C 105.566406 33.25 105.328125 33.332031 105.101562 33.4375 C 104.871094 33.539062 104.65625 33.667969 104.449219 33.816406 C 104.246094 33.964844 104.058594 34.132812 103.890625 34.320312 C 103.71875 34.503906 103.570312 34.707031 103.441406 34.921875 C 103.3125 35.140625 103.207031 35.367188 103.121094 35.605469 C 103.039062 35.84375 102.980469 36.085938 102.945312 36.335938 C 102.878906 36.90625 102.789062 37.472656 102.707031 38.039062 Z M 102.414062 38.039062 " fill-opacity="1" fill-rule="nonzero"/><path fill="#f5e8d8" d="M 135.882812 21.789062 C 135.625 21.191406 135.371094 20.585938 135.050781 19.847656 C 135.273438 19.832031 135.492188 19.851562 135.710938 19.914062 C 136.296875 20.246094 136.632812 21.8125 136.25 22.359375 C 134.585938 24.699219 134.882812 24.898438 132.273438 25.601562 C 131.675781 25.707031 131.074219 25.761719 130.464844 25.757812 L 130.347656 25.527344 C 130.578125 25.375 130.816406 25.246094 131.070312 25.144531 C 132.820312 24.613281 133.53125 24.953125 135.0625 22.6875 C 135.257812 22.40625 135.476562 22.136719 135.675781 21.855469 Z M 135.882812 21.789062 " fill-opacity="1" fill-rule="nonzero"/><path fill="#f5e8d8" d="M 120.449219 27.09375 C 120.53125 26.820312 120.652344 26.5625 120.808594 26.324219 C 124.109375 22.65625 131.210938 25.832031 128.09375 28.367188 C 128.0625 28.179688 128.054688 27.988281 128.070312 27.796875 C 128.320312 26.847656 128.15625 26.414062 127.304688 25.917969 C 125.640625 24.933594 123.976562 25.121094 122.351562 26.070312 C 121.777344 26.40625 121.25 26.820312 120.6875 27.199219 Z M 120.449219 27.09375 " fill-opacity="1" fill-rule="nonzero"/><path fill="#f5e8d8" d="M 123.460938 20.714844 C 122.828125 20.011719 122.242188 19.496094 121.34375 19.847656 C 121.296875 19.847656 121.199219 19.847656 121.183594 19.847656 C 120.769531 19.183594 120.207031 19.472656 119.726562 19.683594 C 119.226562 19.890625 118.792969 20.195312 118.433594 20.601562 C 118.074219 21.007812 117.824219 21.472656 117.679688 21.996094 C 117.347656 23.101562 117.347656 23.101562 118.1875 23.703125 C 116.15625 24.800781 116.710938 20.566406 118.667969 19.460938 C 119.4375 19.042969 120.207031 18.628906 121.128906 19.042969 C 121.300781 19.125 121.546875 19.015625 121.769531 19.003906 C 122.003906 18.976562 122.230469 19.003906 122.449219 19.085938 C 122.671875 19.164062 122.863281 19.285156 123.027344 19.453125 C 123.191406 19.621094 123.3125 19.8125 123.386719 20.035156 C 123.464844 20.257812 123.488281 20.484375 123.460938 20.714844 Z M 123.460938 20.714844 " fill-opacity="1" fill-rule="nonzero"/><path fill="#f5e8d8" d="M 123.980469 31.792969 L 124.652344 31.414062 C 121.234375 31.453125 121.039062 31.414062 120.539062 30.507812 C 122.675781 30.863281 123.175781 31.109375 126.238281 30.507812 C 126.550781 30.382812 126.796875 30.183594 126.984375 29.902344 C 127.160156 29.636719 127.308594 29.359375 127.433594 29.070312 C 127.90625 29.203125 127.964844 29.421875 127.8125 29.828125 C 127.371094 30.988281 126.386719 31.445312 125.316406 31.789062 C 124.890625 31.894531 124.457031 31.96875 124.019531 32.015625 C 124.011719 31.953125 123.996094 31.875 123.980469 31.792969 Z M 123.980469 31.792969 " fill-opacity="1" fill-rule="nonzero"/><g clip-path="url(#e583fb7358)"><path fill="#f5e8d8" d="M 139.675781 20.199219 C 139.550781 20.203125 139.433594 20.183594 139.320312 20.136719 C 139.207031 20.089844 139.109375 20.019531 139.023438 19.929688 C 138.941406 19.839844 138.878906 19.738281 138.835938 19.621094 C 138.796875 19.507812 138.78125 19.386719 138.792969 19.265625 C 138.746094 18.480469 139.023438 17.832031 139.625 17.328125 C 141.21875 16.078125 142.953125 15.394531 145.03125 15.8125 C 145.429688 15.964844 145.800781 16.171875 146.140625 16.433594 C 145.917969 16.550781 145.855469 16.609375 145.828125 16.597656 C 143.488281 15.664062 141.605469 16.597656 139.902344 18.097656 C 139.253906 18.640625 139.171875 19.433594 139.675781 20.199219 Z M 139.675781 20.199219 " fill-opacity="1" fill-rule="nonzero"/></g><path fill="#f5e8d8" d="M 153.765625 43.878906 C 153.460938 43.671875 153.253906 43.390625 153.148438 43.035156 C 153.042969 42.683594 153.0625 42.335938 153.207031 41.996094 C 153.90625 39.914062 156.667969 39.5625 158.730469 40.351562 C 159.113281 40.5 159.53125 40.707031 159.296875 41.351562 C 158.746094 41 158.148438 40.777344 157.5 40.683594 C 156.855469 40.589844 156.21875 40.628906 155.589844 40.808594 C 154.316406 41.171875 153.726562 42.183594 153.765625 43.878906 Z M 153.765625 43.878906 " fill-opacity="1" fill-rule="nonzero"/><path fill="#f5e8d8" d="M 146.210938 40.425781 C 148.792969 40.886719 151.273438 40.484375 153.828125 39.496094 C 153.003906 41.359375 147.382812 41.972656 146.210938 40.425781 Z M 146.210938 40.425781 " fill-opacity="1" fill-rule="nonzero"/><path fill="#f5e8d8" d="M 121.503906 33.882812 C 119.707031 34.800781 118.269531 35.257812 118.285156 36.722656 C 118.285156 37.691406 118.890625 38.242188 119.855469 38.121094 L 120.652344 38.019531 C 120.503906 38.21875 120.324219 38.382812 120.101562 38.503906 C 119.882812 38.621094 119.648438 38.691406 119.398438 38.703125 C 119.148438 38.71875 118.910156 38.679688 118.675781 38.585938 C 118.445312 38.492188 118.246094 38.351562 118.078125 38.167969 C 117.871094 37.945312 117.71875 37.695312 117.621094 37.410156 C 117.519531 37.125 117.480469 36.832031 117.5 36.53125 C 117.519531 36.234375 117.597656 35.949219 117.734375 35.679688 C 117.871094 35.410156 118.058594 35.183594 118.289062 34.988281 C 118.710938 34.5625 119.203125 34.253906 119.765625 34.058594 C 120.332031 33.867188 120.910156 33.804688 121.503906 33.882812 Z M 121.503906 33.882812 " fill-opacity="1" fill-rule="nonzero"/><path fill="#f5e8d8" d="M 138.582031 48.921875 C 138.710938 48.816406 138.847656 48.726562 138.996094 48.652344 C 139.53125 48.519531 139.960938 48.234375 140.289062 47.792969 C 140.941406 46.960938 142.011719 46.769531 143.058594 46.890625 C 143.171875 46.902344 143.277344 46.9375 143.378906 46.996094 C 143.476562 47.054688 143.5625 47.128906 143.628906 47.222656 C 143.695312 47.316406 143.738281 47.421875 143.761719 47.535156 C 143.785156 47.648438 143.78125 47.761719 143.753906 47.871094 C 143.714844 48.332031 143.753906 48.792969 143.753906 49.269531 C 143.246094 49.457031 143.246094 49.457031 142.960938 47.574219 C 142.207031 47.722656 141.382812 47.507812 140.933594 48.492188 C 140.640625 49.140625 139.441406 49.332031 138.582031 48.921875 Z M 138.582031 48.921875 " fill-opacity="1" fill-rule="nonzero"/><path fill="#f5e8d8" d="M 145.699219 29.003906 C 148.8125 28.777344 147.867188 28.792969 149.164062 29.09375 C 149.164062 29.164062 149.128906 29.234375 149.109375 29.308594 C 146.707031 29.601562 145.726562 29.464844 144.730469 30.601562 C 143.800781 31.652344 144.835938 31.972656 145 32.453125 C 145 32.492188 145 32.554688 144.964844 32.609375 C 144.164062 32.566406 143.777344 32.234375 143.71875 31.519531 C 143.679688 31.089844 143.761719 30.6875 143.964844 30.308594 C 144.171875 29.929688 144.464844 29.640625 144.847656 29.441406 C 145.136719 29.28125 145.445312 29.140625 145.738281 28.996094 Z M 145.699219 29.003906 " fill-opacity="1" fill-rule="nonzero"/><path fill="#f5e8d8" d="M 162.402344 37.453125 C 163.234375 37.035156 163.609375 37.453125 164.398438 39.714844 C 164.832031 39.316406 165.230469 38.882812 165.59375 38.417969 C 165.871094 38 165.523438 37.558594 164.839844 37.367188 C 164.339844 37.230469 163.832031 37.140625 163.246094 37.007812 C 163.367188 36.808594 163.394531 36.675781 163.472656 36.640625 C 164.121094 36.359375 165.785156 36.792969 166.070312 37.402344 C 166.230469 37.789062 166.238281 38.175781 166.089844 38.566406 C 165.875 38.960938 165.578125 39.277344 165.195312 39.519531 C 164.257812 40.171875 164.035156 40.074219 163.5625 39.050781 C 163.371094 38.710938 163.144531 38.398438 162.890625 38.105469 C 162.726562 37.890625 162.5625 37.675781 162.402344 37.453125 Z M 162.402344 37.453125 " fill-opacity="1" fill-rule="nonzero"/><path fill="#f5e8d8" d="M 106.964844 36.75 C 106.550781 37.3125 105.953125 37.789062 106.175781 38.640625 L 107.722656 38.640625 L 108.273438 37.871094 L 108.183594 37.71875 L 107.152344 38.132812 C 106.847656 37.75 107.085938 37.496094 107.398438 37.28125 C 107.847656 36.96875 108.371094 36.835938 108.796875 37.214844 C 108.972656 37.5 108.996094 37.796875 108.871094 38.105469 C 108.515625 38.90625 106.585938 39.539062 105.8125 39.125 C 105.578125 38.964844 105.421875 38.746094 105.34375 38.472656 C 105.085938 37.660156 106 36.660156 106.964844 36.75 Z M 106.964844 36.75 " fill-opacity="1" fill-rule="nonzero"/><path fill="#f5e8d8" d="M 115.097656 38.476562 C 115.0625 38.621094 115.007812 38.761719 114.933594 38.890625 C 113.832031 40.515625 111.234375 39.875 112.019531 38.691406 C 112.238281 38.308594 112.535156 38.003906 112.914062 37.773438 C 113.292969 37.546875 113.703125 37.425781 114.144531 37.414062 C 114.75 37.410156 115.074219 37.738281 115.097656 38.476562 Z M 112.804688 39.402344 C 113.496094 39.265625 114.003906 38.890625 114.332031 38.265625 C 113.421875 38.15625 112.972656 38.484375 112.804688 39.402344 Z M 112.804688 39.402344 " fill-opacity="1" fill-rule="nonzero"/><path fill="#f5e8d8" d="M 118.667969 44.195312 C 118.695312 43.746094 118.609375 43.363281 118.75 43.226562 C 118.988281 42.957031 119.269531 42.757812 119.605469 42.625 C 119.9375 42.496094 120.285156 42.449219 120.640625 42.488281 C 121.246094 42.535156 121.542969 42.929688 121.808594 43.441406 C 122.335938 44.445312 122.175781 45.398438 121.738281 46.355469 C 121.570312 46.710938 121.34375 46.988281 120.835938 46.683594 C 121.480469 45.050781 121.480469 45.121094 121.449219 44.984375 C 121.34375 44.433594 121.324219 43.738281 120.980469 43.382812 C 120.636719 43.03125 119.921875 43.273438 119.441406 43.597656 C 119.238281 43.734375 119.050781 43.898438 118.667969 44.195312 Z M 118.667969 44.195312 " fill-opacity="1" fill-rule="nonzero"/><path fill="#f5e8d8" d="M 160.433594 25.816406 C 160.222656 25.742188 160.019531 25.652344 159.824219 25.542969 C 158.660156 24.710938 156.21875 24.988281 155.25 25.9375 C 155.085938 26.152344 154.9375 26.378906 154.808594 26.617188 C 154.691406 26.746094 154.5625 26.867188 154.425781 26.976562 C 154.335938 26.792969 154.121094 26.5625 154.175781 26.445312 C 154.339844 25.996094 154.597656 25.609375 154.945312 25.28125 C 156.507812 24.148438 158.214844 24.246094 159.9375 24.894531 C 160.214844 24.996094 160.402344 25.34375 160.632812 25.574219 Z M 160.433594 25.816406 " fill-opacity="1" fill-rule="nonzero"/><path fill="#f5e8d8" d="M 155.074219 43.488281 C 154.539062 43.042969 154.660156 42.609375 155.109375 42.460938 C 155.847656 42.222656 156.605469 42.082031 157.378906 42.042969 C 158.382812 41.992188 158.230469 43.851562 156.730469 44.175781 C 156.011719 44.328125 155.261719 44.414062 154.539062 43.722656 C 155.511719 43.414062 156.617188 43.890625 157.285156 42.816406 C 156.367188 42.574219 155.675781 42.707031 155.074219 43.488281 Z M 155.074219 43.488281 " fill-opacity="1" fill-rule="nonzero"/><path fill="#f5e8d8" d="M 143.769531 42.109375 C 143.867188 41.714844 143.980469 41.320312 144.066406 40.921875 C 144.25 40.089844 143.808594 39.613281 142.953125 39.796875 C 142.214844 39.953125 141.496094 40.214844 140.765625 40.371094 C 140.570312 40.382812 140.378906 40.359375 140.191406 40.308594 C 140.28125 40.125 140.328125 39.839844 140.464844 39.785156 C 141.511719 39.371094 142.574219 38.992188 143.722656 39.121094 C 145.085938 39.269531 145.21875 41.328125 143.984375 42.210938 Z M 143.769531 42.109375 " fill-opacity="1" fill-rule="nonzero"/><path fill="#f5e8d8" d="M 141.484375 37.652344 C 141.535156 37.726562 141.566406 37.808594 141.574219 37.902344 C 141.582031 37.992188 141.570312 38.078125 141.535156 38.160156 C 141.5 38.246094 141.445312 38.316406 141.375 38.371094 C 141.304688 38.429688 141.222656 38.46875 141.136719 38.484375 C 140.175781 38.855469 139.195312 39.195312 138.222656 39.503906 C 137.089844 39.859375 135.585938 40.046875 134.71875 39.226562 C 134.617188 39.128906 134.632812 38.894531 134.597656 38.722656 C 134.71875 38.695312 134.886719 38.609375 134.96875 38.660156 C 136.605469 39.664062 138.175781 38.941406 139.738281 38.460938 C 140.339844 38.234375 140.921875 37.964844 141.484375 37.652344 Z M 141.484375 37.652344 " fill-opacity="1" fill-rule="nonzero"/><path fill="#f5e8d8" d="M 127.273438 39.964844 L 129.199219 38.714844 C 128.207031 38.300781 127.953125 39.753906 126.914062 39.425781 C 127.394531 38.472656 127.988281 37.796875 129.03125 37.761719 C 129.402344 37.742188 129.707031 37.875 129.953125 38.15625 C 130.027344 38.511719 129.941406 38.828125 129.695312 39.097656 C 129.1875 39.644531 128.664062 40.21875 127.84375 40.324219 C 127.457031 40.390625 127.457031 40.40625 127.273438 39.964844 Z M 127.273438 39.964844 " fill-opacity="1" fill-rule="nonzero"/><path fill="#f5e8d8" d="M 129.804688 32.523438 L 130.839844 32.167969 L 130.421875 31.0625 C 130.652344 30.871094 130.90625 30.726562 131.183594 30.625 C 131.464844 30.523438 131.753906 30.472656 132.050781 30.472656 C 132.347656 30.472656 132.636719 30.523438 132.914062 30.625 C 133.195312 30.726562 133.449219 30.871094 133.675781 31.0625 L 131.421875 31.0625 C 131.421875 31.109375 131.421875 31.15625 131.421875 31.207031 L 132.523438 31.625 C 131.75 32.8125 130.8125 33.164062 129.804688 32.523438 Z M 129.804688 32.523438 " fill-opacity="1" fill-rule="nonzero"/><path fill="#f5e8d8" d="M 148.425781 45.757812 L 146.441406 46.445312 C 146.484375 46.160156 146.441406 45.832031 146.578125 45.652344 C 146.992188 45.136719 148.453125 44.972656 149.011719 45.324219 C 150.195312 46.066406 148.570312 47.402344 147.164062 47.261719 C 147 47.261719 146.855469 47.027344 146.699219 46.902344 C 147.195312 46.539062 146.667969 46.746094 148.5625 46.109375 Z M 148.425781 45.757812 " fill-opacity="1" fill-rule="nonzero"/><path fill="#f5e8d8" d="M 115.417969 29.347656 C 113.515625 29.882812 111.441406 29.867188 111.355469 32.464844 C 110.835938 32.511719 110.585938 32.179688 110.683594 31.773438 C 110.792969 31.195312 111.03125 30.675781 111.390625 30.214844 C 111.789062 29.804688 112.253906 29.492188 112.785156 29.28125 C 113.316406 29.070312 113.867188 28.976562 114.4375 29.003906 C 114.78125 29.070312 115.109375 29.1875 115.417969 29.347656 Z M 115.417969 29.347656 " fill-opacity="1" fill-rule="nonzero"/><path fill="#f5e8d8" d="M 121.488281 35.699219 C 120.65625 35.570312 120.28125 36.164062 119.824219 36.492188 C 119.40625 36.765625 119.441406 36.78125 118.992188 36.421875 C 119.921875 35.589844 121.011719 34.273438 121.792969 35.226562 C 121.894531 35.316406 121.96875 35.429688 122.019531 35.558594 C 122.066406 35.6875 122.082031 35.820312 122.066406 35.953125 C 122.046875 36.089844 122 36.214844 121.917969 36.328125 C 121.839844 36.441406 121.738281 36.527344 121.617188 36.589844 C 121.074219 36.964844 120.503906 37.285156 119.902344 37.558594 C 119.710938 37.648438 119.410156 37.488281 119.148438 37.34375 C 119.894531 36.816406 120.945312 36.761719 121.488281 35.699219 Z M 121.488281 35.699219 " fill-opacity="1" fill-rule="nonzero"/><path fill="#f5e8d8" d="M 140.648438 28.695312 C 139.003906 29.277344 137.667969 28.777344 136.433594 27.863281 C 135.601562 27.257812 135.398438 26.558594 135.722656 25.328125 C 137.230469 28.007812 135.996094 27.386719 140.648438 28.695312 Z M 140.648438 28.695312 " fill-opacity="1" fill-rule="nonzero"/><path fill="#f5e8d8" d="M 112.570312 31.59375 C 112.839844 31.253906 113.175781 30.996094 113.578125 30.820312 C 113.980469 30.648438 114.398438 30.578125 114.832031 30.613281 C 115.523438 30.613281 115.796875 31.117188 115.347656 31.613281 C 114.941406 32.085938 114.445312 32.429688 113.855469 32.636719 C 113.121094 32.839844 113.042969 31.96875 112.570312 31.59375 Z M 114.53125 31.550781 C 114.503906 31.484375 114.472656 31.410156 114.441406 31.339844 L 113.488281 31.757812 C 113.515625 31.828125 113.550781 31.894531 113.578125 31.964844 Z M 114.53125 31.550781 " fill-opacity="1" fill-rule="nonzero"/><path fill="#f5e8d8" d="M 120.976562 29.964844 C 120.863281 29.753906 120.792969 29.527344 120.769531 29.289062 C 120.785156 29.011719 120.84375 28.746094 120.949219 28.488281 C 121.050781 28.234375 121.191406 28 121.371094 27.789062 C 121.550781 27.578125 121.761719 27.398438 122 27.257812 C 122.234375 27.113281 122.488281 27.011719 122.761719 26.953125 C 123.363281 26.824219 123.972656 26.75 124.589844 26.730469 C 124.878906 26.738281 125.117188 26.851562 125.296875 27.078125 C 122.972656 27.628906 121.511719 27.527344 121.253906 29.925781 Z M 120.976562 29.964844 " fill-opacity="1" fill-rule="nonzero"/><path fill="#f5e8d8" d="M 155.554688 26.582031 C 156.992188 24.84375 162.859375 26.921875 160.558594 29.417969 C 160.515625 29.1875 160.503906 28.953125 160.519531 28.71875 C 160.597656 28.4375 160.578125 28.164062 160.460938 27.894531 C 160.34375 27.628906 160.15625 27.425781 159.894531 27.289062 C 157.746094 25.851562 156.410156 26.710938 155.738281 26.761719 C 155.714844 26.746094 155.675781 26.683594 155.554688 26.582031 Z M 155.554688 26.582031 " fill-opacity="1" fill-rule="nonzero"/><path fill="#f5e8d8" d="M 156.195312 29.519531 L 156.0625 29.933594 C 155.773438 30.730469 156.199219 31.304688 157.019531 31.113281 C 158.316406 30.8125 158.941406 30.140625 159.726562 30.40625 C 159.269531 30.867188 158.738281 31.214844 158.132812 31.445312 C 157.527344 31.675781 156.898438 31.769531 156.253906 31.726562 C 155.703125 31.726562 155.125 30.941406 155.179688 30.402344 C 155.175781 30.273438 155.203125 30.148438 155.257812 30.03125 C 155.308594 29.910156 155.382812 29.808594 155.480469 29.726562 C 155.582031 29.640625 155.691406 29.578125 155.816406 29.542969 C 155.941406 29.507812 156.066406 29.5 156.195312 29.519531 Z M 156.195312 29.519531 " fill-opacity="1" fill-rule="nonzero"/><path fill="#f5e8d8" d="M 150.089844 24.425781 C 151.074219 23.460938 151.300781 22.761719 152.652344 23.296875 C 152.753906 23.339844 152.832031 23.40625 152.898438 23.496094 C 152.960938 23.582031 153 23.679688 153.011719 23.789062 C 153.023438 23.898438 153.011719 24 152.96875 24.101562 C 152.925781 24.203125 152.863281 24.285156 152.777344 24.351562 C 152.292969 24.785156 150.957031 24.890625 150.089844 24.425781 Z M 150.089844 24.425781 " fill-opacity="1" fill-rule="nonzero"/><path fill="#f5e8d8" d="M 150.523438 25.097656 C 151.503906 25.097656 152.472656 25.285156 153.316406 25.042969 C 154.160156 24.800781 154.824219 24.140625 155.65625 23.773438 C 155.167969 24.953125 154.125 25.480469 153.027344 25.855469 C 152.808594 25.945312 152.578125 25.996094 152.339844 26.003906 C 152.101562 26.015625 151.871094 25.988281 151.640625 25.917969 C 151.414062 25.851562 151.203125 25.746094 151.011719 25.605469 C 150.820312 25.464844 150.65625 25.292969 150.523438 25.097656 Z M 150.523438 25.097656 " fill-opacity="1" fill-rule="nonzero"/><path fill="#f5e8d8" d="M 162.726562 33.996094 C 162.992188 33.761719 163.21875 33.492188 163.410156 33.195312 C 164.132812 31.648438 163.828125 31.679688 162.722656 31.15625 C 162.460938 31.070312 162.191406 31.011719 161.917969 30.984375 C 162.023438 30.257812 162.476562 30.355469 162.875 30.421875 C 163.707031 30.566406 164.503906 31.316406 164.539062 31.988281 C 164.605469 32.898438 163.953125 33.730469 162.726562 33.996094 Z M 162.726562 33.996094 " fill-opacity="1" fill-rule="nonzero"/><path fill="#f5e8d8" d="M 123.171875 30.023438 C 123.171875 29.605469 123.023438 29 123.203125 28.878906 C 123.726562 28.515625 124.300781 28.292969 124.933594 28.207031 C 125.496094 28.152344 125.742188 28.847656 125.347656 29.292969 C 125.078125 29.605469 124.75 29.824219 124.359375 29.957031 C 123.96875 30.085938 123.574219 30.109375 123.171875 30.023438 Z M 123.785156 29.257812 L 123.859375 29.386719 L 124.273438 29.15625 L 124.1875 29.011719 Z M 123.785156 29.257812 " fill-opacity="1" fill-rule="nonzero"/><path fill="#f5e8d8" d="M 146.828125 30.757812 C 146.945312 30.574219 147.035156 30.285156 147.195312 30.230469 C 147.667969 30.074219 148.15625 29.984375 148.652344 29.957031 C 148.90625 30.007812 149.085938 30.152344 149.1875 30.394531 C 149.25 30.574219 149.117188 31.003906 148.996094 31.035156 C 148.164062 31.25 147.332031 31.398438 146.5 31.539062 C 146.417969 31.539062 146.300781 31.382812 146.113281 31.21875 L 146.921875 30.917969 Z M 146.828125 30.757812 " fill-opacity="1" fill-rule="nonzero"/><path fill="#f5e8d8" d="M 103.328125 40.652344 C 105.140625 42.019531 107.003906 40.996094 108.839844 40.785156 C 106.855469 42.140625 104.226562 42.472656 103.328125 40.652344 Z M 103.328125 40.652344 " fill-opacity="1" fill-rule="nonzero"/><path fill="#f5e8d8" d="M 119.191406 25.160156 C 116.320312 27.34375 114.089844 23.046875 116.566406 22.871094 C 116.550781 22.976562 116.519531 23.082031 116.480469 23.179688 C 115.867188 24.285156 116.398438 25.214844 117.703125 25.257812 C 118.199219 25.257812 118.691406 25.191406 119.191406 25.160156 Z M 119.191406 25.160156 " fill-opacity="1" fill-rule="nonzero"/><path fill="#f5e8d8" d="M 139.9375 25.734375 C 139.804688 25.171875 140.015625 24.902344 140.675781 24.785156 C 141.167969 24.703125 141.792969 25.046875 141.816406 25.417969 C 141.816406 25.441406 141.816406 25.492188 141.816406 25.496094 C 140.800781 26.132812 139.6875 27.113281 139.097656 25.980469 Z M 139.9375 25.734375 " fill-opacity="1" fill-rule="nonzero"/><path fill="#f5e8d8" d="M 120.621094 38.59375 C 121.984375 37.761719 122.78125 36.660156 122.507812 34.964844 L 122.789062 34.921875 C 122.945312 35.125 123.207031 35.304688 123.238281 35.53125 C 123.546875 36.90625 122.164062 38.621094 120.621094 38.59375 Z M 120.621094 38.59375 " fill-opacity="1" fill-rule="nonzero"/><path fill="#f5e8d8" d="M 145.207031 48.402344 C 145.808594 48.636719 146.554688 48.203125 146.960938 49.128906 L 149.039062 48.8125 C 148.542969 49.515625 147.042969 49.910156 145.992188 49.644531 C 145.4375 49.511719 145.183594 49.136719 145.207031 48.402344 Z M 145.207031 48.402344 " fill-opacity="1" fill-rule="nonzero"/><path fill="#f5e8d8" d="M 111.691406 45.75 C 111.375 44.808594 112.191406 44.417969 112.648438 43.894531 C 112.996094 43.480469 113.480469 43.378906 114.171875 43.816406 L 112.382812 45.164062 L 113.140625 45.304688 C 112.742188 45.9375 112.230469 45.921875 111.675781 45.722656 Z M 111.691406 45.75 " fill-opacity="1" fill-rule="nonzero"/><path fill="#f5e8d8" d="M 126.488281 23.628906 C 125.539062 24.117188 124.894531 23.898438 124.476562 23.066406 C 123.910156 21.949219 124.035156 20.820312 124.84375 20.425781 C 124.84375 22.699219 124.476562 23.492188 126.488281 23.628906 Z M 126.488281 23.628906 " fill-opacity="1" fill-rule="nonzero"/><path fill="#f5e8d8" d="M 164.898438 41.019531 C 165.769531 41.355469 166.179688 41.882812 166.1875 42.582031 C 166.210938 42.871094 166.144531 43.140625 165.992188 43.390625 C 165.835938 43.636719 165.625 43.816406 165.355469 43.925781 C 165.113281 43.972656 164.871094 43.972656 164.628906 43.925781 C 164.980469 43.382812 165.421875 42.988281 165.460938 42.570312 C 165.503906 42.148438 165.144531 41.628906 164.898438 41.019531 Z M 164.898438 41.019531 " fill-opacity="1" fill-rule="nonzero"/><path fill="#f5e8d8" d="M 139.519531 29.371094 L 142.558594 28.953125 C 142.578125 29.054688 142.59375 29.152344 142.617188 29.253906 C 141.839844 29.730469 140.996094 29.9375 140.085938 29.871094 C 139.9375 29.863281 139.773438 29.609375 139.519531 29.371094 Z M 139.519531 29.371094 " fill-opacity="1" fill-rule="nonzero"/><path fill="#f5e8d8" d="M 110.453125 36.972656 C 110.453125 36.210938 110.453125 35.546875 110.453125 34.894531 C 110.453125 34.785156 110.585938 34.601562 110.671875 34.59375 C 111.683594 34.476562 111.375 36.453125 110.453125 36.972656 Z M 110.453125 36.972656 " fill-opacity="1" fill-rule="nonzero"/><path fill="#f5e8d8" d="M 142.808594 20.511719 L 139.820312 20.773438 C 140.441406 20.0625 141.902344 19.910156 142.808594 20.296875 Z M 142.808594 20.511719 " fill-opacity="1" fill-rule="nonzero"/><path fill="#f5e8d8" d="M 147.425781 32.101562 L 150.003906 31.953125 C 149.28125 32.789062 148.152344 32.867188 147.425781 32.101562 Z M 147.425781 32.101562 " fill-opacity="1" fill-rule="nonzero"/><path fill="#f5e8d8" d="M 162.855469 45.269531 L 161.933594 45.859375 L 161.753906 45.578125 L 162.675781 44.988281 C 162.734375 45.085938 162.792969 45.175781 162.855469 45.269531 Z M 162.855469 45.269531 " fill-opacity="1" fill-rule="nonzero"/><path fill="#f5e8d8" d="M 77.539062 51.941406 C 75.910156 51.6875 74.492188 51.96875 73.0625 52.207031 C 71.957031 52.359375 70.847656 52.449219 69.734375 52.484375 C 69.460938 52.460938 69.199219 52.398438 68.949219 52.292969 L 68.972656 52.070312 C 69.921875 51.945312 75.269531 51.28125 77 51.089844 C 77.195312 51.0625 77.527344 51.089844 77.578125 51.214844 C 77.65625 51.390625 77.5625 51.65625 77.539062 51.941406 Z M 77.539062 51.941406 " fill-opacity="1" fill-rule="nonzero"/><path fill="#f5e8d8" d="M 168.054688 82.667969 C 167.855469 83.195312 167.613281 83.703125 167.324219 84.191406 C 167.039062 84.679688 166.710938 85.136719 166.347656 85.570312 C 165.980469 86 165.582031 86.398438 165.148438 86.761719 C 164.714844 87.125 164.253906 87.449219 163.765625 87.730469 C 163.273438 88.015625 162.765625 88.253906 162.234375 88.453125 C 161.707031 88.648438 161.160156 88.796875 160.605469 88.902344 C 160.050781 89.003906 159.488281 89.058594 158.925781 89.066406 C 158.359375 89.074219 157.796875 89.03125 157.238281 88.945312 C 153.710938 88.371094 149.921875 85.578125 149.019531 82.25 C 147.941406 78.285156 150.683594 72.503906 155.980469 70.480469 C 156.582031 70.246094 157.203125 70.078125 157.839844 69.972656 C 158.476562 69.867188 159.117188 69.828125 159.761719 69.855469 C 160.410156 69.882812 161.042969 69.976562 161.667969 70.136719 C 162.292969 70.296875 162.898438 70.519531 163.476562 70.808594 C 164.054688 71.09375 164.597656 71.4375 165.105469 71.835938 C 165.613281 72.234375 166.074219 72.679688 166.488281 73.175781 C 166.902344 73.671875 167.261719 74.203125 167.566406 74.773438 C 167.871094 75.34375 168.113281 75.9375 168.292969 76.558594 C 168.558594 77.457031 168.785156 80.710938 168.054688 82.667969 Z M 166.078125 73.855469 C 165.21875 72.664062 162.75 71.027344 160.527344 70.6875 C 156.785156 70.117188 153.191406 72.433594 151.105469 75.738281 C 148.980469 79.117188 148.925781 82.394531 151.871094 85.308594 C 153.226562 86.667969 154.832031 87.578125 156.699219 88.035156 C 164.828125 89.929688 171.011719 80.667969 166.078125 73.855469 Z M 166.078125 73.855469 " fill-opacity="1" fill-rule="nonzero"/><path fill="#f5e8d8" d="M 31.207031 88.199219 C 28.027344 88.378906 25.347656 86.949219 23.078125 84.691406 C 19.988281 81.585938 19.914062 75.789062 22.292969 71.796875 C 24.675781 67.804688 26.734375 66.039062 31.929688 66.207031 C 33.542969 66.253906 35.335938 66.429688 36.722656 67.308594 C 40.34375 69.597656 42.402344 70.785156 42.640625 75.40625 C 42.855469 79.648438 42.121094 83.441406 38.726562 86.078125 C 36.523438 87.804688 34.035156 88.269531 31.207031 88.199219 Z M 41.347656 80.75 C 41.65625 79.40625 41.828125 78.046875 41.867188 76.671875 C 42.023438 74.679688 41.542969 72.851562 40.425781 71.191406 C 39.285156 69.578125 37.457031 68.695312 35.710938 67.902344 C 34.613281 67.386719 33.460938 67.0625 32.257812 66.933594 C 31.050781 66.808594 29.855469 66.878906 28.675781 67.152344 C 23.269531 68.550781 19.246094 77.441406 22.609375 82.730469 C 24.667969 85.992188 39.074219 89.480469 41.347656 80.75 Z M 41.347656 80.75 " fill-opacity="1" fill-rule="nonzero"/><path fill="#f5e8d8" d="M 162.054688 84.707031 C 161.609375 85.054688 161.105469 85.257812 160.542969 85.320312 C 159.984375 85.378906 159.445312 85.292969 158.933594 85.054688 C 157.703125 84.472656 156.476562 83.886719 155.253906 83.285156 C 154.929688 83.125 154.867188 82.304688 154.628906 81.953125 C 154.140625 81.230469 154.234375 80.464844 154.300781 79.671875 C 154.339844 78.640625 154.648438 77.699219 155.230469 76.847656 C 156.703125 74.804688 159.785156 74.03125 162.003906 75.21875 C 165.769531 77.257812 165.222656 82.585938 162.054688 84.707031 Z M 161.59375 75.949219 C 160.34375 76.984375 161.660156 75.402344 156.1875 82.261719 C 156.128906 82.320312 156.089844 82.386719 156.070312 82.464844 C 156.046875 82.539062 156.042969 82.617188 156.058594 82.695312 C 156.074219 82.773438 156.109375 82.84375 156.160156 82.90625 C 156.210938 82.96875 156.273438 83.015625 156.347656 83.042969 C 156.894531 83.390625 157.449219 83.71875 158.011719 84.042969 C 158.136719 84.132812 158.277344 84.195312 158.425781 84.230469 C 158.578125 84.261719 158.730469 84.265625 158.882812 84.238281 C 159.035156 84.210938 159.175781 84.15625 159.304688 84.070312 C 159.433594 83.988281 159.542969 83.878906 159.628906 83.75 C 162.957031 80.046875 162.796875 80.507812 163.648438 79.949219 L 163.875 80.042969 L 163.6875 78.035156 L 163.457031 77.945312 C 161.695312 79.410156 163.375 77.71875 158.523438 83.027344 C 158.308594 83.265625 158.070312 83.640625 157.691406 83.292969 C 157.3125 82.949219 157.691406 82.699219 157.917969 82.460938 C 162.441406 77.5625 161.207031 78.878906 163.21875 77.171875 Z M 155.574219 81.941406 L 160.457031 75.773438 C 159.683594 75.550781 159.054688 75.414062 158.539062 76.132812 C 157.558594 77.496094 156.523438 78.816406 155.503906 80.15625 C 155.074219 80.71875 155.074219 81.28125 155.574219 81.941406 Z M 163.566406 80.863281 L 159.925781 84.445312 C 161.570312 84.746094 163.097656 83.203125 163.566406 80.863281 Z M 155.167969 79.066406 L 155.332031 79.1875 L 157.625 76.082031 L 157.46875 75.960938 C 156.382812 76.757812 155.328125 77.578125 155.167969 79.066406 Z M 155.167969 79.066406 " fill-opacity="1" fill-rule="nonzero"/><path fill="#f5e8d8" d="M 32.773438 83.417969 C 30.734375 83.269531 29.03125 82.75 27.675781 81.261719 C 26.15625 79.597656 26.222656 76.71875 27.0625 75.171875 C 28.023438 73.410156 30.511719 72.109375 32.46875 72.625 C 34.789062 73.234375 37.070312 74.753906 37.285156 77.160156 C 37.523438 79.785156 36.941406 82.183594 34.132812 83.152344 C 33.6875 83.277344 33.234375 83.367188 32.773438 83.417969 Z M 33.898438 82.332031 C 36.433594 82 37.300781 77.597656 35.976562 75.734375 C 35.570312 75.113281 35.015625 74.675781 34.3125 74.425781 C 33.324219 74.167969 32.078125 73.304688 31.59375 73.296875 C 31.246094 73.320312 30.90625 73.378906 30.578125 73.480469 C 30.542969 73.84375 30.46875 74.195312 30.355469 74.542969 C 27.984375 79.597656 27.621094 79.789062 28.035156 80.445312 C 29.03125 81.910156 30.53125 82.46875 32.195312 82.625 C 33.363281 82.730469 33.027344 82.128906 35.792969 77.148438 C 36.433594 77.929688 36.425781 77.949219 33.898438 82.332031 Z M 29.804688 73.867188 C 27.984375 74.417969 26.726562 77.195312 27.457031 78.789062 Z M 29.804688 73.867188 " fill-opacity="1" fill-rule="nonzero"/><path fill="#f5e8d8" d="M 33.386719 74.652344 C 31.164062 78.738281 31.882812 77.308594 30.535156 80.589844 C 30.535156 80.617188 30.535156 80.652344 30.535156 80.671875 C 30.277344 80.984375 30.28125 81.730469 29.703125 81.503906 C 29.125 81.28125 29.550781 80.777344 29.703125 80.417969 C 32.617188 74.257812 32.300781 74.902344 33.292969 74.507812 Z M 33.386719 74.652344 " fill-opacity="1" fill-rule="nonzero"/><path fill="#f5e8d8" d="M 34.722656 74.992188 C 35.695312 75.484375 34.976562 75.6875 32.996094 79.125 C 32.535156 79.929688 32.167969 80.789062 31.75 81.597656 C 31.644531 81.785156 31.375 81.878906 31.179688 82.011719 C 31.121094 81.773438 30.9375 81.464844 31.027344 81.300781 C 31.691406 80.054688 32.394531 78.855469 33.105469 77.644531 C 33.617188 76.761719 34.171875 75.894531 34.722656 74.992188 Z M 34.722656 74.992188 " fill-opacity="1" fill-rule="nonzero"/></svg>