<svg xmlns="http://www.w3.org/2000/svg" width="1366" height="768" version="1.0" viewBox="0 0 1024.5 576">
  <path fill="white" d="M887.25 308.438c-13.79-.008-27.574-.004-41.363-.012-2.63 0-2.637-.02-3.055-2.57-2.844-17.215-7.191-34.06-12.516-50.657-11.507-36.949-36.656-68.5-70.074-88.004-1.258-.789-1.941-1.699-2.406-3.058-32.055-92.68-130.106-92.008-207.652-60.227-26.02 10.906-50.246 25.555-75.93 37.195-5.953 2.72-12.008 5.106-18.438 6.446-1.894.394-3.367-.168-4.418-1.688-7.953-11.523-17.496-21.586-28.746-29.86-3.523-2.589-4.902-5.437-5.398-9.538-3.805-23.098-7.887-53.887-25.238-70.778-18.176-16.34-36.508 27.895-43.266 40.657-1.934 4.304-3.484 8.758-4.785 13.297-1.156 4.043-1.149 4.164-5.363 4.191-26.418.66-53.278 6.484-76.383 19.637-1.918 1.355-3.176-1.457-4.485-2.418-49.367-47.59-60.87-55.828-62.148 20.855.355 11.274 1.687 22.422 3.926 33.465.375 1.848.234 3.54-.54 5.29a195.604 195.604 0 0 0-6.472 16.737c-6.82 18.653-8.469 39.688.262 58 1.36 2.985 1.675 2.743-1.606 3.813-3.449 1.129-6.867 2.332-10.289 3.535-3.457.852-6.758 4.102-5.035 7.719 1.188 2.754 4.707 3.473 7.211 2.039 4.469-1.774 9.004-3.363 13.633-4.668 1.812-.512 3.129.144 3.953 1.969-13.438 2.547-24.457 9.53-28.262 23.347-2.39 8.07-1.32 15.641 4.672 22.055.227.242.578.465.36 1.094-14.618.64-29.493-.344-44.13.363-2.566.649-4.066 2.652-3.843 5.168.207 2.348 1.976 4.078 4.5 4.293 148.047 2.07 298.68-3.664 445.492 1.992 32.469 43.477 86.27 69.168 107.68 120.79 3.609 8.288 5.422 17.093 7.742 25.753.32 1.195-.063 2.055-.762 2.988-2.558 3.41-5.117 6.825-7.527 10.336-21.235 30.86 16.566 46.555 37.851 24.442 5.957-5.68 7.172-14.106 6.149-21.957-5.496-53.656-1.828-108.582 12.605-160.7.664-2.55.676-2.57 3.196-2.546 17.144.164 34.285.336 51.425.515 2.375.024 2.414.043 2.688 2.367 1.203 10.278 2.105 20.582 2.285 30.93 3.473 53.094-6.977 131.547 19.703 177.23 8.836 13.688 29.59 28.575 44.527 15.036 13.032-11.555 15.313-31.656 6.227-46.266-6.406-10.84-13.172-21.61-16.691-33.808-11.723-46.145-5.016-94.672-11.664-141.586-.465-4.157-.192-3.45 2.941-3.454 14.473-.359 29.105.649 43.496-.394 2.113-.762 3.406-2.633 3.281-4.8-.09-3.817-4.14-4.911-7.324-4.555Zm-690.586-96.153c1.313-14.332 7.04-27.52 12.348-40.703.855-2.113-.938-8.844-1.098-10.176-3.344-24.363-4.035-49.222 1.559-73.312.847-3.906 1.05-3.942 4.488-2.04 15.223 10.22 28.574 23.34 41.258 36.532 2.875 3.547 11.441-1.367 12.484-1.871 24.309-11.578 51.434-18.05 78.395-17.067 3.496.18 5.492-8.343 5.988-9.726 6.043-16.742 14.144-32.387 24.902-46.606 2.082-2.304 4.93-7.496 8.407-4.449 2.523 1.863 4.355 4.348 5.945 7.008 9.543 17.285 13.07 37.156 16.156 56.445.238 1.77.07 9.848 2.063 11.137 23.687 17.703 48.304 43.133 45.687 74.934-.11 2.277-.164 2.3-2.457 2.785a3025.86 3025.86 0 0 1-15.71 3.258c-2.7.222-5.49 2.504-4.813 5.379.636 3.523 4.644 3.882 7.543 3.148 3.941-.617 7.882-1.254 11.828-1.828 1.851-.27 1.941-.137 1.715 1.617-.536 4.203-.536 4.184-4.832 3.953-4.102.082-11.965-1.93-12.278 4.117.04 5.75 7.742 4.282 11.625 5.012 2.238.242 2.313.34 1.578 2.547-3.238 7.508-10.71 35.203-19.941 34.52-28.418-1.551-55.656 10.984-80.344 23.753-1.715 2.067-3.566 1.528-5.777.758-10.598-3.613-21.969-.746-32.063 3.18-1.558.668-2.855.547-4.386-.059-10.028-3.957-20.008-8.031-30.29-11.324-13.265-4.676-27.57-7.25-40.777-11.09.5-.86 1.504-.902 2.25-1.363 4.606-2.531 1.715-9.375-3.273-7.926-4.739 1.5-9.262 3.719-13.785 5.774-2.899 1.238-7.641 2.25-9.582-.914-.54-.934-1.407-1.66-1.793-2.758.433-.856 1.316-.801 2.062-.961 7.629-1.617 15.262-3.215 22.887-4.836 2.863-.324 6.105-2.184 5.379-5.465-.403-2.785-3.485-4.11-6.11-3.36-9.488 1.489-19.058 2.551-28.379 4.997-1.441.379-2.113-.13-2.742-1.383-5.011-9.98-7.07-20.5-6.117-31.637Zm151.055 91.996c-4.758.711-9.547.989-14.36 1-44.203-1.168-88.543 3.305-132.636-.508-3.336-.394-6.63-1-9.778-2.214-19.804-5.829-6.289-32.903 9.555-32.137-1.84 1.941-4.281 2.996-6.129 4.879-3.312 3.43.484 9.262 5 7.789 6.434-2.598 16.117-13.5 23.063-12.906 28.726 4.355 56.738 13.203 83.656 23.785 1.422 1.094 2.976 1.152 4.61.41 6.437-2.922 13.265-4.238 20.253-4.793 7.402-.613 19.438 2.516 19.535 11.586-.164 2.5-.3 2.742-2.77 3.11Zm77.633.512c-21.254.832-42.735-.254-64.098-.57-1.356.058-1.125-1.32-1.074-2.27.39-4.984-1.239-9.265-4.5-12.984-.41-.61-.73-.59-.782-1.524 21.61-9.242 43.504-19.629 67.313-21.078 13.875-1.066 25.996 8.606 31.937 20.524 7.832 16.453-17.898 19.09-28.796 17.902Zm306.402 20.394c-13.84 51.028-15.34 104.524-10.82 156.77 3.183 14.543-14.368 24.883-26.805 19.715-8.219-4.2-2.063-14.063 1.14-19.77 2.008-3.238 3.985-6.523 6.329-9.507 2.945-3.75 3.609-7.473 2.207-12.133-2.328-7.715-3.852-15.66-6.953-23.157-12.235-31.625-36.805-55.308-62.239-76.687-47.402-41.922-92.172-95.32-102.406-159.578-.285-2.406-1.816-3.926-4.016-4.028-4.902-.257-5 5.7-4.367 9.29 4.547 37.293 24.985 70.293 46.48 100.273H459.747c-.363-1.012.512-1.32.95-1.777 13.722-15.532-5.106-35.48-18.41-43.817 8.425-10.945 12.484-24.492 17.026-37.422.618-2.004.657-1.98 2.91-1.652 6.852.926 13.423 3.078 20.106 4.723 6.625 1.437 8.988-7.676 2.399-9.465-6.368-1.79-12.723-3.656-19.27-4.719-2.312-.383-3.547-.2-2.738-2.926.23-1.156.574-2.297.71-3.46.317-2.692.466-2.512 3.079-2.817 9.433-1.438 19.012-1.2 28.46-1.7 4.317-1.359 4.493-7.628.184-9.113-8.957-1.558-18.343.067-27.359.766-1.816.195-2.723-.617-2.711-2.437.094-11.008-1.36-21.711-6.207-31.75-.5-1.036-.754-1.809.773-2.164 11.688-2.708 22.211-8.29 32.875-13.485 49.329-26.488 102.454-51.73 159.797-49.101 54.848.937 98.438 48.277 102.64 101.664 3.599 44.312-14.132 86.734-23.206 129.464Zm64.848-17.207c-16.739-.34-33.516.008-50.215-.718 6.965-29.953 16.105-59.336 19.09-90.2 19.62 24.895 27.785 57.778 32.945 88.747.23 2.128.23 2.191-1.82 2.171Zm61 181.672c7.175 11.61 15.93 24.457 8.812 38.227-2.484 4.621-5.937 10.785-12.035 10.25-6.09-.457-11.418-2.469-15.988-6.602-49.856-47.808.566-212.527-55.184-305.484-4.566-8.316-10.094-15.93-16.527-22.879-1.059-1.144-1.54-2.297-1.645-3.84-.14-6.527-2.043-12.883-2.402-19.3 65.234 42.171 74.207 127.257 76.117 198.515 2.23 37.395-1.137 77.719 18.852 111.113Zm0 0"/>
  <path fill="white" d="M331.824 244.14c.84-1.085 1.559-1.296 2.7-.472 4.206 2.723 9.71 4.246 14.468 2.102 6.227-2.364 3.39-11.48-3.105-9.301-3.02.89-5.29-.344-7.414-2.196-.91-.793-.973-1.41.097-2.378 4.399-4.165-.59-9.086-5.644-8.278-3.61.36-11.266.621-11.422 5.52-.09 2.093.793 3.379 3.332 4.328 1.16.437 1.328 1.023 1.008 2.05-2.492 9.102-12.262 4.02-11.953 11.403 1.921 8.277 14.804 1.785 17.933-2.777ZM349.707 199.664c2.3.606 4.68.484 6.395.723 7.96.343 15.054-.746 21.75-4.852 5.062-2.71 10.523-11.004 2.175-13.043-4.672-.422-4.93 5.278-11.875 6.867-5.492 1.735-11.328 1.43-16.972.825-6.203-.645-7.676 8.058-1.473 9.48ZM279.2 216.504c7.425-.184 16.07-1.387 21.034-7.508 4.02-4.937-2.816-11.203-7.168-6.434-6.164 5.352-15.53 4.899-22.976 2.81-3.3-1.638-7.512.284-7.414 4.214.176 6.457 11.726 6.687 16.523 6.918Zm0 0"/>
</svg>