<svg xmlns="http://www.w3.org/2000/svg" xmlns:xlink="http://www.w3.org/1999/xlink" width="200" zoomAndPan="magnify" viewBox="0 0 150 74.999997" height="100" preserveAspectRatio="xMidYMid meet" version="1.0"><defs><clipPath id="2e632bdff0"><path d="M 19.742188 0 L 130.253906 0 L 130.253906 74.996094 L 19.742188 74.996094 Z M 19.742188 0 " clip-rule="nonzero"/></clipPath></defs><g clip-path="url(#2e632bdff0)"><path fill="#c86b46" d="M 129.042969 25.230469 C 129.015625 27.453125 128.789062 29.6875 128.371094 31.984375 C 127.429688 37.199219 125.816406 42.265625 123.792969 47.160156 C 123.214844 48.550781 122.6875 49.953125 122.207031 51.378906 C 121.976562 52.066406 121.621094 52.714844 121.273438 53.359375 C 120.546875 54.71875 119.796875 56.070312 119.035156 57.414062 C 118.230469 58.835938 117.421875 60.253906 116.582031 61.65625 C 115.828125 62.914062 115.179688 64.21875 114.589844 65.558594 C 114.265625 66.304688 113.925781 67.054688 113.511719 67.757812 C 112.792969 68.980469 112.160156 70.238281 111.621094 71.554688 C 111.21875 72.535156 110.496094 73.265625 109.410156 73.558594 C 108.058594 73.929688 106.976562 73.09375 107.058594 71.679688 C 107.085938 71.167969 107.171875 70.648438 107.316406 70.15625 C 107.71875 68.796875 108.164062 67.449219 108.597656 66.101562 C 108.675781 65.855469 108.765625 65.609375 108.886719 65.382812 C 110.105469 63.050781 110.277344 60.574219 110.117188 57.996094 C 110.027344 56.507812 109.40625 55.273438 108.792969 54.003906 C 108.34375 53.078125 107.832031 52.179688 107.289062 51.304688 C 106.058594 49.328125 105.40625 47.160156 105.195312 44.867188 C 105.109375 43.933594 105.171875 42.972656 105.273438 42.039062 C 105.4375 40.539062 105.789062 39.074219 106.261719 37.640625 C 106.519531 36.863281 106.820312 36.113281 107.308594 35.433594 C 107.632812 34.984375 107.882812 34.480469 108.148438 33.988281 C 108.222656 33.851562 108.226562 33.683594 108.28125 33.445312 C 108.070312 33.5 107.9375 33.5 107.851562 33.558594 C 107.460938 33.84375 107.210938 34.238281 106.96875 34.652344 C 105.84375 36.574219 105.296875 38.6875 104.882812 40.847656 C 104.664062 41.992188 104.550781 43.140625 104.574219 44.304688 C 104.59375 45.519531 104.816406 46.695312 105.082031 47.871094 C 105.226562 48.496094 105.367188 49.117188 105.511719 49.746094 C 104.359375 50.738281 103.28125 51.714844 102.152344 52.628906 C 101.519531 53.144531 100.820312 53.574219 100.140625 54.023438 C 99.460938 54.472656 98.769531 54.90625 98.074219 55.332031 C 97.742188 55.535156 97.40625 55.734375 97.054688 55.882812 C 95.867188 56.390625 94.695312 56.9375 93.480469 57.351562 C 91.53125 58.019531 89.554688 58.613281 87.578125 59.199219 C 84.660156 60.058594 81.664062 60.632812 78.640625 60.980469 C 75.742188 61.3125 72.820312 61.375 69.933594 61.824219 C 68.878906 61.988281 67.851562 62.351562 66.816406 62.632812 C 66.652344 62.675781 66.484375 62.738281 66.34375 62.832031 C 64.851562 63.851562 63.1875 64.566406 61.691406 65.585938 C 60.019531 66.722656 58.269531 67.734375 56.402344 68.53125 C 56.246094 68.597656 56.082031 68.652344 55.933594 68.738281 C 54.703125 69.472656 53.339844 69.886719 52.011719 70.375 C 49.3125 71.363281 46.597656 72.320312 43.871094 73.238281 C 43.0625 73.511719 42.195312 73.613281 41.355469 73.785156 C 40.515625 73.960938 39.671875 74.136719 38.824219 74.285156 C 37.527344 74.515625 36.257812 74.414062 35.03125 73.894531 C 34.664062 73.742188 34.355469 73.53125 34.113281 73.214844 C 33.527344 72.453125 33.554688 71.847656 34.289062 71.1875 C 34.828125 70.699219 35.386719 70.207031 36.003906 69.832031 C 37.585938 68.863281 39.253906 68.089844 41.074219 67.640625 C 43.535156 67.039062 45.984375 66.378906 48.308594 65.328125 C 50.695312 64.25 53.101562 63.203125 55.480469 62.105469 C 56.257812 61.746094 57.007812 61.3125 57.730469 60.847656 C 59 60.035156 59.445312 58.679688 59.011719 57.25 C 58.847656 56.710938 58.523438 56.351562 58.027344 56.132812 C 57.359375 55.835938 56.699219 55.523438 56.011719 55.269531 C 55.191406 54.96875 54.339844 54.855469 53.488281 55.164062 C 52.882812 55.378906 52.261719 55.582031 51.703125 55.894531 C 49.941406 56.886719 48.109375 57.722656 46.234375 58.484375 C 45.5625 58.757812 44.9375 59.152344 44.28125 59.472656 C 43.507812 59.847656 42.726562 60.195312 41.949219 60.5625 C 40.199219 61.382812 38.472656 62.261719 36.691406 63.011719 C 35.789062 63.390625 34.820312 63.609375 33.898438 63.976562 C 32.0625 64.707031 30.207031 65.386719 28.347656 66.0625 C 27.21875 66.472656 26.09375 66.925781 24.867188 66.957031 C 23.738281 66.988281 22.625 66.933594 21.640625 66.28125 C 21.570312 66.234375 21.488281 66.203125 21.414062 66.15625 C 20.339844 65.464844 20.046875 64.175781 21.09375 63.078125 C 21.320312 62.835938 21.632812 62.648438 21.941406 62.519531 C 23.648438 61.8125 25.367188 61.132812 27.078125 60.4375 C 29.152344 59.597656 31.148438 58.59375 33.132812 57.5625 C 34.585938 56.8125 36.054688 56.101562 37.503906 55.351562 C 40.40625 53.851562 43.296875 52.328125 46.203125 50.835938 C 47.042969 50.402344 47.90625 50.023438 48.765625 49.625 C 49.699219 49.191406 50.65625 48.800781 51.570312 48.328125 C 52.925781 47.625 53.605469 46.394531 53.984375 44.976562 C 54.296875 43.800781 54.304688 42.601562 54.253906 41.390625 C 54.15625 39.203125 54.078125 37.011719 54.015625 34.820312 C 53.980469 33.527344 54.183594 32.25 54.421875 30.980469 C 54.628906 29.886719 54.847656 28.789062 55.027344 27.6875 C 55.125 27.082031 55.308594 26.523438 55.652344 26.015625 C 55.851562 25.722656 56.140625 25.632812 56.429688 25.816406 C 58.019531 26.835938 59.734375 27.675781 61.117188 28.988281 C 61.59375 29.441406 62.074219 29.625 62.730469 29.589844 C 64.53125 29.492188 66.335938 29.457031 68.140625 29.402344 C 68.785156 29.382812 69.429688 29.34375 70.070312 29.371094 C 70.554688 29.386719 70.898438 29.210938 71.171875 28.839844 C 71.808594 27.972656 72.445312 27.109375 73.082031 26.246094 C 73.367188 25.867188 73.648438 25.488281 73.949219 25.121094 C 74.054688 24.992188 74.199219 24.886719 74.339844 24.792969 C 74.511719 24.671875 74.761719 24.671875 74.929688 24.773438 C 75.09375 24.816406 75.230469 24.9375 75.296875 25.09375 C 75.921875 25.582031 76.144531 26.5 76.449219 27.199219 C 76.863281 28.148438 77.28125 29.082031 77.613281 30.066406 C 78.0625 31.382812 78.40625 32.738281 78.636719 34.109375 C 78.871094 35.472656 78.886719 36.609375 79.59375 37.832031 C 79.886719 38.175781 80.195312 38.5 80.523438 38.808594 C 80.652344 38.871094 80.75 38.949219 80.839844 39.039062 C 80.921875 39.066406 81 39.113281 81.070312 39.15625 C 81.726562 39.566406 82.398438 39.929688 83.128906 40.203125 C 84.621094 40.761719 86.082031 40.707031 87.496094 40.019531 C 90.867188 38.375 93.445312 34.902344 95.476562 31.871094 C 97.507812 28.835938 99.535156 25.804688 101.566406 22.769531 C 103.210938 20.3125 105.097656 17.984375 107.429688 16.148438 C 109.949219 14.171875 112.949219 13.179688 116.09375 12.71875 C 117.3125 12.539062 118.539062 12.46875 119.75 12.339844 C 119.96875 12.234375 120.214844 12.15625 120.40625 12.035156 C 120.710938 11.839844 120.953125 11.605469 121.175781 11.34375 C 121.417969 10.839844 121.574219 10.296875 121.578125 9.699219 C 121.582031 9.136719 121.335938 8.703125 120.808594 8.460938 C 119.714844 7.957031 118.640625 7.414062 117.527344 6.960938 C 111.417969 4.457031 104.996094 7.140625 100.234375 11.101562 C 98.78125 12.308594 97.675781 13.859375 96.476562 15.300781 C 95.269531 16.75 93.820312 17.804688 92.304688 18.921875 C 92.238281 18.976562 92.164062 19.023438 92.09375 19.074219 C 91.429688 19.484375 90.742188 19.832031 90.042969 20.121094 C 90 20.167969 89.941406 20.207031 89.871094 20.234375 C 88.089844 20.914062 86.300781 21.273438 84.398438 21.296875 C 84.363281 21.296875 84.332031 21.292969 84.300781 21.289062 C 82.28125 21.34375 80.230469 21.078125 78.226562 20.605469 C 77.476562 20.511719 76.746094 20.335938 76.042969 20.066406 C 75.613281 19.925781 75.199219 19.746094 74.804688 19.53125 C 74.769531 19.523438 74.738281 19.515625 74.707031 19.503906 C 73.859375 19.199219 73.074219 18.769531 72.367188 18.210938 C 72.363281 18.207031 72.359375 18.203125 72.355469 18.199219 C 71.636719 17.519531 70.960938 16.804688 70.320312 16.046875 C 69.375 14.925781 69.085938 14.023438 69.230469 12.570312 C 69.238281 12.496094 69.222656 12.4375 69.199219 12.390625 C 69.515625 11.019531 70.4375 9.90625 71.652344 9.0625 C 73.09375 8.058594 74.652344 8.015625 76.148438 8.90625 C 77.101562 9.472656 78.011719 10.148438 78.824219 10.898438 C 80 11.980469 81.238281 12.96875 82.574219 13.828125 C 87.476562 16.964844 92.746094 9.105469 95.789062 6.390625 C 97.558594 4.8125 99.535156 3.480469 101.710938 2.542969 C 104.335938 1.410156 107.28125 0.667969 110.203125 0.839844 C 114.222656 1.074219 118.429688 2.039062 121.796875 4.335938 C 122.804688 5.023438 123.628906 5.808594 124.316406 6.667969 C 124.652344 6.984375 124.953125 7.34375 125.226562 7.730469 C 127.363281 10.230469 128.109375 14.035156 128.511719 17.191406 C 128.582031 17.5625 128.636719 17.9375 128.667969 18.3125 C 128.671875 18.375 128.679688 18.4375 128.683594 18.5 C 128.992188 20.453125 129.140625 22.433594 129.042969 24.390625 C 129.042969 24.667969 129.046875 24.949219 129.042969 25.230469 Z M 102.378906 54.566406 C 101.710938 55.925781 101.335938 57.375 100.921875 58.824219 C 100.488281 60.351562 99.878906 61.824219 99.351562 63.324219 C 98.78125 64.960938 97.855469 66.410156 96.957031 67.871094 C 96.628906 68.40625 96.183594 68.796875 95.6875 69.128906 C 95.160156 69.480469 94.558594 69.304688 94.285156 68.722656 C 94.140625 68.417969 94.058594 68.078125 93.988281 67.746094 C 93.660156 66.234375 93.890625 64.742188 94.21875 63.269531 C 94.472656 62.140625 94.8125 61.03125 95.121094 59.910156 C 95.277344 59.332031 95.457031 58.757812 95.609375 58.175781 C 95.78125 57.503906 96.144531 57.007812 96.8125 56.773438 C 97.386719 56.574219 97.875 56.234375 98.363281 55.871094 C 98.773438 55.566406 99.25 55.351562 99.691406 55.082031 C 100.425781 54.636719 101.148438 54.171875 101.878906 53.722656 C 102.019531 53.636719 102.179688 53.578125 102.410156 53.46875 C 102.628906 53.929688 102.535156 54.25 102.378906 54.566406 Z M 130.25 24.863281 C 130.25 24.144531 130.261719 23.414062 130.164062 22.707031 C 130.125 20.300781 129.871094 17.90625 129.402344 15.53125 C 128.777344 12.367188 127.875 9.324219 125.789062 6.8125 C 125.773438 6.792969 125.753906 6.773438 125.734375 6.757812 C 125.628906 6.605469 125.523438 6.453125 125.40625 6.304688 C 123.5 3.867188 120.648438 2.433594 117.742188 1.550781 C 115.042969 0.730469 111.738281 -0.105469 108.898438 0.0117188 C 107.523438 0.0703125 106.1875 0.308594 104.847656 0.679688 C 102.121094 1.4375 99.605469 2.585938 97.359375 4.304688 C 96.507812 4.960938 95.625 5.582031 94.847656 6.316406 C 93.75 7.34375 92.75 8.472656 91.6875 9.539062 C 90.46875 10.753906 89.238281 11.964844 87.777344 12.890625 C 86.085938 13.960938 84.320312 14.1875 82.589844 12.96875 C 81.679688 12.328125 80.832031 11.601562 79.960938 10.910156 C 78.953125 10.105469 78.003906 9.214844 76.933594 8.507812 C 74.71875 7.039062 72.269531 7.363281 70.699219 9.039062 C 70.523438 9.226562 70.3125 9.378906 70.125 9.554688 C 68.359375 11.230469 68.054688 12.949219 68.613281 14.582031 C 68.691406 14.875 68.8125 15.164062 68.992188 15.453125 C 69.089844 15.640625 69.199219 15.824219 69.304688 16.007812 C 70.058594 16.925781 70.851562 17.847656 71.746094 18.644531 C 72.371094 19.050781 73.007812 19.4375 73.652344 19.8125 C 73.96875 19.964844 74.292969 20.101562 74.625 20.214844 C 74.664062 20.265625 74.71875 20.308594 74.792969 20.332031 C 79.597656 22.011719 85 22.742188 89.761719 20.988281 C 92.285156 20.214844 94.53125 18.539062 96.390625 16.726562 C 98.710938 14.460938 100.394531 11.617188 103.070312 9.707031 C 105.621094 7.890625 108.695312 6.746094 111.835938 6.621094 C 114.679688 6.507812 117.410156 7.613281 119.933594 8.816406 C 120.957031 9.304688 121.277344 10.835938 120.019531 11.382812 C 119.023438 11.816406 117.675781 11.601562 116.609375 11.71875 C 115.363281 11.859375 114.128906 12.105469 112.921875 12.457031 C 109.375 13.480469 106.179688 15.574219 103.671875 18.269531 C 101 21.140625 99.238281 24.824219 97.222656 28.164062 C 97.144531 28.289062 97.070312 28.414062 96.996094 28.539062 C 95.785156 30.574219 94.535156 32.570312 92.914062 34.3125 C 92.800781 34.4375 92.710938 34.589844 92.617188 34.734375 C 91.472656 36.496094 89.925781 37.839844 88.179688 38.976562 C 87.054688 39.710938 85.785156 40.085938 84.5 39.765625 C 83.265625 39.457031 82.050781 38.96875 80.980469 38.207031 C 80.273438 37.703125 79.839844 37.058594 79.746094 36.183594 C 79.703125 35.757812 79.628906 35.335938 79.582031 34.90625 C 79.5 34.179688 79.476562 33.445312 79.34375 32.726562 C 78.828125 29.855469 77.679688 27.230469 76.125 24.773438 C 75.988281 24.554688 75.828125 24.347656 75.652344 24.160156 C 75.175781 23.652344 74.527344 23.632812 74.070312 24.132812 C 73.519531 24.734375 72.933594 25.316406 72.484375 25.992188 C 72.03125 26.679688 71.425781 27.226562 70.957031 27.890625 C 70.691406 28.269531 70.332031 28.425781 69.878906 28.503906 C 69.097656 28.636719 68.320312 28.714844 67.539062 28.707031 C 67.070312 28.773438 66.59375 28.8125 66.105469 28.828125 C 65.199219 28.859375 64.28125 29.050781 63.394531 28.867188 C 62.789062 28.886719 62.230469 28.761719 61.683594 28.34375 C 60.351562 27.332031 58.949219 26.40625 57.566406 25.460938 C 57.140625 25.171875 56.695312 24.910156 56.230469 24.691406 C 55.804688 24.488281 55.328125 24.660156 55.140625 25.09375 C 54.890625 25.683594 54.644531 26.289062 54.507812 26.914062 C 54.183594 28.425781 53.902344 29.949219 53.644531 31.472656 C 53.507812 32.273438 53.382812 33.089844 53.367188 33.902344 C 53.332031 35.578125 53.375 37.253906 53.386719 38.925781 C 53.394531 39.484375 53.363281 40.050781 53.4375 40.597656 C 53.660156 42.203125 53.496094 43.765625 53.085938 45.324219 C 52.890625 46.078125 52.46875 46.636719 51.878906 47.089844 C 51.605469 47.300781 51.3125 47.488281 51.015625 47.65625 C 49.511719 48.488281 48.011719 49.324219 46.496094 50.132812 C 45.207031 50.816406 43.878906 51.429688 42.601562 52.132812 C 40.34375 53.371094 38.140625 54.710938 35.722656 55.632812 C 35.566406 55.695312 35.421875 55.800781 35.269531 55.878906 C 33.617188 56.734375 31.996094 57.652344 30.289062 58.398438 C 28.300781 59.265625 26.234375 59.988281 24.257812 60.878906 C 23.203125 61.355469 22.027344 61.6875 21.003906 62.28125 C 19.925781 62.90625 19.699219 63.9375 19.746094 65.121094 C 19.753906 65.285156 19.824219 65.457031 19.90625 65.601562 C 20.238281 66.167969 20.640625 66.679688 21.257812 66.945312 C 22.539062 67.5 23.847656 67.875 25.265625 67.523438 C 25.929688 67.355469 26.605469 67.230469 27.265625 67.046875 C 28.964844 66.570312 30.585938 65.878906 32.214844 65.210938 C 33.167969 64.820312 34.121094 64.410156 35.105469 64.117188 C 36.757812 63.621094 38.289062 62.832031 39.882812 62.195312 C 41.199219 61.667969 42.460938 61.015625 43.75 60.421875 C 45.507812 59.609375 47.265625 58.8125 49.019531 57.996094 C 49.914062 57.578125 50.792969 57.125 51.683594 56.707031 C 52.308594 56.414062 52.933594 56.125 53.574219 55.882812 C 54.015625 55.714844 54.492188 55.585938 54.964844 55.757812 C 55.851562 56.078125 56.742188 56.398438 57.601562 56.78125 C 58.101562 57.003906 58.351562 57.457031 58.398438 58.023438 C 58.5 59.144531 57.988281 59.933594 57.078125 60.488281 C 55.238281 61.609375 53.210938 62.351562 51.324219 63.378906 C 51.289062 63.402344 51.242188 63.40625 51.203125 63.421875 C 50.367188 63.761719 49.523438 64.082031 48.699219 64.453125 C 47.089844 65.175781 45.46875 65.859375 43.746094 66.28125 C 42.789062 66.515625 41.84375 66.816406 40.886719 67.0625 C 39.210938 67.492188 37.707031 68.339844 36.128906 69.015625 C 35.0625 69.472656 34.25 70.1875 33.476562 71.007812 C 32.878906 71.644531 32.847656 72.375 33.246094 73.152344 C 33.65625 73.949219 34.285156 74.488281 35.183594 74.730469 C 36.5 75.085938 37.824219 75.046875 39.148438 74.839844 C 40.164062 74.679688 41.167969 74.425781 42.175781 74.210938 C 42.804688 74.074219 43.453125 73.992188 44.0625 73.792969 C 46.914062 72.847656 49.765625 71.882812 52.605469 70.898438 C 53.902344 70.449219 55.183594 69.945312 56.390625 69.273438 C 56.726562 69.085938 57.089844 68.886719 57.457031 68.839844 C 58.609375 68.195312 59.765625 67.550781 60.933594 66.933594 C 63.042969 65.816406 64.9375 64.316406 67.140625 63.382812 C 69.445312 62.402344 71.886719 62.164062 74.34375 61.890625 C 77.625 61.527344 81.027344 61.320312 84.316406 60.738281 C 87.777344 60.125 91.007812 58.847656 94.332031 57.75 C 94.535156 57.683594 94.738281 57.601562 94.96875 57.886719 C 94.871094 58.414062 94.855469 59.035156 94.636719 59.570312 C 94.121094 60.8125 93.945312 62.136719 93.601562 63.417969 C 93.324219 64.441406 93.289062 65.53125 93.128906 66.589844 C 92.996094 67.476562 93.304688 68.285156 93.53125 69.105469 C 93.640625 69.5 93.953125 69.742188 94.324219 69.90625 C 94.933594 70.171875 95.5 70.105469 96.015625 69.6875 C 96.726562 69.113281 97.308594 68.425781 97.785156 67.652344 C 98.914062 65.828125 99.855469 63.882812 100.601562 61.871094 C 101.121094 60.480469 101.460938 59.027344 101.984375 57.640625 C 102.457031 56.390625 102.730469 55.027344 103.191406 53.753906 C 103.402344 53.167969 103.632812 52.46875 104.074219 52.027344 C 104.597656 51.5 105.199219 51.03125 105.753906 50.535156 C 105.910156 50.707031 106.050781 50.816406 106.128906 50.957031 C 106.867188 52.269531 107.597656 53.582031 108.316406 54.90625 C 108.960938 56.09375 109.296875 57.378906 109.402344 58.722656 C 109.566406 60.765625 109.363281 62.753906 108.492188 64.640625 C 107.605469 66.5625 107.15625 68.632812 106.484375 70.628906 C 106.3125 71.144531 106.285156 71.730469 106.300781 72.285156 C 106.324219 73.273438 106.890625 73.972656 107.710938 74.449219 C 107.949219 74.589844 108.292969 74.636719 108.574219 74.597656 C 110.050781 74.386719 111.210938 73.71875 111.996094 72.371094 C 113.386719 69.992188 114.5625 67.507812 115.757812 65.03125 C 116.507812 63.476562 117.414062 62.019531 118.277344 60.535156 C 118.625 59.941406 118.988281 59.367188 119.273438 58.738281 C 119.523438 58.179688 119.8125 57.652344 120.183594 57.15625 C 120.515625 56.324219 121.152344 55.457031 121.527344 54.734375 C 122.550781 52.75 123.457031 50.613281 124.292969 48.542969 C 124.324219 48.46875 124.367188 48.410156 124.414062 48.359375 C 124.457031 48.25 124.503906 48.144531 124.550781 48.035156 C 124.851562 47.265625 125.28125 46.519531 125.554688 45.765625 C 125.851562 44.9375 126.160156 44.121094 126.507812 43.320312 C 126.613281 42.996094 126.710938 42.675781 126.800781 42.347656 C 127.429688 40.117188 128.160156 37.910156 128.78125 35.675781 C 129.214844 34.105469 129.59375 32.511719 129.902344 30.910156 C 130.28125 28.917969 130.253906 26.886719 130.25 24.863281 " fill-opacity="1" fill-rule="nonzero"/></g><path fill="#c86b46" d="M 68.066406 43.46875 C 68.144531 43.4375 68.203125 43.386719 68.234375 43.304688 C 68.382812 42.9375 67.898438 42.882812 67.683594 42.785156 C 67.386719 42.65625 67.125 42.460938 66.878906 42.25 C 66.5625 41.972656 66.433594 41.636719 66.53125 41.21875 C 66.613281 40.886719 66.699219 40.554688 66.769531 40.21875 C 66.878906 39.691406 66.671875 39.390625 66.132812 39.339844 C 65.75 39.300781 65.359375 39.296875 64.980469 39.328125 C 64.855469 39.339844 64.734375 39.40625 64.59375 39.484375 C 64.542969 39.664062 64.523438 39.851562 64.53125 40.039062 C 64.636719 40.316406 64.742188 40.582031 64.847656 40.839844 C 65.207031 41.710938 65.058594 42.3125 64.304688 42.847656 C 64.027344 43.042969 63.691406 43.152344 63.417969 43.347656 C 63.3125 43.421875 63.222656 43.667969 63.269531 43.769531 C 63.324219 43.882812 63.546875 43.984375 63.683594 43.972656 C 63.886719 43.957031 64.105469 43.875 64.269531 43.753906 C 64.777344 43.371094 65.261719 42.957031 65.75 42.5625 C 66.242188 42.847656 66.703125 43.160156 67.203125 43.382812 C 67.390625 43.46875 67.816406 43.578125 68.066406 43.46875 " fill-opacity="1" fill-rule="nonzero"/><path fill="#c86b46" d="M 70.128906 38.003906 C 69.601562 38 69.097656 37.929688 68.699219 37.554688 C 68.625 37.488281 68.585938 37.308594 68.625 37.222656 C 68.660156 37.132812 68.820312 37.035156 68.914062 37.046875 C 69.207031 37.082031 69.492188 37.203125 69.785156 37.222656 C 70.636719 37.285156 71.488281 37.316406 72.269531 36.863281 C 72.414062 36.777344 72.578125 36.726562 72.742188 36.691406 C 72.804688 36.679688 72.914062 36.742188 72.945312 36.804688 C 72.980469 36.863281 72.984375 36.988281 72.941406 37.039062 C 72.835938 37.167969 72.714844 37.292969 72.574219 37.371094 C 71.8125 37.792969 70.984375 37.96875 70.128906 38.003906 " fill-opacity="1" fill-rule="nonzero"/><path fill="#c86b46" d="M 60.484375 38.074219 C 60.109375 38.003906 59.660156 38.042969 59.332031 37.703125 C 59.277344 37.648438 59.222656 37.53125 59.246094 37.480469 C 59.296875 37.382812 59.40625 37.242188 59.484375 37.246094 C 59.78125 37.253906 60.078125 37.316406 60.375 37.355469 C 61.113281 37.453125 61.824219 37.414062 62.46875 36.980469 C 62.679688 36.835938 62.917969 36.730469 63.152344 36.628906 C 63.210938 36.605469 63.328125 36.632812 63.378906 36.679688 C 63.421875 36.71875 63.4375 36.855469 63.40625 36.890625 C 62.804688 37.570312 61.4375 38.125 60.484375 38.074219 " fill-opacity="1" fill-rule="nonzero"/></svg>