<svg xmlns="http://www.w3.org/2000/svg" xmlns:xlink="http://www.w3.org/1999/xlink" width="200" zoomAndPan="magnify" viewBox="0 0 150 149.999998" height="200" preserveAspectRatio="xMidYMid meet" version="1.0"><defs><clipPath id="57381a6ce6"><path d="M 7.015625 74 L 46 74 L 46 143 L 7.015625 143 Z M 7.015625 74 " clip-rule="nonzero"/></clipPath><clipPath id="c17f7bd43c"><path d="M 101 80 L 147.265625 80 L 147.265625 148.5 L 101 148.5 Z M 101 80 " clip-rule="nonzero"/></clipPath></defs><path fill="#c86b46" d="M 33.1875 67.777344 C 33.53125 69.78125 33.886719 71.902344 34.75 73.753906 C 35.003906 74.296875 35.789062 74.050781 35.671875 73.460938 C 35.324219 71.683594 34.792969 69.953125 34.46875 68.167969 C 34.121094 66.242188 33.890625 64.300781 33.738281 62.355469 C 33.40625 58.042969 33.464844 53.707031 33.761719 49.394531 C 34.386719 40.140625 36.074219 30.945312 38.417969 21.980469 C 39.050781 19.558594 39.738281 17.152344 40.480469 14.761719 C 40.839844 13.617188 41.207031 12.46875 41.589844 11.332031 C 41.96875 10.1875 42.441406 9.070312 42.605469 7.875 C 42.660156 7.445312 42.109375 7.273438 41.882812 7.628906 C 41.304688 8.53125 40.992188 9.535156 40.636719 10.539062 C 40.273438 11.570312 39.921875 12.609375 39.589844 13.652344 C 38.90625 15.796875 38.269531 17.953125 37.679688 20.125 C 36.4375 24.679688 35.382812 29.292969 34.539062 33.9375 C 32.914062 42.847656 31.917969 52.003906 32.445312 61.070312 C 32.574219 63.316406 32.808594 65.558594 33.1875 67.777344 Z M 33.1875 67.777344 " fill-opacity="1" fill-rule="nonzero"/><g clip-path="url(#57381a6ce6)"><path fill="#c86b46" d="M 44.8125 77.222656 C 44.472656 77.519531 44.09375 77.757812 43.765625 78.058594 C 43.429688 78.367188 43.144531 78.726562 42.867188 79.082031 C 42.296875 79.792969 41.765625 80.539062 41.273438 81.308594 C 40.296875 82.84375 39.523438 84.542969 38.957031 86.269531 C 38.324219 88.191406 37.925781 90.207031 37.441406 92.171875 C 36.925781 94.246094 36.414062 96.328125 35.898438 98.40625 C 33.824219 106.789062 31.742188 115.175781 29.683594 123.5625 C 29.410156 124.675781 29.148438 125.792969 28.859375 126.90625 C 28.570312 128.007812 28.195312 129.085938 27.992188 130.207031 C 27.65625 132.054688 27.902344 134.242188 29.808594 135.128906 C 30.09375 135.261719 30.445312 134.871094 30.15625 134.652344 C 28.691406 133.566406 28.957031 131.347656 29.347656 129.804688 C 29.417969 129.53125 29.496094 129.261719 29.570312 128.988281 C 31.824219 129.710938 34.011719 130.578125 36.113281 131.671875 C 37.191406 132.230469 38.261719 132.816406 39.28125 133.480469 C 40.371094 134.195312 41.480469 134.964844 42.3125 135.984375 C 43.089844 136.941406 43.679688 138.148438 43.492188 139.414062 C 43.296875 140.683594 42.320312 141.4375 41.144531 141.78125 C 39.878906 142.152344 38.507812 142.152344 37.203125 142.136719 C 35.660156 142.121094 34.113281 142.042969 32.574219 141.910156 C 30.894531 141.761719 29.222656 141.535156 27.554688 141.253906 C 26.75 141.121094 25.953125 140.964844 25.15625 140.796875 C 24.832031 140.730469 24.507812 140.652344 24.175781 140.582031 C 23.542969 140.398438 22.910156 140.222656 22.277344 140.035156 C 20.933594 139.625 19.609375 139.183594 18.292969 138.683594 C 15.757812 137.71875 13.199219 136.632812 10.859375 135.253906 C 9.867188 134.675781 8.8125 133.96875 8.238281 132.945312 C 7.621094 131.851562 7.867188 130.585938 8.648438 129.644531 C 10.265625 127.691406 13.347656 127.453125 15.699219 127.339844 C 18.566406 127.210938 21.339844 127.5625 24.148438 128.054688 C 23.917969 128.875 23.679688 129.6875 23.40625 130.492188 C 23.242188 130.96875 23.09375 131.496094 22.691406 131.828125 C 22.308594 132.136719 21.730469 132.230469 21.25 132.25 C 20.871094 132.269531 20.703125 132.816406 21.082031 132.980469 C 21.902344 133.335938 22.769531 133.15625 23.445312 132.570312 C 24.140625 131.96875 24.363281 131.015625 24.632812 130.171875 C 25.296875 128.085938 25.78125 125.945312 26.246094 123.800781 C 27.203125 119.394531 28.289062 115.019531 29.359375 110.640625 C 30.4375 106.214844 31.457031 101.777344 32.472656 97.339844 C 32.976562 95.144531 33.484375 92.953125 34.015625 90.765625 C 34.527344 88.664062 35.132812 86.578125 35.632812 84.472656 C 35.992188 82.953125 35.96875 81.3125 35.960938 79.761719 C 35.960938 79.292969 35.933594 78.824219 35.90625 78.355469 C 35.878906 77.921875 35.769531 77.515625 35.730469 77.089844 C 35.671875 76.378906 35.609375 75.667969 35.53125 74.957031 C 35.507812 74.738281 35.164062 74.753906 35.167969 74.980469 C 35.179688 75.566406 35.183594 76.148438 35.1875 76.738281 C 35.1875 77.480469 35.097656 78.214844 35.082031 78.957031 C 35.046875 80.414062 35.082031 81.875 34.890625 83.324219 C 34.652344 85.09375 34.035156 86.832031 33.597656 88.558594 C 33.070312 90.640625 32.570312 92.730469 32.082031 94.824219 C 31.097656 99.046875 30.15625 103.285156 29.136719 107.496094 C 28.09375 111.777344 27 116.050781 25.984375 120.335938 C 25.449219 122.59375 24.984375 124.871094 24.40625 127.117188 C 21.785156 126.359375 18.882812 126.125 16.175781 126.273438 C 13.585938 126.410156 10.457031 126.8125 8.460938 128.640625 C 7.601562 129.425781 6.996094 130.574219 7.066406 131.765625 C 7.136719 132.9375 7.859375 133.914062 8.710938 134.660156 C 9.742188 135.5625 10.988281 136.191406 12.1875 136.835938 C 13.507812 137.542969 14.855469 138.191406 16.226562 138.777344 C 17.761719 139.433594 19.320312 140.027344 20.902344 140.550781 C 21.734375 140.828125 22.582031 141.074219 23.425781 141.3125 C 23.898438 141.441406 24.390625 141.59375 24.890625 141.671875 C 25.609375 141.832031 26.332031 141.964844 27.054688 142.09375 C 28.71875 142.382812 30.402344 142.585938 32.085938 142.71875 C 33.707031 142.851562 35.328125 142.914062 36.949219 142.894531 C 38.351562 142.882812 39.789062 142.886719 41.160156 142.539062 C 42.320312 142.242188 43.457031 141.613281 43.992188 140.5 C 44.539062 139.351562 44.414062 137.988281 43.871094 136.867188 C 42.703125 134.4375 40.175781 132.777344 37.921875 131.453125 C 36.523438 130.625 35.050781 129.921875 33.550781 129.300781 C 32.347656 128.800781 31.117188 128.339844 29.839844 128.058594 C 29.949219 127.703125 30.050781 127.34375 30.140625 126.980469 C 30.375 126.023438 30.605469 125.0625 30.835938 124.101562 C 31.808594 120.105469 32.777344 116.105469 33.738281 112.109375 C 35.6875 104.046875 37.625 95.988281 39.574219 87.925781 C 40.046875 85.996094 40.804688 84.164062 41.773438 82.425781 C 42.257812 81.5625 42.757812 80.710938 43.320312 79.890625 C 43.59375 79.488281 43.886719 79.109375 44.160156 78.714844 C 44.460938 78.277344 44.675781 77.808594 45.003906 77.386719 C 45.109375 77.246094 44.925781 77.109375 44.804688 77.214844 Z M 44.8125 77.222656 " fill-opacity="1" fill-rule="nonzero"/></g><path fill="#c86b46" d="M 36.21875 60.269531 C 36.183594 59.941406 35.707031 59.976562 35.691406 60.296875 C 35.628906 61.621094 35.535156 62.96875 35.683594 64.289062 C 35.820312 65.507812 36.21875 66.726562 36.820312 67.796875 C 37.890625 69.691406 39.871094 71.570312 42.074219 72 C 43.503906 72.277344 44.835938 71.398438 45.878906 70.53125 C 47.226562 69.40625 48.347656 68.03125 49.382812 66.625 C 50.386719 65.265625 51.429688 63.902344 52.03125 62.316406 C 52.179688 61.933594 51.625 61.832031 51.410156 62.015625 C 50.394531 62.851562 49.699219 63.964844 48.914062 65.011719 C 47.929688 66.316406 46.90625 67.617188 45.75 68.773438 C 44.972656 69.558594 43.84375 70.601562 42.792969 70.699219 C 42.140625 70.761719 41.269531 70.332031 40.636719 69.925781 C 39.757812 69.355469 39.007812 68.589844 38.410156 67.742188 C 36.867188 65.566406 36.496094 62.863281 36.21875 60.273438 Z M 36.21875 60.269531 " fill-opacity="1" fill-rule="nonzero"/><path fill="#c86b46" d="M 43.664062 6.007812 C 45.359375 5.804688 47.058594 5.582031 48.769531 5.539062 C 49.402344 5.523438 50.03125 5.539062 50.664062 5.574219 C 50.628906 5.769531 50.59375 5.972656 50.554688 6.167969 C 50.496094 6.488281 50.433594 6.816406 50.382812 7.140625 C 50.34375 7.429688 50.320312 7.679688 50.566406 7.886719 C 50.652344 7.953125 50.785156 7.988281 50.890625 7.945312 C 51.449219 7.734375 51.433594 6.875 51.523438 6.363281 C 51.5625 6.121094 51.605469 5.878906 51.648438 5.636719 C 51.800781 5.648438 51.953125 5.664062 52.101562 5.679688 C 52.15625 5.769531 52.203125 5.859375 52.261719 5.945312 C 52.511719 6.355469 52.828125 7.003906 53.332031 7.113281 C 53.507812 7.15625 53.664062 7.039062 53.71875 6.878906 C 53.804688 6.617188 53.679688 6.363281 53.570312 6.125 C 53.527344 6.027344 53.476562 5.929688 53.425781 5.835938 C 53.597656 5.859375 53.769531 5.878906 53.933594 5.902344 C 57.339844 6.394531 60.660156 7.433594 63.726562 8.996094 C 64.5625 9.425781 65.378906 9.890625 66.171875 10.390625 C 66.605469 10.664062 67.023438 10.953125 67.441406 11.253906 C 67.828125 11.53125 68.1875 11.882812 68.640625 12.046875 C 68.984375 12.175781 69.414062 11.855469 69.167969 11.492188 C 68.71875 10.8125 67.804688 10.355469 67.136719 9.914062 C 66.386719 9.421875 65.617188 8.960938 64.828125 8.535156 C 63.261719 7.6875 61.621094 6.984375 59.933594 6.414062 C 58.261719 5.84375 56.539062 5.414062 54.792969 5.140625 C 54.160156 5.039062 53.527344 4.972656 52.894531 4.921875 C 52.757812 4.699219 52.625 4.476562 52.484375 4.253906 C 52.585938 4.261719 52.683594 4.273438 52.777344 4.28125 C 54.097656 4.417969 55.46875 4.640625 56.785156 4.351562 C 57.003906 4.300781 57.03125 3.964844 56.824219 3.875 C 55.585938 3.355469 54.191406 3.347656 52.871094 3.253906 L 52.054688 3.191406 C 52.191406 2.347656 52.324219 1.503906 52.449219 0.652344 C 52.523438 0.167969 51.773438 0.0117188 51.675781 0.492188 C 51.546875 1.101562 51.421875 1.710938 51.292969 2.316406 C 51.089844 1.996094 50.890625 1.667969 50.683594 1.347656 C 50.367188 0.855469 49.613281 1.324219 49.894531 1.839844 C 50.125 2.261719 50.367188 2.671875 50.605469 3.089844 C 49.988281 3.042969 49.371094 3 48.753906 2.953125 C 48.226562 2.917969 48.132812 3.808594 48.675781 3.867188 C 49.429688 3.941406 50.183594 4.019531 50.9375 4.097656 C 50.925781 4.164062 50.910156 4.234375 50.898438 4.296875 C 50.867188 4.46875 50.832031 4.644531 50.800781 4.816406 C 50.355469 4.808594 49.914062 4.808594 49.464844 4.816406 C 47.480469 4.839844 45.480469 5.015625 43.570312 5.566406 C 43.320312 5.640625 43.390625 6.039062 43.65625 6.007812 Z M 43.664062 6.007812 " fill-opacity="1" fill-rule="nonzero"/><path fill="#c86b46" d="M 54.296875 57.359375 C 54.597656 57.015625 54.917969 56.703125 55.1875 56.339844 C 55.4375 56 55.636719 55.613281 55.847656 55.25 C 56.300781 54.460938 56.738281 53.660156 57.148438 52.851562 C 57.980469 51.203125 58.730469 49.507812 59.398438 47.789062 C 60.050781 46.113281 60.609375 44.417969 61.054688 42.679688 C 61.511719 40.894531 61.960938 39.089844 62.152344 37.25 C 62.179688 36.988281 61.796875 36.902344 61.730469 37.164062 C 61.28125 38.925781 60.914062 40.710938 60.382812 42.449219 C 59.867188 44.15625 59.285156 45.851562 58.640625 47.515625 C 58.003906 49.148438 57.285156 50.757812 56.496094 52.324219 C 56.085938 53.136719 55.660156 53.941406 55.214844 54.734375 C 55.007812 55.101562 54.78125 55.464844 54.585938 55.839844 C 54.359375 56.273438 54.222656 56.734375 54.027344 57.179688 C 53.957031 57.347656 54.175781 57.5 54.300781 57.359375 Z M 54.296875 57.359375 " fill-opacity="1" fill-rule="nonzero"/><path fill="#c86b46" d="M 49.570312 51.65625 C 49.570312 51.65625 49.558594 51.644531 49.554688 51.640625 C 49.554688 51.640625 49.554688 51.640625 49.570312 51.65625 Z M 49.570312 51.65625 " fill-opacity="1" fill-rule="nonzero"/><path fill="#c86b46" d="M 50.757812 53.28125 C 51.164062 52.9375 51.34375 52.34375 51.125 51.84375 C 51.003906 51.558594 50.78125 51.304688 50.484375 51.191406 C 50.265625 51.105469 50.015625 51.097656 49.800781 51.179688 C 49.777344 51.097656 49.695312 51.027344 49.605469 51.039062 C 49.332031 51.085938 49.082031 51.199219 48.890625 51.398438 C 48.710938 51.585938 48.578125 51.851562 48.542969 52.109375 C 48.460938 52.664062 48.75 53.179688 49.234375 53.457031 C 49.730469 53.742188 50.335938 53.640625 50.757812 53.28125 Z M 49.480469 51.511719 C 49.480469 51.511719 49.480469 51.539062 49.480469 51.546875 C 49.5 51.589844 49.519531 51.613281 49.550781 51.640625 C 49.558594 51.640625 49.605469 51.675781 49.621094 51.679688 C 49.667969 51.699219 49.71875 51.699219 49.769531 51.679688 C 49.867188 51.652344 49.953125 51.625 50.039062 51.613281 C 50.207031 51.59375 50.398438 51.636719 50.535156 51.765625 C 50.800781 52.019531 50.78125 52.484375 50.585938 52.765625 C 50.484375 52.90625 50.335938 53.027344 50.183594 53.089844 C 50.003906 53.160156 49.839844 53.171875 49.65625 53.113281 C 49.34375 53.015625 49.070312 52.691406 49.046875 52.363281 C 49.019531 52.042969 49.203125 51.707031 49.480469 51.511719 Z M 49.480469 51.511719 " fill-opacity="1" fill-rule="nonzero"/><path fill="#c86b46" d="M 57.25 42.683594 C 57.257812 42.625 57.191406 42.574219 57.136719 42.613281 C 57.109375 42.625 57.085938 42.640625 57.066406 42.660156 C 57.042969 42.683594 57.027344 42.71875 57.011719 42.746094 C 57 42.765625 57.011719 42.742188 57 42.757812 C 56.980469 42.777344 56.972656 42.804688 56.964844 42.832031 C 56.957031 42.859375 56.953125 42.890625 56.941406 42.917969 C 56.921875 43.035156 56.964844 43.175781 57.011719 43.28125 C 57.136719 43.53125 57.359375 43.707031 57.640625 43.71875 C 57.925781 43.730469 58.210938 43.527344 58.328125 43.269531 C 58.449219 42.992188 58.382812 42.691406 58.164062 42.484375 C 57.945312 42.277344 57.597656 42.230469 57.335938 42.382812 C 57.214844 42.453125 57.316406 42.628906 57.4375 42.585938 C 57.449219 42.585938 57.460938 42.578125 57.472656 42.574219 C 57.476562 42.574219 57.476562 42.574219 57.480469 42.574219 C 57.507812 42.574219 57.527344 42.570312 57.550781 42.570312 C 57.554688 42.570312 57.558594 42.570312 57.5625 42.570312 C 57.5625 42.570312 57.582031 42.570312 57.589844 42.570312 C 57.613281 42.574219 57.636719 42.582031 57.660156 42.585938 C 57.667969 42.585938 57.679688 42.589844 57.6875 42.59375 C 57.648438 42.582031 57.6875 42.59375 57.695312 42.59375 C 57.714844 42.605469 57.734375 42.613281 57.75 42.625 C 57.761719 42.628906 57.773438 42.636719 57.785156 42.640625 C 57.804688 42.65625 57.824219 42.671875 57.84375 42.6875 C 57.863281 42.703125 57.878906 42.71875 57.894531 42.734375 C 57.898438 42.738281 57.914062 42.753906 57.910156 42.753906 C 57.910156 42.753906 57.914062 42.761719 57.917969 42.761719 C 57.929688 42.777344 57.941406 42.800781 57.957031 42.816406 C 57.957031 42.816406 57.960938 42.824219 57.964844 42.828125 C 57.964844 42.828125 57.972656 42.847656 57.976562 42.855469 C 57.980469 42.867188 57.992188 42.894531 57.996094 42.914062 C 57.996094 42.925781 57.996094 42.941406 57.996094 42.953125 C 57.996094 42.964844 57.996094 43.007812 57.996094 43.007812 C 57.996094 43.027344 57.988281 43.050781 57.984375 43.074219 C 57.984375 43.074219 57.980469 43.085938 57.976562 43.09375 C 57.976562 43.097656 57.972656 43.105469 57.972656 43.105469 C 57.964844 43.125 57.953125 43.144531 57.9375 43.167969 C 57.933594 43.175781 57.90625 43.210938 57.9375 43.175781 C 57.933594 43.183594 57.925781 43.191406 57.921875 43.195312 C 57.90625 43.214844 57.886719 43.234375 57.867188 43.257812 C 57.859375 43.265625 57.820312 43.289062 57.863281 43.261719 C 57.851562 43.269531 57.839844 43.273438 57.832031 43.28125 C 57.8125 43.296875 57.789062 43.308594 57.769531 43.320312 C 57.757812 43.324219 57.742188 43.328125 57.734375 43.335938 C 57.710938 43.34375 57.683594 43.355469 57.65625 43.359375 C 57.652344 43.359375 57.640625 43.359375 57.636719 43.363281 C 57.632812 43.363281 57.628906 43.363281 57.625 43.363281 C 57.609375 43.363281 57.589844 43.363281 57.570312 43.363281 C 57.570312 43.363281 57.53125 43.359375 57.523438 43.355469 C 57.511719 43.355469 57.5 43.347656 57.484375 43.347656 C 57.527344 43.359375 57.484375 43.347656 57.476562 43.347656 C 57.457031 43.339844 57.441406 43.328125 57.421875 43.316406 C 57.421875 43.316406 57.421875 43.316406 57.417969 43.3125 C 57.410156 43.304688 57.398438 43.300781 57.390625 43.292969 C 57.382812 43.285156 57.375 43.277344 57.367188 43.273438 C 57.351562 43.253906 57.335938 43.230469 57.324219 43.210938 C 57.320312 43.203125 57.308594 43.195312 57.304688 43.183594 C 57.296875 43.167969 57.296875 43.167969 57.304688 43.183594 C 57.304688 43.179688 57.300781 43.171875 57.296875 43.167969 C 57.289062 43.140625 57.277344 43.121094 57.269531 43.097656 C 57.269531 43.089844 57.265625 43.078125 57.261719 43.070312 C 57.261719 43.0625 57.261719 43.054688 57.257812 43.046875 C 57.257812 43.023438 57.25 43 57.25 42.976562 C 57.25 42.949219 57.246094 42.925781 57.246094 42.902344 C 57.246094 42.886719 57.257812 42.816406 57.242188 42.808594 C 57.242188 42.796875 57.246094 42.789062 57.25 42.773438 C 57.253906 42.746094 57.25 42.722656 57.253906 42.699219 Z M 57.25 42.683594 " fill-opacity="1" fill-rule="nonzero"/><path fill="#c86b46" d="M 52.863281 45.328125 C 53.46875 45.480469 54.148438 45.144531 54.332031 44.539062 C 54.488281 44.019531 54.339844 43.375 53.890625 43.042969 C 53.632812 42.855469 53.316406 42.75 52.996094 42.769531 C 52.828125 42.78125 52.65625 42.824219 52.507812 42.902344 C 52.445312 42.933594 52.386719 42.972656 52.335938 43.015625 C 52.289062 43.050781 52.257812 43.089844 52.238281 43.128906 C 51.984375 43.390625 51.960938 43.871094 52 44.203125 C 52.027344 44.445312 52.09375 44.679688 52.226562 44.890625 C 52.363281 45.117188 52.609375 45.265625 52.867188 45.324219 Z M 52.632812 44.550781 C 52.632812 44.550781 52.632812 44.546875 52.632812 44.550781 Z M 53.46875 44.777344 C 53.433594 44.800781 53.457031 44.78125 53.46875 44.777344 Z M 53.640625 44.671875 C 53.625 44.6875 53.632812 44.679688 53.640625 44.671875 Z M 52.808594 43.253906 C 52.835938 43.246094 52.867188 43.230469 52.894531 43.222656 C 52.90625 43.222656 52.914062 43.21875 52.925781 43.214844 C 52.925781 43.214844 52.949219 43.214844 52.957031 43.210938 C 53.164062 43.179688 53.34375 43.191406 53.523438 43.273438 C 53.898438 43.445312 54.03125 43.902344 53.914062 44.265625 C 53.914062 44.265625 53.90625 44.285156 53.90625 44.292969 C 53.90625 44.296875 53.902344 44.304688 53.902344 44.304688 C 53.890625 44.328125 53.882812 44.355469 53.871094 44.378906 C 53.839844 44.433594 53.8125 44.476562 53.78125 44.527344 C 53.78125 44.527344 53.773438 44.539062 53.769531 44.542969 C 53.769531 44.546875 53.757812 44.550781 53.753906 44.554688 C 53.738281 44.574219 53.71875 44.59375 53.703125 44.617188 C 53.6875 44.632812 53.664062 44.652344 53.648438 44.667969 C 53.632812 44.679688 53.621094 44.6875 53.605469 44.703125 C 53.5625 44.730469 53.519531 44.753906 53.472656 44.777344 C 53.460938 44.78125 53.453125 44.789062 53.441406 44.792969 C 53.414062 44.804688 53.382812 44.8125 53.351562 44.820312 C 53.332031 44.824219 53.3125 44.832031 53.289062 44.835938 C 53.289062 44.835938 53.253906 44.84375 53.238281 44.84375 C 53.207031 44.84375 53.183594 44.847656 53.15625 44.847656 C 53.144531 44.847656 53.109375 44.847656 53.097656 44.847656 C 53.050781 44.84375 53 44.835938 52.957031 44.824219 C 52.941406 44.824219 52.933594 44.816406 52.921875 44.816406 C 52.898438 44.800781 52.867188 44.792969 52.839844 44.777344 C 52.832031 44.773438 52.796875 44.75 52.796875 44.75 C 52.785156 44.738281 52.769531 44.730469 52.753906 44.71875 C 52.742188 44.710938 52.730469 44.699219 52.71875 44.683594 C 52.71875 44.679688 52.710938 44.675781 52.707031 44.671875 C 52.683594 44.644531 52.664062 44.613281 52.644531 44.578125 C 52.640625 44.570312 52.632812 44.558594 52.632812 44.554688 C 52.625 44.539062 52.617188 44.523438 52.613281 44.503906 C 52.574219 44.417969 52.546875 44.335938 52.523438 44.246094 C 52.511719 44.191406 52.5 44.140625 52.484375 44.089844 C 52.484375 44.078125 52.480469 44.066406 52.476562 44.050781 C 52.472656 44.023438 52.46875 44 52.464844 43.972656 C 52.453125 43.867188 52.449219 43.761719 52.453125 43.660156 C 52.453125 43.648438 52.453125 43.648438 52.453125 43.644531 C 52.453125 43.644531 52.453125 43.636719 52.453125 43.628906 C 52.453125 43.605469 52.460938 43.582031 52.464844 43.558594 C 52.46875 43.539062 52.472656 43.515625 52.480469 43.492188 C 52.480469 43.484375 52.496094 43.460938 52.496094 43.449219 C 52.5 43.441406 52.511719 43.414062 52.511719 43.40625 C 52.511719 43.398438 52.519531 43.394531 52.523438 43.386719 C 52.53125 43.386719 52.539062 43.382812 52.546875 43.378906 C 52.570312 43.367188 52.59375 43.351562 52.617188 43.339844 C 52.625 43.335938 52.636719 43.324219 52.644531 43.320312 C 52.652344 43.320312 52.65625 43.3125 52.664062 43.308594 C 52.648438 43.316406 52.648438 43.316406 52.664062 43.308594 C 52.710938 43.289062 52.753906 43.273438 52.804688 43.257812 Z M 52.808594 43.253906 " fill-opacity="1" fill-rule="nonzero"/><path fill="#c86b46" d="M 39.390625 56.476562 C 39.558594 56.648438 39.820312 56.714844 40.054688 56.691406 C 40.304688 56.671875 40.542969 56.566406 40.726562 56.390625 C 41.066406 56.058594 41.167969 55.53125 40.929688 55.117188 C 40.714844 54.742188 40.183594 54.527344 39.773438 54.691406 C 39.542969 54.785156 39.34375 54.980469 39.269531 55.21875 C 39.234375 55.347656 39.230469 55.492188 39.269531 55.625 C 39.117188 55.890625 39.171875 56.261719 39.390625 56.484375 Z M 39.914062 56.195312 C 39.945312 56.195312 39.925781 56.195312 39.914062 56.195312 Z M 40.507812 55.46875 C 40.5 55.441406 40.507812 55.457031 40.507812 55.46875 Z M 39.773438 55.246094 C 39.773438 55.246094 39.785156 55.226562 39.789062 55.222656 C 39.796875 55.214844 39.804688 55.207031 39.8125 55.195312 C 39.824219 55.183594 39.835938 55.171875 39.855469 55.160156 C 39.8125 55.199219 39.871094 55.148438 39.878906 55.140625 C 39.890625 55.132812 39.90625 55.128906 39.917969 55.117188 C 39.933594 55.113281 39.953125 55.105469 39.972656 55.101562 C 39.976562 55.101562 39.992188 55.097656 40.003906 55.09375 C 40.027344 55.09375 40.058594 55.09375 40.082031 55.089844 C 40.085938 55.089844 40.085938 55.089844 40.089844 55.089844 C 40.089844 55.089844 40.089844 55.089844 40.09375 55.089844 C 40.113281 55.089844 40.132812 55.09375 40.152344 55.101562 C 40.160156 55.101562 40.179688 55.109375 40.183594 55.113281 C 40.195312 55.117188 40.207031 55.121094 40.222656 55.128906 C 40.246094 55.140625 40.269531 55.15625 40.289062 55.167969 C 40.296875 55.171875 40.316406 55.183594 40.320312 55.1875 C 40.335938 55.199219 40.347656 55.210938 40.363281 55.222656 C 40.371094 55.230469 40.382812 55.238281 40.390625 55.253906 C 40.402344 55.261719 40.40625 55.269531 40.414062 55.277344 C 40.425781 55.292969 40.4375 55.308594 40.445312 55.324219 C 40.445312 55.324219 40.449219 55.332031 40.453125 55.339844 C 40.453125 55.34375 40.46875 55.371094 40.46875 55.371094 C 40.476562 55.386719 40.484375 55.40625 40.492188 55.429688 C 40.496094 55.445312 40.5 55.460938 40.503906 55.476562 C 40.503906 55.476562 40.503906 55.476562 40.503906 55.480469 C 40.503906 55.53125 40.511719 55.574219 40.507812 55.625 C 40.507812 55.625 40.507812 55.632812 40.507812 55.636719 C 40.507812 55.640625 40.507812 55.671875 40.503906 55.671875 C 40.496094 55.714844 40.484375 55.753906 40.472656 55.792969 C 40.472656 55.804688 40.464844 55.816406 40.460938 55.832031 C 40.480469 55.769531 40.460938 55.832031 40.453125 55.84375 C 40.4375 55.882812 40.417969 55.917969 40.390625 55.949219 C 40.382812 55.960938 40.34375 56.011719 40.382812 55.960938 C 40.371094 55.980469 40.359375 55.996094 40.34375 56.011719 C 40.328125 56.03125 40.304688 56.046875 40.289062 56.066406 C 40.289062 56.066406 40.265625 56.085938 40.261719 56.089844 C 40.246094 56.101562 40.226562 56.113281 40.207031 56.125 C 40.195312 56.132812 40.183594 56.136719 40.171875 56.144531 C 40.164062 56.144531 40.164062 56.148438 40.160156 56.148438 C 40.152344 56.148438 40.144531 56.160156 40.136719 56.160156 C 40.097656 56.171875 40.0625 56.183594 40.019531 56.191406 C 40 56.191406 39.980469 56.195312 39.957031 56.195312 C 39.9375 56.195312 39.921875 56.195312 39.902344 56.195312 C 39.902344 56.195312 39.902344 56.195312 39.898438 56.195312 C 39.878906 56.195312 39.859375 56.1875 39.835938 56.183594 C 39.828125 56.183594 39.820312 56.179688 39.808594 56.175781 C 39.808594 56.175781 39.808594 56.175781 39.800781 56.175781 C 39.789062 56.171875 39.777344 56.164062 39.765625 56.160156 C 39.75 56.15625 39.679688 56.105469 39.726562 56.140625 C 39.714844 56.128906 39.699219 56.121094 39.6875 56.109375 C 39.679688 56.105469 39.675781 56.097656 39.667969 56.09375 C 39.648438 56.066406 39.628906 56.035156 39.613281 56.007812 C 39.613281 56.003906 39.609375 56 39.609375 55.996094 C 39.601562 55.976562 39.59375 55.957031 39.589844 55.9375 C 39.589844 55.933594 39.585938 55.914062 39.582031 55.90625 C 39.582031 55.890625 39.582031 55.875 39.574219 55.859375 C 39.574219 55.855469 39.574219 55.851562 39.574219 55.84375 C 39.605469 55.824219 39.628906 55.800781 39.636719 55.761719 C 39.640625 55.730469 39.644531 55.703125 39.644531 55.667969 C 39.652344 55.660156 39.65625 55.652344 39.667969 55.640625 C 39.726562 55.585938 39.722656 55.488281 39.667969 55.4375 C 39.667969 55.4375 39.667969 55.4375 39.664062 55.4375 C 39.664062 55.433594 39.664062 55.421875 39.667969 55.417969 C 39.667969 55.417969 39.667969 55.417969 39.667969 55.414062 C 39.699219 55.359375 39.726562 55.300781 39.757812 55.25 Z M 39.773438 55.246094 " fill-opacity="1" fill-rule="nonzero"/><path fill="#c86b46" d="M 42.996094 61.953125 C 43.269531 61.941406 43.546875 61.929688 43.820312 61.917969 C 43.542969 62.210938 43.273438 62.511719 43.066406 62.855469 C 43 62.960938 43.148438 63.066406 43.238281 63.003906 C 43.585938 62.773438 43.886719 62.484375 44.183594 62.191406 C 44.199219 62.277344 44.210938 62.359375 44.230469 62.445312 C 44.300781 62.8125 44.363281 63.199219 44.539062 63.535156 C 44.59375 63.636719 44.792969 63.601562 44.804688 63.484375 C 44.84375 63.121094 44.765625 62.757812 44.699219 62.402344 C 44.691406 62.355469 44.679688 62.304688 44.667969 62.261719 C 44.730469 62.320312 44.796875 62.378906 44.863281 62.433594 C 44.910156 62.46875 44.96875 62.484375 45.015625 62.515625 C 45.070312 62.550781 45.121094 62.582031 45.183594 62.585938 C 45.25 62.59375 45.328125 62.554688 45.324219 62.476562 C 45.320312 62.421875 45.296875 62.378906 45.273438 62.332031 C 45.261719 62.308594 45.242188 62.289062 45.230469 62.265625 C 45.214844 62.238281 45.210938 62.210938 45.195312 62.183594 C 45.132812 62.089844 45.03125 62 44.953125 61.917969 C 44.929688 61.898438 44.90625 61.875 44.886719 61.851562 C 45.089844 61.832031 45.304688 61.808594 45.5 61.722656 C 45.628906 61.664062 45.628906 61.496094 45.484375 61.457031 C 45.316406 61.40625 45.132812 61.40625 44.953125 61.414062 C 45.058594 61.304688 45.167969 61.199219 45.269531 61.089844 C 45.484375 60.859375 45.699219 60.621094 45.839844 60.328125 C 45.898438 60.214844 45.769531 60.128906 45.667969 60.183594 C 45.390625 60.332031 45.160156 60.546875 44.9375 60.765625 C 44.78125 60.921875 44.628906 61.085938 44.472656 61.242188 C 44.320312 60.484375 44.15625 59.730469 43.988281 58.976562 C 43.949219 58.785156 43.605469 58.84375 43.632812 59.039062 C 43.738281 59.679688 43.847656 60.320312 43.964844 60.960938 C 43.789062 60.796875 43.613281 60.628906 43.441406 60.460938 C 43.253906 60.28125 42.96875 60.570312 43.15625 60.757812 C 43.40625 61.007812 43.652344 61.253906 43.902344 61.5 C 43.597656 61.53125 43.285156 61.566406 42.980469 61.597656 C 42.742188 61.625 42.753906 61.964844 43 61.957031 Z M 42.996094 61.953125 " fill-opacity="1" fill-rule="nonzero"/><path fill="#c86b46" d="M 61.953125 31.542969 C 61.65625 31.867188 61.445312 32.25 61.140625 32.5625 C 60.789062 32.921875 60.375 33.210938 59.9375 33.457031 C 59.0625 33.945312 58.09375 34.226562 57.136719 34.5 C 56.117188 34.792969 55.097656 35.078125 54.152344 35.558594 C 53.226562 36.027344 52.464844 36.71875 51.773438 37.480469 C 51.09375 38.230469 50.460938 39.050781 49.652344 39.667969 C 48.824219 40.300781 47.867188 40.722656 46.878906 41.042969 C 44.988281 41.660156 42.992188 41.9375 41.167969 42.75 C 40.242188 43.164062 39.367188 43.667969 38.625 44.363281 C 37.84375 45.089844 37.351562 45.894531 37.222656 46.953125 C 37.1875 47.238281 37.605469 47.417969 37.738281 47.128906 C 38.542969 45.40625 40.015625 44.226562 41.75 43.515625 C 43.578125 42.757812 45.558594 42.496094 47.425781 41.859375 C 48.378906 41.535156 49.324219 41.109375 50.140625 40.507812 C 50.96875 39.902344 51.628906 39.125 52.304688 38.363281 C 53.011719 37.566406 53.75 36.84375 54.710938 36.367188 C 55.652344 35.898438 56.691406 35.636719 57.699219 35.34375 C 58.730469 35.042969 59.757812 34.699219 60.6875 34.136719 C 61.492188 33.648438 62.492188 32.871094 62.683594 31.898438 C 62.757812 31.492188 62.226562 31.230469 61.953125 31.542969 Z M 61.953125 31.542969 " fill-opacity="1" fill-rule="nonzero"/><path fill="#c86b46" d="M 97.339844 79.207031 C 95.9375 77.84375 94.621094 76.398438 93.367188 74.902344 C 90.585938 71.570312 88.117188 67.992188 85.851562 64.292969 C 80.992188 56.363281 77.019531 47.875 73.730469 39.183594 C 72.835938 36.820312 71.992188 34.433594 71.210938 32.027344 C 70.84375 30.898438 70.484375 29.761719 70.136719 28.625 C 69.796875 27.515625 69.523438 26.394531 68.996094 25.359375 C 69.195312 24.402344 69.382812 23.445312 69.5625 22.484375 C 70.601562 21.546875 71.640625 20.617188 72.761719 19.785156 C 74.128906 18.765625 75.628906 17.910156 77.144531 17.128906 C 80.195312 15.558594 83.527344 14.472656 86.925781 13.988281 C 87.894531 13.847656 88.863281 13.757812 89.835938 13.714844 C 90.296875 13.695312 90.757812 13.683594 91.21875 13.683594 C 91.71875 13.683594 92.21875 13.753906 92.707031 13.625 C 93.015625 13.539062 93.09375 13.035156 92.765625 12.914062 C 91.992188 12.625 91.015625 12.753906 90.199219 12.785156 C 89.304688 12.8125 88.414062 12.886719 87.527344 12.992188 C 85.761719 13.207031 84.015625 13.574219 82.3125 14.082031 C 80.613281 14.585938 78.957031 15.246094 77.363281 16.027344 C 75.742188 16.828125 74.269531 17.789062 72.8125 18.851562 C 71.742188 19.636719 70.703125 20.476562 69.757812 21.417969 C 69.949219 20.34375 70.128906 19.269531 70.289062 18.191406 C 70.464844 16.992188 70.710938 15.78125 70.597656 14.566406 C 70.574219 14.363281 70.4375 14.257812 70.28125 14.238281 C 70.136719 14.128906 69.945312 14.082031 69.746094 14.148438 C 68.980469 14.398438 68.261719 14.617188 67.445312 14.644531 C 66.621094 14.671875 65.796875 14.5625 64.984375 14.433594 C 63.328125 14.171875 61.6875 13.792969 60.0625 13.382812 C 56.785156 12.558594 53.554688 11.527344 50.410156 10.296875 C 48.660156 9.617188 46.972656 8.765625 45.175781 8.234375 C 44.875 8.144531 44.59375 8.597656 44.875 8.789062 C 46.320312 9.765625 47.957031 10.402344 49.566406 11.054688 C 51.171875 11.699219 52.792969 12.292969 54.433594 12.835938 C 57.804688 13.953125 61.25 14.824219 64.726562 15.539062 C 66.273438 15.855469 68.027344 16.027344 69.554688 15.492188 C 69.394531 16.207031 69.308594 16.9375 69.195312 17.664062 C 69.027344 18.71875 68.84375 19.765625 68.660156 20.816406 C 68.273438 22.996094 67.839844 25.164062 67.359375 27.320312 C 66.34375 31.882812 65.125 36.394531 63.714844 40.847656 C 61 49.414062 57.605469 57.875 52.957031 65.589844 C 51.800781 67.503906 50.566406 69.375 49.207031 71.152344 C 47.96875 72.777344 46.542969 74.238281 45.269531 75.832031 C 44.949219 76.234375 45.449219 76.863281 45.894531 76.519531 C 47.339844 75.40625 48.511719 73.953125 49.632812 72.527344 C 50.863281 70.960938 52.003906 69.324219 53.074219 67.648438 C 55.425781 63.957031 57.433594 60.054688 59.226562 56.070312 C 63.089844 47.460938 65.996094 38.402344 68.148438 29.222656 C 68.292969 28.605469 68.433594 27.984375 68.570312 27.363281 C 68.675781 27.757812 68.792969 28.15625 68.910156 28.550781 C 69.207031 29.589844 69.523438 30.632812 69.851562 31.664062 C 70.546875 33.835938 71.289062 35.996094 72.078125 38.132812 C 73.714844 42.578125 75.535156 46.953125 77.546875 51.238281 C 81.398438 59.457031 85.902344 67.503906 91.609375 74.589844 C 93.007812 76.328125 94.492188 78.011719 96.074219 79.589844 C 97.53125 81.042969 99.066406 82.550781 100.863281 83.574219 C 101.335938 83.84375 101.804688 83.191406 101.410156 82.824219 C 100.089844 81.574219 98.652344 80.464844 97.347656 79.195312 Z M 97.339844 79.207031 " fill-opacity="1" fill-rule="nonzero"/><path fill="#c86b46" d="M 98.824219 77.394531 C 100.863281 78.414062 103.746094 78.851562 105.863281 77.828125 C 107.121094 77.21875 107.683594 75.75 108.011719 74.484375 C 108.453125 72.777344 108.566406 70.988281 108.59375 69.230469 C 108.625 67.570312 108.675781 65.875 108.253906 64.265625 C 108.160156 63.914062 107.636719 63.992188 107.550781 64.300781 C 107.199219 65.570312 107.273438 66.890625 107.242188 68.195312 C 107.203125 69.804688 107.125 71.433594 106.859375 73.019531 C 106.667969 74.171875 106.394531 75.617188 105.542969 76.417969 C 105.445312 76.507812 105.167969 76.671875 105.046875 76.714844 C 104.515625 76.902344 103.972656 77.007812 103.40625 77.035156 C 102.347656 77.09375 101.265625 76.914062 100.261719 76.5625 C 97.757812 75.6875 95.890625 73.691406 94.179688 71.753906 C 93.976562 71.523438 93.550781 71.742188 93.738281 72.03125 C 95.105469 74.148438 96.496094 76.230469 98.824219 77.394531 Z M 98.824219 77.394531 " fill-opacity="1" fill-rule="nonzero"/><g clip-path="url(#c17f7bd43c)"><path fill="#c86b46" d="M 147.039062 132.703125 C 146.851562 131.429688 145.980469 130.398438 144.894531 129.757812 C 143.617188 129.003906 142.050781 128.773438 140.597656 128.664062 C 139.28125 128.566406 137.945312 128.640625 136.632812 128.761719 C 135.058594 128.910156 133.492188 129.191406 131.953125 129.542969 C 130.703125 129.828125 129.46875 130.164062 128.289062 130.660156 C 128.214844 130.453125 128.144531 130.246094 128.070312 130.039062 C 127.722656 129.113281 127.339844 128.203125 126.972656 127.285156 C 125.417969 123.40625 123.863281 119.523438 122.308594 115.652344 C 119.171875 107.828125 115.992188 100.019531 112.890625 92.179688 C 112.164062 90.347656 111.742188 88.402344 111.542969 86.445312 C 111.445312 85.46875 111.359375 84.496094 111.347656 83.515625 C 111.339844 83.015625 111.367188 82.507812 111.347656 82.007812 C 111.332031 81.515625 111.242188 81.058594 111.265625 80.5625 C 111.273438 80.414062 111.03125 80.40625 111 80.542969 C 110.898438 80.964844 110.734375 81.367188 110.632812 81.785156 C 110.527344 82.222656 110.511719 82.6875 110.484375 83.136719 C 110.433594 84.054688 110.429688 84.972656 110.472656 85.894531 C 110.566406 87.710938 110.917969 89.554688 111.457031 91.289062 C 112.066406 93.246094 112.925781 95.140625 113.675781 97.050781 C 114.488281 99.105469 115.296875 101.160156 116.109375 103.214844 C 119.324219 111.367188 122.542969 119.519531 125.769531 127.667969 C 126.183594 128.707031 126.621094 129.746094 126.996094 130.800781 C 127.320312 131.726562 127.625 132.660156 128.050781 133.542969 C 128.882812 135.25 130.347656 136.796875 132.410156 136.417969 C 132.769531 136.351562 132.621094 135.859375 132.300781 135.851562 C 130.527344 135.820312 129.46875 133.859375 128.910156 132.417969 C 128.800781 132.140625 128.703125 131.859375 128.601562 131.574219 C 130.828125 130.863281 133.089844 130.292969 135.40625 129.964844 C 137.863281 129.617188 140.617188 129.230469 143.046875 129.878906 C 144.308594 130.21875 145.578125 130.957031 146.082031 132.222656 C 146.585938 133.5 145.964844 134.730469 145.097656 135.671875 C 144.148438 136.699219 142.96875 137.5 141.820312 138.28125 C 140.660156 139.0625 139.472656 139.804688 138.265625 140.511719 C 136.835938 141.34375 135.375 142.113281 133.886719 142.828125 C 133.144531 143.183594 132.402344 143.511719 131.652344 143.84375 C 131.460938 143.929688 131.265625 144.011719 131.070312 144.09375 C 131.015625 144.113281 130.957031 144.132812 130.90625 144.148438 C 130.207031 144.394531 129.511719 144.648438 128.8125 144.878906 C 127.46875 145.324219 126.117188 145.730469 124.75 146.078125 C 122.066406 146.773438 119.265625 147.410156 116.488281 147.566406 C 115.324219 147.628906 113.996094 147.601562 113.019531 146.878906 C 112.101562 146.203125 111.808594 145.003906 111.980469 143.914062 C 112.175781 142.675781 112.894531 141.59375 113.726562 140.6875 C 114.59375 139.746094 115.550781 138.878906 116.570312 138.101562 C 118.773438 136.417969 121.15625 135.136719 123.640625 133.949219 C 123.914062 134.699219 124.171875 135.457031 124.402344 136.222656 C 124.570312 136.773438 124.804688 137.378906 124.597656 137.949219 C 124.453125 138.367188 124.074219 138.761719 123.730469 139.03125 C 123.359375 139.320312 123.636719 139.816406 124.082031 139.71875 C 124.910156 139.546875 125.46875 138.910156 125.6875 138.101562 C 125.957031 137.105469 125.472656 136.007812 125.164062 135.074219 C 124.480469 133.019531 123.632812 131.023438 122.777344 129.03125 C 121.003906 124.886719 119.363281 120.691406 117.695312 116.503906 C 116.03125 112.339844 114.316406 108.203125 112.597656 104.058594 C 111.742188 101.996094 110.890625 99.925781 110.0625 97.851562 C 109.265625 95.855469 108.554688 93.820312 107.746094 91.832031 C 107.152344 90.363281 106.171875 89.023438 105.25 87.746094 C 104.996094 87.398438 104.730469 87.058594 104.460938 86.726562 C 104.167969 86.363281 103.820312 86.066406 103.523438 85.714844 C 103.066406 85.175781 102.613281 84.640625 102.140625 84.109375 C 102 83.949219 101.699219 84.109375 101.835938 84.300781 C 102.191406 84.773438 102.539062 85.257812 102.886719 85.738281 C 103.308594 86.324219 103.648438 86.960938 104.054688 87.5625 C 104.878906 88.785156 105.757812 89.96875 106.457031 91.273438 C 106.792969 91.894531 107.015625 92.550781 107.265625 93.210938 C 107.636719 94.207031 108.011719 95.199219 108.394531 96.1875 C 109.179688 98.207031 109.992188 100.214844 110.816406 102.21875 C 112.449219 106.203125 114.128906 110.171875 115.730469 114.164062 C 117.359375 118.234375 118.9375 122.324219 120.578125 126.390625 C 121.453125 128.550781 122.398438 130.679688 123.234375 132.851562 C 123.261719 132.917969 123.28125 132.976562 123.304688 133.042969 C 120.777344 133.929688 118.335938 135.375 116.246094 137.015625 C 114.207031 138.609375 111.90625 140.691406 111.242188 143.300781 C 110.953125 144.417969 111.050781 145.683594 111.714844 146.65625 C 112.375 147.625 113.488281 148.089844 114.621094 148.242188 C 115.949219 148.425781 117.289062 148.25 118.613281 148.078125 C 120.171875 147.878906 121.71875 147.636719 123.253906 147.308594 C 124.945312 146.949219 126.628906 146.515625 128.28125 146.003906 C 129.140625 145.738281 129.996094 145.445312 130.839844 145.132812 C 130.914062 145.105469 130.992188 145.074219 131.070312 145.050781 C 131.121094 145.03125 131.175781 145.015625 131.226562 144.992188 C 131.53125 144.882812 131.835938 144.761719 132.128906 144.617188 C 132.785156 144.339844 133.433594 144.039062 134.078125 143.738281 C 135.542969 143.042969 136.96875 142.277344 138.367188 141.453125 C 139.730469 140.648438 141.058594 139.789062 142.347656 138.867188 C 143.523438 138.023438 144.757812 137.179688 145.734375 136.097656 C 146.566406 135.171875 147.234375 133.980469 147.046875 132.695312 Z M 147.039062 132.703125 " fill-opacity="1" fill-rule="nonzero"/></g><path fill="#c86b46" d="M 87.324219 19.347656 C 84.027344 20.675781 80.644531 21.792969 77.203125 22.679688 C 75.25 23.1875 73.222656 23.488281 71.308594 24.136719 C 70.945312 24.261719 71.058594 24.773438 71.433594 24.765625 C 73.25 24.722656 75.035156 24.25 76.796875 23.824219 C 78.617188 23.382812 80.421875 22.882812 82.203125 22.3125 C 85.570312 21.246094 88.976562 20.011719 92.128906 18.417969 C 93.359375 17.796875 94.699219 16.898438 95.523438 15.726562 C 95.792969 16.355469 96.117188 16.957031 96.425781 17.578125 C 96.90625 18.554688 97.375 19.539062 97.839844 20.523438 C 98.789062 22.523438 99.683594 24.546875 100.539062 26.589844 C 100.949219 27.578125 101.351562 28.570312 101.746094 29.570312 C 101.09375 30.132812 100.445312 30.695312 99.800781 31.265625 C 99.578125 31.457031 99.363281 31.652344 99.144531 31.84375 C 98.523438 30.429688 97.882812 29.019531 97.246094 27.613281 C 97.113281 27.320312 96.625 27.457031 96.738281 27.769531 C 97.246094 29.148438 97.753906 30.519531 98.273438 31.886719 C 97.546875 31.460938 96.816406 31.042969 96.082031 30.628906 C 95.714844 30.421875 95.257812 30.988281 95.636719 31.242188 C 96.433594 31.773438 97.226562 32.300781 98.027344 32.828125 C 97.351562 33.429688 96.675781 34.03125 96.011719 34.648438 C 95.8125 34.832031 95.855469 35.164062 96.046875 35.332031 C 96.269531 35.527344 96.5625 35.464844 96.765625 35.292969 C 97.480469 34.707031 98.191406 34.105469 98.894531 33.5 C 99.253906 34.410156 99.617188 35.320312 99.984375 36.226562 C 100.304688 37.023438 100.605469 38.109375 101.261719 38.6875 C 101.4375 38.84375 101.675781 38.703125 101.695312 38.492188 C 101.730469 38.011719 101.503906 37.507812 101.34375 37.0625 C 101.179688 36.621094 101 36.1875 100.816406 35.75 C 100.601562 35.226562 100.378906 34.714844 100.160156 34.191406 C 100.5 34.40625 100.839844 34.625 101.183594 34.835938 C 101.773438 35.203125 102.46875 35.652344 103.175781 35.738281 C 103.390625 35.765625 103.585938 35.558594 103.457031 35.355469 C 103.097656 34.789062 102.425781 34.386719 101.867188 34.035156 C 101.226562 33.636719 100.582031 33.246094 99.9375 32.859375 C 99.882812 32.828125 99.820312 32.792969 99.761719 32.757812 C 100.0625 32.5 100.359375 32.25 100.65625 31.992188 C 101.167969 31.554688 101.671875 31.109375 102.175781 30.664062 C 103.335938 33.667969 104.40625 36.703125 105.382812 39.765625 C 108.128906 48.398438 110.253906 57.347656 110.910156 66.402344 C 111.074219 68.648438 111.136719 70.902344 111.0625 73.148438 C 110.992188 75.195312 110.671875 77.207031 110.5625 79.246094 C 110.535156 79.804688 111.375 79.78125 111.519531 79.320312 C 112.050781 77.578125 112.140625 75.6875 112.230469 73.871094 C 112.332031 71.886719 112.308594 69.890625 112.207031 67.902344 C 111.984375 63.511719 111.363281 59.15625 110.519531 54.84375 C 108.847656 46.304688 106.300781 37.929688 103.136719 29.828125 C 103.558594 29.457031 103.957031 29.039062 104.132812 28.539062 C 104.214844 28.304688 103.933594 28.167969 103.75 28.210938 C 103.378906 28.292969 103.035156 28.5 102.710938 28.746094 C 102.585938 28.445312 102.46875 28.140625 102.347656 27.839844 C 101.390625 25.484375 100.378906 23.152344 99.304688 20.847656 C 98.78125 19.722656 98.238281 18.605469 97.667969 17.492188 C 97.125 16.425781 96.628906 15.3125 95.84375 14.398438 C 95.761719 14.300781 95.652344 14.261719 95.542969 14.257812 C 95.332031 14.175781 95.085938 14.203125 94.921875 14.429688 C 94.492188 15.015625 94.078125 15.574219 93.53125 16.0625 C 92.988281 16.546875 92.367188 16.933594 91.738281 17.300781 C 90.339844 18.128906 88.824219 18.75 87.316406 19.359375 Z M 87.324219 19.347656 " fill-opacity="1" fill-rule="nonzero"/><path fill="#c86b46" d="M 79.355469 47.25 C 79.789062 48.734375 80.257812 50.164062 80.878906 51.582031 C 81.507812 53.027344 82.160156 54.460938 82.839844 55.882812 C 84.195312 58.710938 85.652344 61.488281 87.316406 64.140625 C 87.765625 64.859375 88.21875 65.574219 88.6875 66.28125 C 89.121094 66.949219 89.609375 67.800781 90.253906 68.289062 C 90.390625 68.394531 90.605469 68.28125 90.554688 68.101562 C 90.375 67.460938 89.90625 66.828125 89.558594 66.261719 C 89.164062 65.621094 88.761719 64.984375 88.382812 64.328125 C 87.617188 63 86.878906 61.648438 86.15625 60.296875 C 84.667969 57.511719 83.277344 54.679688 82 51.792969 C 81.652344 51.011719 81.316406 50.222656 80.96875 49.449219 C 80.605469 48.648438 80.160156 47.890625 79.761719 47.109375 C 79.648438 46.886719 79.277344 46.972656 79.355469 47.238281 Z M 79.355469 47.25 " fill-opacity="1" fill-rule="nonzero"/><path fill="#c86b46" d="M 100.558594 53.304688 C 100.460938 53.359375 100.363281 53.429688 100.289062 53.511719 C 100.269531 53.535156 100.253906 53.5625 100.230469 53.585938 C 100.152344 53.539062 100.046875 53.550781 99.980469 53.617188 C 99.613281 53.976562 99.523438 54.539062 99.730469 55.007812 C 99.949219 55.496094 100.433594 55.78125 100.964844 55.785156 C 101.46875 55.785156 101.9375 55.5 102.15625 55.039062 C 102.363281 54.589844 102.339844 54.03125 102.011719 53.644531 C 101.664062 53.226562 101.046875 53.046875 100.558594 53.308594 Z M 101.542969 55.078125 C 101.390625 55.230469 101.191406 55.296875 100.96875 55.296875 C 100.902344 55.296875 100.738281 55.269531 100.675781 55.246094 C 100.621094 55.21875 100.5625 55.195312 100.503906 55.164062 C 100.492188 55.15625 100.488281 55.15625 100.484375 55.148438 C 100.484375 55.148438 100.480469 55.148438 100.46875 55.136719 C 100.441406 55.117188 100.410156 55.09375 100.386719 55.070312 C 100.226562 54.925781 100.136719 54.707031 100.128906 54.484375 C 100.121094 54.339844 100.144531 54.191406 100.191406 54.046875 C 100.261719 54.109375 100.363281 54.128906 100.453125 54.074219 C 100.511719 54.039062 100.546875 53.964844 100.574219 53.929688 C 100.613281 53.882812 100.664062 53.835938 100.710938 53.796875 C 100.828125 53.679688 101.035156 53.609375 101.210938 53.640625 C 101.40625 53.675781 101.578125 53.832031 101.683594 54.003906 C 101.890625 54.332031 101.804688 54.800781 101.535156 55.070312 Z M 101.542969 55.078125 " fill-opacity="1" fill-rule="nonzero"/><path fill="#c86b46" d="M 101.578125 50.472656 C 101.578125 50.472656 101.585938 50.480469 101.589844 50.480469 C 101.589844 50.480469 101.585938 50.480469 101.582031 50.476562 Z M 101.578125 50.472656 " fill-opacity="1" fill-rule="nonzero"/><path fill="#c86b46" d="M 101.5 50.441406 C 101.5 50.441406 101.515625 50.449219 101.519531 50.449219 C 101.515625 50.449219 101.511719 50.449219 101.503906 50.445312 C 101.503906 50.445312 101.503906 50.445312 101.5 50.445312 Z M 101.5 50.441406 " fill-opacity="1" fill-rule="nonzero"/><path fill="#c86b46" d="M 101.488281 50.078125 C 101.203125 50.046875 100.898438 50.1875 100.78125 50.460938 C 100.753906 50.511719 100.765625 50.574219 100.820312 50.609375 C 100.863281 50.636719 100.941406 50.636719 100.980469 50.589844 C 100.992188 50.570312 101.007812 50.554688 101.023438 50.539062 C 101.03125 50.53125 101.039062 50.523438 101.046875 50.511719 C 101.070312 50.5 101.085938 50.484375 101.105469 50.476562 C 101.105469 50.476562 101.121094 50.46875 101.125 50.46875 C 101.132812 50.46875 101.136719 50.464844 101.148438 50.460938 C 101.167969 50.453125 101.191406 50.445312 101.210938 50.441406 C 101.222656 50.441406 101.238281 50.4375 101.246094 50.433594 C 101.253906 50.433594 101.253906 50.433594 101.257812 50.433594 C 101.273438 50.433594 101.296875 50.433594 101.304688 50.433594 C 101.320312 50.433594 101.359375 50.441406 101.375 50.433594 C 101.386719 50.433594 101.394531 50.433594 101.40625 50.433594 C 101.429688 50.433594 101.445312 50.4375 101.464844 50.441406 C 101.476562 50.441406 101.488281 50.445312 101.496094 50.449219 C 101.496094 50.449219 101.5 50.449219 101.5 50.449219 C 101.511719 50.449219 101.515625 50.453125 101.515625 50.453125 C 101.53125 50.460938 101.554688 50.46875 101.5625 50.472656 C 101.5625 50.472656 101.570312 50.476562 101.578125 50.480469 C 101.578125 50.480469 101.578125 50.480469 101.585938 50.484375 C 101.585938 50.484375 101.589844 50.484375 101.589844 50.484375 C 101.609375 50.496094 101.621094 50.507812 101.636719 50.523438 C 101.644531 50.53125 101.636719 50.523438 101.640625 50.527344 C 101.644531 50.535156 101.65625 50.546875 101.65625 50.550781 C 101.664062 50.5625 101.675781 50.589844 101.691406 50.601562 C 101.691406 50.601562 101.691406 50.609375 101.691406 50.613281 C 101.695312 50.625 101.699219 50.632812 101.703125 50.644531 C 101.703125 50.65625 101.710938 50.679688 101.714844 50.691406 C 101.714844 50.707031 101.714844 50.71875 101.714844 50.726562 C 101.714844 50.75 101.714844 50.769531 101.714844 50.796875 C 101.714844 50.796875 101.714844 50.804688 101.714844 50.804688 C 101.714844 50.8125 101.714844 50.820312 101.714844 50.828125 C 101.714844 50.847656 101.707031 50.863281 101.703125 50.886719 C 101.703125 50.898438 101.699219 50.910156 101.695312 50.917969 C 101.695312 50.917969 101.695312 50.917969 101.695312 50.921875 C 101.683594 50.933594 101.671875 50.964844 101.667969 50.980469 C 101.664062 50.988281 101.632812 51.027344 101.632812 51.039062 C 101.636719 51.03125 101.640625 51.027344 101.648438 51.019531 C 101.640625 51.03125 101.628906 51.042969 101.621094 51.054688 C 101.609375 51.074219 101.589844 51.089844 101.574219 51.105469 C 101.570312 51.109375 101.5625 51.117188 101.558594 51.121094 C 101.558594 51.121094 101.558594 51.121094 101.550781 51.125 C 101.542969 51.132812 101.515625 51.15625 101.496094 51.160156 C 101.484375 51.164062 101.472656 51.167969 101.460938 51.171875 C 101.449219 51.171875 101.4375 51.179688 101.425781 51.179688 C 101.402344 51.179688 101.378906 51.179688 101.359375 51.179688 C 101.355469 51.179688 101.347656 51.179688 101.34375 51.179688 C 101.328125 51.179688 101.3125 51.175781 101.300781 51.171875 C 101.292969 51.171875 101.28125 51.167969 101.273438 51.164062 C 101.269531 51.164062 101.265625 51.164062 101.257812 51.160156 C 101.257812 51.160156 101.257812 51.160156 101.25 51.160156 C 101.222656 51.144531 101.203125 51.136719 101.179688 51.125 C 101.171875 51.121094 101.164062 51.117188 101.15625 51.113281 C 101.15625 51.113281 101.128906 51.097656 101.125 51.09375 C 101.105469 51.078125 101.089844 51.0625 101.070312 51.042969 C 101.070312 51.042969 101.070312 51.042969 101.066406 51.039062 C 101.066406 51.039062 101.066406 51.039062 101.066406 51.035156 C 101.054688 51.023438 101.042969 51.011719 101.035156 50.996094 C 101.023438 50.984375 101.015625 50.972656 101.003906 50.957031 C 100.992188 50.945312 100.992188 50.945312 101.003906 50.957031 C 101 50.949219 100.996094 50.945312 100.992188 50.9375 C 100.96875 50.902344 100.941406 50.871094 100.902344 50.851562 C 100.917969 50.863281 100.929688 50.875 100.945312 50.894531 C 100.933594 50.871094 100.933594 50.863281 100.917969 50.835938 C 100.90625 50.808594 100.886719 50.785156 100.875 50.761719 C 100.847656 50.71875 100.765625 50.722656 100.746094 50.769531 C 100.730469 50.808594 100.714844 50.839844 100.714844 50.882812 C 100.714844 50.90625 100.71875 50.929688 100.722656 50.949219 C 100.714844 51.011719 100.734375 51.074219 100.761719 51.128906 C 100.792969 51.191406 100.84375 51.246094 100.894531 51.285156 C 100.992188 51.371094 101.109375 51.433594 101.238281 51.464844 C 101.261719 51.472656 101.289062 51.476562 101.3125 51.480469 C 101.332031 51.480469 101.398438 51.488281 101.355469 51.480469 C 101.378906 51.480469 101.402344 51.484375 101.429688 51.484375 C 101.492188 51.484375 101.5625 51.476562 101.625 51.457031 C 101.742188 51.417969 101.859375 51.34375 101.933594 51.246094 C 102.089844 51.039062 102.148438 50.753906 102.0625 50.507812 C 101.972656 50.261719 101.738281 50.089844 101.480469 50.066406 Z M 101.488281 50.078125 " fill-opacity="1" fill-rule="nonzero"/><path fill="#c86b46" d="M 85.246094 52.167969 C 85.597656 52.546875 86.097656 52.777344 86.609375 52.554688 C 87.171875 52.304688 87.535156 51.675781 87.316406 51.074219 C 87.128906 50.542969 86.632812 50.121094 86.058594 50.113281 C 85.746094 50.109375 85.433594 50.214844 85.195312 50.410156 C 85.074219 50.507812 84.953125 50.632812 84.886719 50.773438 C 84.847656 50.847656 84.816406 50.925781 84.796875 51.003906 C 84.785156 51.050781 84.785156 51.101562 84.796875 51.148438 C 84.75 51.523438 85.011719 51.917969 85.25 52.171875 Z M 85.445312 50.777344 C 85.582031 50.640625 85.757812 50.535156 85.953125 50.496094 C 86.332031 50.433594 86.703125 50.714844 86.8125 51.066406 C 86.925781 51.4375 86.800781 51.839844 86.476562 52.039062 C 86.433594 52.070312 86.394531 52.085938 86.367188 52.097656 C 86.347656 52.105469 86.332031 52.109375 86.308594 52.117188 C 86.308594 52.117188 86.265625 52.125 86.257812 52.128906 C 86.214844 52.136719 86.167969 52.136719 86.125 52.136719 C 86.117188 52.136719 86.097656 52.136719 86.09375 52.136719 C 86.078125 52.136719 86.058594 52.128906 86.035156 52.125 C 86.03125 52.125 86.035156 52.125 86.03125 52.125 C 86.03125 52.125 86.03125 52.125 86.027344 52.125 C 86.015625 52.117188 86.003906 52.113281 85.988281 52.109375 C 85.945312 52.089844 85.90625 52.070312 85.871094 52.042969 C 85.871094 52.042969 85.855469 52.035156 85.851562 52.03125 C 85.835938 52.019531 85.820312 52.011719 85.804688 52 C 85.761719 51.972656 85.722656 51.9375 85.679688 51.90625 C 85.519531 51.769531 85.398438 51.648438 85.289062 51.472656 C 85.246094 51.398438 85.214844 51.347656 85.191406 51.257812 C 85.183594 51.234375 85.183594 51.210938 85.183594 51.183594 C 85.191406 51.171875 85.199219 51.164062 85.203125 51.15625 C 85.222656 51.109375 85.246094 51.066406 85.269531 51.023438 C 85.316406 50.9375 85.375 50.859375 85.445312 50.792969 Z M 85.445312 50.777344 " fill-opacity="1" fill-rule="nonzero"/><path fill="#c86b46" d="M 93.960938 66.171875 C 93.972656 66.277344 94.007812 66.382812 94.074219 66.476562 C 94.210938 66.679688 94.429688 66.789062 94.667969 66.800781 C 94.90625 66.808594 95.144531 66.675781 95.308594 66.511719 C 95.472656 66.355469 95.582031 66.132812 95.605469 65.90625 C 95.652344 65.449219 95.441406 64.953125 94.984375 64.785156 C 94.5625 64.632812 94.035156 64.75 93.796875 65.148438 C 93.679688 65.339844 93.644531 65.605469 93.71875 65.820312 C 93.761719 65.945312 93.84375 66.082031 93.953125 66.167969 Z M 94.601562 65.199219 C 94.558594 65.199219 94.582031 65.199219 94.601562 65.199219 Z M 94.183594 65.433594 C 94.183594 65.433594 94.183594 65.433594 94.183594 65.425781 C 94.183594 65.425781 94.183594 65.425781 94.1875 65.417969 C 94.191406 65.40625 94.199219 65.398438 94.203125 65.386719 C 94.207031 65.378906 94.214844 65.367188 94.21875 65.359375 C 94.21875 65.359375 94.242188 65.332031 94.246094 65.328125 C 94.253906 65.320312 94.261719 65.308594 94.273438 65.300781 C 94.273438 65.300781 94.289062 65.289062 94.296875 65.28125 C 94.320312 65.265625 94.347656 65.25 94.371094 65.234375 C 94.378906 65.234375 94.394531 65.222656 94.398438 65.222656 C 94.410156 65.21875 94.425781 65.214844 94.4375 65.210938 C 94.445312 65.210938 94.46875 65.203125 94.472656 65.203125 C 94.480469 65.203125 94.488281 65.203125 94.496094 65.203125 C 94.53125 65.203125 94.566406 65.203125 94.601562 65.203125 C 94.625 65.203125 94.648438 65.210938 94.671875 65.214844 C 94.691406 65.214844 94.707031 65.222656 94.722656 65.226562 C 94.75 65.238281 94.78125 65.257812 94.8125 65.273438 C 94.8125 65.273438 94.8125 65.273438 94.816406 65.273438 C 94.816406 65.273438 94.816406 65.273438 94.820312 65.277344 C 94.835938 65.289062 94.851562 65.300781 94.871094 65.316406 C 94.878906 65.324219 94.890625 65.339844 94.898438 65.347656 C 94.90625 65.355469 94.914062 65.367188 94.921875 65.375 C 94.941406 65.402344 94.964844 65.433594 94.980469 65.460938 C 94.988281 65.472656 95.015625 65.53125 94.988281 65.472656 C 94.992188 65.484375 95 65.496094 95.003906 65.507812 C 95.019531 65.546875 95.03125 65.585938 95.042969 65.628906 C 95.042969 65.640625 95.054688 65.65625 95.054688 65.667969 C 95.035156 65.597656 95.054688 65.6875 95.054688 65.703125 C 95.054688 65.738281 95.058594 65.769531 95.058594 65.808594 C 95.058594 65.820312 95.046875 65.890625 95.058594 65.820312 C 95.058594 65.832031 95.058594 65.847656 95.054688 65.859375 C 95.046875 65.898438 95.035156 65.933594 95.027344 65.96875 C 95.027344 65.980469 95.019531 65.992188 95.019531 66 C 95.019531 66 95 66.046875 94.996094 66.054688 C 94.980469 66.085938 94.964844 66.109375 94.945312 66.132812 C 94.941406 66.140625 94.933594 66.148438 94.929688 66.152344 C 94.917969 66.167969 94.90625 66.183594 94.894531 66.195312 C 94.882812 66.207031 94.871094 66.21875 94.855469 66.226562 C 94.855469 66.226562 94.851562 66.230469 94.847656 66.234375 C 94.832031 66.25 94.816406 66.261719 94.796875 66.273438 C 94.792969 66.273438 94.75 66.292969 94.746094 66.296875 C 94.738281 66.296875 94.726562 66.304688 94.726562 66.304688 C 94.703125 66.3125 94.675781 66.316406 94.652344 66.324219 C 94.628906 66.324219 94.609375 66.324219 94.582031 66.324219 C 94.582031 66.324219 94.578125 66.324219 94.574219 66.324219 C 94.566406 66.324219 94.53125 66.3125 94.523438 66.3125 C 94.492188 66.300781 94.464844 66.289062 94.4375 66.273438 C 94.429688 66.269531 94.410156 66.253906 94.40625 66.253906 C 94.394531 66.238281 94.382812 66.230469 94.371094 66.21875 C 94.371094 66.214844 94.347656 66.191406 94.347656 66.191406 C 94.347656 66.1875 94.34375 66.183594 94.339844 66.179688 C 94.351562 66.140625 94.351562 66.101562 94.332031 66.054688 C 94.320312 66.042969 94.308594 66.019531 94.304688 66.011719 C 94.304688 66.003906 94.296875 66 94.292969 65.992188 C 94.292969 65.984375 94.292969 65.980469 94.292969 65.96875 C 94.3125 65.878906 94.253906 65.816406 94.175781 65.789062 C 94.175781 65.777344 94.167969 65.769531 94.164062 65.757812 C 94.164062 65.75 94.160156 65.738281 94.160156 65.734375 C 94.160156 65.71875 94.15625 65.707031 94.152344 65.6875 C 94.148438 65.65625 94.144531 65.625 94.144531 65.585938 C 94.144531 65.574219 94.144531 65.5625 94.144531 65.550781 C 94.144531 65.546875 94.144531 65.550781 94.144531 65.546875 C 94.144531 65.546875 94.144531 65.546875 94.144531 65.539062 C 94.152344 65.5 94.160156 65.46875 94.167969 65.433594 Z M 94.183594 65.433594 " fill-opacity="1" fill-rule="nonzero"/><path fill="#c86b46" d="M 92.34375 58.742188 C 92.8125 58.742188 93.277344 58.769531 93.746094 58.820312 C 94.183594 58.867188 94.671875 59 95.109375 58.933594 C 95.210938 58.917969 95.3125 58.773438 95.199219 58.695312 C 94.816406 58.433594 94.265625 58.371094 93.8125 58.320312 C 93.371094 58.273438 92.925781 58.257812 92.484375 58.265625 C 92.550781 58.15625 92.613281 58.039062 92.675781 57.929688 C 92.910156 57.546875 93.207031 57.171875 93.308594 56.726562 C 93.335938 56.613281 93.199219 56.539062 93.105469 56.59375 C 92.707031 56.839844 92.457031 57.269531 92.21875 57.660156 C 92.09375 57.867188 91.976562 58.082031 91.859375 58.296875 C 91.835938 58.296875 91.8125 58.296875 91.792969 58.300781 C 91.445312 57.359375 91.085938 56.417969 90.707031 55.488281 C 90.636719 55.3125 90.359375 55.394531 90.410156 55.582031 C 90.675781 56.511719 90.960938 57.441406 91.253906 58.363281 C 90.632812 58.449219 90.019531 58.578125 89.421875 58.769531 C 89.203125 58.839844 89.316406 59.128906 89.527344 59.082031 C 90.136719 58.933594 90.761719 58.84375 91.386719 58.796875 C 91.417969 58.890625 91.445312 58.984375 91.476562 59.082031 C 91.078125 59.949219 90.753906 60.867188 90.589844 61.8125 C 90.554688 62.03125 90.871094 62.085938 90.9375 61.886719 C 91.175781 61.179688 91.421875 60.476562 91.714844 59.796875 C 91.851562 60.210938 91.992188 60.632812 92.132812 61.046875 C 92.3125 61.578125 92.453125 62.25 92.855469 62.660156 C 92.933594 62.738281 93.109375 62.691406 93.125 62.578125 C 93.195312 62.011719 92.890625 61.394531 92.707031 60.867188 C 92.5 60.273438 92.292969 59.679688 92.082031 59.089844 C 92.078125 59.078125 92.074219 59.066406 92.066406 59.046875 C 92.113281 58.949219 92.164062 58.851562 92.214844 58.757812 C 92.261719 58.757812 92.300781 58.753906 92.347656 58.753906 Z M 92.34375 58.742188 " fill-opacity="1" fill-rule="nonzero"/><path fill="#c86b46" d="M 101.148438 42.816406 C 100.558594 43.109375 100.085938 43.488281 99.40625 43.5625 C 98.707031 43.640625 98.019531 43.546875 97.339844 43.375 C 95.785156 42.988281 94.128906 42.441406 92.550781 43.027344 C 91.898438 43.269531 91.265625 43.636719 90.644531 43.953125 C 89.976562 44.296875 89.398438 44.757812 88.640625 44.910156 C 86.945312 45.253906 85.328125 44.289062 83.671875 44.101562 C 82.269531 43.941406 80.492188 44.128906 79.84375 45.582031 C 79.675781 45.957031 80.152344 46.253906 80.4375 45.972656 C 81.425781 45 82.84375 44.917969 84.132812 45.179688 C 85.792969 45.515625 87.429688 46.238281 89.136719 45.765625 C 89.808594 45.582031 90.488281 45.21875 91.046875 44.808594 C 91.335938 44.59375 91.5625 44.316406 91.855469 44.117188 C 92.175781 43.898438 92.527344 43.703125 92.890625 43.5625 C 94.597656 42.90625 96.214844 44.054688 97.859375 44.398438 C 99.019531 44.640625 101.320312 44.667969 101.644531 43.140625 C 101.707031 42.847656 101.378906 42.703125 101.152344 42.820312 Z M 101.148438 42.816406 " fill-opacity="1" fill-rule="nonzero"/><path fill="#c86b46" d="M 105.039062 50.367188 C 105.660156 52.402344 106.046875 54.496094 106.621094 56.542969 C 106.660156 56.691406 106.90625 56.644531 106.898438 56.492188 C 106.796875 54.351562 106.226562 52.230469 105.628906 50.179688 C 105.035156 48.15625 104.308594 46.03125 103.210938 44.222656 C 103.140625 44.113281 102.964844 44.199219 103 44.320312 C 103.300781 45.324219 103.699219 46.292969 104.042969 47.28125 C 104.402344 48.300781 104.726562 49.335938 105.039062 50.367188 Z M 105.039062 50.367188 " fill-opacity="1" fill-rule="nonzero"/></svg>