<svg xmlns="http://www.w3.org/2000/svg" xmlns:xlink="http://www.w3.org/1999/xlink" width="1366" zoomAndPan="magnify" viewBox="0 0 1024.5 576" height="768" preserveAspectRatio="xMidYMid meet" version="1.0"><path fill="#FFFFFF" d="M 335.390625 521.980469 C 333.378906 521.980469 331.382812 521.914062 329.402344 521.78125 C 307.613281 520.324219 287.628906 510.132812 275.953125 494.515625 C 269.945312 486.488281 266.078125 476.566406 264.984375 466.433594 C 249.257812 485.722656 233.554688 497.679688 215.671875 504.011719 C 185.933594 514.539062 152.511719 512.851562 123.980469 499.382812 C 100.742188 488.410156 83.835938 470.457031 77.589844 450.132812 C 68.019531 418.972656 83.859375 386.480469 101.875 366.460938 C 125.152344 340.585938 158.570312 323.558594 193.554688 319.742188 C 171.382812 295.335938 158.925781 265.765625 159.515625 238.980469 C 160.304688 203.222656 184.015625 168.90625 217.175781 155.519531 C 241.796875 145.582031 272.347656 145.960938 305.523438 156.628906 C 321.078125 161.632812 343.195312 171.109375 360.214844 187.847656 C 356.875 151.636719 368.722656 116.476562 392.464844 91.644531 C 424.085938 58.566406 476.316406 46.097656 519.46875 61.3125 C 559.636719 75.476562 590.453125 112.011719 598.035156 154.433594 C 618 143.132812 631.011719 137.816406 644.394531 135.472656 C 663.035156 132.210938 680.707031 135.332031 694.1875 144.246094 C 705.875 151.984375 714.007812 164.515625 715.945312 177.765625 C 733.800781 167.542969 751.988281 162.363281 769.625 162.394531 C 794.089844 162.46875 816.664062 172.980469 830.011719 190.515625 C 841.421875 205.507812 845.226562 225.722656 839.941406 243.269531 C 862.894531 237.238281 881.027344 234.027344 899.5 236.714844 C 920.976562 239.835938 945.527344 253.882812 951.964844 278.226562 C 956.332031 294.75 951.578125 313.992188 938.921875 331.019531 C 920.097656 356.34375 888.625 372.121094 854.726562 373.222656 C 828.074219 374.066406 800.710938 366.1875 775.890625 350.371094 C 773.789062 385.628906 752.453125 419.007812 723.070312 433.042969 C 692.941406 447.429688 655.023438 442.335938 628.679688 420.367188 C 624.8125 465.375 592.015625 505.53125 549.179688 517.796875 C 505.601562 530.277344 454.125 512.515625 426.785156 475.5625 C 417.414062 489.066406 403.164062 500.886719 386.925781 508.839844 C 369.109375 517.570312 351.800781 521.980469 335.390625 521.980469 Z M 265.464844 452.054688 C 266.691406 452.054688 267.929688 452.234375 269.144531 452.609375 C 274.164062 454.148438 277.679688 458.570312 278.105469 463.875 C 278.769531 472.050781 281.785156 480.101562 286.605469 486.542969 C 295.988281 499.09375 312.320312 507.300781 330.285156 508.5 C 346.140625 509.566406 363.191406 505.648438 381.074219 496.886719 C 395.363281 489.886719 407.84375 479.566406 416.222656 467.828125 C 418.710938 464.34375 422.566406 462.324219 426.804688 462.289062 C 430.890625 462.152344 434.929688 464.203125 437.480469 467.644531 C 461.640625 500.300781 507.09375 516.011719 545.515625 505 C 583.195312 494.214844 612.050781 458.824219 615.679688 418.9375 C 616.121094 414.074219 619.183594 409.898438 623.664062 408.042969 C 628.214844 406.160156 633.394531 406.96875 637.207031 410.148438 C 659.269531 428.550781 692.226562 433.03125 717.335938 421.03125 C 742.515625 409.003906 760.824219 380.09375 762.894531 349.097656 C 763.199219 344.53125 765.832031 340.570312 769.933594 338.492188 C 774.09375 336.390625 779.113281 336.640625 783.039062 339.148438 C 805.265625 353.308594 830.511719 360.683594 854.296875 359.917969 C 884.175781 358.949219 911.820312 345.175781 928.242188 323.078125 C 938.46875 309.320312 942.425781 294.210938 939.097656 281.628906 C 934.214844 263.160156 914.730469 252.378906 897.582031 249.886719 C 881.328125 247.519531 864.636719 250.539062 842.96875 256.171875 C 838.328125 257.378906 833.609375 256.054688 830.324219 252.640625 C 826.988281 249.171875 825.792969 244.113281 827.203125 239.433594 C 831.21875 226.097656 828.164062 210.0625 819.421875 198.578125 C 808.730469 184.527344 789.632812 175.765625 769.585938 175.703125 C 769.515625 175.703125 769.441406 175.703125 769.367188 175.703125 C 754.09375 175.703125 738.273438 180.3125 722.355469 189.40625 C 718.574219 191.566406 714.003906 191.730469 710.125 189.839844 C 706.175781 187.914062 703.429688 184.121094 702.78125 179.695312 C 701.40625 170.269531 695.296875 160.941406 686.84375 155.347656 C 676.367188 148.414062 661.71875 145.949219 646.6875 148.582031 C 634.742188 150.671875 623.289062 155.421875 604.429688 166.105469 C 600.707031 168.214844 596.171875 168.390625 592.304688 166.566406 C 588.457031 164.753906 585.714844 161.167969 584.972656 156.976562 C 578.386719 119.691406 550.28125 86.289062 515.042969 73.863281 C 476.660156 60.328125 430.207031 71.425781 402.082031 100.84375 C 380.976562 122.917969 370.457031 154.316406 373.222656 186.988281 C 373.6875 192.5 370.773438 197.574219 365.792969 199.917969 C 360.753906 202.289062 354.898438 201.28125 350.882812 197.335938 C 335.726562 182.429688 315.636719 173.859375 301.449219 169.300781 C 280.414062 162.53125 249.578125 156.792969 222.152344 167.863281 C 193.78125 179.316406 173.496094 208.679688 172.820312 239.273438 C 172.300781 262.703125 183.515625 288.921875 203.585938 311.207031 C 206.847656 314.832031 207.792969 319.914062 206.054688 324.46875 C 204.261719 329.167969 200.023438 332.425781 194.996094 332.976562 C 163.21875 336.441406 132.882812 351.890625 111.765625 375.363281 C 96.1875 392.675781 82.371094 420.378906 90.3125 446.222656 C 95.457031 462.980469 109.800781 477.96875 129.660156 487.34375 C 155.046875 499.332031 184.78125 500.832031 211.234375 491.464844 C 227.078125 485.855469 241.195312 474.84375 255.65625 456.8125 C 258.113281 453.746094 261.726562 452.054688 265.464844 452.054688 Z M 601.152344 160.316406 L 601.214844 160.316406 Z M 601.152344 160.316406 " fill-opacity="1" fill-rule="nonzero"/></svg>