<svg xmlns="http://www.w3.org/2000/svg" xmlns:xlink="http://www.w3.org/1999/xlink" width="100%" zoomAndPan="magnify" viewBox="0 0 1440 149.999998" height="200" preserveAspectRatio="xMidYMid meet" version="1.0"><path fill="#c86b46" d="M 49.042969 16.804688 C 154.253906 51.945312 229.117188 73.4375 311.820312 92.074219 C 407.359375 113.667969 475.292969 122.527344 555.25 123.851562 C 641.621094 125.175781 709.351562 118.148438 814.464844 96.65625 C 856.835938 88 906.027344 76.898438 1010.632812 52.351562 C 1114.417969 28.007812 1178.585938 15.074219 1218.308594 10.695312 C 1288.894531 2.75 1360.597656 9.066406 1427.820312 29.128906 L 1440.347656 32.796875 L 1440.550781 184.351562 L 1440.855469 336.011719 L -0.867188 336.011719 L -0.867188 167.953125 C -0.867188 75.472656 -0.765625 0 -0.664062 0.101562 C -0.460938 0.203125 21.847656 7.742188 49.042969 16.804688 Z M 49.042969 16.804688 " fill-opacity="1" fill-rule="nonzero"/></svg>