<svg xmlns="http://www.w3.org/2000/svg" width="100%" viewBox="0 0 1440 150" height="200" version="1.0"><defs><clipPath id="a"><path d="M1 0h1439v126.523H1Zm0 0"/></clipPath></defs><g clip-path="url(#a)"><path fill="#c86b46" d="M1394.988 110.055c-105.32-35.176-180.254-56.688-263.043-75.348C1036.31 13.094 968.305 4.223 888.27 2.898c-86.457-1.324-154.258 5.707-259.477 27.223-42.414 8.664-91.656 19.777-196.367 44.348-103.89 24.37-168.125 37.316-207.887 41.703-70.656 7.953-142.43 1.629-209.723-18.457L2.277 94.047 2.074-57.664l-.308-151.813h1443.183V-41.25c0 92.578-.101 168.125-.203 168.023-.207-.101-22.535-7.644-49.758-16.718Zm0 0"/></g></svg>