<svg xmlns="http://www.w3.org/2000/svg" xmlns:xlink="http://www.w3.org/1999/xlink" width="100%" zoomAndPan="magnify" viewBox="0 0 1440 149.999998" height="200" preserveAspectRatio="xMidYMid meet" version="1.0"><defs><clipPath id="fc557df9bb"><path d="M 0 0 L 1440 0 L 1440 126.523438 L 0 126.523438 Z M 0 0 " clip-rule="nonzero"/></clipPath></defs><g clip-path="url(#fc557df9bb)"><path fill="#f5e8d8" d="M 1391.632812 110.054688 C 1286.3125 74.878906 1211.375 53.367188 1128.585938 34.707031 C 1032.949219 13.09375 964.945312 4.222656 884.910156 2.898438 C 798.453125 1.574219 730.652344 8.605469 625.433594 30.121094 C 583.019531 38.785156 533.777344 49.898438 429.066406 74.46875 C 325.175781 98.839844 260.941406 111.785156 221.179688 116.171875 C 150.523438 124.125 78.75 117.800781 11.457031 97.714844 L -1.082031 94.046875 L -1.285156 -57.664062 L -1.59375 -209.476562 L 1441.589844 -209.476562 L 1441.589844 -41.25 C 1441.589844 51.328125 1441.488281 126.875 1441.386719 126.773438 C 1441.179688 126.671875 1418.851562 119.128906 1391.632812 110.054688 Z M 1391.632812 110.054688 " fill-opacity="1" fill-rule="nonzero"/></g></svg>