<svg xmlns="http://www.w3.org/2000/svg" width="100%" viewBox="0 0 1440 150" height="200" version="1.0"><defs><clipPath id="a"><path d="M1 .273h1439V150H1Zm0 0"/></clipPath></defs><g clip-path="url(#a)"><path fill="#c86b46" d="M51.652 17.078c105.215 35.14 180.078 56.633 262.782 75.27 95.539 21.593 163.472 30.453 243.425 31.777 86.371 1.324 154.106-5.703 259.215-27.195 42.371-8.657 91.567-19.758 196.168-44.305 103.79-24.344 167.957-37.277 207.68-41.656 70.582-7.946 142.289-1.63 209.512 18.433l12.527 3.668.203 151.555.305 151.66H1.746V168.227c0-92.48.102-167.954.203-167.852.203.102 22.508 7.64 49.703 16.703Zm0 0"/></g></svg>