<svg xmlns="http://www.w3.org/2000/svg" xmlns:xlink="http://www.w3.org/1999/xlink" width="200" zoomAndPan="magnify" viewBox="0 0 150 149.999998" height="200" preserveAspectRatio="xMidYMid meet" version="1.0"><defs><clipPath id="3957660f42"><path d="M 0 13 L 148 13 L 148 138 L 0 138 Z M 0 13 " clip-rule="nonzero"/></clipPath><clipPath id="3d3eb8d35e"><path d="M 2.378906 -0.996094 L 159.296875 28.960938 L 135.949219 151.253906 L -20.96875 121.296875 Z M 2.378906 -0.996094 " clip-rule="nonzero"/></clipPath><clipPath id="7d3e8e40cc"><path d="M 2.378906 -0.996094 L 159.296875 28.960938 L 135.949219 151.253906 L -20.96875 121.296875 Z M 2.378906 -0.996094 " clip-rule="nonzero"/></clipPath></defs><g clip-path="url(#3957660f42)"><g clip-path="url(#3d3eb8d35e)"><g clip-path="url(#7d3e8e40cc)"><path fill="#a43424" d="M 146.183594 48.78125 C 143.035156 40.738281 138.261719 35.617188 132.609375 32.699219 C 125.136719 26.761719 114.621094 24.613281 105.25 26.257812 C 92.683594 28.472656 82.425781 36.84375 74.734375 46.800781 C 67.875 32.15625 58.535156 15.457031 40.878906 13.347656 C 35.085938 12.652344 30.027344 14.007812 25.75 16.644531 C 16.058594 18.640625 7.71875 25.980469 3.855469 35.527344 C -12.152344 75.128906 38.753906 115.785156 66.265625 134.707031 C 66.515625 134.882812 66.835938 134.542969 66.585938 134.339844 C 63.542969 131.875 60.355469 129.316406 57.117188 126.6875 C 61.195312 129.417969 65.339844 131.914062 69.480469 134.136719 L 68.277344 135.191406 C 67.160156 136.167969 68.464844 138.113281 69.589844 137.121094 C 70.28125 136.511719 70.992188 135.914062 71.691406 135.308594 C 72.867188 135.914062 74.042969 136.503906 75.214844 137.066406 C 75.773438 137.335938 76.160156 136.515625 75.640625 136.210938 C 74.652344 135.632812 73.667969 135.042969 72.679688 134.457031 C 91.46875 118.195312 112.164062 102.59375 128.71875 84.160156 C 137.972656 73.851562 145.761719 58.960938 141.191406 45.019531 C 146.398438 53.585938 146.425781 65.101562 138.644531 76.035156 C 122.359375 98.914062 97.4375 116.089844 76.242188 134.050781 C 75.0625 135.050781 76.363281 137.066406 77.617188 136.078125 C 96.214844 121.488281 114.691406 106.054688 130.890625 88.792969 C 141.074219 77.949219 152.34375 64.480469 146.183594 48.78125 Z M 102.097656 28.859375 C 109.355469 26.859375 116.625 27.394531 122.863281 29.828125 C 106.820312 28.03125 87.511719 37.953125 75.871094 49.285156 C 75.71875 48.949219 75.5625 48.613281 75.40625 48.285156 C 82.578125 39.640625 90.980469 31.917969 102.097656 28.859375 Z M 73.320312 48.691406 C 72.941406 49.210938 72.566406 49.726562 72.203125 50.253906 C 65.449219 36.179688 53.585938 21.535156 38.148438 17.09375 C 35.546875 16.34375 32.894531 16.011719 30.1875 16.09375 C 48.582031 7.839844 65.785156 33.144531 73.324219 48.6875 Z M 5.960938 66.058594 C 0.378906 48.964844 4.871094 25.914062 21.816406 19.636719 C 16.253906 24.726562 12.488281 32.195312 10.804688 39.824219 C 5.871094 62.25 13.898438 82.984375 27.65625 100.117188 C 18.0625 89.839844 10.035156 78.539062 5.960938 66.058594 Z M 107.789062 100.574219 L 70.550781 133.191406 C 44.988281 117.683594 21.144531 97.730469 13.785156 67.273438 C 10.210938 52.476562 10.691406 33.761719 21.929688 22.144531 C 23.226562 20.789062 24.632812 19.5625 26.148438 18.457031 C 28.761719 17.992188 31.394531 17.863281 34.042969 18.078125 C 50.691406 19.355469 64.386719 38.222656 70.988281 52.074219 C 70.308594 53.113281 69.644531 54.160156 69.019531 55.199219 C 68.792969 55.578125 69.398438 55.984375 69.660156 55.628906 C 70.269531 54.808594 70.902344 53.992188 71.527344 53.175781 C 71.847656 53.789062 72.585938 53.808594 73.015625 53.492188 C 73.203125 53.535156 73.363281 53.488281 73.496094 53.355469 C 84.417969 42.78125 96.742188 32.714844 112.648438 31.675781 C 120.886719 31.132812 128.085938 33.21875 133.582031 37.015625 C 139.078125 42.988281 141.828125 51.421875 139.675781 61.277344 C 135.992188 78.140625 120.007812 89.875 107.792969 100.574219 Z M 107.789062 100.574219 " fill-opacity="1" fill-rule="nonzero"/></g></g></g></svg>