<svg xmlns="http://www.w3.org/2000/svg" xmlns:xlink="http://www.w3.org/1999/xlink" width="200" zoomAndPan="magnify" viewBox="0 0 150 149.999998" height="200" preserveAspectRatio="xMidYMid meet" version="1.0"><defs><clipPath id="37d4b0d01c"><path d="M 48 12 L 84 12 L 84 47 L 48 47 Z M 48 12 " clip-rule="nonzero"/></clipPath><clipPath id="3ab543ddd5"><path d="M 46.640625 10.113281 L 85.84375 12.117188 L 84.023438 47.695312 L 44.820312 45.691406 Z M 46.640625 10.113281 " clip-rule="nonzero"/></clipPath><clipPath id="11a144bbb8"><path d="M 46.640625 10.113281 L 85.84375 12.117188 L 84.023438 47.695312 L 44.820312 45.691406 Z M 46.640625 10.113281 " clip-rule="nonzero"/></clipPath><clipPath id="febcf9ac6b"><path d="M 56 57 L 85 57 L 85 86 L 56 86 Z M 56 57 " clip-rule="nonzero"/></clipPath><clipPath id="46ba92f295"><path d="M 62.097656 53.132812 L 89.296875 69.984375 L 74 94.671875 L 46.800781 77.824219 Z M 62.097656 53.132812 " clip-rule="nonzero"/></clipPath><clipPath id="8037db854a"><path d="M 62.097656 53.132812 L 89.296875 69.984375 L 74 94.671875 L 46.800781 77.824219 Z M 62.097656 53.132812 " clip-rule="nonzero"/></clipPath><clipPath id="8b3b05c004"><path d="M 35 125 L 58 125 L 58 148 L 35 148 Z M 35 125 " clip-rule="nonzero"/></clipPath><clipPath id="838fbe7e2a"><path d="M 40.332031 121.1875 L 61.703125 136.160156 L 48.164062 155.484375 L 26.792969 140.511719 Z M 40.332031 121.1875 " clip-rule="nonzero"/></clipPath><clipPath id="2d8d8e2360"><path d="M 40.332031 121.1875 L 61.703125 136.160156 L 48.164062 155.484375 L 26.792969 140.511719 Z M 40.332031 121.1875 " clip-rule="nonzero"/></clipPath><clipPath id="30f2e3ac49"><path d="M 63 96 L 91 96 L 91 124 L 63 124 Z M 63 96 " clip-rule="nonzero"/></clipPath><clipPath id="c4ee4b69e1"><path d="M 70.867188 91.601562 L 95.835938 111.605469 L 77.675781 134.273438 L 52.707031 114.269531 Z M 70.867188 91.601562 " clip-rule="nonzero"/></clipPath><clipPath id="56a70760cc"><path d="M 70.867188 91.601562 L 95.835938 111.605469 L 77.675781 134.273438 L 52.707031 114.269531 Z M 70.867188 91.601562 " clip-rule="nonzero"/></clipPath><clipPath id="a816c06d46"><path d="M 27 93 L 50 93 L 50 116 L 27 116 Z M 27 93 " clip-rule="nonzero"/></clipPath><clipPath id="b6189f2d6d"><path d="M 24.980469 94.484375 L 49.6875 90.917969 L 52.925781 113.375 L 28.222656 116.941406 Z M 24.980469 94.484375 " clip-rule="nonzero"/></clipPath><clipPath id="9d87c4647b"><path d="M 24.980469 94.484375 L 49.6875 90.917969 L 52.925781 113.375 L 28.222656 116.941406 Z M 24.980469 94.484375 " clip-rule="nonzero"/></clipPath><clipPath id="0c4615a01e"><path d="M 98 3 L 137 3 L 137 42 L 98 42 Z M 98 3 " clip-rule="nonzero"/></clipPath><clipPath id="c369867c5a"><path d="M 109.011719 -3.085938 L 143.859375 24.542969 L 118.910156 56.011719 L 84.058594 28.382812 Z M 109.011719 -3.085938 " clip-rule="nonzero"/></clipPath><clipPath id="ee6c8a3f7d"><path d="M 109.011719 -3.085938 L 143.859375 24.542969 L 118.910156 56.011719 L 84.058594 28.382812 Z M 109.011719 -3.085938 " clip-rule="nonzero"/></clipPath></defs><g clip-path="url(#37d4b0d01c)"><g clip-path="url(#3ab543ddd5)"><g clip-path="url(#11a144bbb8)"><path fill="#c86b46" d="M 82.238281 18.851562 C 82.085938 18.597656 81.917969 18.355469 81.730469 18.125 C 81.625 17.667969 81.449219 17.234375 81.210938 16.828125 C 78.203125 11.75 72.382812 16.929688 70.109375 19.785156 C 67.824219 22.671875 66.132812 25.875 65.039062 29.394531 C 64.992188 29.164062 64.941406 28.929688 64.890625 28.699219 C 64.511719 25.207031 63.765625 21.75 62.539062 18.488281 C 61.757812 16.402344 60.515625 14.246094 58.207031 13.636719 C 57.945312 13.566406 57.679688 13.523438 57.410156 13.507812 C 55.085938 12.277344 52.328125 12.539062 50.054688 15.1875 C 46.148438 19.75 48.910156 26.804688 51.160156 31.460938 C 53.617188 36.554688 57.050781 41.058594 61.242188 44.8125 L 61.199219 44.839844 C 60.457031 45.324219 61.097656 46.386719 61.882812 46.160156 L 62.570312 45.957031 C 62.675781 46.046875 62.78125 46.136719 62.890625 46.226562 C 63.128906 46.417969 63.550781 46.480469 63.800781 46.273438 C 66.457031 44.050781 68.914062 41.628906 71.175781 39.007812 C 73.085938 37.257812 74.878906 35.402344 76.5625 33.4375 C 79.582031 29.902344 85.222656 23.890625 82.238281 18.851562 Z M 78.566406 16.433594 C 77.21875 16.324219 75.773438 16.75 74.449219 17.449219 C 75.613281 16.59375 77.144531 15.871094 78.566406 16.433594 Z M 54.203125 33.988281 C 51.722656 29.820312 48.675781 23.8125 49.863281 18.820312 C 50.40625 16.535156 52.445312 14.285156 54.84375 14.222656 C 54.21875 14.640625 53.714844 15.175781 53.328125 15.820312 C 50.777344 20.050781 52.699219 27.210938 54.175781 31.535156 C 55.089844 34.210938 56.308594 36.734375 57.832031 39.113281 C 56.492188 37.5 55.28125 35.789062 54.203125 33.988281 Z M 70.675781 37.445312 C 68.320312 39.65625 65.816406 41.679688 63.160156 43.519531 C 57.636719 37.6875 54.242188 30.015625 53.835938 21.949219 C 53.71875 19.671875 54.023438 14.496094 57.308594 14.972656 C 59.273438 16.292969 60.210938 19.035156 61 21.140625 C 62 23.828125 62.8125 26.570312 63.4375 29.371094 C 63.695312 31.828125 63.773438 34.292969 63.671875 36.761719 C 63.640625 37.605469 64.796875 37.914062 65.085938 37.269531 C 65.207031 37.316406 65.332031 37.328125 65.460938 37.3125 C 65.589844 37.296875 65.707031 37.25 65.8125 37.175781 C 65.917969 37.101562 66.003906 37.007812 66.0625 36.894531 C 66.125 36.777344 66.15625 36.65625 66.15625 36.527344 C 66.324219 31.488281 67.953125 26.574219 71.003906 22.535156 C 72.527344 20.515625 74.558594 18.195312 77.246094 17.929688 C 78.671875 17.792969 79.683594 18.183594 80.355469 18.871094 C 80.46875 19.839844 80.25 20.894531 79.96875 21.757812 C 78.128906 27.398438 74.722656 32.757812 70.675781 37.445312 Z M 77.675781 29.910156 C 79.027344 27.621094 80.269531 25.230469 81.1875 22.753906 C 81.269531 22.535156 81.347656 22.3125 81.417969 22.085938 C 81.390625 23.125 81.160156 24.121094 80.726562 25.066406 C 79.945312 26.742188 78.878906 28.363281 77.675781 29.910156 Z M 77.675781 29.910156 " fill-opacity="1" fill-rule="nonzero"/></g></g></g><g clip-path="url(#febcf9ac6b)"><g clip-path="url(#46ba92f295)"><g clip-path="url(#8037db854a)"><path fill="#c86b46" d="M 84.132812 73.425781 C 84.125 73.183594 84.101562 72.945312 84.058594 72.707031 C 84.160156 72.335938 84.207031 71.957031 84.195312 71.574219 C 84.046875 66.75 77.835938 68.164062 75.085938 69.3125 C 72.308594 70.476562 69.835938 72.105469 67.664062 74.191406 C 67.722656 74.003906 67.777344 73.820312 67.832031 73.632812 C 68.9375 70.984375 69.769531 68.214844 70.179688 65.398438 C 70.441406 63.597656 70.402344 61.5625 68.988281 60.214844 C 68.828125 60.0625 68.65625 59.929688 68.46875 59.808594 C 67.292969 58.015625 65.214844 57.109375 62.542969 58.113281 C 57.945312 59.835938 57.140625 65.972656 56.914062 70.195312 C 56.667969 74.808594 57.347656 79.386719 58.867188 83.726562 L 58.824219 83.730469 C 58.105469 83.785156 58.140625 84.800781 58.792969 84.945312 L 59.367188 85.074219 C 59.40625 85.179688 59.445312 85.285156 59.492188 85.390625 C 59.585938 85.621094 59.859375 85.832031 60.125 85.78125 C 62.902344 85.238281 65.617188 84.476562 68.269531 83.492188 C 70.324219 82.992188 72.339844 82.371094 74.320312 81.628906 C 77.875 80.289062 84.285156 78.210938 84.132812 73.425781 Z M 82.460938 70.25 C 81.539062 69.640625 80.335938 69.371094 79.113281 69.351562 C 80.28125 69.199219 81.664062 69.285156 82.460938 70.25 Z M 58.097656 73.207031 C 57.964844 69.242188 58.15625 63.742188 60.972656 60.636719 C 62.261719 59.214844 64.609375 58.410156 66.351562 59.308594 C 65.738281 59.363281 65.167969 59.546875 64.636719 59.855469 C 61.140625 61.875 59.695312 67.761719 59.042969 71.4375 C 58.644531 73.710938 58.519531 76 58.675781 78.304688 C 58.351562 76.621094 58.15625 74.921875 58.097656 73.207031 Z M 68.523438 82.175781 C 65.96875 82.828125 63.375 83.289062 60.75 83.558594 C 59.097656 77.207031 59.691406 70.375 62.582031 64.445312 C 63.398438 62.765625 65.65625 59.183594 67.820312 60.820312 C 68.703125 62.539062 68.296875 64.871094 68.03125 66.6875 C 67.6875 69.007812 67.183594 71.292969 66.527344 73.542969 C 65.742188 75.402344 64.828125 77.199219 63.78125 78.925781 C 63.425781 79.515625 64.132812 80.191406 64.589844 79.847656 C 64.660156 79.925781 64.746094 79.984375 64.84375 80.023438 C 64.941406 80.0625 65.042969 80.078125 65.148438 80.066406 C 65.253906 80.054688 65.351562 80.019531 65.441406 79.960938 C 65.53125 79.902344 65.601562 79.828125 65.652344 79.734375 C 67.761719 76.195312 70.863281 73.320312 74.640625 71.632812 C 76.523438 70.789062 78.894531 69.925781 80.921875 70.800781 C 82 71.261719 82.570312 71.941406 82.777344 72.699219 C 82.476562 73.433594 81.90625 74.105469 81.363281 74.613281 C 77.824219 77.925781 73.269531 80.417969 68.523438 82.175781 Z M 76.507812 79.542969 C 78.378906 78.4375 80.207031 77.214844 81.839844 75.804688 C 81.988281 75.679688 82.128906 75.550781 82.269531 75.417969 C 81.84375 76.152344 81.285156 76.773438 80.601562 77.277344 C 79.378906 78.171875 77.976562 78.910156 76.507812 79.542969 Z M 76.507812 79.542969 " fill-opacity="1" fill-rule="nonzero"/></g></g></g><g clip-path="url(#8b3b05c004)"><g clip-path="url(#838fbe7e2a)"><g clip-path="url(#2d8d8e2360)"><path fill="#c86b46" d="M 57.355469 138.738281 C 57.359375 138.542969 57.351562 138.34375 57.328125 138.148438 C 57.429688 137.851562 57.484375 137.546875 57.492188 137.230469 C 57.589844 133.292969 52.464844 134.160156 50.171875 134.96875 C 47.855469 135.789062 45.765625 137.003906 43.898438 138.601562 C 43.953125 138.453125 44.007812 138.304688 44.0625 138.15625 C 45.085938 136.046875 45.886719 133.828125 46.351562 131.550781 C 46.648438 130.097656 46.710938 128.4375 45.621094 127.273438 C 45.5 127.144531 45.363281 127.023438 45.21875 126.921875 C 44.339844 125.402344 42.6875 124.570312 40.464844 125.265625 C 36.640625 126.457031 35.703125 131.421875 35.324219 134.851562 C 34.90625 138.601562 35.25 142.363281 36.289062 145.96875 L 36.253906 145.972656 C 35.664062 145.980469 35.648438 146.808594 36.175781 146.957031 L 36.636719 147.089844 C 36.664062 147.175781 36.691406 147.265625 36.722656 147.351562 C 36.789062 147.546875 37.003906 147.730469 37.21875 147.703125 C 39.507812 147.386719 41.753906 146.890625 43.960938 146.210938 C 45.660156 145.898438 47.332031 145.484375 48.980469 144.972656 C 51.9375 144.042969 57.257812 142.644531 57.355469 138.738281 Z M 56.136719 136.074219 C 55.414062 135.53125 54.449219 135.261719 53.453125 135.1875 C 54.410156 135.117188 55.53125 135.25 56.136719 136.074219 Z M 36.148438 137.359375 C 36.222656 134.125 36.628906 129.648438 39.070312 127.25 C 40.1875 126.148438 42.136719 125.601562 43.515625 126.414062 C 43.011719 126.429688 42.539062 126.554688 42.089844 126.78125 C 39.148438 128.265625 37.699219 132.996094 37 135.960938 C 36.570312 137.796875 36.363281 139.65625 36.382812 141.542969 C 36.195312 140.152344 36.117188 138.757812 36.148438 137.359375 Z M 44.230469 145.152344 C 42.117188 145.5625 39.984375 145.820312 37.832031 145.917969 C 36.777344 140.664062 37.578125 135.125 40.207031 130.425781 C 40.949219 129.097656 42.953125 126.28125 44.644531 127.710938 C 45.28125 129.15625 44.84375 131.039062 44.542969 132.507812 C 44.15625 134.378906 43.640625 136.21875 43.003906 138.023438 C 42.277344 139.503906 41.449219 140.921875 40.515625 142.28125 C 40.199219 142.746094 40.746094 143.332031 41.132812 143.070312 C 41.1875 143.136719 41.253906 143.191406 41.332031 143.226562 C 41.410156 143.261719 41.492188 143.277344 41.578125 143.273438 C 41.664062 143.269531 41.746094 143.246094 41.820312 143.203125 C 41.894531 143.160156 41.957031 143.101562 42.003906 143.03125 C 43.886719 140.242188 46.546875 138.042969 49.699219 136.839844 C 51.277344 136.238281 53.246094 135.644531 54.859375 136.449219 C 55.714844 136.878906 56.148438 137.457031 56.285156 138.082031 C 56.003906 138.667969 55.507812 139.191406 55.042969 139.578125 C 52.003906 142.113281 48.179688 143.933594 44.230469 145.152344 Z M 50.859375 143.371094 C 52.433594 142.558594 53.980469 141.644531 55.378906 140.574219 C 55.5 140.476562 55.625 140.378906 55.746094 140.277344 C 55.363281 140.855469 54.878906 141.335938 54.296875 141.714844 C 53.261719 142.386719 52.085938 142.921875 50.859375 143.371094 Z M 50.859375 143.371094 " fill-opacity="1" fill-rule="nonzero"/></g></g></g><g clip-path="url(#30f2e3ac49)"><g clip-path="url(#c4ee4b69e1)"><g clip-path="url(#56a70760cc)"><path fill="#c86b46" d="M 90.296875 114.402344 C 90.320312 114.160156 90.324219 113.921875 90.308594 113.679688 C 90.457031 113.324219 90.546875 112.953125 90.582031 112.570312 C 91.015625 107.765625 84.679688 108.417969 81.8125 109.226562 C 78.914062 110.050781 76.261719 111.367188 73.855469 113.175781 C 73.9375 113 74.011719 112.820312 74.089844 112.644531 C 75.507812 110.148438 76.664062 107.496094 77.410156 104.75 C 77.890625 102.992188 78.09375 100.972656 76.855469 99.464844 C 76.714844 99.292969 76.558594 99.136719 76.386719 98.996094 C 75.4375 97.074219 73.480469 95.925781 70.707031 96.597656 C 65.9375 97.757812 64.402344 103.753906 63.667969 107.914062 C 62.863281 112.464844 62.988281 117.09375 63.972656 121.585938 L 63.933594 121.582031 C 63.210938 121.546875 63.125 122.558594 63.753906 122.78125 L 64.308594 122.980469 C 64.335938 123.089844 64.363281 123.199219 64.390625 123.308594 C 64.457031 123.550781 64.707031 123.792969 64.972656 123.777344 C 67.796875 123.570312 70.582031 123.140625 73.335938 122.484375 C 75.433594 122.234375 77.511719 121.859375 79.566406 121.363281 C 83.257812 120.460938 89.871094 119.167969 90.296875 114.402344 Z M 89.019531 111.046875 C 88.175781 110.328125 87.015625 109.921875 85.804688 109.75 C 86.984375 109.742188 88.34375 109.996094 89.019531 111.046875 Z M 64.476562 111.046875 C 64.824219 107.09375 65.675781 101.660156 68.847656 98.914062 C 70.296875 97.65625 72.726562 97.140625 74.347656 98.246094 C 73.730469 98.226562 73.140625 98.335938 72.578125 98.582031 C 68.863281 100.164062 66.71875 105.832031 65.628906 109.40625 C 64.960938 111.613281 64.5625 113.871094 64.4375 116.175781 C 64.316406 114.464844 64.332031 112.753906 64.476562 111.046875 Z M 73.746094 121.207031 C 71.128906 121.546875 68.503906 121.691406 65.863281 121.644531 C 64.988281 115.136719 66.402344 108.429688 69.984375 102.886719 C 70.996094 101.320312 73.671875 98.035156 75.625 99.921875 C 76.292969 101.734375 75.605469 104 75.121094 105.773438 C 74.503906 108.035156 73.730469 110.242188 72.804688 112.394531 C 71.804688 114.148438 70.679688 115.820312 69.429688 117.410156 C 69.007812 117.949219 69.628906 118.707031 70.125 118.421875 C 70.183594 118.507812 70.261719 118.578125 70.355469 118.628906 C 70.445312 118.679688 70.546875 118.703125 70.652344 118.707031 C 70.757812 118.707031 70.859375 118.683594 70.953125 118.636719 C 71.046875 118.589844 71.128906 118.523438 71.191406 118.4375 C 73.710938 115.179688 77.136719 112.699219 81.089844 111.476562 C 83.0625 110.867188 85.519531 110.296875 87.425781 111.40625 C 88.441406 111.996094 88.925781 112.738281 89.039062 113.515625 C 88.652344 114.210938 88.003906 114.808594 87.40625 115.246094 C 83.492188 118.105469 78.671875 120.03125 73.746094 121.207031 Z M 81.992188 119.554688 C 83.980469 118.683594 85.945312 117.691406 87.734375 116.488281 C 87.894531 116.382812 88.054688 116.269531 88.207031 116.152344 C 87.695312 116.832031 87.066406 117.382812 86.324219 117.800781 C 85.007812 118.539062 83.527344 119.101562 81.992188 119.554688 Z M 81.992188 119.554688 " fill-opacity="1" fill-rule="nonzero"/></g></g></g><g clip-path="url(#a816c06d46)"><g clip-path="url(#b6189f2d6d)"><g clip-path="url(#9d87c4647b)"><path fill="#c86b46" d="M 48.375 95.566406 C 48.25 95.425781 48.113281 95.292969 47.96875 95.171875 C 47.84375 94.898438 47.679688 94.648438 47.480469 94.425781 C 44.96875 91.613281 41.957031 95.578125 40.886719 97.648438 C 39.8125 99.738281 39.144531 101.957031 38.894531 104.296875 C 38.835938 104.15625 38.777344 104.019531 38.714844 103.878906 C 38.046875 101.738281 37.152344 99.660156 35.984375 97.769531 C 35.234375 96.558594 34.191406 95.359375 32.667969 95.261719 C 32.496094 95.25 32.324219 95.257812 32.152344 95.28125 C 30.542969 94.796875 28.847656 95.300781 27.75 97.242188 C 25.863281 100.582031 28.464844 104.664062 30.449219 107.304688 C 32.617188 110.195312 35.324219 112.59375 38.417969 114.429688 L 38.394531 114.453125 C 37.988281 114.847656 38.519531 115.4375 38.984375 115.195312 L 39.390625 114.984375 C 39.46875 115.027344 39.546875 115.070312 39.625 115.113281 C 39.796875 115.203125 40.070312 115.191406 40.203125 115.027344 C 41.59375 113.308594 42.835938 111.488281 43.929688 109.566406 C 44.910156 108.234375 45.804688 106.847656 46.617188 105.410156 C 48.074219 102.820312 50.867188 98.355469 48.375 95.566406 Z M 45.777344 94.503906 C 44.917969 94.601562 44.0625 95.042969 43.320312 95.648438 C 43.945312 94.96875 44.8125 94.328125 45.777344 94.503906 Z M 32.667969 108.515625 C 30.597656 106.207031 27.949219 102.816406 28.078125 99.542969 C 28.132812 98.042969 29.136719 96.378906 30.632812 96.042969 C 30.292969 96.382812 30.042969 96.78125 29.878906 97.234375 C 28.800781 100.199219 30.890625 104.449219 32.347656 106.980469 C 33.25 108.542969 34.328125 109.976562 35.578125 111.277344 C 34.535156 110.433594 33.566406 109.511719 32.667969 108.515625 Z M 43.421875 108.648438 C 42.21875 110.324219 40.898438 111.902344 39.460938 113.382812 C 35.277344 110.40625 32.203125 106.019531 30.953125 101.011719 C 30.601562 99.597656 30.152344 96.316406 32.269531 96.210938 C 33.664062 96.796875 34.589844 98.398438 35.34375 99.621094 C 36.304688 101.183594 37.152344 102.800781 37.886719 104.480469 C 38.355469 105.988281 38.707031 107.523438 38.949219 109.082031 C 39.03125 109.617188 39.792969 109.667969 39.894531 109.230469 C 39.976562 109.242188 40.058594 109.234375 40.136719 109.207031 C 40.214844 109.183594 40.28125 109.140625 40.339844 109.078125 C 40.398438 109.019531 40.4375 108.949219 40.460938 108.871094 C 40.488281 108.792969 40.492188 108.710938 40.476562 108.628906 C 39.960938 105.449219 40.375 102.167969 41.785156 99.261719 C 42.492188 97.808594 43.480469 96.101562 45.132812 95.605469 C 46.007812 95.34375 46.691406 95.460938 47.195312 95.808594 C 47.386719 96.402344 47.382812 97.089844 47.3125 97.667969 C 46.855469 101.429688 45.378906 105.210938 43.421875 108.648438 Z M 46.878906 103.058594 C 47.445312 101.457031 47.925781 99.804688 48.195312 98.144531 C 48.222656 97.996094 48.242188 97.84375 48.257812 97.695312 C 48.371094 98.347656 48.351562 99 48.195312 99.648438 C 47.910156 100.796875 47.441406 101.941406 46.878906 103.058594 Z M 46.878906 103.058594 " fill-opacity="1" fill-rule="nonzero"/></g></g></g><g clip-path="url(#0c4615a01e)"><g clip-path="url(#c369867c5a)"><g clip-path="url(#ee6c8a3f7d)"><path fill="#c86b46" d="M 136.078125 28.347656 C 136.105469 28.015625 136.109375 27.679688 136.089844 27.34375 C 136.289062 26.851562 136.414062 26.339844 136.460938 25.808594 C 137.023438 19.152344 128.257812 20.101562 124.289062 21.242188 C 120.285156 22.402344 116.621094 24.242188 113.300781 26.765625 C 113.410156 26.523438 113.515625 26.277344 113.621094 26.03125 C 115.566406 22.558594 117.152344 18.882812 118.164062 15.074219 C 118.816406 12.636719 119.085938 9.835938 117.355469 7.753906 C 117.160156 7.519531 116.945312 7.304688 116.707031 7.113281 C 115.375 4.457031 112.660156 2.882812 108.824219 3.832031 C 102.226562 5.46875 100.140625 13.785156 99.15625 19.554688 C 98.074219 25.859375 98.277344 32.265625 99.671875 38.480469 L 99.617188 38.480469 C 98.617188 38.4375 98.507812 39.839844 99.382812 40.144531 L 100.148438 40.410156 C 100.1875 40.5625 100.226562 40.714844 100.269531 40.867188 C 100.359375 41.203125 100.707031 41.535156 101.078125 41.507812 C 104.984375 41.203125 108.839844 40.585938 112.644531 39.660156 C 115.550781 39.300781 118.425781 38.765625 121.269531 38.0625 C 126.375 36.789062 135.523438 34.953125 136.078125 28.347656 Z M 134.285156 23.710938 C 133.113281 22.722656 131.503906 22.164062 129.824219 21.941406 C 131.457031 21.917969 133.339844 22.257812 134.285156 23.710938 Z M 100.296875 23.882812 C 100.75 18.410156 101.890625 10.875 106.261719 7.054688 C 108.261719 5.300781 111.625 4.570312 113.875 6.085938 C 113.023438 6.0625 112.207031 6.222656 111.425781 6.566406 C 106.296875 8.785156 103.367188 16.648438 101.882812 21.605469 C 100.96875 24.667969 100.433594 27.796875 100.277344 30.992188 C 100.101562 28.621094 100.109375 26.25 100.296875 23.882812 Z M 113.207031 37.890625 C 109.585938 38.378906 105.949219 38.597656 102.292969 38.550781 C 101.035156 29.546875 102.945312 20.246094 107.867188 12.546875 C 109.257812 10.371094 112.9375 5.804688 115.65625 8.398438 C 116.59375 10.90625 115.660156 14.050781 115.003906 16.507812 C 114.160156 19.640625 113.105469 22.703125 111.84375 25.695312 C 110.464844 28.128906 108.921875 30.453125 107.203125 32.660156 C 106.617188 33.414062 107.484375 34.460938 108.171875 34.054688 C 108.253906 34.175781 108.359375 34.273438 108.488281 34.339844 C 108.621094 34.410156 108.757812 34.445312 108.902344 34.449219 C 109.050781 34.449219 109.191406 34.417969 109.320312 34.351562 C 109.453125 34.285156 109.558594 34.191406 109.648438 34.074219 C 113.113281 29.539062 117.839844 26.082031 123.304688 24.363281 C 126.035156 23.503906 129.433594 22.699219 132.082031 24.222656 C 133.488281 25.03125 134.164062 26.054688 134.332031 27.128906 C 133.800781 28.097656 132.90625 28.925781 132.078125 29.535156 C 126.679688 33.527344 120.015625 36.226562 113.207031 37.890625 Z M 124.613281 35.542969 C 127.359375 34.324219 130.074219 32.933594 132.546875 31.253906 C 132.765625 31.105469 132.984375 30.953125 133.199219 30.789062 C 132.492188 31.734375 131.625 32.496094 130.601562 33.082031 C 128.78125 34.113281 126.734375 34.90625 124.613281 35.542969 Z M 124.613281 35.542969 " fill-opacity="1" fill-rule="nonzero"/></g></g></g></svg>