<svg xmlns="http://www.w3.org/2000/svg" xmlns:xlink="http://www.w3.org/1999/xlink" width="200" zoomAndPan="magnify" viewBox="0 0 150 74.999997" height="100" preserveAspectRatio="xMidYMid meet" version="1.0"><defs><clipPath id="013f0b684e"><path d="M 26.140625 0 L 123 0 L 123 75 L 26.140625 75 Z M 26.140625 0 " clip-rule="nonzero"/></clipPath></defs><g clip-path="url(#013f0b684e)"><path fill="#f5e8d8" d="M 121.898438 41.902344 C 120.976562 39.007812 120.378906 36.117188 119.722656 33.140625 C 118.992188 30.128906 118.269531 27.117188 117.449219 24.128906 C 117.066406 21.621094 116.496094 19.148438 115.816406 16.710938 C 115.453125 15.664062 113.847656 8.765625 112.902344 9.039062 C 112.898438 9.039062 112.898438 9.039062 112.898438 9.042969 C 112.898438 9.042969 112.898438 9.046875 112.898438 9.050781 C 112.304688 9.566406 112.679688 10.320312 112.785156 10.980469 C 113.113281 12.3125 113.417969 13.65625 113.738281 14.992188 C 114.378906 17.839844 115.191406 20.621094 115.71875 23.5 C 116.511719 26.5 117.449219 29.507812 118.253906 32.515625 C 119.121094 35.542969 119.835938 38.601562 120.746094 41.613281 C 120.894531 43.039062 121.480469 44.652344 120.96875 46.035156 C 119.304688 46.449219 117.753906 47.265625 116.070312 47.664062 C 113.15625 48.515625 110.375 49.828125 107.496094 50.820312 C 104.6875 51.855469 101.882812 52.890625 99.078125 53.945312 C 95.113281 55.589844 91.148438 57.292969 86.941406 58.242188 C 79.941406 60.105469 72.863281 61.855469 65.914062 63.96875 C 63.347656 64.742188 60.664062 65.269531 58.214844 66.34375 C 58.152344 66.359375 58.085938 66.367188 58.023438 66.382812 C 52.726562 67.808594 47.511719 69.546875 42.339844 71.382812 C 40.71875 71.898438 39.167969 72.621094 37.527344 73.0625 C 37.46875 72.863281 37.410156 72.664062 37.351562 72.464844 C 36.878906 70.75 36.671875 68.957031 36.289062 67.222656 C 35.910156 65.523438 35.507812 63.839844 35.203125 62.125 C 34.207031 57.902344 33.308594 53.671875 32.460938 49.414062 C 31.554688 44.105469 30.617188 38.753906 29.585938 33.453125 C 29.539062 33.15625 29.453125 32.871094 29.347656 32.59375 C 29.285156 32 29.222656 31.40625 29.191406 30.8125 C 29.136719 30.316406 29.109375 29.808594 29.074219 29.304688 C 29.125 29.332031 29.171875 29.371094 29.222656 29.398438 C 35.230469 32.234375 41.5 34.449219 47.890625 36.25 C 48.335938 36.390625 48.785156 36.515625 49.238281 36.621094 C 50.089844 36.851562 50.9375 37.105469 51.789062 37.320312 C 52.015625 37.363281 52.25 37.386719 52.480469 37.386719 C 52.523438 37.386719 52.566406 37.371094 52.609375 37.367188 C 54.671875 37.835938 56.734375 38.277344 58.835938 38.613281 C 58.835938 38.613281 58.835938 38.613281 58.839844 38.613281 C 58.84375 38.617188 58.851562 38.617188 58.859375 38.617188 C 58.855469 38.617188 58.855469 38.617188 58.851562 38.617188 C 58.859375 38.617188 58.863281 38.621094 58.871094 38.621094 C 58.882812 38.621094 58.894531 38.625 58.910156 38.625 C 58.898438 38.625 58.886719 38.625 58.878906 38.621094 C 61.941406 39.167969 65.097656 39.601562 68.21875 39.738281 C 68.488281 39.761719 68.753906 39.769531 69.023438 39.769531 C 69.746094 39.769531 70.453125 39.679688 71.15625 39.546875 C 72.4375 41.542969 73.949219 43.027344 75.433594 42.972656 C 75.582031 42.949219 75.703125 42.867188 75.804688 42.765625 C 75.902344 42.742188 75.988281 42.6875 76.027344 42.582031 C 76.105469 42.53125 76.136719 42.4375 76.144531 42.347656 C 76.292969 42.042969 76.445312 41.746094 76.597656 41.445312 C 77.144531 40.664062 77.445312 39.707031 77.863281 38.851562 C 78.320312 37.875 78.734375 36.855469 79.082031 35.808594 C 80.558594 35.023438 81.953125 34.03125 83.429688 33.214844 C 85.472656 32.394531 87.238281 31.027344 88.910156 29.621094 C 90.847656 28.09375 92.792969 26.558594 94.566406 24.828125 C 99.207031 20.671875 104.074219 16.804688 108.574219 12.496094 C 110.023438 11.066406 111.378906 9.664062 112.425781 7.886719 C 112.597656 7.472656 112.9375 7.09375 113.019531 6.632812 C 113.0625 6.453125 113.039062 6.277344 113.023438 6.105469 C 113.058594 6.03125 113.101562 5.972656 113.125 5.871094 C 113.347656 4.386719 113.085938 2.765625 112.808594 1.265625 C 112.699219 0.628906 112.332031 0.324219 111.941406 0.25 C 111.859375 0.175781 111.757812 0.117188 111.617188 0.101562 C 110.984375 -0.09375 110.308594 0.0507812 109.664062 0.113281 C 107.484375 0.242188 105.4375 0.640625 103.273438 1.050781 C 99.183594 1.757812 95.074219 2.40625 91.042969 3.410156 C 84.066406 4.972656 77.1875 6.988281 70.148438 8.277344 C 67.917969 8.589844 65.625 9.191406 63.480469 9.90625 C 62.3125 10.230469 61.140625 10.535156 59.988281 10.894531 C 59.75 10.929688 59.511719 10.921875 59.277344 10.972656 C 56.523438 11.542969 53.796875 12.226562 51.09375 12.980469 C 46.375 14.027344 41.632812 14.917969 36.894531 15.863281 C 34.355469 16.21875 31.828125 16.605469 29.324219 17.132812 C 28.414062 17.441406 26.644531 17.550781 26.546875 18.6875 C 26.179688 20 26.332031 24.015625 27.179688 25.875 C 27.21875 26.28125 27.265625 26.691406 27.378906 27.132812 C 27.390625 27.183594 27.414062 27.226562 27.429688 27.277344 C 27.425781 29.15625 28.25 30.980469 28.503906 32.855469 C 28.503906 32.855469 28.503906 32.855469 28.503906 32.859375 C 28.539062 33.710938 28.761719 34.558594 28.792969 35.417969 C 29.457031 40.558594 30.582031 45.617188 31.367188 50.734375 C 32.324219 56.238281 32.917969 61.808594 34.234375 67.25 C 34.722656 69.601562 35.171875 71.972656 36.296875 74.121094 C 36.40625 74.339844 36.589844 74.535156 36.808594 74.644531 C 36.933594 74.699219 37.070312 74.730469 37.203125 74.738281 C 37.324219 74.84375 37.453125 74.9375 37.605469 74.960938 C 38.878906 74.929688 39.957031 74.160156 41.203125 73.757812 C 44.996094 72.34375 48.851562 70.914062 52.796875 69.90625 C 55.1875 69.210938 57.519531 68.34375 59.847656 67.480469 C 60.675781 67.429688 61.503906 67.351562 62.324219 67.195312 C 65.695312 66.386719 69.070312 65.523438 72.351562 64.386719 C 76.398438 63.109375 80.507812 62.054688 84.546875 60.753906 C 86.992188 59.871094 89.324219 58.714844 91.703125 57.667969 C 94.703125 56.605469 97.703125 55.535156 100.714844 54.496094 C 105.554688 53.164062 110.414062 51.839844 115.132812 50.113281 C 117.164062 49.558594 119.101562 48.730469 120.960938 47.746094 C 121.171875 47.628906 121.414062 47.535156 121.644531 47.425781 C 123.929688 47.066406 122.367188 43.777344 121.898438 41.902344 Z M 75.816406 41.347656 C 75.753906 41.46875 75.695312 41.585938 75.636719 41.707031 C 75.609375 41.75 75.585938 41.800781 75.558594 41.847656 C 73.183594 41.964844 71.1875 37.261719 70.4375 35.363281 C 69.71875 33.449219 68.703125 31.4375 69.226562 29.355469 C 69.398438 28.570312 69.757812 27.671875 70.648438 27.523438 C 72.058594 27.710938 72.589844 29.488281 72.855469 30.695312 C 72.957031 31.320312 72.699219 32.25 73.535156 32.453125 C 74.453125 32.5625 74.242188 31.113281 74.542969 30.53125 C 75.046875 28.667969 76.246094 25.5625 78.675781 26.25 C 79.660156 30.988281 77.707031 36.871094 75.816406 41.347656 Z M 33.488281 18.09375 C 37.421875 17.285156 41.273438 16.179688 45.167969 15.195312 C 50.351562 13.964844 55.546875 13.003906 60.769531 11.8125 C 61.144531 11.699219 61.5 11.527344 61.871094 11.386719 C 63.214844 11.164062 64.566406 10.949219 65.851562 10.488281 C 70.21875 9.703125 74.734375 9.042969 79.039062 7.855469 C 86.453125 6.171875 93.738281 3.96875 101.289062 2.941406 C 104.226562 2.453125 107.152344 1.941406 110.09375 1.484375 C 110.335938 1.460938 110.625 1.417969 110.910156 1.410156 C 110.945312 1.550781 110.988281 1.691406 111.082031 1.847656 C 111.480469 3.128906 111.792969 4.5625 112.246094 5.855469 C 112.246094 5.9375 112.25 6.019531 112.238281 6.097656 C 106.605469 12.027344 101.113281 18.296875 94.785156 23.574219 C 91.777344 25.996094 88.398438 27.917969 85.042969 29.8125 C 83.910156 30.695312 82.851562 31.691406 81.785156 32.660156 C 81.183594 33.21875 80.53125 33.746094 79.886719 34.285156 C 79.742188 34.375 79.601562 34.464844 79.457031 34.550781 C 80.199219 31.847656 80.460938 29.011719 79.847656 26.304688 C 79.558594 25 78.066406 24.660156 76.929688 25.011719 C 75.128906 25.550781 74.175781 27.414062 73.539062 29.054688 C 71.476562 24.785156 68.113281 26.089844 67.90625 30.476562 C 67.863281 32.140625 68.890625 35.460938 70.402344 38.265625 C 67.414062 38.425781 64.425781 37.800781 61.445312 37.582031 C 57.054688 37.339844 52.75 36.453125 48.441406 35.652344 C 47.273438 35.320312 46.101562 34.996094 44.9375 34.648438 C 40.78125 33.421875 36.84375 31.589844 32.890625 29.84375 C 31.566406 29.1875 29.699219 28.867188 28.898438 27.554688 C 28.890625 27.484375 28.890625 27.414062 28.878906 27.347656 C 28.808594 26.941406 28.671875 26.558594 28.5 26.191406 C 28.441406 25.808594 28.347656 25.433594 28.257812 25.058594 C 28.253906 24.996094 28.246094 24.929688 28.25 24.882812 C 28.09375 23.199219 27.726562 21.425781 27.65625 19.722656 C 27.605469 19.488281 27.65625 19.277344 27.707031 19.066406 C 29.621094 18.703125 31.582031 18.550781 33.488281 18.09375 Z M 33.488281 18.09375 " fill-opacity="1" fill-rule="nonzero"/></g><path fill="#f5e8d8" d="M 58.859375 38.617188 L 58.878906 38.621094 L 58.871094 38.621094 Z M 58.859375 38.617188 " fill-opacity="1" fill-rule="nonzero"/><path fill="#f5e8d8" d="M 79.894531 47.519531 C 80.316406 47.28125 80.664062 46.929688 80.867188 46.492188 C 80.738281 46.386719 80.546875 46.339844 80.378906 46.296875 C 79.445312 46.082031 78.574219 46.636719 77.707031 46.90625 C 75.9375 47.550781 74.226562 48.324219 72.511719 49.09375 C 72.0625 49.164062 71.824219 49.9375 72.371094 50.046875 C 74.660156 49.464844 77.554688 48.296875 79.894531 47.519531 Z M 79.894531 47.519531 " fill-opacity="1" fill-rule="nonzero"/><path fill="#f5e8d8" d="M 67.183594 55.140625 C 67.132812 55.429688 67.261719 55.652344 67.519531 55.785156 C 67.628906 55.828125 67.742188 55.847656 67.851562 55.847656 C 68.320312 55.847656 68.785156 55.519531 69.238281 55.40625 C 72.683594 54.429688 76.226562 53.71875 79.527344 52.269531 C 81.136719 51.742188 82.699219 51.15625 84.292969 50.582031 C 85.664062 50.09375 87.09375 49.699219 88.285156 48.824219 C 86.269531 48.777344 84.378906 49.597656 82.371094 49.941406 C 80.160156 50.226562 77.925781 50.621094 75.847656 51.480469 C 73.691406 52.324219 71.4375 52.894531 69.265625 53.695312 C 68.539062 54.089844 67.382812 54.199219 67.183594 55.140625 Z M 67.183594 55.140625 " fill-opacity="1" fill-rule="nonzero"/></svg>