<svg xmlns="http://www.w3.org/2000/svg" xmlns:xlink="http://www.w3.org/1999/xlink" width="300" zoomAndPan="magnify" viewBox="0 0 224.87999 262.499992" height="350" preserveAspectRatio="xMidYMid meet" version="1.0"><defs><clipPath id="576bec32f6"><path d="M 7.351562 3.425781 L 217.703125 3.425781 L 217.703125 258.691406 L 7.351562 258.691406 Z M 7.351562 3.425781 " clip-rule="nonzero"/></clipPath></defs><g clip-path="url(#576bec32f6)"><path fill="#c86b46" d="M 123.917969 3.722656 C 126.382812 3.867188 129.363281 3.90625 130.503906 3.867188 C 131.644531 3.792969 135.105469 3.792969 138.230469 3.832031 C 141.324219 3.867188 148.867188 3.90625 154.972656 3.90625 C 161.082031 3.867188 168.957031 3.867188 172.488281 3.832031 C 176.019531 3.832031 180.179688 3.976562 181.722656 4.199219 C 183.269531 4.457031 188.273438 4.675781 192.835938 4.75 C 197.398438 4.789062 204.316406 4.675781 208.253906 4.492188 C 212.707031 4.273438 215.503906 4.273438 215.648438 4.492188 C 215.796875 4.675781 215.945312 11.300781 216.015625 19.136719 C 216.089844 28.742188 215.871094 38.785156 215.429688 49.640625 C 214.730469 65.464844 214.730469 66.050781 215.429688 74.699219 C 215.980469 81.910156 216.089844 86.179688 215.945312 97.84375 C 215.871094 105.71875 215.832031 114.804688 215.90625 118.007812 C 215.945312 121.207031 216.238281 126.285156 216.570312 129.300781 C 216.972656 133.238281 217.046875 136.882812 216.898438 142.476562 C 216.789062 146.742188 216.644531 161.058594 216.570312 174.304688 C 216.496094 187.550781 216.570312 201.789062 216.753906 205.945312 C 216.898438 210.066406 216.898438 219.414062 216.753906 226.664062 C 216.53125 237.1875 216.605469 241.195312 217.046875 246.605469 C 217.453125 251.242188 217.527344 253.855469 216.9375 256.394531 L 201.851562 256.355469 C 192.101562 256.355469 183.160156 256.097656 176.460938 255.695312 C 168.292969 255.179688 162.996094 255.070312 151.589844 255.253906 C 142.464844 255.398438 134.921875 255.289062 131.242188 255.03125 C 126.9375 254.738281 123.109375 254.738281 116.375 255.070312 C 111.410156 255.289062 101.914062 255.65625 95.292969 255.839844 C 88.667969 256.023438 80.28125 256.355469 76.636719 256.578125 C 73.03125 256.796875 68.210938 257.128906 65.929688 257.3125 C 63.648438 257.535156 59.304688 257.863281 56.328125 258.121094 C 52.242188 258.453125 50.070312 258.453125 47.640625 258.160156 C 45.875 257.902344 36.382812 257.644531 26.375 257.535156 C 16.441406 257.421875 8.199219 257.203125 8.050781 257.054688 C 7.902344 256.90625 7.941406 255.582031 8.125 254.148438 C 8.308594 252.675781 8.457031 249.363281 8.457031 246.789062 C 8.457031 244.214844 8.640625 240.386719 8.859375 238.328125 C 9.117188 235.933594 9.15625 232.253906 8.972656 228.355469 C 8.824219 224.933594 8.714844 221.4375 8.785156 220.628906 C 8.824219 219.78125 8.859375 203.847656 8.859375 185.230469 C 8.859375 166.574219 8.785156 148.621094 8.714844 145.308594 C 8.640625 141.996094 8.457031 136.917969 8.308594 134.011719 C 8.125 130.664062 8.160156 127.425781 8.417969 125.144531 C 8.640625 123.195312 8.859375 116.828125 8.898438 111.050781 C 8.933594 105.238281 8.785156 95.820312 8.566406 90.152344 C 8.34375 84.449219 7.976562 78.855469 7.792969 77.714844 C 7.574219 76.574219 7.390625 70.910156 7.390625 65.09375 C 7.351562 57.441406 7.535156 53.320312 7.976562 50.046875 C 8.382812 46.769531 8.492188 43.9375 8.34375 39.855469 C 8.234375 36.761719 8.273438 27.527344 8.417969 19.359375 C 8.675781 4.75 8.714844 4.457031 9.449219 4.53125 C 9.855469 4.605469 17.214844 4.824219 25.824219 5.046875 C 38.003906 5.414062 43.851562 5.375 52.351562 5.046875 C 58.386719 4.789062 70.824219 4.53125 80.058594 4.492188 C 89.257812 4.457031 99.007812 4.53125 101.695312 4.675781 C 104.933594 4.863281 108.6875 4.75 112.808594 4.417969 C 116.230469 4.125 119.097656 3.757812 119.210938 3.648438 C 119.320312 3.535156 121.417969 3.574219 123.917969 3.722656 Z M 82.671875 6.8125 C 66.40625 6.921875 43.558594 6.996094 31.859375 6.957031 L 10.554688 6.886719 C 10.554688 12.882812 10.515625 20.648438 10.515625 28.003906 C 10.480469 35.363281 10.40625 42.90625 10.40625 44.746094 C 10.367188 46.625 10.183594 49.164062 9.964844 50.414062 C 9.78125 51.664062 9.523438 57.332031 9.414062 63.035156 C 9.226562 71.867188 9.300781 74 9.890625 77.53125 C 10.332031 80.21875 10.589844 83.898438 10.625 88.054688 C 10.625 91.585938 10.773438 99.71875 10.957031 106.160156 C 11.179688 116.019531 11.105469 118.890625 10.554688 124.777344 C 9.964844 130.738281 9.925781 132.394531 10.332031 136.257812 C 10.554688 138.757812 10.847656 147.738281 10.996094 156.238281 C 11.105469 164.699219 11.140625 180.558594 11.105469 191.449219 C 11.03125 202.304688 10.957031 217.648438 10.882812 225.523438 C 10.847656 233.394531 10.664062 243.292969 10.480469 247.5625 C 10.296875 251.792969 10.148438 255.289062 10.183594 255.363281 C 10.183594 255.398438 19.089844 255.546875 29.945312 255.695312 C 40.835938 255.804688 52.09375 255.878906 55 255.839844 C 57.910156 255.804688 62.984375 255.546875 66.296875 255.253906 C 69.609375 254.957031 79.101562 254.441406 87.382812 254.113281 C 95.660156 253.78125 107.175781 253.339844 112.992188 253.082031 C 119.210938 252.824219 125.683594 252.75 128.8125 252.898438 C 131.71875 253.082031 143.492188 253.265625 154.972656 253.339844 C 166.492188 253.414062 178.597656 253.632812 181.90625 253.890625 C 185.21875 254.113281 194.125 254.296875 201.667969 254.296875 L 215.429688 254.332031 C 214.914062 246.605469 214.65625 228.320312 214.546875 208.742188 C 214.433594 189.167969 214.363281 171.210938 214.363281 168.859375 C 214.363281 166.464844 214.507812 157.636719 214.65625 149.246094 C 214.875 137.25 214.839844 133.054688 214.433594 129.488281 C 214.03125 126.066406 213.957031 120.214844 214.03125 105.019531 C 214.140625 88.863281 214.03125 83.601562 213.550781 77.53125 C 213.183594 73.375 212.890625 67.265625 212.890625 63.953125 C 212.851562 60.644531 213.074219 53.871094 213.332031 48.90625 C 213.589844 43.9375 213.882812 32.3125 213.992188 23.113281 L 214.175781 6.332031 C 200.269531 6.8125 194.527344 6.957031 192.429688 6.921875 C 190.371094 6.921875 186.46875 6.703125 183.785156 6.480469 C 180.878906 6.222656 167.226562 6.039062 150.082031 6.039062 C 134.257812 6.003906 119.246094 6.113281 116.742188 6.257812 C 114.277344 6.445312 98.933594 6.664062 82.671875 6.8125 Z M 82.671875 6.8125 " fill-opacity="1" fill-rule="evenodd"/></g></svg>