<svg xmlns="http://www.w3.org/2000/svg" xmlns:xlink="http://www.w3.org/1999/xlink" width="1366" zoomAndPan="magnify" viewBox="0 0 1024.5 576" height="768" preserveAspectRatio="xMidYMid meet" version="1.0"><defs><clipPath id="7b812360cf"><path d="M 245.230469 21.230469 L 778.972656 21.230469 L 778.972656 554.972656 L 245.230469 554.972656 Z M 245.230469 21.230469 " clip-rule="nonzero"/></clipPath></defs><g clip-path="url(#7b812360cf)"><path fill="#FFFFFF" d="M 280.8125 537.179688 C 280.746094 537.179688 280.675781 537.179688 280.605469 537.144531 L 496.222656 373.480469 C 505.570312 366.355469 518.632812 366.355469 527.980469 373.445312 L 743.632812 537.144531 C 743.527344 537.179688 743.457031 537.179688 743.386719 537.179688 Z M 307.5 175.480469 L 307.5 229.304688 L 270.703125 200.707031 C 270.703125 200.707031 270.703125 200.707031 270.703125 200.671875 Z M 264.691406 526.894531 C 263.648438 524.671875 263.023438 522.167969 263.023438 519.5625 L 263.023438 217.285156 L 465.46875 374.488281 Z M 334.1875 39.023438 L 690.015625 39.023438 C 694.914062 39.023438 698.910156 43.019531 698.910156 47.917969 L 698.910156 243.136719 L 544.070312 363.332031 L 538.71875 359.300781 C 523.046875 347.382812 501.15625 347.382812 485.449219 359.300781 L 480.132812 363.332031 L 325.292969 243.136719 L 325.292969 47.917969 C 325.292969 43.019531 329.289062 39.023438 334.1875 39.023438 Z M 753.535156 200.707031 L 716.703125 229.304688 L 716.703125 175.480469 Z M 759.511719 526.894531 L 558.734375 374.488281 L 761.179688 217.285156 L 761.179688 519.5625 C 761.179688 522.167969 760.554688 524.671875 759.511719 526.894531 Z M 763.542969 186.042969 L 716.703125 153.902344 L 716.703125 47.917969 C 716.703125 33.183594 704.746094 21.230469 690.015625 21.230469 L 334.1875 21.230469 C 319.453125 21.230469 307.5 33.183594 307.5 47.917969 L 307.5 153.902344 L 260.730469 185.976562 C 251.035156 192.507812 245.230469 203.417969 245.230469 215.164062 L 245.230469 519.5625 C 245.230469 539.089844 261.179688 554.972656 280.8125 554.972656 L 743.386719 554.972656 C 763.019531 554.972656 778.972656 539.089844 778.972656 519.5625 L 778.972656 215.164062 C 778.972656 203.417969 773.167969 192.507812 763.542969 186.042969 " fill-opacity="1" fill-rule="nonzero"/></g><path fill="#FFFFFF" d="M 552.132812 181.351562 C 560.261719 181.351562 566.933594 175.757812 568.394531 167.730469 L 583.128906 85.066406 C 583.996094 80.234375 580.765625 75.613281 575.933594 74.746094 C 571.105469 73.875 566.484375 77.105469 565.613281 81.9375 L 552.132812 157.515625 L 538.648438 81.9375 C 537.816406 77.105469 533.160156 73.875 528.328125 74.746094 C 523.5 75.613281 520.265625 80.234375 521.136719 85.066406 L 535.871094 167.730469 C 537.328125 175.757812 544 181.351562 552.132812 181.351562 " fill-opacity="1" fill-rule="nonzero"/><path fill="#FFFFFF" d="M 472.070312 136.875 C 479.4375 136.875 485.414062 142.851562 485.414062 150.21875 C 485.414062 157.585938 479.4375 163.5625 472.070312 163.5625 C 465.746094 163.5625 460.257812 159.078125 459.003906 152.894531 C 457.996094 148.097656 453.339844 145.039062 448.511719 145.945312 C 443.679688 146.917969 440.589844 151.609375 441.5625 156.4375 C 444.480469 170.894531 457.335938 181.351562 472.070312 181.351562 C 489.238281 181.351562 503.207031 167.382812 503.207031 150.21875 C 503.207031 133.050781 489.238281 119.082031 472.070312 119.082031 C 464.703125 119.082031 458.726562 113.105469 458.726562 105.742188 C 458.726562 98.375 464.703125 92.398438 472.070312 92.398438 C 478.394531 92.398438 483.886719 96.878906 485.136719 103.066406 C 486.144531 107.859375 490.765625 110.953125 495.628906 110.015625 C 500.460938 109.042969 503.554688 104.351562 502.582031 99.519531 C 499.660156 85.066406 486.804688 74.605469 472.070312 74.605469 C 454.90625 74.605469 440.9375 88.574219 440.9375 105.742188 C 440.9375 122.90625 454.90625 136.875 472.070312 136.875 " fill-opacity="1" fill-rule="nonzero"/><path fill="#FFFFFF" d="M 378.667969 92.398438 L 392.011719 92.398438 C 399.375 92.398438 405.351562 98.375 405.351562 105.742188 C 405.351562 113.105469 399.375 119.082031 392.011719 119.082031 L 378.667969 119.082031 Z M 369.769531 181.351562 C 374.671875 181.351562 378.667969 177.355469 378.667969 172.457031 L 378.667969 136.875 L 387.5625 136.875 C 397.359375 136.875 405.351562 144.867188 405.351562 154.667969 L 405.351562 172.457031 C 405.351562 177.355469 409.347656 181.351562 414.25 181.351562 C 419.148438 181.351562 423.144531 177.355469 423.144531 172.457031 L 423.144531 154.667969 C 423.144531 144.660156 418.976562 135.625 412.304688 129.160156 C 418.871094 123.460938 423.144531 115.121094 423.144531 105.742188 C 423.144531 88.574219 409.175781 74.605469 392.011719 74.605469 L 369.769531 74.605469 C 364.871094 74.605469 360.875 78.601562 360.875 83.5 L 360.875 172.457031 C 360.875 177.355469 364.871094 181.351562 369.769531 181.351562 " fill-opacity="1" fill-rule="nonzero"/><path fill="#FFFFFF" d="M 618.847656 92.398438 L 632.191406 92.398438 C 639.558594 92.398438 645.535156 98.375 645.535156 105.742188 C 645.535156 113.105469 639.558594 119.082031 632.191406 119.082031 L 618.847656 119.082031 Z M 609.953125 181.351562 C 614.851562 181.351562 618.847656 177.355469 618.847656 172.457031 L 618.847656 136.875 L 632.191406 136.875 C 649.359375 136.875 663.328125 122.90625 663.328125 105.742188 C 663.328125 88.574219 649.359375 74.605469 632.191406 74.605469 L 609.953125 74.605469 C 605.054688 74.605469 601.058594 78.601562 601.058594 83.5 L 601.058594 172.457031 C 601.058594 177.355469 605.054688 181.351562 609.953125 181.351562 " fill-opacity="1" fill-rule="nonzero"/><path fill="#FFFFFF" d="M 369.769531 225.832031 L 654.433594 225.832031 C 659.332031 225.832031 663.328125 221.835938 663.328125 216.9375 C 663.328125 212.035156 659.332031 208.039062 654.433594 208.039062 L 369.769531 208.039062 C 364.871094 208.039062 360.875 212.035156 360.875 216.9375 C 360.875 221.835938 364.871094 225.832031 369.769531 225.832031 " fill-opacity="1" fill-rule="nonzero"/><path fill="#FFFFFF" d="M 601.058594 252.519531 L 423.144531 252.519531 C 418.246094 252.519531 414.25 256.515625 414.25 261.414062 C 414.25 266.3125 418.246094 270.308594 423.144531 270.308594 L 601.058594 270.308594 C 605.957031 270.308594 609.953125 266.3125 609.953125 261.414062 C 609.953125 256.515625 605.957031 252.519531 601.058594 252.519531 " fill-opacity="1" fill-rule="nonzero"/></svg>